<svg width="610" height="237" fill="none" xmlns="http://www.w3.org/2000/svg"><path d="M609 237V91.342c-1.791 0-3.326-13.744-5.118-13.744-1.791 0-3.326-13.393-5.117-13.393s-3.327 12.856-5.118 12.856c-1.791 0-3.326-8.748-5.118-8.748-1.791 0-3.326 7.7-5.117 7.7s-3.327.216-5.118.216c-1.791 0-3.326 12.23-5.118 12.23-1.791 0-3.326 15.116-5.117 15.116s-3.327-4.792-5.118-4.792c-1.791 0-3.326-13.204-5.117-13.204-1.792 0-3.327-14.803-5.118-14.803-1.791 0-3.327-13.53-5.118-13.53-1.791 0-3.326-14.982-5.117-14.982-1.792 0-3.327-13.847-5.118-13.847-1.791 0-3.327-16.758-5.118-16.758-1.791 0-3.326 18.61-5.117 18.61-1.792 0-3.327-14.85-5.118-14.85-1.791 0-3.326 9.373-5.118 9.373-1.791 0-3.326 17.782-5.117 17.782s-3.327-7.451-5.118-7.451c-1.791 0-3.326-15.682-5.118-15.682-1.791 0-3.326 15.282-5.117 15.282s-3.327-14.35-5.118-14.35c-1.791 0-3.326-5.974-5.118-5.974-1.791 0-3.326 15.556-5.117 15.556s-3.327 5.017-5.118 5.017c-1.791 0-3.326 19.337-5.117 19.337-1.792 0-3.327-16.771-5.118-16.771-1.791 0-3.327-17.336-5.118-17.336-1.791 0-3.326-19.202-5.117-19.202-1.792 0-3.327 9.968-5.118 9.968-1.791 0-3.327-9.193-5.118-9.193-1.791 0-3.326 1.984-5.117 1.984-1.792 0-3.327 19.507-5.118 19.507-1.791 0-3.326 6.232-5.118 6.232-1.791 0-3.326 8.3-5.117 8.3s-3.327 15.287-5.118 15.287c-1.791 0-3.326 9.637-5.118 9.637-1.791 0-3.326 18.583-5.117 18.583s-3.327-1.453-5.118-1.453c-1.791 0-3.326 15.29-5.118 15.29-1.791 0-3.326-5.868-5.117-5.868s-3.327-.087-5.118-.087c-1.791 0-3.326 10.704-5.117 10.704-1.792 0-3.327 9.22-5.118 9.22-1.791 0-3.327 1.351-5.118 1.351-1.791 0-3.326 17.129-5.117 17.129-1.792 0-3.327 13.948-5.118 13.948-1.791 0-3.327 17.587-5.118 17.587-1.791 0-3.326-1.421-5.117-1.421-1.792 0-3.327 6.542-5.118 6.542-1.791 0-3.326-13.153-5.118-13.153-1.791 0-3.326-15.238-5.117-15.238s-3.327-11.448-5.118-11.448c-1.791 0-3.326 1.406-5.118 1.406-1.791 0-3.326-12.182-5.117-12.182s-3.327 6.078-5.118 6.078c-1.791 0-3.326 16.87-5.118 16.87-1.791 0-3.326-4.539-5.117-4.539s-3.327 13.111-5.118 13.111c-1.791 0-3.326-6.121-5.117-6.121-1.792 0-3.327-.881-5.118-.881-1.791 0-3.327 5.012-5.118 5.012-1.791 0-3.326 19.058-5.117 19.058-1.792 0-3.327-10.067-5.118-10.067-1.791 0-3.327.672-5.118.672-1.791 0-3.326 2.693-5.117 2.693s-3.327-18.923-5.118-18.923c-1.791 0-3.326-13.65-5.118-13.65-1.791 0-3.326 12.754-5.117 12.754s-3.327-18.098-5.118-18.098c-1.791 0-3.326 7.776-5.118 7.776-1.791 0-3.326-2.715-5.117-2.715s-3.327-6.801-5.118-6.801c-1.791 0-3.326-15-5.117-15-1.792 0-3.327 17.394-5.118 17.394-1.791 0-3.327 18.752-5.118 18.752-1.791 0-3.326-2.802-5.117-2.802-1.792 0-3.327-6.237-5.118-6.237-1.791 0-3.327-13.253-5.118-13.253-1.791 0-3.326 8.919-5.117 8.919-1.792 0-3.327-13.214-5.118-13.214-1.791 0-3.327 16.133-5.118 16.133-1.791 0-3.326 15.119-5.117 15.119S175.791 136.2 174 136.2c-1.791 0-3.326 4.378-5.118 4.378-1.791 0-3.326-.281-5.117-.281s-3.327 5.662-5.118 5.662c-1.791 0-3.326 12.407-5.118 12.407-1.791 0-3.326-1.017-5.117-1.017s-3.327 6.842-5.118 6.842c-1.791 0-3.326 15.984-5.117 15.984-1.792 0-3.327 5.516-5.118 5.516-1.791 0-3.327 19.755-5.118 19.755-1.791 0-3.326-19.684-5.117-19.684-1.792 0-3.327-2.879-5.118-2.879-1.791 0-3.327-17.122-5.118-17.122-1.791 0-3.326-6.943-5.117-6.943-1.792 0-3.327 2.309-5.118 2.309-1.791 0-3.326 18.466-5.118 18.466-1.79 0-3.326 16.029-5.117 16.029s-3.327-5.304-5.118-5.304c-1.791 0-3.326 8.312-5.118 8.312-1.79 0-3.326-2.682-5.117-2.682s-3.327-5.363-5.118-5.363c-1.791 0-3.326-11.708-5.118-11.708-1.79 0-3.326-8.398-5.117-8.398s-3.327-12.583-5.118-12.583c-1.791 0-3.326 4.412-5.117 4.412-1.792 0-3.327-15.779-5.118-15.779-1.791 0-3.327 8.931-5.118 8.931-1.791 0-3.326-18.934-5.117-18.934-1.792 0-3.327 5.017-5.118 5.017-1.791 0-3.326.023-5.118.023-1.79 0-3.326 13.614-5.117 13.614-1.792 0-3.327-17.497-5.118-17.497-1.791 0-3.326-7.222-5.118-7.222-1.79 0-3.326 2.918-5.117 2.918s-3.327.393-5.118.393V237h609Z" fill="url(#a)"/><path d="M609 91.342c-1.791 0-3.326-13.744-5.118-13.744-1.791 0-3.326-13.393-5.117-13.393s-3.327 12.856-5.118 12.856c-1.791 0-3.326-8.748-5.118-8.748-1.791 0-3.326 7.7-5.117 7.7s-3.327.216-5.118.216c-1.791 0-3.326 12.23-5.118 12.23-1.791 0-3.326 15.116-5.117 15.116s-3.327-4.792-5.118-4.792c-1.791 0-3.326-13.204-5.117-13.204-1.792 0-3.327-14.803-5.118-14.803-1.791 0-3.327-13.53-5.118-13.53-1.791 0-3.326-14.982-5.117-14.982-1.792 0-3.327-13.847-5.118-13.847-1.791 0-3.327-16.758-5.118-16.758-1.791 0-3.326 18.61-5.117 18.61-1.792 0-3.327-14.85-5.118-14.85-1.791 0-3.326 9.373-5.118 9.373-1.791 0-3.326 17.782-5.117 17.782s-3.327-7.451-5.118-7.451c-1.791 0-3.326-15.682-5.118-15.682-1.791 0-3.326 15.282-5.117 15.282s-3.327-14.35-5.118-14.35c-1.791 0-3.326-5.974-5.118-5.974-1.791 0-3.326 15.556-5.117 15.556s-3.327 5.017-5.118 5.017c-1.791 0-3.326 19.337-5.117 19.337-1.792 0-3.327-16.771-5.118-16.771-1.791 0-3.327-17.336-5.118-17.336-1.791 0-3.326-19.202-5.117-19.202-1.792 0-3.327 9.968-5.118 9.968-1.791 0-3.327-9.193-5.118-9.193-1.791 0-3.326 1.984-5.117 1.984-1.792 0-3.327 19.507-5.118 19.507-1.791 0-3.326 6.232-5.118 6.232-1.791 0-3.326 8.3-5.117 8.3s-3.327 15.287-5.118 15.287c-1.791 0-3.326 9.637-5.118 9.637-1.791 0-3.326 18.584-5.117 18.584s-3.327-1.453-5.118-1.453c-1.791 0-3.326 15.29-5.118 15.29-1.791 0-3.326-5.869-5.117-5.869s-3.327-.087-5.118-.087c-1.791 0-3.326 10.704-5.117 10.704-1.792 0-3.327 9.22-5.118 9.22-1.791 0-3.327 1.351-5.118 1.351-1.791 0-3.326 17.129-5.117 17.129-1.792 0-3.327 13.948-5.118 13.948-1.791 0-3.327 17.587-5.118 17.587-1.791 0-3.326-1.421-5.117-1.421-1.792 0-3.327 6.542-5.118 6.542-1.791 0-3.326-13.153-5.118-13.153-1.791 0-3.326-15.238-5.117-15.238s-3.327-11.448-5.118-11.448c-1.791 0-3.326 1.406-5.118 1.406-1.791 0-3.326-12.182-5.117-12.182s-3.327 6.078-5.118 6.078c-1.791 0-3.326 16.87-5.118 16.87-1.791 0-3.326-4.539-5.117-4.539s-3.327 13.111-5.118 13.111c-1.791 0-3.326-6.121-5.117-6.121-1.792 0-3.327-.881-5.118-.881-1.791 0-3.327 5.012-5.118 5.012-1.791 0-3.326 19.058-5.117 19.058-1.792 0-3.327-10.067-5.118-10.067-1.791 0-3.327.672-5.118.672-1.791 0-3.326 2.693-5.117 2.693-1.792 0-3.327-18.923-5.118-18.923-1.791 0-3.326-13.65-5.118-13.65-1.791 0-3.326 12.754-5.117 12.754s-3.327-18.098-5.118-18.098c-1.791 0-3.326 7.776-5.118 7.776-1.791 0-3.326-2.715-5.117-2.715s-3.327-6.801-5.118-6.801c-1.791 0-3.326-15-5.117-15-1.792 0-3.327 17.394-5.118 17.394-1.791 0-3.327 18.752-5.118 18.752-1.791 0-3.326-2.802-5.117-2.802-1.792 0-3.327-6.237-5.118-6.237-1.791 0-3.327-13.253-5.118-13.253-1.791 0-3.326 8.919-5.117 8.919-1.792 0-3.327-13.214-5.118-13.214-1.791 0-3.327 16.133-5.118 16.133-1.791 0-3.326 15.119-5.117 15.119-1.792 0-3.327-5.472-5.118-5.472-1.791 0-3.326 4.378-5.118 4.378-1.791 0-3.326-.281-5.117-.281s-3.327 5.662-5.118 5.662c-1.791 0-3.326 12.407-5.118 12.407-1.791 0-3.326-1.017-5.117-1.017s-3.327 6.842-5.118 6.842c-1.791 0-3.326 15.984-5.117 15.984-1.792 0-3.327 5.516-5.118 5.516-1.791 0-3.327 19.755-5.118 19.755-1.791 0-3.326-19.684-5.117-19.684-1.792 0-3.327-2.879-5.118-2.879-1.791 0-3.327-17.122-5.118-17.122-1.791 0-3.326-6.943-5.117-6.943-1.792 0-3.327 2.309-5.118 2.309-1.791 0-3.326 18.466-5.118 18.466-1.79 0-3.326 16.029-5.117 16.029s-3.327-5.304-5.118-5.304c-1.791 0-3.326 8.312-5.118 8.312-1.79 0-3.326-2.682-5.117-2.682s-3.327-5.363-5.118-5.363c-1.791 0-3.326-11.708-5.118-11.708-1.79 0-3.326-8.398-5.117-8.398s-3.327-12.583-5.118-12.583c-1.791 0-3.326 4.412-5.117 4.412-1.792 0-3.327-15.779-5.118-15.779-1.791 0-3.327 8.931-5.118 8.931-1.791 0-3.326-18.934-5.117-18.934-1.792 0-3.327 5.017-5.118 5.017-1.791 0-3.326.023-5.118.023-1.79 0-3.326 13.614-5.117 13.614-1.792 0-3.327-17.497-5.118-17.497-1.791 0-3.326-7.222-5.118-7.222-1.79 0-3.326 2.918-5.117 2.918s-3.327.393-5.118.393" stroke="#008FFB" stroke-width="2"/><defs><linearGradient id="a" x1="609" y1="1" x2="609" y2="237" gradientUnits="userSpaceOnUse"><stop stop-color="#008FFB" stop-opacity=".25"/><stop offset=".9" stop-color="#fff" stop-opacity="0"/><stop offset="1" stop-color="#fff" stop-opacity="0"/></linearGradient></defs></svg>