<svg width="350" height="459" fill="none" xmlns="http://www.w3.org/2000/svg"><path d="M174.792 106.393c-67.518 0-122.192 53.878-122.192 120.374s54.674 120.374 122.192 120.374c67.519 0 122.193-53.878 122.193-120.374 0-66.382-54.674-120.374-122.193-120.374Zm0 238.702c-66.382 0-120.146-52.969-120.146-118.328 0-65.359 53.764-118.328 120.146-118.328s120.147 52.969 120.147 118.328c0 65.359-53.765 118.328-120.147 118.328Z" fill="#ED1C24"/><path d="M175.816 42.512h-2.046v64.904h2.046V42.512ZM175.816 346.686h-2.046v64.904h2.046v-64.904ZM90.905 141.743l-1.477 1.478-45.922-45.922 1.477-1.477 45.922 45.921ZM306.077 356.916l-1.478 1.364-45.921-45.921 1.477-1.364 45.922 45.921ZM258.678 141.743l1.477 1.478 45.922-45.922-1.478-1.477-45.921 45.921ZM43.506 356.916l1.477 1.364 45.922-45.921-1.477-1.364-45.922 45.921Z" fill="#ED1C24"/><path d="M15.089 332.25c-15.686 15.686-15.686 41.034 0 56.72s41.034 15.686 56.72 0 15.686-41.034 0-56.72-41.148-15.686-56.72 0Z" fill="#ED1C24"/><path d="M12.702 329.977c-16.936 16.936-16.936 44.444 0 61.38 16.937 16.937 44.444 16.937 61.38 0 16.937-16.936 16.937-44.444 0-61.38-16.936-16.937-44.443-16.937-61.38 0Zm1.137 1.136c16.255-16.254 42.739-16.254 58.993 0 16.255 16.255 16.255 42.739 0 58.994-16.254 16.254-42.738 16.254-58.993 0-16.254-16.255-16.254-42.739 0-58.994Z" fill="#ED1C24"/><path d="M16.567 333.841c-14.777 14.777-14.777 38.761 0 53.651 14.777 14.777 38.76 14.777 53.651 0 14.777-14.776 14.777-38.874 0-53.651-14.777-14.776-38.874-14.776-53.651 0Z" fill="#F2F2F2"/><path d="M30.32 379.536h-6.252v-18.414l6.252-2.728v21.142ZM40.21 379.536h-6.366v-21.142l6.365-2.728v23.87ZM49.984 379.536H43.62v-23.87l6.365-2.728v26.598ZM59.873 379.536h-6.365v-26.599l6.365-2.728v29.327ZM26.229 356.234s17.959-2.046 29.326-10.912l1.818 2.16 3.638-8.525-9.435.909 1.82 2.501c-.115.113-9.663 9.32-27.168 13.867ZM71.696 69.45c15.686 15.687 15.686 41.035 0 56.721s-41.034 15.686-56.72 0c-15.687-15.686-15.687-41.034 0-56.72 15.686-15.686 41.147-15.686 56.72 0Z" fill="#ED1C24"/><path d="M12.702 67.177c-16.936 16.937-16.936 44.444 0 61.381 16.937 16.936 44.444 16.936 61.38 0 16.937-16.937 16.937-44.444 0-61.38-16.936-16.937-44.443-16.937-61.38 0Zm60.244 60.131c-16.254 16.254-42.739 16.254-58.993 0-16.255-16.255-16.255-42.74 0-58.994 16.254-16.254 42.739-16.254 58.993 0 16.255 16.255 16.255 42.739 0 58.994Z" fill="#ED1C24"/><path d="M70.218 71.042c14.777 14.777 14.777 38.761 0 53.651-14.777 14.777-38.76 14.777-53.651 0-14.777-14.776-14.777-38.874 0-53.65 14.777-14.891 38.874-14.891 53.651 0Z" fill="#F2F2F2"/><path d="M27.477 92.64c0-3.297 2.729-6.025 6.025-6.025h5.91v-.455a2.814 2.814 0 0 0-2.841-2.842H20.316a2.814 2.814 0 0 0-2.841 2.842v11.935c0 .682-1.592 3.069-2.615 3.979-.568.568 4.547-1.137 5.343-1.137h7.16v-8.298h.114Z" fill="#ED1C24"/><path d="M68.625 118.328c-1.478-1.478-4.092-5.229-4.092-6.366V92.639a4.56 4.56 0 0 0-4.547-4.547H33.502a4.56 4.56 0 0 0-4.547 4.547v19.21a4.56 4.56 0 0 0 4.547 4.547h26.37c1.365 0 9.549 2.841 8.753 1.932Zm-30.463-13.299a2.523 2.523 0 0 1-2.5-2.501 2.523 2.523 0 0 1 2.5-2.501c1.364 0 2.5 1.137 2.5 2.501a2.523 2.523 0 0 1-2.5 2.501Zm8.525 0a2.523 2.523 0 0 1-2.5-2.501 2.523 2.523 0 0 1 2.5-2.501c1.364 0 2.5 1.137 2.5 2.501a2.523 2.523 0 0 1-2.5 2.501Zm8.525 0a2.523 2.523 0 0 1-2.5-2.501 2.523 2.523 0 0 1 2.5-2.501c1.364 0 2.501 1.137 2.501 2.501.114 1.364-1.023 2.501-2.5 2.501ZM277.888 69.45c-15.686 15.687-15.686 41.035 0 56.721s41.034 15.686 56.72 0 15.686-41.034 0-56.72-41.034-15.686-56.72 0Z" fill="#ED1C24"/><path d="M275.501 67.177c-16.936 16.937-16.936 44.444 0 61.381 16.937 16.936 44.444 16.936 61.381 0 16.936-16.937 16.936-44.444 0-61.38-16.937-16.937-44.444-16.937-61.381 0Zm1.251 1.137c16.254-16.254 42.739-16.254 58.993 0 16.254 16.255 16.254 42.739 0 58.994-16.254 16.254-42.739 16.254-58.993 0-16.369-16.255-16.369-42.74 0-58.994Z" fill="#ED1C24"/><path d="M279.366 71.042c-14.777 14.777-14.777 38.761 0 53.651 14.777 14.777 38.76 14.777 53.651 0 14.777-14.776 14.777-38.874 0-53.65-14.777-14.891-38.761-14.891-53.651 0Z" fill="#F2F2F2"/><path d="M315.058 74.793h-27.394a2.815 2.815 0 0 0-2.842 2.842v42.057a2.815 2.815 0 0 0 2.842 2.842h27.394a2.815 2.815 0 0 0 2.842-2.842V77.635a2.815 2.815 0 0 0-2.842-2.842Zm-21.256 35.919h-4.774v-4.319h4.774v4.319Zm0-7.502h-4.774v-4.319h4.774v4.319Zm0-7.388h-4.774v-4.32h4.774v4.32Zm0-7.502h-4.774V84h4.774v4.32Zm20.46 22.392h-19.323v-4.319h19.323v4.319Zm0-7.502h-19.323v-4.319h19.323v4.319Zm0-7.388h-19.323v-4.32h19.323v4.32Zm0-7.502h-19.323V84h19.323v4.32ZM326.767 78.204h-6.593v35.691h6.593V78.204ZM320.287 115.146l3.183 6.138 3.182-6.138h-6.365ZM326.198 76.84c0-1.478-1.25-2.615-2.728-2.615-1.477 0-2.614 1.137-2.728 2.614h5.456ZM329.039 81.84h-1.137v19.779h1.137V81.841Z" fill="#ED1C24"/><path d="M329.04 81.613h-6.138v1.933h6.138v-1.933ZM214.917 43.421c0 22.165-17.959 40.125-40.124 40.125-22.166 0-40.125-17.96-40.125-40.125s17.959-40.125 40.125-40.125c22.165 0 40.124 17.96 40.124 40.125Z" fill="#ED1C24"/><path d="M174.792 0c-23.984 0-43.421 19.437-43.421 43.421 0 23.984 19.437 43.421 43.421 43.421 23.984 0 43.421-19.437 43.421-43.421C218.213 19.437 198.776 0 174.792 0Zm0 85.137c-23.074 0-41.716-18.641-41.716-41.716 0-23.075 18.642-41.716 41.716-41.716 23.075 0 41.716 18.642 41.716 41.716 0 22.96-18.641 41.716-41.716 41.716Z" fill="#ED1C24"/><path d="M212.756 43.421c0 20.915-16.936 37.965-37.965 37.965-20.915 0-37.965-16.936-37.965-37.965 0-20.915 16.937-37.965 37.965-37.965 20.915 0 37.965 16.936 37.965 37.965Z" fill="#F2F2F2"/><path d="M202.298 24.893h-54.447a2.28 2.28 0 0 0-2.273 2.273v32.282a2.28 2.28 0 0 0 2.273 2.273h54.447a2.28 2.28 0 0 0 2.274-2.273V27.166a2.28 2.28 0 0 0-2.274-2.273Zm1.137 34.555c0 .568-.455 1.137-1.137 1.137h-54.447a1.139 1.139 0 0 1-1.136-1.137V27.166c0-.568.454-1.136 1.136-1.136h54.447c.569 0 1.137.454 1.137 1.136v32.282Z" fill="#ED1C24"/><path d="M199.229 27.166h-48.308a3.056 3.056 0 0 1-3.069 3.07v26.257c1.705 0 2.955 1.364 3.069 2.955h48.308c0-1.705 1.364-2.955 3.069-2.955V30.235a3.056 3.056 0 0 1-3.069-3.069Zm-24.097 26.599a10.43 10.43 0 0 1-10.458-10.458 10.43 10.43 0 0 1 10.458-10.457 10.43 10.43 0 0 1 10.457 10.457c-.113 5.797-4.774 10.458-10.457 10.458Z" fill="#ED1C24"/><path d="M176.496 37.851a6.583 6.583 0 0 1 1.591.569c.455.227.796.568 1.137.795.341.341.568.568.682.91.114.34.227.681.227.909 0 .114 0 .227-.113.227-.114.114-.114.114-.228.114h-3.296c-.114 0-.228 0-.341-.114-.114 0-.228-.114-.341-.227 0 0-.114-.114-.341-.227-.114-.114-.341-.114-.569-.114-.341 0-.454 0-.568.114-.114.113-.227.227-.227.34 0 .114 0 .114.113.228 0 .114.114.114.228.227.113.114.341.114.568.114.227 0 .568.114.909.114.796.113 1.478.227 2.16.454.568.228 1.023.455 1.364.682.341.341.682.682.796 1.023.114.455.227.91.227 1.364 0 .455-.113 1.023-.341 1.364-.227.455-.454.796-.795 1.137-.341.34-.796.568-1.251.796-.455.227-1.023.34-1.591.454v1.137c0 .114 0 .227-.114.341-.114.114-.227.114-.341.114h-2.046c-.114 0-.227 0-.341-.114-.114-.114-.114-.227-.114-.341v-1.137c-.682-.113-1.25-.227-1.705-.454-.454-.228-.909-.455-1.25-.796-.341-.341-.568-.682-.682-1.023-.114-.341-.227-.796-.227-1.137 0-.113 0-.227.113-.227.114-.114.114-.114.228-.114h3.182c.228 0 .341 0 .341.114.114 0 .228.114.341.227a.87.87 0 0 0 .569.228c.227.113.454.113.682.113.341 0 .682 0 .909-.113.227-.114.341-.228.341-.341 0-.228-.114-.341-.455-.455-.341-.114-.909-.227-1.705-.341-.682-.114-1.25-.227-1.818-.455-.569-.227-1.023-.454-1.364-.682-.341-.34-.682-.682-.796-1.023a3.15 3.15 0 0 1-.341-1.477c0-.455.114-.91.227-1.365.114-.454.455-.795.796-1.136.341-.341.682-.569 1.137-.796.454-.227.909-.34 1.477-.454V36.26c0-.114 0-.227.114-.341.114-.114.227-.114.341-.114h2.046c.114 0 .227 0 .341.114.114.114.114.227.114.34v1.592ZM214.917 415.114c0 22.165-17.959 40.125-40.124 40.125-22.166 0-40.125-17.96-40.125-40.125s17.959-40.125 40.125-40.125c22.165 0 40.124 17.96 40.124 40.125Z" fill="#ED1C24"/><path d="M174.792 371.693c-23.984 0-43.421 19.437-43.421 43.421 0 23.984 19.437 43.421 43.421 43.421 23.984 0 43.421-19.437 43.421-43.421 0-23.984-19.437-43.421-43.421-43.421Zm0 85.137c-23.074 0-41.716-18.642-41.716-41.716 0-23.075 18.642-41.716 41.716-41.716 23.075 0 41.716 18.641 41.716 41.716 0 23.074-18.641 41.716-41.716 41.716Z" fill="#ED1C24"/><path d="M212.756 415.114c0 20.915-16.936 37.965-37.965 37.965-20.915 0-37.965-16.937-37.965-37.965 0-21.029 16.937-37.965 37.965-37.965 20.915 0 37.965 16.936 37.965 37.965Z" fill="#F2F2F2"/><path d="M179.906 420.001v4.32h-8.184v-4.547l-18.187-13.072v26.485c0 .795.682 1.364 1.364 1.364h41.83c.796 0 1.364-.682 1.364-1.364v-26.258l-18.187 13.072ZM166.721 398.064a5.655 5.655 0 0 1 5.683-5.456h6.934a5.654 5.654 0 0 1 5.683 5.456h2.388c-.114-4.433-3.752-7.957-8.071-7.957h-6.934c-4.433 0-7.956 3.524-8.07 7.957h2.387Z" fill="#ED1C24"/><path d="M196.729 399.087h-41.83c-.796 0-1.364.682-1.364 1.364v4.319l18.187 13.072v-.568h8.184v.909l18.187-13.072v-4.546c.113-.91-.569-1.478-1.364-1.478ZM334.608 332.25c15.686 15.686 15.686 41.034 0 56.72s-41.034 15.686-56.72 0-15.686-41.034 0-56.72 41.034-15.686 56.72 0Z" fill="#ED1C24"/><path d="M275.501 329.977c-16.936 16.936-16.936 44.444 0 61.38 16.937 16.937 44.444 16.937 61.381 0 16.936-16.936 16.936-44.444 0-61.38-16.937-16.937-44.444-16.937-61.381 0Zm60.244 60.13c-16.254 16.254-42.739 16.254-58.993 0-16.255-16.255-16.255-42.739 0-58.994 16.254-16.254 42.739-16.254 58.993 0 16.254 16.255 16.254 42.739 0 58.994Z" fill="#ED1C24"/><path d="M333.017 333.841c14.777 14.777 14.777 38.761 0 53.651-14.777 14.777-38.761 14.777-53.651 0-14.777-14.776-14.777-38.874 0-53.651 14.89-14.776 38.874-14.776 53.651 0Z" fill="#F2F2F2"/><path d="M306.533 339.298c-12.049 0-21.711 9.775-21.711 21.71s9.776 21.711 21.711 21.711c12.049 0 21.71-9.776 21.71-21.711 0-11.935-9.661-21.71-21.71-21.71Zm0 42.057c-11.14 0-20.233-9.094-20.233-20.233 0-11.139 9.093-20.233 20.233-20.233 11.139 0 20.233 9.094 20.233 20.233.113 11.139-8.98 20.233-20.233 20.233Z" fill="#ED1C24"/><path d="M306.532 345.322c-8.639 0-15.686 7.048-15.686 15.686 0 8.639 7.047 15.687 15.686 15.687s15.686-7.048 15.686-15.687c.114-8.638-6.934-15.686-15.686-15.686Zm0 29.895c-7.843 0-14.209-6.366-14.209-14.209s6.366-14.208 14.209-14.208 14.208 6.365 14.208 14.208-6.365 14.209-14.208 14.209Z" fill="#ED1C24"/><path d="M306.533 367.488a6.355 6.355 0 0 1-6.365-6.366 6.355 6.355 0 0 1 6.365-6.365 6.355 6.355 0 0 1 6.366 6.365c.113 3.524-2.728 6.366-6.366 6.366ZM307.441 371.466h-1.705v11.367h1.705v-11.367ZM307.441 339.639h-1.705v11.366h1.705v-11.366ZM328.244 360.326h-11.367v1.705h11.367v-1.705ZM296.416 360.326h-11.367v1.705h11.367v-1.705Z" fill="#ED1C24"/></svg>