<svg width="237" height="234" fill="none" xmlns="http://www.w3.org/2000/svg"><path d="M118.214 233.018c65.288 0 118.215-52.162 118.215-116.509C236.429 52.163 183.502 0 118.214 0 52.926 0 0 52.163 0 116.509c0 64.347 52.926 116.509 118.214 116.509Z" fill="#E0E0E0"/><path d="M149.268 6.439c-.568-.455-1.25-.796-1.25-.796s.454.341 1.25.796Z" fill="url(#a)"/><path d="M223.265 161.14c7.161-17.05 13.754-49.445 2.728-82.295-12.049-34.555-40.125-61.835-75.589-73.088-.455-.114-.796-.114-1.137-.228-3.751.569 1.364 2.615.796 4.092-1.023 2.842 4.206 5.911 6.025 5.57 1.818-.455 4.887 4.206 3.296 5.456-1.705 1.25-2.955 4.206-6.252 3.978-3.296-.227 4.206 2.501 5.456 4.093 1.137 1.59-2.841 3.523-6.024 2.727-3.183-.795.454 10.003 5.57 10.799 5.115.796 3.182 4.32 0 6.365-3.183 1.933 1.591 8.298-3.979 8.298s-3.183 9.093-5.911 10.685c-2.728 1.591 4.32 13.867.569 16.709-3.751 2.842 5.797 17.505 18.869 22.279 13.071 4.774 16.709-4.32 20.232 0 3.524 4.319 6.479 4.092 11.026 2.841 0 0-3.865 8.753.114 13.072 3.978 4.32 9.093 16.255 2.387 24.666-6.707 8.298 0 27.508-7.73 38.647.228 0 18.869.796 29.554-24.666ZM206.442 55.088c-3.978 4.774-6.365-6.251-8.752-1.136-2.387 5.115-5.797.113-9.207-4.66-3.524-4.775-6.934-8.64-13.527-6.593-6.592 2.046-10.457 8.07-9.889 1.705 0 0 4.206-.796 3.524-5.343-.682-4.66 5.911-7.274 9.207-3.182 3.296 4.092 8.752 1.364 7.957 4.546-.796 3.183 4.774 6.707 5.228 3.979.341-2.728 6.707 6.365 7.503 1.136.795-5.228 11.935 4.774 7.956 9.548ZM92.547 2.915s-.455 5.91-4.206 7.275c-3.637 1.364-6.706 2.273-8.525.34-1.818-1.932-6.82 1.365-12.503 3.638-5.684 2.387-10.344 11.48-4.32 7.957 5.911-3.524 10.344-9.548 14.664-9.89 4.319-.34 1.59 3.98 5.91 3.184 4.32-.796 4.547 5.57 2.501 7.16-2.046 1.592 3.524 8.298-2.046 6.366-5.57-2.046-5.57-2.728-4.774-5.57.796-2.728-6.707-.454-6.366 2.387.341 2.728 9.094 2.728-.34 5.91-9.549 3.184-8.64-.226-12.277 4.207-3.637 4.433-4.433 9.207-12.39 12.39-7.956 3.182-10.343 10.116-12.73 15.345-2.387 5.228-1.478-3.07-2.955-7.048-1.478-3.978-2.615 3.637-10.571 3.183-7.957-.341-9.435 13.867-6.707 16.482 2.728 2.614 6.82-6.707 9.094-5.57 2.386 1.137-1.706 9.662-2.047 11.14-.34 1.363 3.752 4.319 1.478 9.206-2.273 4.888-.682 7.275 4.66 4.888 5.343-2.387 5.457-8.298 13.982-6.593 8.525 1.82 5.683 6.138 12.503 4.547 6.706-1.591 3.978 7.957 10.685 8.298 6.706.341 10.685-.341 13.867 9.093 3.183 9.548 6.82 10.117 12.163 10.003 5.342-.114 8.525-.909 14.435 4.66 5.911 5.57 4.888-.682 6.593 2.046 1.705 2.728 5.343 7.843-3.069 14.209-8.298 6.365-3.524 23.074-10.685 25.461-7.16 2.387-10.684 3.979-15.117 16.709-4.32 12.731-7.161 2.729-8.298 6.707-1.137 3.978 0 3.524-3.979 7.957-3.978 4.319-3.182 6.706 0 10.343 3.183 3.524 11.936 10.344-.795 5.911-12.73-4.319-16.937-16.482-19.324-25.348-2.5-8.866-6.479-19.551-7.274-26.371-.796-6.706 1.932-4.319-8.753-13.071-10.684-8.753-12.73-23.416-11.935-27.394.796-3.979 4.32-11.14 5.115-13.868.796-2.728.91-6.934-.91-7.161-1.818-.227-6.25-.341-9.434-7.502C14.685 87.37 4 85.211 4 78.05c0-7.16 7.161-25.348 30.122-47.058C56.514 10.076 82.317 3.597 92.547 2.915ZM98.458 1.21s20.915-3.069 28.417.568c7.502 3.524-5.115.682-11.253 4.888-6.138 4.206-6.934 8.639-14.55 8.639-7.615 0-2.728-6.366-.341-8.753 2.274-2.387-7.956-4.319-2.273-5.342ZM147.789 222.18c-6.592 3.41-11.821.909-13.526-.455-1.819-1.25-2.16 3.865-8.98 2.728-6.706-1.136-10.685-3.637-17.732-1.818-6.934 1.818-9.32-2.615-16.254.568-7.048 3.183-28.645-6.024-26.712-1.137 0 0 15.8 7.843 37.624 10.571 3.864.341 7.843.569 11.821.569 12.731 0 25.007-2.046 36.601-5.684 4.206-1.591 8.298-3.523 12.503-5.91 0-.114-8.752-2.842-15.345.568Z" fill="#828282"/><defs><radialGradient id="a" cx="0" cy="0" r="1" gradientUnits="userSpaceOnUse" gradientTransform="matrix(322.379 0 0 322.38 171.982 -101.886)"><stop stop-color="#231F20" stop-opacity=".2"/><stop offset=".526" stop-color="#231F20" stop-opacity=".2"/></radialGradient></defs></svg>