<svg width="381" height="368" fill="none" xmlns="http://www.w3.org/2000/svg"><path d="M190.961 10.23c-97.186 0-175.957 77.635-175.957 173.343 0 95.708 78.771 173.343 175.957 173.343 97.186 0 175.958-77.635 175.958-173.343 0-95.708-78.772-173.343-175.958-173.343Zm0 344.981c-96.163 0-174.252-76.839-174.252-171.638S94.685 11.935 190.96 11.935c96.163 0 174.253 76.84 174.253 171.638 0 94.799-77.976 171.638-174.253 171.638Z" fill="#BDBDBD"/><path d="m252.568 29.553-6.933-10.684h12.731l-5.229 4.092-.569 6.592ZM353.393 103.665l-.796 12.73-10.23-7.615 6.707-.114 4.319-5.001ZM366.691 138.674l-3.751 12.163-8.184-9.776 6.479 1.478 5.456-3.865ZM267.119 346.004l-12.617-1.819 8.411-9.548-.454 6.593 4.66 4.774ZM128.217 352.369l-7.047-10.684h12.844l-5.342 4.092-.455 6.592ZM13.98 219.378l3.638-12.162 8.298 9.662-6.593-1.364-5.343 3.864ZM123.898 18.3l12.845.114-7.048 10.571-.454-6.593-5.343-4.092ZM27.848 261.435l1.477-12.73 9.776 8.184-6.593-.228-4.66 4.774Z" fill="#BDBDBD"/><path d="M282.692 23.756C255.639 8.64 224.38 0 190.962 0c-33.077 0-64.222 8.525-91.161 23.53.682.34 1.25 1.022 1.591 1.704 26.485-14.663 57.061-22.96 89.57-22.96 33.305 0 64.45 8.752 91.389 23.983-.114-.91 0-1.705.341-2.5ZM335.091 296.332c-33.759 41.716-85.705 68.541-144.131 68.541-58.425 0-110.37-26.825-144.13-68.541h-2.842c34.1 43.08 87.297 70.814 146.972 70.814 59.79 0 112.872-27.734 146.973-70.814h-2.842Z" fill="#ED1C24"/><path d="m62.745 316.791-.455-.341 1.591-1.705.455.341-1.591 1.705Zm-2.16-1.932-.455-.455 1.592-1.591.454.341-1.591 1.705Zm-2.046-2.046-.455-.455 1.592-1.591.34.341-1.477 1.705Zm-1.932-2.046-.455-.455 1.591-1.591.341.455-1.477 1.591Zm-2.046-2.046-.341-.455 1.705-1.591.34.455-1.704 1.591Zm-1.933-2.046-.34-.455 1.704-1.477.341.454-1.705 1.478Zm-1.932-2.16-.341-.455 1.705-1.477.34.454-1.704 1.478Zm280.645-.114-1.705-1.477.341-.455 1.705 1.478-.341.454Zm-282.464-2.046-.34-.454 1.704-1.478.341.455-1.705 1.477Zm284.396-.113-1.705-1.478.341-.455 1.705 1.478-.341.455Zm-286.328-2.046-.341-.455 1.705-1.478.34.455-1.704 1.478Zm288.147-.114-1.705-1.478.341-.454 1.705 1.477-.341.455Zm-289.966-2.046-.34-.455 1.818-1.477.34.454-1.818 1.478Zm291.785-.227-1.705-1.478.341-.455 1.818 1.478-.454.455Zm-293.49-2.046-.34-.455 1.818-1.364.34.455-1.818 1.364Zm295.195-.114-1.819-1.364.341-.455 1.819 1.364-.341.455Zm-297.013-2.16-.342-.454 1.82-1.364.34.454-1.819 1.364Zm298.832-.113-1.819-1.364.341-.455 1.819 1.364-.341.455Zm-300.538-2.16-.34-.455 1.818-1.364.341.455-1.819 1.364Zm302.243-.114-1.819-1.364.341-.454 1.819 1.364-.341.454Zm-303.834-2.159-.34-.455 1.818-1.364.34.455-1.818 1.364Zm305.539-.228-1.819-1.364.341-.454 1.819 1.25-.341.568Zm-307.244-2.159-.34-.455 1.931-1.25.341.454-1.932 1.251Zm308.835-.114-1.819-1.25.341-.455 1.933 1.25-.455.455ZM35.01 284.169l-.341-.455 1.932-1.25.341.454-1.932 1.251Zm312.017-.114-1.932-1.25.341-.455 1.932 1.25-.341.455Zm-313.609-2.273-.34-.455 1.932-1.25.34.454-1.932 1.251Zm315.201-.114-1.933-1.25.341-.455 1.933 1.25-.341.455Zm-316.678-2.273-.341-.455 1.932-1.25.341.454-1.932 1.251Zm318.155-.228-1.932-1.136.341-.455 1.932 1.25-.341.341Zm-319.633-2.159-.34-.455 1.931-1.137.341.455-1.932 1.137Zm321.111-.228-1.932-1.136.341-.455 1.932 1.137-.341.454Zm-322.589-2.273-.34-.455 1.932-1.136.227.454-1.819 1.137Zm324.067-.227-1.933-1.137.228-.455 1.932 1.137-.227.455Zm-325.43-2.274-.228-.454 1.932-1.137.228.455-1.933 1.136Zm-1.365-2.5-.227-.455 2.046-1.137.227.455-2.046 1.137Zm329.636-.228-2.046-1.023.228-.454 2.046 1.023-.228.454Zm-331-2.273-.227-.455 2.046-1.023.227.455-2.046 1.023Zm332.251-.227-2.046-1.023.227-.455 2.046 1.023-.227.455Zm-333.501-2.274-.227-.455 2.046-1.023.227.455-2.046 1.023Zm-1.364-2.614-.227-.569 2.046-1.023.227.455-2.046 1.137Zm337.479-.227-2.046-1.024.227-.454 2.046 1.023-.227.455Zm-338.616-2.388-.227-.568 2.046-.909.227.568-2.046.909Zm339.866-.227-2.046-.909.228-.569 2.046.91-.228.568Zm-341.002-2.273-.228-.569 2.046-.909.228.568-2.046.91Zm342.139-.341-2.046-.91.227-.568 2.046.909-.227.569ZM18.869 254.16l-.227-.568 2.046-.909.227.568-2.046.909Zm344.413-.341-2.046-.909.227-.568 2.046.909-.227.568Zm-345.55-2.387-.227-.568 2.16-.909.227.568-2.16.909Zm346.573-.341-2.16-.795.227-.569 2.16.796-.227.568Zm-347.596-2.273-.113-.455 2.046-.909.227.568-2.16.796Zm348.732-.341-2.159-.796.227-.568 2.16.796-.228.568Zm-349.755-2.273-.227-.569 2.16-.795.227.568-2.16.796Zm350.778-.455-2.159-.796.227-.568 2.16.796-.228.568Zm-351.8-2.273-.228-.569 2.16-.795.227.568-2.16.796Zm352.71-.455-2.16-.796.227-.568 2.16.796-.227.568Zm-353.62-2.273-.227-.569 2.16-.682.227.569-2.16.682Zm354.529-.341-2.16-.682.228-.569 2.159.682-.227.569ZM12.958 238.02l-.227-.569 2.16-.682.227.569-2.16.682Zm356.234-.455-2.159-.682.113-.568 2.16.682-.114.568Zm-357.143-2.273-.114-.569 2.16-.682.114.569-2.16.682Zm357.939-.455-2.16-.682.114-.568 2.16.682-.114.568Zm-358.735-2.273-.113-.569 2.16-.568.113.568-2.16.569Zm359.531-.455-2.16-.568.114-.569 2.159.569-.113.568Zm-360.213-2.273-.113-.569 2.16-.568.113.568-2.16.569Zm-.795-2.842-.114-.568 2.16-.569.113.569-2.16.568Zm362.485-.455-2.159-.568.113-.568 2.16.568-.114.568ZM9.207 224.266l-.113-.568 2.273-.455.114.568-2.274.455Zm363.736-.568-2.273-.455.114-.568 2.273.454-.114.569ZM8.525 221.424l-.113-.568 2.273-.455.114.568-2.274.455Zm364.987-.455-2.274-.454.114-.568 2.273.454-.113.568ZM7.957 218.696l-.114-.568 2.274-.455.113.568-2.273.455Zm366.123-.455-2.273-.454.113-.569 2.274.455-.114.568ZM7.389 215.854l-.114-.568 2.273-.341.114.568-2.273.341Zm367.259-.568-2.273-.341.114-.568 2.273.341-.114.568ZM6.934 213.013l-.114-.569 2.274-.341.113.569-2.273.341Zm368.169-.455-2.273-.341.113-.568 2.274.341-.114.568ZM6.479 210.171l-.113-.568 2.273-.341.114.568-2.274.341Zm369.079-.455-2.274-.341.114-.568 2.273.341-.113.568Zm-369.42-2.387-.113-.568 2.273-.341.114.568-2.274.341Zm369.761-.454-2.274-.228.114-.568 2.273.227-.113.569ZM5.797 204.488l-.113-.569 2.273-.227.114.568-2.274.228Zm370.443-.455-2.274-.227.114-.569 2.273.228-.113.568ZM5.456 201.646v-.568l2.274-.228v.569l-2.274.227Zm371.125-.455-2.274-.227v-.568l2.274.227v.568ZM5.229 198.804v-.568l2.273-.227v.568l-2.273.227Zm371.579-.454-2.273-.114v-.568l2.273.227v.455ZM5.002 195.963v-.569l2.273-.113v.568l-2.273.114Zm372.033-.455-2.273-.114v-.568l2.273.114v.568Zm-372.26-2.387v-.568l2.273-.114v.568l-2.274.114Zm372.374-.455-2.273-.113v-.569l2.273.114v.568ZM4.661 190.279v-.568l2.273-.114v.569l-2.273.113Zm372.602-.454-2.274-.114v-.568l2.274.113v.569Zm.113-2.842h-2.273v-.568h2.273v.568Zm-372.83-2.387v-.568H6.82v.568H4.547Zm372.83-.455h-2.273v-.568h2.273v.568Zm-2.273-2.159v-.569h2.273v.569h-2.273ZM6.82 181.754H4.547v-.568H6.82v.568Zm368.283-2.614v-.568l2.273-.114v.568l-2.273.114Zm-368.17-.228-2.272-.113v-.568l2.273.113v.568Zm368.056-2.5v-.569l2.274-.113v.568l-2.274.114Zm-368.055-.341-2.273-.114v-.568l2.273.113v.569Zm367.942-2.501v-.568l2.273-.114v.568l-2.273.114Zm-367.715-.341-2.273-.114v-.568l2.273.114v.568Zm367.487-2.501v-.568l2.274-.227v.568l-2.274.227Zm-367.373-.227-2.273-.114v-.568l2.273.227v.455Zm367.146-2.614v-.569l2.273-.227v.568l-2.273.228Zm-366.919-.228-2.273-.227v-.568l2.273.227v.568Zm366.692-2.5-.114-.569 2.273-.227.114.568-2.273.228Zm-366.35-.341-2.274-.228.114-.568 2.273.227-.114.569Zm366.009-2.501-.114-.568 2.273-.228.114.569-2.273.227Zm-365.782-.341-2.274-.227.114-.569 2.273.228-.113.568Zm365.441-2.501-.114-.568 2.273-.341.114.568-2.273.341Zm-364.987-.227-2.273-.341.114-.455 2.273.228-.114.568Zm364.646-2.501-.114-.568 2.273-.341.114.568-2.273.341Zm-364.305-.341-2.273-.341.114-.568 2.273.341-.114.568Zm363.85-2.5-.114-.569 2.274-.341.113.569-2.273.341Zm-363.395-.228-2.273-.341.113-.568 2.274.341-.114.568Zm362.827-2.5-.114-.569 2.273-.454.114.568-2.273.455Zm-.455-2.842-.114-.568 2.274-.455.113.568-2.273.455Zm-361.35-.227-2.272-.455.113-.568 2.274.454-.114.569Zm360.782-2.501-.114-.568 2.273-.455.114.568-2.273.455Zm-360.213-.227-2.273-.455.114-.568 2.273.454-.114.569Zm359.531-2.501-.114-.568 2.16-.569.113.569-2.159.568Zm-.682-2.842-.114-.568 2.16-.568.113.568-2.159.568Zm-357.598-.227-2.16-.568.114-.569 2.16.569-.114.568Zm356.916-2.387-.114-.569 2.16-.568.113.568-2.159.569Zm-356.12-.341-2.16-.568.113-.569 2.16.569-.114.568Zm355.438-2.387-.114-.569 2.16-.682.113.569-2.159.682Zm-354.757-.341-2.16-.569.114-.568 2.16.682-.114.455Zm353.961-2.387-.114-.569 2.16-.682.114.569-2.16.682Zm-353.165-.341-2.16-.682.114-.569 2.16.682-.114.569Zm352.256-2.387-.228-.569 2.16-.682.227.569-2.159.682Zm-351.347-.341-2.16-.682.228-.569 2.16.682-.228.569Zm350.551-2.387-.227-.569 2.159-.682.228.569-2.16.682Zm-349.755-.228-2.16-.682.228-.568 2.16.682-.228.568Zm348.732-2.387-.227-.568 2.159-.796.228.569-2.16.795Zm-347.709-.341-2.16-.795.228-.569 2.16.796-.228.568Zm346.8-2.273-.228-.568 2.16-.796.227.568-2.159.796Zm-345.89-.341-2.16-.796.227-.568 2.16.796-.228.568Zm344.867-2.387-.228-.568 2.16-.796.227.568-2.159.796Zm-343.845-.341-2.16-.796.228-.568 2.16.796-.228.568Zm342.822-2.273-.228-.569 2.046-.909.228.568-2.046.91Zm-1.023-2.501-.228-.568 2.046-.91.228.569-2.046.909Zm-339.639-.455-2.046-.909.227-.568 2.046.909-.227.568Zm338.502-2.159-.227-.455 2.046-.909.227.568-2.046.796Zm-337.365-.341-2.046-.91.227-.568 2.046.909-.227.569Zm336.115-2.274-.228-.454 2.046-.91.228.569-2.046.795Zm-334.979-.341-2.046-.909.228-.568 2.046.909-.228.568Zm333.842-2.159-.227-.455 2.046-1.023.227.455-2.046 1.023Zm-332.591-.455-2.046-1.023.227-.568 2.046 1.023-.227.568Zm331.341-2.046-.228-.455 2.046-1.023.228.569-2.046.909Zm-330.091-.455-2.046-1.023.227-.454 2.046 1.023-.227.454Zm328.84-2.046-.227-.454 2.046-1.023.227.454-2.046 1.023Zm-327.59-.454-2.046-1.023.228-.455 2.046 1.023-.228.455Zm326.226-2.046-.227-.455 2.046-1.137.227.455-2.046 1.136Zm-324.862-.455-2.046-1.137.228-.455 2.046 1.137-.228.455Zm323.498-2.046-.227-.455 1.932-1.136.228.454-1.933 1.137Zm-322.134-.455-1.932-1.136.227-.455 1.933 1.136-.228.455Zm320.77-1.932-.341-.455 1.933-1.136.341.454-1.933 1.137Zm-319.292-.455-1.932-1.136.34-.455 1.933 1.136-.34.455Zm317.815-2.046-.341-.454 1.932-1.137.341.454-1.932 1.137Zm-316.337-.454-1.933-1.137.341-.455 1.933 1.137-.341.454Zm314.859-1.933-.341-.455 1.932-1.25.341.455-1.932 1.25Zm-1.478-2.387-.341-.455 1.933-1.25.341.455-1.933 1.25Zm-310.426-.455-1.932-1.25.34-.455 1.933 1.25-.34.455Zm308.835-1.818-.341-.455 1.932-1.25.341.454-1.932 1.25ZM37.51 83.318l-1.932-1.25.341-.455 1.933 1.25-.341.455Zm305.653-1.932-.341-.455 1.818-1.25.341.454-1.818 1.25ZM39.102 80.93l-1.819-1.25.341-.455 1.819 1.25-.341.455Zm302.469-1.819-.341-.454 1.819-1.364.341.454-1.819 1.364Zm-300.878-.454-1.819-1.364.341-.455 1.82 1.364-.342.455Zm299.173-1.819-.341-.455 1.819-1.364.341.455-1.819 1.364Zm-297.468-.455L40.58 75.02l.341-.454 1.82 1.364-.342.454Zm295.763-1.818-.341-.455 1.819-1.364.341.455-1.819 1.364ZM44.103 74.11l-1.819-1.364.342-.455 1.818 1.364-.34.455Zm292.353-1.819-.341-.454 1.819-1.364.341.454-1.819 1.364Zm-290.648-.454-1.819-1.364.342-.455 1.818 1.364-.34.455Zm1.819-2.16L45.808 68.2l.341-.454 1.705 1.477-.227.455Zm1.819-2.16-1.706-1.477.342-.455 1.705 1.478-.341.454Zm1.818-2.16-1.705-1.477.341-.455 1.705 1.478-.34.455ZM102.642 15.459l-6.138 11.253 12.731-1.023-5.57-3.638-1.023-6.592ZM130.149 3.41l-7.161 10.57 12.731.228-5.229-4.092-.341-6.706ZM280.19 15.8l6.138 11.14-12.73-.91 5.569-3.638 1.023-6.592Z" fill="#ED1C24"/><path d="m347.367 269.733 10.799-6.82-.228 12.73-3.978-5.342-6.593-.568ZM361.576 238.02l9.094-8.98 2.5 12.503-5.001-4.433-6.593.91ZM368.852 203.465l7.388-10.458 4.66 11.935-5.683-3.523-6.365 2.046ZM29.213 108.666l-10.344 7.502-.681-12.73 4.319 5.001 6.706.227ZM17.05 141.175l-8.411 9.662-3.41-12.39 5.342 4.092 6.479-1.364ZM12.162 176.184l-6.706 10.913L0 175.502l5.91 3.069 6.252-2.387ZM120.146 345.094l7.048 10.571-12.731.228 5.229-4.092.454-6.707ZM254.729 348.164l12.503 2.273-8.752 9.321.682-6.593-4.433-5.001ZM252.797 3.751l7.161 10.571-12.845.114 5.229-4.092.455-6.593Z" fill="#ED1C24"/></svg>