<svg width="52" height="101" viewBox="0 0 52 101" fill="none" xmlns="http://www.w3.org/2000/svg">
<path d="M51.8052 55.2733C51.8498 54.5893 51.8666 53.8875 51.8598 53.175C51.8531 52.4626 51.8139 51.7465 51.7442 51.0239C51.6745 50.3013 51.5754 49.577 51.4339 48.8514C51.2964 48.1206 51.1211 47.3968 50.9086 46.6829C50.799 46.3231 50.6844 45.9644 50.5597 45.6078C50.4351 45.2513 50.3004 44.8969 50.1569 44.5496C50.0133 44.2023 49.8636 43.8511 49.6999 43.5082C49.5363 43.1652 49.3707 42.8253 49.192 42.4855C49.0133 42.1458 48.8199 41.8223 48.6203 41.4949C48.4208 41.1675 48.2092 40.8452 47.9907 40.5271C47.7722 40.209 47.5294 39.8882 47.3106 39.5912C47.0917 39.2941 46.8299 38.9826 46.5771 38.6981C46.3242 38.4136 46.1088 38.1657 45.8648 37.9081C45.6208 37.6506 45.3729 37.3991 45.1193 37.1567C44.8656 36.9144 44.607 36.6731 44.3456 36.4429C44.0842 36.2127 43.8159 35.9866 43.5437 35.7665L43.7419 35.257C43.8076 35.0854 43.8702 34.912 43.9278 34.7395L44.1025 34.2192L44.2629 33.6941C44.2784 33.6357 44.2931 33.5853 44.3008 33.5391L44.3333 33.4061L44.36 33.2823L44.3897 33.1605L44.4126 33.0427L44.4373 32.9219L44.4601 32.8042L44.4829 32.6865L44.5255 32.449L44.5661 32.2146L44.6036 31.9782L44.6411 31.7419L44.6973 31.2784L44.7534 30.815L44.7964 30.3517L44.8293 29.8906C44.8689 29.2758 44.8961 28.6532 44.8897 28.0562C44.8833 27.4591 44.8622 26.8442 44.8164 26.2477C44.7707 25.6512 44.7048 25.0589 44.6057 24.4712C44.5066 23.8835 44.3986 23.3029 44.2575 22.7267C44.1101 22.1446 43.9307 21.5705 43.72 21.007C43.5139 20.4579 43.2858 19.9275 43.0357 19.4158C42.7883 18.9043 42.5212 18.4103 42.2406 17.9374C41.96 17.4646 41.6686 17.002 41.3779 16.5654C40.7894 15.7074 40.1581 14.8787 39.4863 14.0827C38.8292 13.315 38.1556 12.6008 37.473 11.9278C36.7904 11.2549 36.1217 10.6419 35.4183 10.0495C34.7148 9.45713 34.0554 8.91832 33.3936 8.40363C32.7318 7.88894 32.0592 7.41856 31.4117 6.97694C30.7642 6.53531 30.1318 6.12459 29.5163 5.74174C28.9009 5.35888 28.3004 5.00693 27.722 4.68176C27.1436 4.3566 26.5923 4.05716 26.0637 3.77647C24.9949 3.23332 24.0326 2.77499 23.1851 2.40238C22.3375 2.02978 21.6104 1.73378 21.0119 1.51528C20.5594 1.33973 20.0979 1.18868 19.6295 1.06279C19.3078 0.981954 19.1287 0.970393 19.1078 1.01685C19.0869 1.06331 19.2112 1.20208 19.4834 1.38798C19.7557 1.57389 20.1723 1.82603 20.7287 2.15852C21.285 2.49102 21.9399 2.87332 22.7206 3.3442C23.5014 3.81509 24.3913 4.35972 25.3767 4.98634C25.8709 5.30062 26.3763 5.65189 26.8941 6.01101C27.4119 6.37014 27.974 6.76176 28.5389 7.17643C29.1038 7.5911 29.6856 8.03364 30.2918 8.51297C30.8979 8.99231 31.4833 9.48397 32.0898 10.0105C32.6963 10.537 33.304 11.1026 33.9187 11.6982C34.5333 12.2938 35.1495 12.9075 35.7544 13.5866C36.3594 14.2657 36.9442 14.949 37.5075 15.6869C38.0816 16.4378 38.6171 17.2169 39.1118 18.0211C39.3592 18.4301 39.5978 18.8463 39.8205 19.2738C40.0432 19.7012 40.2551 20.1388 40.4449 20.5838C40.6348 21.0288 40.8058 21.4831 40.9516 21.9427C41.0982 22.4019 41.2202 22.8683 41.3169 23.3397C41.411 23.8261 41.4893 24.3238 41.5455 24.8289C41.6018 25.3339 41.6402 25.8532 41.6555 26.3749C41.6708 26.8966 41.6722 27.4265 41.6474 27.9567C41.6225 28.487 41.5857 29.0224 41.5265 29.5521L41.4785 29.9482L41.4305 30.3443L41.3732 30.7345L41.3098 31.1208L41.2711 31.318L41.2324 31.5153L41.1887 31.7136L41.147 31.9089L41.1214 32.0036L41.0071 32.1356L40.9827 32.2353L40.9572 32.33L40.9367 32.4236L40.9112 32.5183L40.8873 32.5969L40.8583 32.6425L40.7736 32.8916L40.6828 33.1367L40.587 33.3829L40.4892 33.6322C40.4089 33.5811 40.3286 33.53 40.2483 33.4789C40.168 33.4279 40.0907 33.3788 40.0104 33.3277C39.9301 33.2766 39.8529 33.2275 39.7757 33.1784L39.5409 33.0291C39.232 32.8327 38.9077 32.6606 38.6026 32.4922C38.2976 32.3238 37.9802 32.1476 37.6671 31.9783C37.3539 31.809 37.0501 31.6456 36.7412 31.4833C36.4323 31.321 36.1284 31.1576 35.8257 30.9993C35.5229 30.8409 35.1712 30.6641 34.841 30.5011C34.5109 30.3381 34.175 30.1842 33.8371 30.0333C33.4992 29.8825 33.1594 29.7346 32.7965 29.5891C32.4335 29.4436 32.0995 29.3208 31.7195 29.1816C31.3396 29.0423 30.9847 28.9318 30.6086 28.8207C30.2325 28.7095 29.8425 28.6065 29.4517 28.5116C29.0609 28.4166 28.6516 28.344 28.2395 28.2825C27.8275 28.221 27.4039 28.1777 26.9687 28.1526C26.8594 28.1471 26.7482 28.1447 26.6369 28.1422C26.5257 28.1397 26.4176 28.1392 26.3075 28.1418L25.9743 28.1474L25.6402 28.1611L25.4749 28.1754L25.3116 28.1867L25.1494 28.203L24.9922 28.2183L24.8493 28.2383L24.7064 28.2584L24.5654 28.2754L24.4226 28.2954C24.2264 28.3242 24.0263 28.3591 23.8212 28.3951C23.6162 28.4311 23.4184 28.476 23.2126 28.52C23.0067 28.564 22.8013 28.621 22.5958 28.6781C22.3904 28.7351 22.1861 28.7972 21.981 28.8673C21.5641 29.01 21.157 29.1785 20.7621 29.372C20.3581 29.568 19.9677 29.79 19.5933 30.0365C19.211 30.287 18.8484 30.5654 18.5083 30.8696C18.1643 31.1764 17.8461 31.5104 17.5565 31.8683L17.4637 32.0141L17.373 32.1569L17.2783 32.3058L17.1721 32.4728L16.8862 32.9224L16.7973 33.0621L16.6234 33.3355L16.4762 33.6216C16.4183 33.7127 16.3819 33.8176 16.3414 33.9155C16.3008 34.0134 16.2521 34.1105 16.2096 34.2114C16.1234 34.4083 16.0485 34.6081 15.9746 34.8128C15.9008 35.0176 15.8363 35.2282 15.7748 35.4409C15.7134 35.6535 15.6631 35.8689 15.6159 36.0864C15.5687 36.3038 15.532 36.5322 15.5022 36.7564C15.4357 37.2163 15.4112 37.6818 15.4288 38.1474C15.4467 38.6231 15.5052 39.097 15.6038 39.5641C15.7031 40.0349 15.8452 40.4965 16.0282 40.9432C16.2089 41.3922 16.4355 41.8222 16.7044 42.2264C16.8387 42.4313 16.9789 42.627 17.1279 42.8157C17.2769 43.0043 17.4367 43.1827 17.5973 43.3531C17.7579 43.5235 17.9274 43.6867 18.0996 43.8389C18.2718 43.9911 18.4478 44.1371 18.6266 44.2722C18.8054 44.4072 18.983 44.5372 19.1664 44.6581C19.3498 44.779 19.5309 44.8899 19.7069 45.0018C19.883 45.1138 20.0738 45.2095 20.2583 45.3013C20.4429 45.393 20.6275 45.4848 20.8078 45.5696C20.9881 45.6544 21.1742 45.7301 21.3553 45.8069C21.5364 45.8837 21.7028 45.9426 21.894 46.0172C22.0851 46.0918 22.2473 46.1438 22.4249 46.2055C22.6025 46.2673 22.7802 46.329 22.9381 46.374C23.0126 46.4001 23.0953 46.427 23.1829 46.4529C23.2706 46.4788 23.3563 46.5077 23.4521 46.5345L23.7332 46.6109C23.8289 46.6376 23.9266 46.6614 24.0224 46.6881C24.1182 46.7149 24.2089 46.7427 24.3016 46.7676L24.5885 46.8348L24.8762 46.8941C24.9727 46.9128 25.0681 46.9265 25.1646 46.9452C25.5527 47.0171 25.9486 47.0769 26.3224 47.1098C26.6962 47.1428 27.0962 47.1753 27.4805 47.185C27.8647 47.1948 28.2486 47.1914 28.629 47.1731C29.0094 47.1548 29.3863 47.1214 29.7609 47.0781C30.1355 47.0347 30.5055 46.9714 30.8712 46.9011C31.237 46.8308 31.5973 46.7485 31.9553 46.6562C32.3133 46.5639 32.6628 46.4577 33.0193 46.3473C33.3758 46.237 33.7083 46.1029 34.0459 45.9678C34.3834 45.8326 34.7237 45.6864 35.0543 45.5212C35.3849 45.356 35.7032 45.183 36.0284 45.0058C36.3536 44.8287 36.6537 44.6228 36.9569 44.4189C37.2601 44.2149 37.5467 43.9962 37.8272 43.7735L38.2455 43.4295L38.6484 43.0756L39.0308 42.713L39.4009 42.3426L39.5813 42.1544L39.7566 41.9673L39.9239 41.7793L40.0861 41.5924L40.1742 41.4948L40.2611 41.3922L40.3307 41.2829L40.4188 41.1853L40.4902 41.0729L40.5598 40.9636L40.6312 40.8512L40.7008 40.7418L40.7182 40.7145C40.8521 40.8381 40.9904 40.9686 41.1112 41.0924C41.232 41.2162 41.3621 41.3458 41.4853 41.4796C41.6085 41.6134 41.7274 41.7402 41.8455 41.875C41.9636 42.0099 42.0767 42.1458 42.1848 42.2828C42.362 42.5021 42.5373 42.7245 42.7006 42.9521C42.8639 43.1796 43.0252 43.4102 43.1765 43.643C43.3279 43.8757 43.4784 44.1165 43.6228 44.3534C43.7671 44.5902 43.8988 44.8403 44.0223 45.0895C44.1458 45.3387 44.2654 45.5939 44.377 45.8483C44.4885 46.1027 44.5931 46.3611 44.6926 46.6207C44.7922 46.8803 44.8817 47.142 44.9681 47.4017C45.0546 47.6614 45.1302 47.9314 45.2016 48.1943C45.3467 48.7267 45.4644 49.2657 45.5541 49.8092C45.6428 50.352 45.7066 50.8974 45.7456 51.4455C45.786 51.9959 45.8001 52.5467 45.7942 53.1018C45.7882 53.6568 45.7591 54.2142 45.7195 54.7608L45.6247 55.5921C45.5926 55.8745 45.5554 56.1581 45.5163 56.4446C45.4773 56.7312 45.4351 57.0158 45.3983 57.3124L45.2498 58.1736L45.1697 58.5791L45.0885 58.9797L45.0042 59.3783L44.9346 59.7606L44.8611 60.1832L44.7513 60.5741L44.6435 60.962L44.5356 61.3499C44.2204 62.3623 43.8456 63.3547 43.4133 64.3221C42.9892 65.2658 42.5143 66.1857 41.9907 67.0777C41.4729 67.9601 40.9158 68.8088 40.3251 69.6149C39.7345 70.421 39.1175 71.1933 38.477 71.9208C38.1595 72.2905 37.8354 72.6433 37.4974 73.0043C37.1594 73.3652 36.8322 73.6819 36.4923 74.0118C36.1523 74.3417 35.812 74.6585 35.4532 74.9636C35.0943 75.2687 34.754 75.5855 34.4002 75.8895L34.1321 76.1201L33.8687 76.3365L33.6122 76.5488L33.3608 76.76L33.1039 76.9593L32.8451 77.1616L32.5882 77.3609L32.3271 77.5532C32.1572 77.684 31.9841 77.8129 31.8099 77.9367L31.2893 78.3053L30.7643 78.6669L30.2452 79.0193C29.9099 79.2327 29.5531 79.4665 29.2108 79.684C28.8686 79.9015 28.5156 80.0951 28.1834 80.3105C27.8513 80.5259 27.4998 80.7034 27.1699 80.8946C26.8401 81.0859 26.5017 81.2632 26.1796 81.4423C25.8575 81.6214 25.5307 81.7805 25.2183 81.9444C24.9058 82.1084 24.5868 82.2553 24.284 82.404C23.9812 82.5528 23.6699 82.6875 23.3729 82.8272C23.0759 82.9668 22.7762 83.0833 22.495 83.2117C21.9041 83.4588 21.3529 83.6842 20.8223 83.8843C20.2916 84.0844 19.7857 84.266 19.3033 84.4243C18.8209 84.5825 18.3694 84.7263 17.9454 84.8406C17.5213 84.9548 17.1146 85.0759 16.7396 85.1745L16.3835 85.2637L16.0495 85.3456L15.7312 85.4163L15.4362 85.4846C15.8727 85.037 16.3011 84.5884 16.7109 84.1622C17.1208 83.736 17.5144 83.2739 17.8868 82.8452C18.2592 82.4165 18.6115 81.9921 18.9422 81.5881C19.2729 81.184 19.5746 80.7914 19.8539 80.4273C20.1332 80.0631 20.433 79.6394 20.6695 79.2949C20.9059 78.9504 21.0886 78.6357 21.249 78.3836C21.3701 78.1722 21.4675 77.9481 21.5396 77.7152C21.5879 77.5368 21.5802 77.4125 21.5115 77.3432C21.4428 77.2739 21.313 77.2597 21.1353 77.3003C20.9046 77.3483 20.6804 77.4217 20.4668 77.5193C20.1899 77.6546 19.8728 77.8327 19.5143 78.0484C19.1559 78.2641 18.7785 78.5233 18.346 78.7943C17.9134 79.0652 17.4692 79.3885 16.9948 79.7183L15.5058 80.7637L13.9222 81.8896C13.3814 82.2625 12.8318 82.6424 12.2798 83.0124C11.7279 83.3824 11.1698 83.7484 10.6252 84.0932C10.0806 84.438 9.52899 84.7869 8.99984 85.1074C8.47069 85.4279 7.9539 85.7221 7.44908 86.0111C6.94427 86.3001 6.47152 86.5456 6.02233 86.7676C5.79947 86.8861 5.58241 86.9955 5.37732 87.0997C5.17223 87.2039 4.97293 87.299 4.78561 87.3889L4.2503 87.6372L3.78489 87.8575C3.63813 87.9177 3.50836 87.9717 3.38786 88.0316L3.07849 88.1634L2.85294 88.2588L2.72432 88.3178L2.36977 88.4592C2.17511 88.5402 1.9542 88.6216 1.81786 88.6927C1.68152 88.7639 1.55985 88.8187 1.44244 88.8806C1.32502 88.9424 1.21378 89.0082 1.11259 89.0718C0.97539 89.1522 0.844946 89.2433 0.72247 89.3442C0.617914 89.4318 0.523251 89.5303 0.440093 89.6382C0.361249 89.7295 0.296194 89.8318 0.246919 89.942C0.205433 90.0438 0.18328 90.1526 0.181566 90.263C0.178591 90.4232 0.216261 90.5821 0.291112 90.7252C0.383324 90.8944 0.5025 91.048 0.643951 91.1799C0.823269 91.3474 1.02004 91.4955 1.23082 91.6214C1.49391 91.7774 1.76775 91.9145 2.05018 92.0315C2.0996 92.0629 2.15869 92.0792 2.21699 92.1035C2.2753 92.1277 2.33052 92.1501 2.38882 92.1743C2.44713 92.1986 2.65217 92.265 2.8603 92.3334C3.06843 92.4017 3.27348 92.4681 3.33255 92.4844C3.39163 92.5006 3.51289 92.5351 3.62101 92.5697L3.83494 92.629C3.95927 92.6654 4.09172 92.7027 4.23228 92.7409C4.37091 92.7821 4.51958 92.8212 4.67249 92.8672L5.15749 93.005C5.32354 93.0509 5.49885 93.1026 5.67918 93.1533C6.35687 93.3496 7.11719 93.5729 7.93775 93.8174C8.75831 94.0619 9.64529 94.3316 10.5605 94.632C11.4756 94.9324 12.4441 95.2241 13.4264 95.5416C14.4088 95.8592 15.4008 96.1956 16.3939 96.5371C17.2114 96.8138 18.025 97.0966 18.8274 97.3764C19.6298 97.6563 20.4129 97.9325 21.1717 98.206L23.3526 98.9786C24.0592 99.2317 24.7095 99.4575 25.3188 99.6658C25.9281 99.8741 26.4896 100.069 26.9924 100.227C27.4951 100.384 27.9365 100.516 28.308 100.607C28.6036 100.682 28.9049 100.731 29.2085 100.753C29.4321 100.763 29.5696 100.731 29.6155 100.645C29.6615 100.559 29.6121 100.425 29.4786 100.246C29.2851 100.011 29.0707 99.7932 28.8381 99.5958C28.5446 99.341 28.1825 99.0509 27.7528 98.7307C27.323 98.4105 26.8331 98.0691 26.2898 97.7023C25.7466 97.3355 25.1493 96.9514 24.5014 96.565C23.8535 96.1785 23.1805 95.7634 22.4681 95.3487C21.7557 94.9341 21.012 94.5209 20.2491 94.104C19.4861 93.6871 18.7061 93.2764 17.9173 92.8728C17.84 92.8237 17.7628 92.7746 17.6701 92.7498C17.5775 92.725 17.5157 92.6516 17.4249 92.6238C17.3342 92.5959 17.2608 92.5407 17.1798 92.4977C17.0987 92.4547 17.0187 92.4166 16.9377 92.3736L17.3219 92.281L17.7383 92.1788L18.1874 92.0592L18.6648 91.9361C19.1008 91.8167 19.5855 91.6684 20.0845 91.525C20.5835 91.3816 21.1315 91.1883 21.6965 90.9887C22.2616 90.7892 22.8614 90.5691 23.4766 90.3247C24.0919 90.0803 24.7307 89.8125 25.39 89.5193C25.7171 89.3733 26.0551 89.217 26.3969 89.0547C26.7387 88.8924 27.0844 88.724 27.4358 88.5465C27.7873 88.369 28.1426 88.1854 28.5018 87.9957C28.861 87.8061 29.2249 87.6023 29.5848 87.4046C29.9448 87.2069 30.3183 86.988 30.6918 86.769C31.0653 86.55 31.4376 86.3261 31.8127 86.091C32.1877 85.856 32.5562 85.604 32.9564 85.3636C33.3565 85.1232 33.7173 84.8492 34.1178 84.5877L34.708 84.1781L35.2978 83.7554L35.8911 83.3136L36.4968 82.8455L36.795 82.6085L37.0932 82.3716L37.3883 82.1326L37.6803 81.8917L37.9723 81.6508L38.2612 81.4079L38.5471 81.1631L38.8298 80.9163C39.2138 80.5717 39.6004 80.2161 39.9898 79.8494C40.3792 79.4827 40.7682 79.1029 41.1487 78.7092C41.5292 78.3155 41.9197 77.9197 42.3014 77.4969C42.683 77.0741 43.0597 76.6524 43.4286 76.2087C44.1637 75.3323 44.8831 74.399 45.5676 73.418C46.2522 72.437 46.9017 71.3953 47.5094 70.3099C48.1238 69.2067 48.6771 68.0703 49.1667 66.9057C49.6735 65.7032 50.108 64.471 50.468 63.2154L50.5863 62.7361L50.7084 62.2506L50.8306 61.7652L50.9528 61.2798L51.0414 60.7858L51.1319 60.2887L51.2224 59.7917L51.3098 59.2927C51.3632 58.9768 51.4084 58.66 51.4525 58.3383C51.4967 58.0165 51.5396 57.6897 51.5775 57.364L51.6805 56.363C51.7567 55.9635 51.7812 55.6249 51.8052 55.2733ZM37.7518 38.346L37.7364 38.3703L37.6823 38.4554L37.6301 38.5374L37.576 38.6225L37.5239 38.7045L37.4698 38.7895L37.4022 38.8617L37.3481 38.9468L37.2805 39.019L37.1275 39.1777L36.9834 39.3292L36.8332 39.4768L36.6817 39.6194L36.3808 39.9016L36.0745 40.1718L35.7597 40.4281C35.6531 40.5139 35.5423 40.5927 35.4345 40.6735C35.2169 40.8337 34.994 40.9864 34.7659 41.1314C34.5357 41.2751 34.3032 41.4088 34.0707 41.5425C33.8381 41.6762 33.5898 41.787 33.3415 41.8979C33.0931 42.0087 32.8394 42.1076 32.5763 42.2006C32.3133 42.2935 32.0522 42.3835 31.7807 42.4625C31.5092 42.5416 31.2497 42.6154 30.9674 42.6705C30.6851 42.7256 30.419 42.7825 30.1444 42.8255C29.8698 42.8684 29.5929 42.9014 29.3149 42.9293C29.0368 42.9573 28.7591 42.9642 28.4815 42.971C28.2038 42.9779 27.9296 42.9656 27.6543 42.9484C27.3789 42.9311 27.1013 42.9039 26.8433 42.8593C26.5854 42.8147 26.2992 42.7735 26.0297 42.713C25.9637 42.7009 25.8965 42.6838 25.8324 42.6686C25.7683 42.6534 25.6961 42.6374 25.632 42.6222C25.5679 42.6071 25.4976 42.588 25.4304 42.5708C25.3632 42.5537 25.2979 42.5335 25.2346 42.5103L24.9392 42.395L24.7404 42.3325L24.5291 42.2622C24.4546 42.2361 24.3801 42.2101 24.3013 42.177C24.1492 42.123 24.0051 42.0698 23.8642 42.0185C23.7233 41.9673 23.5812 41.9111 23.4472 41.8557C23.3132 41.8004 23.1792 41.745 23.0502 41.6886C22.9213 41.6322 22.7992 41.5717 22.6772 41.5111C22.2239 41.2953 21.7985 41.0247 21.4108 40.7058C21.0852 40.4382 20.8078 40.1174 20.5908 39.7577C20.3909 39.4277 20.2558 39.0637 20.1926 38.6854C20.1292 38.2801 20.1291 37.8684 20.1921 37.465C20.2122 37.3583 20.2343 37.2486 20.2614 37.1378L20.3588 36.8073L20.484 36.4603L20.6277 36.1251C20.6915 36.0249 20.7344 35.9029 20.79 35.8017C20.8457 35.7006 20.9214 35.5952 20.9677 35.4881C21.0141 35.3811 21.0914 35.2937 21.1474 35.2056C21.2051 35.1276 21.2681 35.0537 21.3359 34.9842C21.478 34.8218 21.6323 34.6704 21.7975 34.5312C21.9663 34.3902 22.1452 34.2616 22.3329 34.1464C22.528 34.0269 22.7316 33.9211 22.942 33.8298C23.1645 33.7319 23.3932 33.6479 23.6267 33.5784C24.617 33.2295 25.6767 33.1061 26.7282 33.2172C27.8426 33.3405 28.9364 33.6182 29.9777 34.0422C31.131 34.504 32.2532 35.0409 33.337 35.6494C34.4718 36.273 35.6186 36.9596 36.7723 37.6421C36.8588 37.6971 36.9453 37.7521 37.0287 37.8051L37.2943 37.974C37.3777 38.0271 37.4642 38.0821 37.5476 38.1351C37.631 38.1881 37.7144 38.2412 37.7947 38.2922L37.7792 38.3165L37.7518 38.346Z" fill="#ED1C24"/>
</svg>
