<svg width="84" height="84" viewBox="0 0 84 84" fill="none" xmlns="http://www.w3.org/2000/svg">
<g opacity="0.8" clip-path="url(#clip0_883_16922)">
<path d="M66.4621 47.4359C66.4619 44.1806 64.5549 41.3723 61.7965 40.0652C61.3309 39.8445 61.0259 39.385 61.0259 38.8699L61.0261 17.5383C61.0261 8.53174 53.7248 1.23047 44.7183 1.23047H39.2824C30.2758 1.23047 22.9746 8.53174 22.9746 17.5383L22.9762 38.8699C22.9762 39.385 22.6712 39.8447 22.2056 40.0654C19.447 41.3723 17.5388 44.1807 17.5387 47.4359C13.0353 47.4359 9.38477 51.0864 9.38477 55.5898C9.38477 59.1447 11.6597 62.1682 14.833 63.284H69.1678C72.3411 62.1682 74.616 59.1445 74.616 55.5898C74.616 51.0866 70.9655 47.4359 66.4621 47.4359Z" fill="#FFDD40"/>
<path d="M66.4617 47.4359C66.4616 44.1806 64.5545 41.3721 61.7961 40.0652C61.3305 39.8445 61.0255 39.385 61.0255 38.8699L61.0257 17.5383C61.0257 8.53174 53.7244 1.23047 44.7179 1.23047H40.9746C49.9812 1.23047 57.2824 8.53174 57.2824 17.5383L57.2821 38.8699C57.2821 39.385 57.5871 39.8447 58.0527 40.0652C60.8111 41.3721 62.7181 44.1806 62.7183 47.4359C67.2217 47.4359 70.8722 51.0864 70.8722 55.5898C70.8722 59.1447 68.5973 62.1682 65.424 63.284H69.1674C72.3407 62.1682 74.6156 59.1445 74.6156 55.5898C74.6156 51.0866 70.9651 47.4359 66.4617 47.4359Z" fill="#FFB332"/>
<path d="M69.1793 63.7432C69.1793 57.7392 64.3121 52.8719 58.308 52.8719L27.0505 52.8724C21.0465 52.8724 14.8203 57.7397 14.8203 63.7437V80.0515C14.8203 81.5527 16.0372 82.7695 17.5383 82.7695H51.5076L69.1795 76.427L69.1793 63.7432Z" fill="#FF4155"/>
<path d="M54.5352 52.8719C60.5392 52.8719 65.4064 57.7392 65.4064 63.7432V77.7956L69.18 76.427L69.1799 63.7434C69.1799 57.7393 64.3126 52.8721 58.3086 52.8721H54.5352V52.8719Z" fill="#E80054"/>
<path d="M50.1543 52.8719L54.1223 58.8238C54.9394 60.0493 54.6316 61.7026 53.4282 62.5519L44.0389 69.1797H39.9619L30.5726 62.5519C29.3694 61.7026 29.0616 60.0493 29.8785 58.8238L33.8465 52.8719H50.1543Z" fill="#E80054"/>
<path d="M73.105 75.7149V70.9203C73.105 70.0362 72.1818 69.3875 71.2288 69.6019L61.3913 71.8153C61.1507 71.8694 60.8992 71.8694 60.6589 71.8153L50.8215 69.6019C49.8685 69.3875 48.9453 70.0362 48.9453 70.9203V75.7149L61.0252 80.5001L73.105 75.7149Z" fill="#E9EFFF"/>
<path d="M71.2281 69.6019L69.0215 70.0983C69.2134 70.3246 69.3309 70.6071 69.3309 70.9203V77.2096L73.1043 75.7148V70.9203C73.1043 70.0362 72.1812 69.3875 71.2281 69.6019Z" fill="#D3DCFB"/>
<path d="M47.4355 81.4106V76.0166C47.4355 75.1324 48.3587 74.4837 49.3118 74.6982L60.6592 77.2513C60.8997 77.3054 61.1512 77.3054 61.3915 77.2513L72.7389 74.6982C73.692 74.4837 74.6151 75.1324 74.6151 76.0166V81.4106C74.6151 82.1612 73.939 82.7695 73.1051 82.7695H48.9456C48.1117 82.7695 47.4355 82.161 47.4355 81.4106Z" fill="#4FABF7"/>
<path d="M72.7393 74.698L70.5326 75.1944C70.7246 75.4207 70.8421 75.7032 70.8421 76.0164V81.4105C70.8421 82.161 70.166 82.7694 69.332 82.7694H73.1055C73.9394 82.7694 74.6155 82.161 74.6155 81.4105V76.0164C74.6155 75.1323 73.6923 74.4836 72.7393 74.698Z" fill="#1886EA"/>
<path d="M42.0004 58.3652L36.9043 61.0258L40.7279 71.2223C41.1688 72.3982 42.8319 72.3982 43.2729 71.2223L47.1121 60.9845L42.0004 58.3652Z" fill="#E9EFFF"/>
<path d="M33.8457 44.7182V52.8721L36.9035 61.0259H47.0959L50.1535 52.8718V44.7192L33.8457 44.7182Z" fill="#FDBAA2"/>
<path d="M25.6926 33.8459C24.1915 33.8459 22.9746 32.6291 22.9746 31.1279V25.6919C22.9746 24.1907 24.1915 22.9738 25.6926 22.9738H58.3083C59.8094 22.9738 61.0263 24.1907 61.0263 25.6919V31.1279C61.0263 32.6289 59.8094 33.8459 58.3083 33.8459H25.6926Z" fill="#FDBAA2"/>
<path d="M28.4102 19.961L28.4103 33.8464C28.4103 41.3518 34.4946 47.4362 42.0001 47.4362C49.5056 47.4362 55.5897 41.352 55.5897 33.8464V19.961L42.0001 15.8594L28.4102 19.961Z" fill="#FCCCB4"/>
<path d="M47.8885 14.8203C47.8885 19.3236 44.2379 22.9742 39.7346 22.9742H27.75V13.207H47.8885V14.8203Z" fill="#FFDD40"/>
<path d="M55.5905 22.9742H52.8675C49.8653 22.9742 47.4316 20.5405 47.4316 17.5383V15.4219L55.5906 19.961V22.9742H55.5905Z" fill="#FFDD40"/>
<path d="M36.5645 30.9996C37.244 30.9996 37.7949 30.4488 37.7949 29.7691V28.41C37.7949 27.7303 37.244 27.1796 36.5645 27.1796C35.8849 27.1796 35.334 27.7303 35.334 28.41V29.7691C35.334 30.4488 35.8849 30.9996 36.5645 30.9996Z" fill="#0C0A0B"/>
<path d="M47.4355 30.9996C48.1151 30.9996 48.666 30.4488 48.666 29.7691V28.41C48.666 27.7303 48.1151 27.1796 47.4355 27.1796C46.756 27.1796 46.2051 27.7303 46.2051 28.41V29.7691C46.2051 30.4488 46.756 30.9996 47.4355 30.9996Z" fill="#0C0A0B"/>
<path d="M41.9999 37.7949C43.4026 37.7949 44.7123 37.0392 45.4175 35.8225C45.7584 35.2345 45.5581 34.4817 44.9702 34.1409C44.3824 33.8 43.6293 34.0003 43.2886 34.5883C43.0218 35.0483 42.528 35.3341 41.9999 35.3341C41.4717 35.3341 40.9779 35.0485 40.7113 34.5885C40.3704 34.0005 39.6177 33.8 39.0297 34.1409C38.4417 34.4817 38.2414 35.2345 38.5821 35.8224C39.2874 37.0391 40.597 37.7949 41.9999 37.7949Z" fill="#0C0A0B"/>
<path d="M74.8784 74.0404C74.7112 73.9067 74.5289 73.7942 74.3363 73.7033V70.9203C74.3363 70.1566 73.9836 69.4363 73.3685 68.9443C72.7059 68.4141 71.8053 68.2116 70.9596 68.4014L70.4103 68.525L70.41 64.1036C73.6947 62.5797 75.8463 59.2643 75.8463 55.5896C75.8463 50.8069 72.2491 46.8512 67.6186 46.2791C67.215 43.0139 65.1293 40.2641 62.2564 38.9258L62.2565 17.5383C62.2565 7.86762 54.3889 0 44.7183 0H39.2822C36.0745 0 32.9359 0.874289 30.2059 2.52837C29.6248 2.88045 29.4391 3.6371 29.7912 4.21838C30.1434 4.79981 30.9001 4.98537 31.4812 4.63296C33.8266 3.21202 36.5242 2.46094 39.2822 2.46094H44.7183C53.032 2.46094 59.7956 9.22474 59.7956 17.5383V22.0354C59.3362 21.8479 58.8342 21.7435 58.3082 21.7435H52.8723C50.6063 21.7435 48.7542 19.9418 48.6709 17.6958C48.9635 16.7888 49.1233 15.823 49.1233 14.8199C49.1233 14.1402 48.5724 13.5895 47.8929 13.5895C47.2133 13.5895 46.6624 14.1402 46.6624 14.8199C46.6624 18.6377 43.5565 21.7434 39.739 21.7434H25.6927C25.1666 21.7434 24.6644 21.8477 24.205 22.0352V17.5383C24.205 13.8605 25.5439 10.3184 27.975 7.56443C28.4247 7.05502 28.3763 6.2772 27.8669 5.8275C27.3573 5.3778 26.5798 5.42637 26.1301 5.93562C23.3017 9.13959 21.7441 13.2604 21.7441 17.5383L21.7443 38.9258C18.8714 40.2641 16.7856 43.0139 16.382 46.2791C11.7515 46.8512 8.1543 50.8069 8.1543 55.5896C8.1543 59.2641 10.3058 62.5795 13.5903 64.1035V80.0515C13.5903 82.2288 15.3616 83.9998 17.5388 83.9998H20.5135C21.193 83.9998 21.7439 83.4491 21.7439 82.7694C21.7439 82.0897 21.193 81.5389 20.5135 81.5389H17.5388C16.7187 81.5389 16.0513 80.8717 16.0513 80.0515V63.7437C16.0513 58.3142 21.9643 54.1029 27.0512 54.1029L31.547 54.1027L28.8546 58.1413C27.6589 59.9352 28.1018 62.3142 29.8629 63.5572L38.9426 69.9666L39.5756 71.6546C39.9583 72.6754 40.91 73.3348 42.0001 73.3348C43.0901 73.3348 44.0418 72.6753 44.4246 71.6546L45.0575 69.9668L54.1374 63.5575C55.8986 62.3144 56.3416 59.9353 55.1457 58.1414L52.4533 54.1029L58.3081 54.1027C63.4775 54.1027 67.7085 58.193 67.9377 63.307C67.9379 63.3188 67.938 63.3306 67.9385 63.3426C67.9439 63.4758 67.9487 63.6092 67.9487 63.7437L67.949 69.079L61.1222 70.6151C61.0591 70.6291 60.9921 70.6292 60.9296 70.6151L51.0923 68.4018C50.2467 68.2119 49.346 68.4144 48.6832 68.9446C48.0681 69.4367 47.7154 70.1569 47.7154 70.9206V73.7036C47.5227 73.7945 47.3403 73.907 47.1733 74.0407C46.5582 74.5328 46.2055 75.253 46.2055 76.0167V81.4109C46.2055 81.4542 46.2101 81.4966 46.2124 81.5394H25.435C24.7555 81.5394 24.2045 82.0901 24.2045 82.7699C24.2045 83.4496 24.7555 84.0003 25.435 84.0003H73.1058C74.6169 84.0003 75.8463 82.8388 75.8463 81.4109V76.0167C75.8463 75.2527 75.4934 74.5324 74.8784 74.0404ZM59.7956 25.6905V25.6922V25.6938V31.1218C59.7956 31.124 59.7953 31.1259 59.7953 31.1282V31.1346C59.7918 31.9518 59.1262 32.6158 58.3082 32.6158H56.8207V24.2048H58.3082C59.1279 24.2046 59.7946 24.8712 59.7956 25.6905ZM47.0215 20.7304C48.1545 22.7988 50.3522 24.2046 52.8723 24.2046H54.3597V33.8466C54.3597 40.6616 48.8154 46.2059 42.0006 46.2059C35.1857 46.2059 29.6412 40.6616 29.6412 33.8466L29.6411 24.2046H39.739C42.675 24.2046 45.2994 22.8483 47.0215 20.7304ZM48.9237 52.649L46.2437 59.7954H37.7568L35.0768 52.6488V46.9468C37.1446 48.0441 39.5009 48.667 42.0004 48.667C44.4997 48.667 46.856 48.0442 48.9237 46.947V52.649ZM24.2052 25.6922C24.2052 24.872 24.8724 24.2048 25.6927 24.2048H27.1801L27.1803 32.6158H25.6927C24.8724 32.6158 24.2052 31.9485 24.2052 31.1284V25.6922ZM27.0509 51.6421C23.8187 51.6421 20.478 52.9098 17.8858 55.1204C15.7862 56.9108 14.4034 59.104 13.8561 61.4535C11.872 60.2052 10.6151 58.0023 10.6151 55.5898C10.6151 51.7742 13.7175 48.67 17.5321 48.6665C17.5342 48.6665 17.5362 48.6668 17.5385 48.6668C17.5408 48.6668 17.5429 48.6665 17.5452 48.6665C18.3354 48.6672 19.1097 48.7996 19.8467 49.0601C20.4875 49.2862 21.1904 48.9507 21.4169 48.3102C21.6434 47.6695 21.3077 46.9665 20.667 46.7399C20.081 46.5327 19.4777 46.387 18.8638 46.3002C19.4077 43.0215 22.2619 40.5129 25.6924 40.5129C26.372 40.5129 26.9229 39.9622 26.9229 39.2825C26.9229 38.6028 26.372 38.052 25.6924 38.052C25.1863 38.052 24.6898 38.0935 24.2052 38.1711V34.7849C24.6646 34.9724 25.1666 35.0767 25.6927 35.0767H27.2317C27.5713 39.1901 29.5974 42.8325 32.6159 45.3083V51.642L27.0509 51.6421ZM31.282 61.5466C30.6186 61.0785 30.4517 60.1822 30.9022 59.5065L33.5377 55.5532L37.4065 65.8698L31.282 61.5466ZM42.0002 70.8737C41.9113 70.8737 41.8924 70.8235 41.88 70.7902L38.6798 62.2561H45.321L42.1208 70.7902C42.108 70.8235 42.0893 70.8737 42.0002 70.8737ZM52.7184 61.5467L46.594 65.8698L50.4627 55.553L53.0982 59.5063C53.5489 60.1821 53.3821 61.0783 52.7184 61.5467ZM58.3082 51.6416L51.3845 51.6418V45.3085C54.403 42.8325 56.4294 39.1901 56.769 35.0766H58.3081C58.834 35.0766 59.3359 34.9724 59.7951 34.7849V38.1711C59.3105 38.0937 58.814 38.052 58.3079 38.052C57.6283 38.052 57.0774 38.6028 57.0774 39.2825C57.0774 39.9622 57.6283 40.5129 58.3079 40.5129C61.7384 40.5129 64.5926 43.0215 65.1365 46.3002C64.5226 46.387 63.9193 46.5327 63.3333 46.7399C62.6926 46.9665 62.3568 47.6695 62.5834 48.3102C62.8099 48.9508 63.5131 49.2865 64.1536 49.0601C64.8906 48.7996 65.665 48.6672 66.4551 48.6665C66.4574 48.6665 66.4595 48.6668 66.4618 48.6668C66.4639 48.6668 66.4661 48.6665 66.4682 48.6665C70.2828 48.67 73.3852 51.7744 73.3852 55.5898C73.3852 57.9858 72.1457 60.1753 70.1852 61.4281C69.1017 55.8592 64.1894 51.6416 58.3082 51.6416ZM71.4998 70.8025C71.6447 70.7698 71.7661 70.814 71.8312 70.8661C71.8585 70.888 71.8754 70.9111 71.8754 70.9203V73.6312L62.2565 75.7954V72.882L71.4998 70.8025ZM50.2208 70.866C50.2859 70.814 50.4073 70.7695 50.5522 70.8023L59.7954 72.882V75.7954L50.1765 73.6312V70.9201C50.1766 70.9111 50.1935 70.8878 50.2208 70.866ZM48.9462 81.5391C48.7583 81.5391 48.6704 81.4331 48.6666 81.4116V81.4106V76.0164C48.6666 76.0072 48.6835 75.9841 48.7107 75.9622C48.7604 75.9225 48.8426 75.8874 48.943 75.8874C48.9744 75.8874 49.0077 75.8909 49.0421 75.8986L59.7954 78.3179V81.5391H52.872H48.9462ZM73.3854 81.4116C73.3816 81.4332 73.2937 81.5391 73.1058 81.5391H62.2565V78.318L73.0099 75.8984C73.1551 75.8659 73.2761 75.9099 73.3413 75.9622C73.3685 75.9841 73.3854 76.0072 73.3854 76.0164V81.4116Z" fill="#0C0A0B"/>
</g>
<defs>
<clipPath id="clip0_883_16922">
<rect width="84" height="84" fill="white"/>
</clipPath>
</defs>
</svg>
