<svg width="84" height="84" viewBox="0 0 84 84" fill="none" xmlns="http://www.w3.org/2000/svg">
<path d="M35.4375 13.125H39.375V22.3125H35.4375V13.125Z" fill="#51A37E"/>
<path d="M51.1875 21H55.125V30.1875H51.1875V21Z" fill="#ED6445"/>
<path d="M66.9375 15.75H70.875V36.75H66.9375V15.75Z" fill="#51A37E"/>
<path d="M43.3125 15.75H47.25V34.125H43.3125V15.75Z" fill="#ED6445"/>
<path d="M59.0625 21H63V42H59.0625V21Z" fill="#51A37E"/>
<path d="M57.7488 14.4375C57.4508 14.4377 57.1617 14.3362 56.9292 14.1499L51.1607 9.53501L46.7241 12.8626C46.5068 13.0254 46.2444 13.1168 45.973 13.1244C45.7016 13.1319 45.4346 13.0551 45.2086 12.9045L37.9673 8.07703L30.7737 11.6739L29.5996 9.32608L37.4746 5.38858C37.6816 5.28507 37.9122 5.23812 38.1432 5.2525C38.3741 5.26688 38.5972 5.34207 38.7897 5.47045L45.8921 10.2054L50.3992 6.82493C50.632 6.65035 50.9162 6.55808 51.2072 6.56264C51.4982 6.56719 51.7794 6.6683 52.0066 6.85008L57.6517 11.3663L60.7585 8.25936C61.0047 8.01326 61.3385 7.875 61.6866 7.87499H67.7055L73.8835 1.69685L75.7398 3.55313L69.1773 10.1156C68.9311 10.3617 68.5972 10.5 68.2491 10.5H62.2303L58.6773 14.0531C58.5554 14.1751 58.4107 14.2719 58.2514 14.3378C58.092 14.4038 57.9213 14.4377 57.7488 14.4375Z" fill="#89A8F5"/>
<path d="M69.0047 74.614C68.8434 74.9376 68.5951 75.2098 68.2875 75.3999C67.98 75.59 67.6255 75.6906 67.264 75.6902C67.0543 75.69 66.8461 75.6562 66.6471 75.5902L60.375 73.5L51.0661 75.828C50.7256 75.9138 50.3805 75.98 50.0325 76.0266C49.5739 76.0922 49.1111 76.1251 48.6478 76.125C47.0066 76.1249 45.3907 75.7196 43.9437 74.9452C42.4967 74.1707 41.2632 73.051 40.3528 71.6855L37.0305 66.7029L36.5482 65.9794L32.8125 60.375V80.0625H6.56248V66.1024L6.20975 65.6857C5.02665 64.2871 4.2681 62.5795 4.02352 60.764C3.77893 58.9486 4.05853 57.1011 4.82932 55.4393C5.60012 53.7775 6.82999 52.3707 8.37393 51.3848C9.91787 50.399 11.7115 49.8751 13.5433 49.875H17.0625L19.6875 47.25H27.5625L30.1875 49.875H34.6237C35.6847 49.8749 36.7298 50.132 37.6696 50.6244C38.6094 51.1167 39.4158 51.8295 40.0198 52.7018L45.0729 60.0009L49.875 66.9375H61.1592C62.1433 66.9374 63.1147 67.1587 64.0017 67.585C64.8886 68.0112 65.6682 68.6316 66.2829 69.4001L68.7849 72.5271C69.017 72.8177 69.161 73.1686 69.2 73.5384C69.2389 73.9082 69.1712 74.2815 69.0047 74.614Z" fill="#FFCEB6"/>
<path d="M49.3539 72.911L46.8175 69.7413C45.6864 68.3262 44.2084 67.2278 42.5272 66.5527C40.846 65.8777 39.0188 65.6491 37.2231 65.8891L36.5488 65.9794L37.0312 66.7029L40.3534 71.6855C41.2639 73.051 42.4973 74.1707 43.9444 74.9452C45.3914 75.7196 47.0072 76.1249 48.6484 76.125C49.1118 76.1251 49.5745 76.0922 50.0331 76.0265C50.1704 75.4902 50.1804 74.9292 50.0625 74.3883C49.9446 73.8474 49.7019 73.3415 49.3539 72.911Z" fill="#FFB089"/>
<path d="M45.0729 60.0009L37.0305 66.7029L32.8125 60.375V80.0625H6.56248V66.1024L6.20975 65.6857C5.02665 64.2871 4.2681 62.5795 4.02352 60.764C3.77893 58.9486 4.05853 57.1011 4.82932 55.4393C5.60012 53.7775 6.82999 52.3707 8.37393 51.3848C9.91786 50.399 11.7115 49.8751 13.5433 49.875H17.0625L19.6875 47.25H27.5625L30.1875 49.875H34.6237C35.6847 49.8749 36.7298 50.132 37.6696 50.6244C38.6094 51.1167 39.4158 51.8295 40.0197 52.7018L45.0729 60.0009Z" fill="#ED6445"/>
<path d="M31.5 31.5V41.8819C31.5 42.937 31.0888 43.9507 30.3536 44.7076C29.6184 45.4645 28.6172 45.9051 27.5625 45.9359V47.25L26.6585 48.4559L23.625 52.5L19.6875 47.25V31.5H31.5Z" fill="#FFCEB6"/>
<path d="M17.3265 36.4901C16.8476 35.7716 16.567 34.9393 16.5134 34.0775C16.4597 33.2156 16.6348 32.3549 17.021 31.5826C17.4278 30.769 18.0531 30.0848 18.8269 29.6065C19.6007 29.1283 20.4924 28.875 21.402 28.875H30.524C30.8245 28.875 31.1221 28.9342 31.3997 29.0492C31.6773 29.1642 31.9296 29.3327 32.1421 29.5452C32.3545 29.7577 32.5231 30.01 32.6381 30.2876C32.753 30.5652 32.8122 30.8628 32.8122 31.1633C32.8122 31.6435 32.6611 32.1115 32.3803 32.5011C32.0995 32.8906 31.7033 33.182 31.2478 33.3339L28.8748 34.125L22.3123 32.8125V35.4375L18.8998 38.85L17.3265 36.4901Z" fill="#B36F42"/>
<path d="M27.5625 45.9359V47.25L26.6585 48.4559C25.7952 48.2525 25.0259 47.7635 24.4753 47.0682C23.9247 46.3728 23.6251 45.5119 23.625 44.625V43.3125L23.817 43.6948C24.1532 44.3689 24.6708 44.936 25.3116 45.3322C25.9524 45.7283 26.691 45.938 27.4444 45.9375C27.4837 45.9375 27.5231 45.9375 27.5625 45.9359Z" fill="#FFB089"/>
<path d="M16.3021 57.9571C15.849 57.391 15.0228 57.2993 14.4567 57.7524C13.8906 58.2054 13.7989 59.0316 14.252 59.5978L17.9028 64.1598C18.3558 64.7259 19.182 64.8176 19.7481 64.3645C20.3143 63.9115 20.4059 63.0853 19.9529 62.5192L16.3021 57.9571Z" fill="#DE402F"/>
<path d="M8.4113 66.2302C7.94303 65.6771 7.11506 65.6084 6.56198 66.0767C6.00891 66.5449 5.94015 67.3729 6.40842 67.926L9.29268 71.3326C9.76095 71.8857 10.5889 71.9544 11.142 71.4862C11.6951 71.0179 11.7638 70.1899 11.2956 69.6369L8.4113 66.2302Z" fill="#DE402F"/>
<path d="M23.625 61.6875C23.2769 61.6875 22.9431 61.5492 22.6969 61.3031C22.4508 61.0569 22.3125 60.7231 22.3125 60.375V52.5H24.9375V60.375C24.9375 60.7231 24.7992 61.0569 24.5531 61.3031C24.3069 61.5492 23.9731 61.6875 23.625 61.6875Z" fill="#DE402F"/>
<path d="M22.3119 36.75H19.7293C19.3221 36.75 18.9231 36.8634 18.5768 37.0774C18.2305 37.2914 17.9506 37.5977 17.7685 37.9618C17.5628 38.3733 17.4917 38.8391 17.5654 39.2933C17.6391 39.7474 17.8538 40.1669 18.1792 40.4922L19.6869 42H22.3119V36.75Z" fill="#FFCEB6"/>
<path d="M23.625 52.5L19.6875 56.4375L17.0625 49.875L19.6875 47.25L23.625 52.5Z" fill="#F79A7E"/>
<path d="M27.5625 47.25L30.1875 49.875L27.5625 56.4375L23.625 52.5L27.5625 47.25Z" fill="#F79A7E"/>
<path d="M23.9395 76.125H55.1249V80.0625H23.9395V76.125Z" fill="#CAD8ED"/>
<path d="M70.875 80.0625L80.0625 61.6875H60.375L51.1875 80.0625H70.875Z" fill="#E4E9F2"/>
<path d="M24.4319 70.2425L37.5692 68.4908C38.7577 68.3324 39.9667 68.4471 41.1042 68.8262C42.5459 69.3068 43.818 70.1938 44.7674 71.3805L47.3032 74.5503C47.4172 74.6928 47.4887 74.8647 47.5093 75.0461C47.53 75.2275 47.499 75.411 47.4199 75.5756C47.3408 75.7401 47.2169 75.879 47.0623 75.9762C46.9077 76.0734 46.7289 76.125 46.5463 76.125L42.0005 76.1249L39.3755 74.8125L28.3957 79.2044C26.9786 79.7712 25.4663 80.0625 23.9399 80.0625C22.1963 80.0625 20.4737 79.6824 18.892 78.9488C17.3102 78.2152 15.9074 77.1457 14.7811 75.8146L11.1426 71.5145L19.7268 64.361L24.4319 70.2425Z" fill="#FFCEB6"/>
<path d="M20.8007 69.3875L22.9422 69.1023C23.2872 69.0563 23.6362 69.1493 23.9127 69.3607C24.1891 69.5722 24.3702 69.8848 24.4161 70.2297C24.4621 70.5747 24.3691 70.9238 24.1577 71.2002C23.9462 71.4766 23.6337 71.6577 23.2887 71.7036L21.1472 71.9889C20.8022 72.0348 20.4531 71.9419 20.1767 71.7304C19.9003 71.519 19.7192 71.2064 19.6732 70.8615C19.6273 70.5165 19.7203 70.1674 19.9317 69.891C20.1431 69.6146 20.4557 69.4335 20.8007 69.3875L20.8007 69.3875Z" fill="#FFB089"/>
</svg>
