<svg width="28" height="28" fill="none" xmlns="http://www.w3.org/2000/svg"><path d="M14 2.94C7.902 2.94 2.94 7.902 2.94 14c0 3.709 1.835 6.996 4.644 9.004V20.56c0-2.06 1.671-3.731 3.732-3.731h5.369c2.06 0 3.732 1.67 3.732 3.731v2.444A11.054 11.054 0 0 0 25.06 14C25.06 7.902 20.1 2.94 14 2.94Zm0 11.593a3.834 3.834 0 0 1-3.829-3.829 3.833 3.833 0 0 1 3.83-3.829 3.833 3.833 0 0 1 3.829 3.83A3.833 3.833 0 0 1 14 14.532Z" fill="#fff"/><path d="M14 0C6.268 0 0 6.268 0 14s6.268 14 14 14 14-6.268 14-14S21.732 0 14 0Zm0 26.482c-6.883 0-12.482-5.6-12.482-12.482 0-6.883 5.6-12.482 12.482-12.482 6.883 0 12.482 5.6 12.482 12.482 0 6.883-5.6 12.482-12.482 12.482Z" fill="#fff"/></svg>