<svg width="56" height="84" viewBox="0 0 56 84" fill="none" xmlns="http://www.w3.org/2000/svg">
<path d="M49.7481 31.8713L51.7369 30.0833C58.6552 0.124359 37.4523 3.28568 37.4523 3.28568C37.4523 3.28568 31.0535 -2.37038 19.5439 1.15943C8.30741 4.6054 7.35568 12.2876 0.853556 16.1623C0.336431 16.4704 0.271954 17.1924 0.736908 17.5745C1.72391 18.3857 3.57322 19.4691 6.4156 19.4782C6.23645 22.5855 6.53619 26.0999 7.39374 30.0451L9.37546 31.8714H49.7481V31.8713Z" fill="#2D4456"/>
<path d="M12.7169 25.692C10.0868 25.692 7.89394 27.562 7.39453 30.0449C7.5248 30.6441 7.66704 31.2524 7.82323 31.8714H13.2783V25.7209C13.0936 25.7017 12.9064 25.692 12.7169 25.692Z" fill="#253847"/>
<path d="M51.3008 31.8712C51.4573 31.2619 51.6015 30.667 51.7364 30.083C51.2517 27.5812 49.0505 25.6918 46.4071 25.6918C46.2175 25.6918 46.0303 25.7017 45.8457 25.7205V31.8711H51.3008V31.8712Z" fill="#253847"/>
<path d="M13.278 35.3515V28.8255C13.0934 28.8066 12.9061 28.7968 12.7166 28.7968C10.2574 28.7968 8.18025 30.4315 7.51235 32.6736C7.36584 33.1656 9.71801 38.1035 12.7166 38.1035L13.3192 36.5169C13.2918 36.132 13.278 35.7435 13.278 35.3515Z" fill="#FFC4AD"/>
<path d="M12.7166 36.551C10.2575 36.551 8.18141 34.9157 7.51352 32.6738C7.36684 33.1659 7.28711 33.6866 7.28711 34.2262C7.28711 37.2248 9.71802 39.6557 12.7166 39.6557C13.0959 39.6557 13.466 39.6165 13.8235 39.5425L15.0548 38.0531L13.3203 36.5167C13.122 36.5388 12.9207 36.551 12.7166 36.551Z" fill="#FFB69F"/>
<path d="M54.0255 82.4476H5.09923L3.54688 80.8953V70.1456C3.54688 59.0651 12.5293 50.0827 23.6097 50.0827H35.5149C46.5954 50.0827 55.5778 59.0651 55.5778 70.1456V80.8953L54.0255 82.4476Z" fill="#86DCFF"/>
<path d="M4.40935 84.0001H12.5309L13.8246 82.4477L15.1182 84.0001H44.0067L45.3003 82.4477L46.5939 84.0001H54.7155C55.1918 84.0001 55.578 83.614 55.578 83.1376V80.8954H3.54688V83.1376C3.54688 83.614 3.93291 84.0001 4.40935 84.0001Z" fill="#56CAED"/>
<path d="M26.5432 57.4653L29.5614 55.913L32.5797 57.4653L34.8826 70.0873L34.2526 72.2761L29.5619 77.015L24.9058 72.3118L24.2402 70.0871L26.5432 57.4653Z" fill="#FF5876"/>
<path d="M28.9486 74.8435L24.2398 70.0872L23.8421 72.2666C23.7916 72.5437 23.8795 72.828 24.0777 73.0282L28.9486 77.9482C29.2861 78.2892 29.837 78.2892 30.1744 77.9482L35.0443 73.0283C35.2425 72.8282 35.3303 72.5439 35.2797 72.2668L34.8821 70.0874L30.1743 74.8435C29.8368 75.1844 29.2861 75.1844 28.9486 74.8435Z" fill="#E6485D"/>
<path d="M32.5793 57.4654H26.5428L23.6758 50.0827H35.4464L32.5793 57.4654Z" fill="#E6485D"/>
<path d="M45.8459 35.3515V28.8255C46.0304 28.8066 46.2178 28.7968 46.4073 28.7968C48.8664 28.7968 50.9436 30.4315 51.6115 32.6736C51.758 33.1656 49.4059 38.1035 46.4073 38.1035L45.8047 36.5169C45.8321 36.132 45.8459 35.7435 45.8459 35.3515Z" fill="#FFC4AD"/>
<path d="M46.4067 36.551C48.8659 36.551 50.9419 34.9157 51.6098 32.6738C51.7563 33.1659 51.8362 33.6866 51.8362 34.2262C51.8362 37.2248 49.4053 39.6557 46.4066 39.6557C46.0273 39.6557 45.6571 39.6165 45.2996 39.5425L44.0684 38.0531L45.8028 36.5167C46.0013 36.5388 46.2026 36.551 46.4067 36.551Z" fill="#FFB69F"/>
<path d="M34.9744 13.1964C28.8208 20.08 17.0682 22.168 14.0174 22.6052C13.593 22.6661 13.2793 23.0298 13.2793 23.4585V31.8713V33.7992C13.2793 42.7923 20.5696 50.0826 29.5627 50.0826C38.5557 50.0826 45.846 42.7923 45.846 33.7992V32.2469V23.5701C45.846 23.2277 45.6447 22.9178 45.331 22.7809C43.8007 22.113 39.2127 19.6688 36.3964 13.4241C36.1421 12.8601 35.3869 12.7351 34.9744 13.1964Z" fill="#FFE0CC"/>
<path d="M29.5628 48.5303C20.5697 48.5303 13.2793 41.24 13.2793 32.2469V35.3517C13.2793 44.3448 20.5697 51.635 29.5627 51.635C38.5557 51.635 45.846 44.3448 45.846 35.3517V32.2469C45.8462 41.24 38.5559 48.5303 29.5628 48.5303Z" fill="#FFCEB3"/>
<path d="M26.5529 33.461C27.2646 29.8246 24.8937 26.2998 21.2573 25.5881C17.6209 24.8764 14.0961 27.2473 13.3844 30.8837C12.6727 34.5201 15.0436 38.0449 18.68 38.7567C22.3164 39.4684 25.8412 37.0974 26.5529 33.461Z" fill="#E4EEF9"/>
<path d="M39.8347 38.8131C43.5192 38.4201 46.1877 35.1147 45.7947 31.4301C45.4018 27.7455 42.0963 25.0771 38.4118 25.47C34.7272 25.8629 32.0588 29.1684 32.4517 32.853C32.8446 36.5376 36.1501 39.206 39.8347 38.8131Z" fill="#E4EEF9"/>
<path d="M15.1185 80.8952V72.6258C15.1185 71.9114 14.5394 71.3322 13.8249 71.3322C13.1104 71.3322 12.5312 71.9114 12.5312 72.6258V80.8952L13.8249 82.4476L15.1185 80.8952Z" fill="#41ADF7"/>
<path d="M12.5312 80.8954H15.1185V84.0001H12.5312V80.8954Z" fill="#1BA0EA"/>
<path d="M46.5931 80.8952V72.6258C46.5931 71.9114 46.014 71.3322 45.2995 71.3322C44.585 71.3322 44.0059 71.9114 44.0059 72.6258V80.8952L45.2995 82.4476L46.5931 80.8952Z" fill="#41ADF7"/>
<path d="M44.0059 80.8954H46.5931V84.0001H44.0059V80.8954Z" fill="#1BA0EA"/>
<path d="M33.6282 39.2683C32.9661 38.9958 32.2088 39.3114 31.9362 39.9732C31.9318 39.9841 31.4337 41.0669 29.5652 41.0669C27.6967 41.0669 27.1986 39.9841 27.1942 39.9732C26.9217 39.3114 26.1644 38.9958 25.5022 39.2683C24.8404 39.5408 24.5247 40.2982 24.7971 40.9601C25.2098 41.9625 26.6785 43.6591 29.565 43.6591C32.4516 43.6591 33.9203 41.9625 34.333 40.9601C34.6057 40.2982 34.2902 39.5408 33.6282 39.2683Z" fill="#FF5876"/>
<path d="M21.6594 35.2813C22.3752 35.2813 22.9555 34.701 22.9555 33.9852V30.3278C22.9555 29.612 22.3753 29.0317 21.6594 29.0317C20.9436 29.0317 20.3633 29.612 20.3633 30.3278V33.9852C20.3634 34.701 20.9436 35.2813 21.6594 35.2813Z" fill="#2D4456"/>
<path d="M37.4699 29.0319C36.7541 29.0319 36.1738 29.6122 36.1738 30.328V33.9854C36.1738 34.7012 36.754 35.2815 37.4699 35.2815C38.1857 35.2815 38.766 34.7012 38.766 33.9854V30.328C38.7659 29.6122 38.1857 29.0319 37.4699 29.0319Z" fill="#2D4456"/>
<path d="M39.1329 24.1669C35.1592 24.1669 31.854 27.0777 31.2337 30.8788H27.8892C27.2689 27.0777 23.9636 24.1669 19.99 24.1669C15.5757 24.1669 11.9844 27.7582 11.9844 32.1725C11.9844 36.5867 15.5757 40.1779 19.99 40.1779C23.9637 40.1779 27.2689 37.2671 27.8892 33.4661H31.2337C31.8541 37.2671 35.1593 40.1779 39.1329 40.1779C43.547 40.1779 47.1385 36.5866 47.1385 32.1725C47.1385 27.7582 43.5472 24.1669 39.1329 24.1669ZM19.99 37.5906C17.0024 37.5906 14.5716 35.16 14.5716 32.1725C14.5716 29.1849 17.0022 26.7541 19.99 26.7541C22.9774 26.7541 25.4081 29.1847 25.4081 32.1725C25.408 35.16 22.9774 37.5906 19.99 37.5906ZM39.1329 37.5906C36.1455 37.5906 33.7148 35.16 33.7148 32.1725C33.7148 29.1849 36.1454 26.7541 39.1329 26.7541C42.1207 26.7541 44.5513 29.1847 44.5513 32.1725C44.5513 35.16 42.1207 37.5906 39.1329 37.5906Z" fill="#2D4456"/>
</svg>
