<svg width="184" height="47" viewBox="0 0 184 47" fill="none" xmlns="http://www.w3.org/2000/svg">
<path d="M158.457 46.88H1.91902C1.53678 46.88 1.16335 46.7651 0.847106 46.5502C0.530863 46.3353 0.286387 46.0303 0.145355 45.6747C0.00432269 45.3192 -0.0267658 44.9294 0.0561174 44.5559C0.139001 44.1824 0.332035 43.8424 0.610211 43.58L20.4822 24.84C20.6718 24.6606 20.8228 24.4443 20.926 24.2045C21.0292 23.9646 21.0824 23.7062 21.0824 23.445C21.0824 23.1839 21.0292 22.9255 20.926 22.6856C20.8228 22.4457 20.6718 22.2295 20.4822 22.05L0.610211 3.31003C0.328442 3.04831 0.132213 2.70752 0.0472245 2.33228C-0.0377642 1.95705 -0.00754978 1.56488 0.13391 1.20712C0.27537 0.84937 0.521481 0.542718 0.840007 0.32733C1.15853 0.111943 1.53463 -0.0021379 1.91902 3.03434e-05H158.457C158.944 2.06117e-05 159.412 0.186031 159.766 0.52003L182.595 22.05C182.785 22.2295 182.936 22.4457 183.039 22.6856C183.142 22.9255 183.195 23.1839 183.195 23.445C183.195 23.7062 183.142 23.9646 183.039 24.2045C182.936 24.4443 182.785 24.6606 182.595 24.84L159.766 46.36C159.414 46.6976 158.944 46.8842 158.457 46.88Z" fill="#B4171D"/>
</svg>
