<svg width="70" height="70" viewBox="0 0 70 70" fill="none" xmlns="http://www.w3.org/2000/svg">
<circle cx="35" cy="35" r="35" fill="#5E79B4" fill-opacity="0.28"/>
<mask id="mask0_57_189" style="mask-type:alpha" maskUnits="userSpaceOnUse" x="1" y="3" width="68" height="67">
<circle cx="34.9999" cy="36.5907" r="33.4091" fill="#DAE5FF"/>
</mask>
<g mask="url(#mask0_57_189)">
<path d="M39.1842 49.7422H30.8152V59.1154H39.1842V49.7422Z" fill="#FDCC9B"/>
<path d="M30.8154 50.8463C30.8154 50.8463 34.3359 53.0881 39.1845 52.5688V49.7422H30.8154V50.8463Z" fill="#FCBC85"/>
<path d="M18.7474 39.8668C21.0027 39.8668 22.831 37.7809 22.831 35.2078C22.831 32.6347 21.0027 30.5488 18.7474 30.5488C16.4921 30.5488 14.6638 32.6347 14.6638 35.2078C14.6638 37.7809 16.4921 39.8668 18.7474 39.8668Z" fill="#FCBC85"/>
<path d="M51.2523 39.8668C53.5076 39.8668 55.3359 37.7809 55.3359 35.2078C55.3359 32.6347 53.5076 30.5488 51.2523 30.5488C48.997 30.5488 47.1687 32.6347 47.1687 35.2078C47.1687 37.7809 48.997 39.8668 51.2523 39.8668Z" fill="#FCBC85"/>
<path d="M51.2356 26.3089C51.2356 19.4465 46.2142 14.4248 34.9997 14.4248C23.7852 14.4248 18.7638 19.4462 18.7638 26.3089C18.7638 33.1716 17.5922 51.2487 34.9997 51.2487C52.4072 51.2487 51.2356 33.1716 51.2356 26.3089Z" fill="#FDCC9B"/>
<path d="M27.092 36.0169C28.0626 36.0169 28.8495 35.155 28.8495 34.0919C28.8495 33.0288 28.0626 32.167 27.092 32.167C26.1213 32.167 25.3345 33.0288 25.3345 34.0919C25.3345 35.155 26.1213 36.0169 27.092 36.0169Z" fill="#3B2519"/>
<path d="M26.3259 33.7679C26.6161 33.7679 26.8514 33.5326 26.8514 33.2424C26.8514 32.9521 26.6161 32.7168 26.3259 32.7168C26.0356 32.7168 25.8003 32.9521 25.8003 33.2424C25.8003 33.5326 26.0356 33.7679 26.3259 33.7679Z" fill="white"/>
<path d="M24.2804 29.3218C25.1114 29.7375 26.4459 27.9097 29.5005 29.4998C30.0574 29.7896 30.3897 27.0205 27.1155 27.0205C24.2804 27.0205 23.7781 29.071 24.2804 29.3218Z" fill="#51362A"/>
<path d="M43.1252 36.0169C44.0958 36.0169 44.8827 35.155 44.8827 34.0919C44.8827 33.0288 44.0958 32.167 43.1252 32.167C42.1545 32.167 41.3677 33.0288 41.3677 34.0919C41.3677 35.155 42.1545 36.0169 43.1252 36.0169Z" fill="#3B2519"/>
<path d="M42.3588 33.7679C42.6491 33.7679 42.8844 33.5326 42.8844 33.2424C42.8844 32.9521 42.6491 32.7168 42.3588 32.7168C42.0686 32.7168 41.8333 32.9521 41.8333 33.2424C41.8333 33.5326 42.0686 33.7679 42.3588 33.7679Z" fill="white"/>
<path d="M45.7195 29.3218C44.8885 29.7375 43.554 27.9097 40.4994 29.4998C39.9425 29.7896 39.6102 27.0205 42.8847 27.0205C45.7195 27.0205 46.2215 29.071 45.7195 29.3218Z" fill="#51362A"/>
<path d="M34.9998 40.8627C33.2631 40.8627 32.217 39.5655 32.217 40.193C32.217 40.8208 32.7193 42.0135 34.9998 42.0135C37.2803 42.0135 37.7826 40.8208 37.7826 40.193C37.7826 39.5652 36.7362 40.8627 34.9998 40.8627Z" fill="#FCBC85"/>
<path d="M35 46.6336C34.3992 46.6336 34.0374 46.1849 34.0374 46.4022C34.0374 46.6194 34.211 47.0317 35 47.0317C35.7889 47.0317 35.9623 46.6194 35.9623 46.4022C35.9623 46.1849 35.6004 46.6336 35 46.6336Z" fill="#FCBC85"/>
<path d="M34.9999 45.0343C32.2473 45.0343 30.5889 43.9134 30.5889 44.1975C30.5889 44.4817 31.3849 45.5994 34.9999 45.5994C38.6149 45.5994 39.4109 44.4817 39.4109 44.1975C39.4106 43.9134 37.7525 45.0343 34.9999 45.0343Z" fill="#F7945E"/>
<path d="M34.9998 54.0801V70.7018H15.0537C15.0537 63.9738 25.56 54.0801 34.9998 54.0801Z" fill="#F7941E"/>
<path d="M35 54.0801V70.7018H54.9461C54.9461 63.9738 44.4398 54.0801 35 54.0801Z" fill="#F7941E"/>
<path d="M34.9998 53.5078C32.9527 53.5078 30.8567 53.7939 28.8247 54.2822C28.8384 54.3002 31.0785 57.1903 34.9998 57.1903C38.631 57.1903 41.045 54.7153 41.395 54.3346C39.2944 53.8133 37.1209 53.5078 34.9998 53.5078Z" fill="#F36C21"/>
<path d="M30.8152 53.8723C30.8152 53.8723 32.0392 55.3904 34.9996 55.3904C37.96 55.3904 39.1842 53.8723 39.1842 53.8723C39.1842 53.8723 34.843 52.2919 30.8152 53.8723Z" fill="#FDCC9B"/>
<path d="M48.3482 12.96C48.3482 12.96 42.3226 5.30245 29.7988 8.1897C17.2752 11.0767 16.3368 18.609 16.7135 25.9371C17.0901 33.2656 18.0943 37.5647 19.2821 37.0334C20.4699 36.5019 19.8518 31.6646 19.9774 30.5483C20.1029 29.4319 21.2327 24.3835 28.8495 25.1368C36.4661 25.8901 42.8846 23.1282 42.8846 23.1282C42.8846 23.1282 45.4684 26.3941 47.1686 27.0199C50.5664 28.27 49.452 36.6061 50.7833 36.6061C52.1146 36.6061 58.6422 17.3537 48.3482 12.96Z" fill="#51362A"/>
</g>
</svg>
