<svg width="100" height="27" viewBox="0 0 100 27" fill="none" xmlns="http://www.w3.org/2000/svg">
<path d="M37.9908 11.5535C37.7324 13.6932 36.1817 13.6932 34.7603 13.6932H33.985L34.6311 9.55645C34.6311 9.27116 34.8895 9.12852 35.148 9.12852H35.5356C36.5694 9.12852 37.474 9.12852 37.9908 9.6991C37.9908 10.2697 37.9908 10.8403 37.9908 11.5535ZM37.3447 5.84766H31.7882C31.4006 5.84766 31.1421 6.13295 31.0129 6.56089L28.8162 22.252C28.8162 22.5373 28.9454 22.8225 29.3331 22.8225H31.9175C32.3051 22.8225 32.5636 22.5373 32.6928 22.1093L33.3389 17.8299C33.3389 17.402 33.7266 17.1167 34.1142 17.1167H35.9233C39.5415 17.1167 41.609 15.1197 42.2551 11.2682C42.5135 9.55645 42.2551 8.27264 41.609 7.27412C40.5752 6.41824 39.1538 5.84766 37.3447 5.84766Z" fill="#263577"/>
<path d="M50.1376 17.2607C49.8791 18.9724 48.7161 20.1136 47.1655 20.1136C46.3902 20.1136 45.7441 19.8283 45.3564 19.2577C44.9688 18.6871 44.8395 17.9739 44.9687 17.2607C45.2272 15.5489 46.3902 14.4077 47.9408 14.4077C48.7162 14.4077 49.3622 14.693 49.7499 15.2636C50.0084 15.6916 50.2668 16.4048 50.1376 17.2607ZM53.7558 11.5548H51.1713C50.9129 11.5548 50.7837 11.6975 50.6544 11.9828L50.5252 12.8386L50.396 12.5533C49.8791 11.6975 48.5869 11.2695 47.2947 11.2695C44.3227 11.2695 41.8675 13.6945 41.3506 17.118C41.0921 18.8298 41.4798 20.3989 42.3843 21.5401C43.1596 22.5386 44.3226 22.9665 45.7441 22.9665C48.07 22.9665 49.3622 21.2548 49.3622 21.2548L49.233 22.1106C49.233 22.3959 49.3622 22.6812 49.7499 22.6812H52.0759C52.4635 22.6812 52.722 22.3959 52.8512 21.968L54.2726 11.9828C54.2726 11.8401 54.1434 11.5548 53.7558 11.5548Z" fill="#263577"/>
<path d="M67.8409 11.5547H65.1272C64.8688 11.5547 64.6103 11.6973 64.4811 11.9826L60.8629 17.9738L59.3123 12.2679C59.1831 11.84 58.9246 11.6973 58.5369 11.6973H55.9525C55.6941 11.6973 55.4357 11.9826 55.5649 12.4106L58.5369 21.8252L55.8233 26.1046C55.5649 26.3899 55.8233 26.9605 56.211 26.9605H58.9246C59.1831 26.9605 59.4415 26.8178 59.5707 26.5325L68.3577 12.4106C68.4869 11.9826 68.2285 11.5547 67.8409 11.5547Z" fill="#263577"/>
<path d="M77.2738 11.5535C77.0154 13.6932 75.4647 13.6932 74.0433 13.6932H73.2679L73.914 9.55645C73.914 9.27116 74.1725 9.12852 74.431 9.12852H74.8186C75.8524 9.12852 76.7569 9.12852 77.2738 9.6991C77.403 10.2697 77.403 10.8403 77.2738 11.5535ZM76.6277 5.84766H71.0712C70.6836 5.84766 70.4251 6.13295 70.2959 6.56089L68.0991 22.252C68.0991 22.5373 68.2284 22.8225 68.616 22.8225H71.4589C71.7173 22.8225 71.9757 22.6799 71.9757 22.252L72.6218 17.8299C72.6218 17.402 73.0095 17.1167 73.3972 17.1167H75.2063C78.8244 17.1167 80.892 15.1197 81.5381 11.2682C81.7965 9.55645 81.5381 8.27264 80.892 7.27412C79.9874 6.41824 78.566 5.84766 76.6277 5.84766Z" fill="#2199D6"/>
<path d="M89.5499 17.2607C89.2915 18.9724 88.1285 20.1136 86.5779 20.1136C85.8025 20.1136 85.1564 19.8283 84.7688 19.2577C84.3811 18.6871 84.2519 17.9739 84.3811 17.2607C84.6395 15.5489 85.8025 14.4077 87.3532 14.4077C88.1285 14.4077 88.7746 14.693 89.1623 15.2636C89.4207 15.6916 89.6791 16.4048 89.5499 17.2607ZM93.1681 11.5548H90.5837C90.3253 11.5548 90.196 11.6975 90.0668 11.9828L89.9376 12.8386L89.8084 12.5533C89.2915 11.6975 87.9993 11.2695 86.7071 11.2695C83.735 11.2695 81.2798 13.6945 80.7629 17.118C80.5045 18.8298 80.8921 20.3989 81.7967 21.5401C82.572 22.5386 83.735 22.9665 85.1564 22.9665C87.4824 22.9665 88.7746 21.2548 88.7746 21.2548L88.6454 22.1106C88.6454 22.3959 88.7746 22.6812 89.1623 22.6812H91.4882C91.8759 22.6812 92.1343 22.3959 92.2635 21.968L93.685 11.9828C93.685 11.8401 93.4265 11.5548 93.1681 11.5548Z" fill="#2199D6"/>
<path d="M96.2694 6.27559L93.9434 22.252C93.9434 22.5373 94.0726 22.8225 94.4603 22.8225H96.7862C97.1739 22.8225 97.4323 22.5373 97.5616 22.1093L99.7583 6.41824C99.7583 6.13295 99.6291 5.84766 99.2414 5.84766H96.657C96.5278 5.84766 96.3986 6.13295 96.2694 6.27559Z" fill="#2199D6"/>
<path d="M5.81501 25.8185L6.20265 22.823H5.29811H0.775391L3.8767 0.998113C3.8767 0.998113 3.87669 0.855469 4.00591 0.855469H4.13513H11.7591C14.2143 0.855469 16.0234 1.42605 16.928 2.56722C17.3156 3.13781 17.5741 3.70839 17.7033 4.27898C17.8325 4.99221 17.8325 5.70543 17.7033 6.70396V7.27454L18.091 7.55984C18.4786 7.70248 18.7371 7.98778 18.9955 8.27307C19.3832 8.70101 19.6416 9.27159 19.6416 9.98482C19.7708 10.6981 19.7708 11.5539 19.5124 12.5525C19.2539 13.6936 18.9955 14.5495 18.6078 15.4054C18.2202 16.1186 17.7033 16.6892 17.1864 17.2598C16.6695 17.6877 15.8942 17.973 15.2481 18.2583C14.4728 18.4009 13.6975 18.5436 12.7929 18.5436H12.1468C11.7591 18.5436 11.3715 18.6862 10.9838 18.9715C10.7254 19.2568 10.4669 19.6848 10.3377 20.1127V20.398L9.5624 25.6759V25.8185V25.9612C9.5624 25.9612 9.56239 25.9612 9.43317 25.9612H5.81501V25.8185Z" fill="#263577"/>
<path d="M18.6077 6.70508C18.6077 6.84772 18.6077 6.99037 18.4785 7.13302C17.4447 12.8389 14.085 14.6933 9.6915 14.6933H7.49473C6.97785 14.6933 6.46099 15.1212 6.46099 15.6918L5.29799 23.68L5.03955 25.9623C5.03955 26.3902 5.29798 26.6755 5.55643 26.6755H9.56227C10.0792 26.6755 10.4668 26.2476 10.4668 25.8197V25.5344L11.2421 20.3991V20.1138C11.3714 19.5432 11.759 19.2579 12.1467 19.2579H12.7928C16.6694 19.2579 19.6415 17.5462 20.4168 12.5536C20.8045 10.4139 20.546 8.70213 19.6415 7.56096C19.383 7.27567 18.9954 6.99037 18.6077 6.70508Z" fill="#2199D6"/>
<path d="M17.5739 6.27559C17.4447 6.27559 17.3155 6.13295 17.057 6.13295C16.9278 6.13295 16.6693 5.9903 16.5401 5.9903C15.894 5.84765 15.2479 5.84766 14.6018 5.84766H8.65768C8.52846 5.84766 8.39924 5.84765 8.27002 5.9903C8.01158 6.13295 7.75314 6.41824 7.75314 6.70353L6.46094 15.5476V15.8329C6.59016 15.2623 6.9778 14.8344 7.49469 14.8344H9.69145C14.085 14.8344 17.4447 12.8373 18.4784 7.27412C18.4784 7.13147 18.4784 6.98883 18.6077 6.84618C18.3492 6.70353 18.0908 6.56089 17.8323 6.41824C17.7031 6.2756 17.5739 6.27559 17.5739 6.27559Z" fill="#252C5E"/>
<path d="M7.75324 6.70436C7.75324 6.41907 8.01167 6.13378 8.27011 5.99113C8.39933 5.99113 8.52856 5.84849 8.65778 5.84849H14.6019C15.248 5.84849 16.0233 5.84849 16.5402 5.99113C16.6694 5.99113 16.9279 5.99114 17.0571 6.13378C17.1863 6.13378 17.3155 6.27643 17.574 6.27643C17.7032 6.27643 17.7032 6.27643 17.8324 6.41908C18.0909 6.56172 18.3493 6.70437 18.6078 6.84701C18.8662 4.70732 18.6078 3.28086 17.574 1.99704C16.411 0.570581 14.3435 0 11.7591 0H4.13506C3.61817 0 3.10129 0.427934 3.10129 0.998519L0 22.966C0 23.394 0.258441 23.8219 0.646103 23.8219H5.29803L6.46103 15.5484L7.75324 6.70436Z" fill="#263577"/>
</svg>
