<svg width="66" height="66" viewBox="0 0 66 66" fill="none" xmlns="http://www.w3.org/2000/svg">
<path d="M30.75 27.75L31.281 27.219L30.75 26.6895L30.219 27.219L30.75 27.75ZM36.75 33.75L36.219 34.281L36.75 34.8105L37.281 34.281L36.75 33.75ZM12 21.75V41.25H13.5V21.75H12ZM54 41.25V21.75H52.5V41.25H54ZM50.25 18H15.75V19.5H50.25V18ZM15.75 45H33.75V43.5H15.75V45ZM33.75 45H50.25V43.5H33.75V45ZM33 44.25V50.25H34.5V44.25H33ZM33.75 49.5H25.5V51H33.75V49.5ZM33.75 51H42V49.5H33.75V51ZM54 21.75C54 20.7554 53.6049 19.8016 52.9017 19.0983C52.1984 18.3951 51.2446 18 50.25 18V19.5C50.8467 19.5 51.419 19.7371 51.841 20.159C52.2629 20.581 52.5 21.1533 52.5 21.75H54ZM52.5 41.25C52.5 41.8467 52.2629 42.419 51.841 42.841C51.419 43.2629 50.8467 43.5 50.25 43.5V45C51.2446 45 52.1984 44.6049 52.9017 43.9016C53.6049 43.1984 54 42.2446 54 41.25H52.5ZM12 41.25C12 42.2446 12.3951 43.1984 13.0983 43.9016C13.8016 44.6049 14.7554 45 15.75 45V43.5C15.1533 43.5 14.581 43.2629 14.159 42.841C13.7371 42.419 13.5 41.8467 13.5 41.25H12ZM13.5 21.75C13.5 21.1533 13.7371 20.581 14.159 20.159C14.581 19.7371 15.1533 19.5 15.75 19.5V18C14.7554 18 13.8016 18.3951 13.0983 19.0983C12.3951 19.8016 12 20.7554 12 21.75H13.5ZM21.531 38.031L31.281 28.281L30.219 27.219L20.469 36.969L21.531 38.031ZM30.219 28.281L36.219 34.281L37.281 33.219L31.281 27.219L30.219 28.281ZM37.281 34.281L47.031 24.531L45.969 23.469L36.219 33.219L37.281 34.281Z" fill="#ED1C24" stroke="#ED1C24"/>
</svg>
