<svg width="66" height="66" viewBox="0 0 66 66" fill="none" xmlns="http://www.w3.org/2000/svg">
<mask id="path-1-inside-1_883_13208" fill="white">
<path d="M63.7836 47.9266C63.6911 47.777 63.562 47.6536 63.4085 47.568C63.2549 47.4824 63.0821 47.4375 62.9063 47.4375H47.4375C47.246 47.4375 47.0583 47.4908 46.8954 47.5915C46.7325 47.6922 46.6008 47.8362 46.5151 48.0075L44.7377 51.5625H39.7278L32.2919 40.8217C31.7225 39.9994 30.9622 39.3273 30.0762 38.8631C29.1902 38.3989 28.2049 38.1563 27.2046 38.1562H24.146L22.8973 36.9075C23.7364 36.6267 24.4662 36.0896 24.9836 35.3718C25.5011 34.654 25.7801 33.7918 25.7813 32.907V26.6681C26.2311 26.2977 26.5556 25.7975 26.7103 25.2357C26.8651 24.6739 26.8425 24.078 26.6458 23.5296C26.449 22.9811 26.0877 22.5068 25.6111 22.1715C25.1346 21.8361 24.5661 21.6562 23.9834 21.6563H16.816C15.9327 21.6563 15.0661 21.896 14.3084 22.3499C13.5507 22.8037 12.9304 23.4548 12.5136 24.2335C12.0969 25.0122 11.8993 25.8894 11.9419 26.7717C11.9846 27.6539 12.2659 28.5079 12.7558 29.2428L12.9572 29.5451C12.7488 30.0481 12.6943 30.6016 12.8006 31.1355C12.907 31.6695 13.1695 32.1599 13.5548 32.5445L14.4375 33.4271V36.6977L12.979 38.1562H10.6414C9.00538 38.1563 7.40344 38.6241 6.02452 39.5046C4.64559 40.3851 3.54718 41.6415 2.85882 43.1257C2.17046 44.6099 1.92084 46.26 2.1394 47.8813C2.35797 49.5027 3.0356 51.0278 4.0924 52.2768L4.125 52.3153V63.9375H6.1875V54.7528L10.8261 60.2348C11.807 61.396 13.0297 62.329 14.4086 62.9686C15.7876 63.6081 17.2896 63.9388 18.8096 63.9375H55.6875C55.879 63.9375 56.0667 63.8842 56.2296 63.7835C56.3926 63.6828 56.5242 63.5388 56.6099 63.3675L63.8286 48.93C63.9072 48.7728 63.9444 48.598 63.9365 48.4224C63.9286 48.2468 63.8759 48.0761 63.7836 47.9266ZM39.1875 53.625H43.7064L41.4236 58.1906L39.8728 58.5782C39.3729 58.7025 38.8604 58.77 38.3453 58.7794C38.2974 58.4687 38.1686 58.1761 37.9717 57.931L35.9792 55.4404C35.3255 54.622 34.5013 53.956 33.564 53.4886C32.6266 53.0212 31.5987 52.7637 30.5517 52.734L30.468 52.6085L35.2086 48.6581L38.3397 53.1808C38.4346 53.3178 38.5613 53.4298 38.7089 53.5072C38.8566 53.5846 39.0208 53.625 39.1875 53.625ZM25.9798 61.875L28.5579 60.8438H40.097L39.5814 61.875H25.9798ZM28.2153 52.9475L26.8125 53.1346V50.8434L28.2153 52.9475ZM22.5087 39.4359L21.2796 42.5087L19.9416 41.1706L21.844 38.7712L22.5087 39.4359ZM15.3571 38.695L17.2008 41.1532L15.8454 42.5087L14.6163 39.4359L15.3571 38.695ZM21.5632 35.0625C21.1626 35.0639 20.7697 34.9529 20.4289 34.7423C20.0881 34.5317 19.8132 34.2298 19.6353 33.8709L19.4849 33.57L17.6401 34.4925L17.7906 34.7932C18.0661 35.3486 18.4614 35.8359 18.9481 36.2201C19.4347 36.6042 20.0005 36.8755 20.6047 37.0145L18.5852 39.5615L16.5 36.7812V33C16.5 32.7265 16.3914 32.4642 16.198 32.2707L15.0133 31.086C14.9166 30.9894 14.8508 30.8663 14.8241 30.7322C14.7974 30.5981 14.8111 30.4591 14.8634 30.3329C14.9157 30.2066 15.0043 30.0986 15.118 30.0227C15.2317 29.9468 15.3653 29.9062 15.502 29.9062H16.5C16.7735 29.9062 17.0358 29.7976 17.2293 29.6043L18.2605 28.573C18.4539 28.3796 18.5625 28.1173 18.5625 27.8438V27.0392L22.4852 27.8237C22.6612 27.8589 22.8434 27.8475 23.0137 27.7908L23.7188 27.5557V32.907C23.7181 33.4785 23.4908 34.0264 23.0867 34.4305C22.6826 34.8346 22.1347 35.0619 21.5632 35.0625ZM14.2961 25.2762C14.5287 24.8071 14.888 24.4125 15.3334 24.1373C15.7788 23.862 16.2924 23.717 16.816 23.7188H23.9834C24.1654 23.7188 24.3414 23.7836 24.4801 23.9015C24.6187 24.0195 24.7108 24.1829 24.74 24.3626C24.7691 24.5422 24.7334 24.7264 24.6392 24.8821C24.545 25.0379 24.3985 25.155 24.2258 25.2126L22.6212 25.7475L17.7336 24.77C17.5839 24.7401 17.4295 24.7437 17.2815 24.7807C17.1335 24.8176 16.9955 24.887 16.8775 24.9837C16.7595 25.0804 16.6644 25.2022 16.5991 25.3401C16.5339 25.478 16.5 25.6287 16.5 25.7812V27.4166L16.0729 27.8438H15.502C15.1384 27.8432 14.7783 27.9145 14.4423 28.0534C14.1803 27.6424 14.0292 27.1707 14.0036 26.684C13.978 26.1974 14.0788 25.7124 14.2961 25.2762ZM10.6414 40.2188H12.7081L14.5113 44.7267C14.5747 44.8851 14.6764 45.0254 14.8073 45.1349C14.9382 45.2443 15.0942 45.3196 15.2614 45.3539C15.4286 45.3883 15.6017 45.3806 15.7651 45.3315C15.9286 45.2825 16.0773 45.1937 16.198 45.073L17.5313 43.7398V48.4688H19.5938V43.7398L20.927 45.073C21.0477 45.1937 21.1964 45.2825 21.3599 45.3316C21.5234 45.3806 21.6964 45.3883 21.8636 45.354C22.0308 45.3197 22.1868 45.2444 22.3178 45.1349C22.4487 45.0254 22.5504 44.8852 22.6137 44.7267L24.4169 40.2188H27.2046C27.8715 40.2188 28.5284 40.3805 29.119 40.69C29.7097 40.9995 30.2166 41.4475 30.5962 41.9957L34.03 46.9556L29.3175 50.8827L26.6393 46.8655C26.5165 46.6813 26.3377 46.5416 26.1294 46.4669C25.9211 46.3921 25.6943 46.3864 25.4824 46.4506C25.2706 46.5147 25.085 46.6453 24.9531 46.823C24.8212 47.0007 24.75 47.2162 24.75 47.4375V53.4096L19.6375 54.0913L12.149 44.7307L10.5385 46.0193L14.0625 50.4244L8.88072 54.7425L5.66697 50.9445C4.86421 49.9959 4.34947 48.8374 4.18343 47.6058C4.01739 46.3742 4.20698 45.1209 4.72985 43.9935C5.25271 42.8661 6.08705 41.9117 7.13447 41.2429C8.18189 40.5741 9.39871 40.2188 10.6414 40.2188ZM12.4007 58.9025L10.2129 56.317L15.3511 52.0351L17.2507 54.4095L15.3324 54.6653L15.6051 56.7097L18.7548 56.2897L18.7885 56.3318L18.8583 56.2759L29.6546 54.8364C30.5369 54.7188 31.4345 54.8313 32.2605 55.1629C33.0864 55.4945 33.8127 56.0339 34.3688 56.7288L36.0107 58.7812L33.2435 58.7811L31.3986 57.8589C31.2684 57.7938 31.1258 57.757 30.9804 57.751C30.8349 57.7449 30.6898 57.7697 30.5546 57.8238L21.9277 61.2745C20.2916 61.9289 18.4912 62.052 16.7813 61.6263C15.0714 61.2006 13.5389 60.2476 12.4007 58.9025ZM55.0502 61.875H41.8874L48.0749 49.5H61.2377L55.0502 61.875Z"/>
</mask>
<path d="M63.7836 47.9266C63.6911 47.777 63.562 47.6536 63.4085 47.568C63.2549 47.4824 63.0821 47.4375 62.9063 47.4375H47.4375C47.246 47.4375 47.0583 47.4908 46.8954 47.5915C46.7325 47.6922 46.6008 47.8362 46.5151 48.0075L44.7377 51.5625H39.7278L32.2919 40.8217C31.7225 39.9994 30.9622 39.3273 30.0762 38.8631C29.1902 38.3989 28.2049 38.1563 27.2046 38.1562H24.146L22.8973 36.9075C23.7364 36.6267 24.4662 36.0896 24.9836 35.3718C25.5011 34.654 25.7801 33.7918 25.7813 32.907V26.6681C26.2311 26.2977 26.5556 25.7975 26.7103 25.2357C26.8651 24.6739 26.8425 24.078 26.6458 23.5296C26.449 22.9811 26.0877 22.5068 25.6111 22.1715C25.1346 21.8361 24.5661 21.6562 23.9834 21.6563H16.816C15.9327 21.6563 15.0661 21.896 14.3084 22.3499C13.5507 22.8037 12.9304 23.4548 12.5136 24.2335C12.0969 25.0122 11.8993 25.8894 11.9419 26.7717C11.9846 27.6539 12.2659 28.5079 12.7558 29.2428L12.9572 29.5451C12.7488 30.0481 12.6943 30.6016 12.8006 31.1355C12.907 31.6695 13.1695 32.1599 13.5548 32.5445L14.4375 33.4271V36.6977L12.979 38.1562H10.6414C9.00538 38.1563 7.40344 38.6241 6.02452 39.5046C4.64559 40.3851 3.54718 41.6415 2.85882 43.1257C2.17046 44.6099 1.92084 46.26 2.1394 47.8813C2.35797 49.5027 3.0356 51.0278 4.0924 52.2768L4.125 52.3153V63.9375H6.1875V54.7528L10.8261 60.2348C11.807 61.396 13.0297 62.329 14.4086 62.9686C15.7876 63.6081 17.2896 63.9388 18.8096 63.9375H55.6875C55.879 63.9375 56.0667 63.8842 56.2296 63.7835C56.3926 63.6828 56.5242 63.5388 56.6099 63.3675L63.8286 48.93C63.9072 48.7728 63.9444 48.598 63.9365 48.4224C63.9286 48.2468 63.8759 48.0761 63.7836 47.9266ZM39.1875 53.625H43.7064L41.4236 58.1906L39.8728 58.5782C39.3729 58.7025 38.8604 58.77 38.3453 58.7794C38.2974 58.4687 38.1686 58.1761 37.9717 57.931L35.9792 55.4404C35.3255 54.622 34.5013 53.956 33.564 53.4886C32.6266 53.0212 31.5987 52.7637 30.5517 52.734L30.468 52.6085L35.2086 48.6581L38.3397 53.1808C38.4346 53.3178 38.5613 53.4298 38.7089 53.5072C38.8566 53.5846 39.0208 53.625 39.1875 53.625ZM25.9798 61.875L28.5579 60.8438H40.097L39.5814 61.875H25.9798ZM28.2153 52.9475L26.8125 53.1346V50.8434L28.2153 52.9475ZM22.5087 39.4359L21.2796 42.5087L19.9416 41.1706L21.844 38.7712L22.5087 39.4359ZM15.3571 38.695L17.2008 41.1532L15.8454 42.5087L14.6163 39.4359L15.3571 38.695ZM21.5632 35.0625C21.1626 35.0639 20.7697 34.9529 20.4289 34.7423C20.0881 34.5317 19.8132 34.2298 19.6353 33.8709L19.4849 33.57L17.6401 34.4925L17.7906 34.7932C18.0661 35.3486 18.4614 35.8359 18.9481 36.2201C19.4347 36.6042 20.0005 36.8755 20.6047 37.0145L18.5852 39.5615L16.5 36.7812V33C16.5 32.7265 16.3914 32.4642 16.198 32.2707L15.0133 31.086C14.9166 30.9894 14.8508 30.8663 14.8241 30.7322C14.7974 30.5981 14.8111 30.4591 14.8634 30.3329C14.9157 30.2066 15.0043 30.0986 15.118 30.0227C15.2317 29.9468 15.3653 29.9062 15.502 29.9062H16.5C16.7735 29.9062 17.0358 29.7976 17.2293 29.6043L18.2605 28.573C18.4539 28.3796 18.5625 28.1173 18.5625 27.8438V27.0392L22.4852 27.8237C22.6612 27.8589 22.8434 27.8475 23.0137 27.7908L23.7188 27.5557V32.907C23.7181 33.4785 23.4908 34.0264 23.0867 34.4305C22.6826 34.8346 22.1347 35.0619 21.5632 35.0625ZM14.2961 25.2762C14.5287 24.8071 14.888 24.4125 15.3334 24.1373C15.7788 23.862 16.2924 23.717 16.816 23.7188H23.9834C24.1654 23.7188 24.3414 23.7836 24.4801 23.9015C24.6187 24.0195 24.7108 24.1829 24.74 24.3626C24.7691 24.5422 24.7334 24.7264 24.6392 24.8821C24.545 25.0379 24.3985 25.155 24.2258 25.2126L22.6212 25.7475L17.7336 24.77C17.5839 24.7401 17.4295 24.7437 17.2815 24.7807C17.1335 24.8176 16.9955 24.887 16.8775 24.9837C16.7595 25.0804 16.6644 25.2022 16.5991 25.3401C16.5339 25.478 16.5 25.6287 16.5 25.7812V27.4166L16.0729 27.8438H15.502C15.1384 27.8432 14.7783 27.9145 14.4423 28.0534C14.1803 27.6424 14.0292 27.1707 14.0036 26.684C13.978 26.1974 14.0788 25.7124 14.2961 25.2762ZM10.6414 40.2188H12.7081L14.5113 44.7267C14.5747 44.8851 14.6764 45.0254 14.8073 45.1349C14.9382 45.2443 15.0942 45.3196 15.2614 45.3539C15.4286 45.3883 15.6017 45.3806 15.7651 45.3315C15.9286 45.2825 16.0773 45.1937 16.198 45.073L17.5313 43.7398V48.4688H19.5938V43.7398L20.927 45.073C21.0477 45.1937 21.1964 45.2825 21.3599 45.3316C21.5234 45.3806 21.6964 45.3883 21.8636 45.354C22.0308 45.3197 22.1868 45.2444 22.3178 45.1349C22.4487 45.0254 22.5504 44.8852 22.6137 44.7267L24.4169 40.2188H27.2046C27.8715 40.2188 28.5284 40.3805 29.119 40.69C29.7097 40.9995 30.2166 41.4475 30.5962 41.9957L34.03 46.9556L29.3175 50.8827L26.6393 46.8655C26.5165 46.6813 26.3377 46.5416 26.1294 46.4669C25.9211 46.3921 25.6943 46.3864 25.4824 46.4506C25.2706 46.5147 25.085 46.6453 24.9531 46.823C24.8212 47.0007 24.75 47.2162 24.75 47.4375V53.4096L19.6375 54.0913L12.149 44.7307L10.5385 46.0193L14.0625 50.4244L8.88072 54.7425L5.66697 50.9445C4.86421 49.9959 4.34947 48.8374 4.18343 47.6058C4.01739 46.3742 4.20698 45.1209 4.72985 43.9935C5.25271 42.8661 6.08705 41.9117 7.13447 41.2429C8.18189 40.5741 9.39871 40.2188 10.6414 40.2188ZM12.4007 58.9025L10.2129 56.317L15.3511 52.0351L17.2507 54.4095L15.3324 54.6653L15.6051 56.7097L18.7548 56.2897L18.7885 56.3318L18.8583 56.2759L29.6546 54.8364C30.5369 54.7188 31.4345 54.8313 32.2605 55.1629C33.0864 55.4945 33.8127 56.0339 34.3688 56.7288L36.0107 58.7812L33.2435 58.7811L31.3986 57.8589C31.2684 57.7938 31.1258 57.757 30.9804 57.751C30.8349 57.7449 30.6898 57.7697 30.5546 57.8238L21.9277 61.2745C20.2916 61.9289 18.4912 62.052 16.7813 61.6263C15.0714 61.2006 13.5389 60.2476 12.4007 58.9025ZM55.0502 61.875H41.8874L48.0749 49.5H61.2377L55.0502 61.875Z" fill="#ED1C24" stroke="#FABBBE" mask="url(#path-1-inside-1_883_13208)"/>
<path d="M29.9062 16.75H30.1562V16.5V11.3438V11.0938H29.9062H28.875H28.625V11.3438V16.5V16.75H28.875H29.9062ZM27.2913 9.76009C27.4378 9.61358 27.6366 9.53126 27.8438 9.53125H30.9375C31.1447 9.53126 31.3434 9.61358 31.4899 9.76009C31.6364 9.9066 31.7187 10.1053 31.7188 10.3125C31.7188 10.3125 31.7188 10.3125 31.7188 10.3125V17.5312C31.7187 17.7384 31.6364 17.9371 31.4899 18.0837C31.3434 18.2302 31.1447 18.3125 30.9375 18.3125H27.8438C27.6366 18.3125 27.4379 18.2302 27.2913 18.0837C27.1448 17.9371 27.0625 17.7384 27.0625 17.5312V10.3125C27.0625 10.3125 27.0625 10.3125 27.0625 10.3125C27.0625 10.1053 27.1448 9.9066 27.2913 9.76009ZM27.8438 9.53125H30.9375H27.8438Z" fill="#ED1C24" stroke="#FABBBE" stroke-width="0.5"/>
<path d="M42.2812 22.9375H42.5312V22.6875V17.5312V17.2812H42.2812H41.25H41V17.5312V22.6875V22.9375H41.25H42.2812ZM39.6663 15.9476C39.8128 15.8011 40.0116 15.7188 40.2188 15.7188H43.3125C43.5197 15.7188 43.7184 15.8011 43.8649 15.9476C44.0114 16.0941 44.0937 16.2928 44.0938 16.5C44.0938 16.5 44.0938 16.5 44.0938 16.5V23.7187C44.0937 23.9259 44.0114 24.1246 43.8649 24.2712C43.7184 24.4177 43.5197 24.5 43.3125 24.5H40.2188C40.0116 24.5 39.8129 24.4177 39.6663 24.2712C39.5198 24.1246 39.4375 23.9259 39.4375 23.7188V16.5C39.4375 16.5 39.4375 16.5 39.4375 16.5C39.4375 16.2928 39.5198 16.0941 39.6663 15.9476ZM40.2188 15.7188H43.3125H40.2188Z" fill="#ED1C24" stroke="#FABBBE" stroke-width="0.5"/>
<path d="M54.6562 28.0938H54.9062V27.8438V13.4062V13.1562H54.6562H53.625H53.375V13.4062V27.8438V28.0938H53.625H54.6562ZM52.0413 11.8226C52.1878 11.6761 52.3866 11.5938 52.5938 11.5938H55.6875C55.8947 11.5938 56.0934 11.6761 56.2399 11.8226C56.3864 11.9691 56.4687 12.1678 56.4688 12.375C56.4688 12.375 56.4688 12.375 56.4688 12.375V28.875C56.4687 29.0822 56.3864 29.2809 56.2399 29.4274C56.0934 29.5739 55.8947 29.6562 55.6875 29.6562H52.5938C52.3866 29.6562 52.1879 29.5739 52.0413 29.4274C51.8948 29.2809 51.8125 29.0822 51.8125 28.875V12.375C51.8125 12.375 51.8125 12.375 51.8125 12.375C51.8125 12.1678 51.8948 11.9691 52.0413 11.8226ZM52.5938 11.5938H55.6875H52.5938Z" fill="#ED1C24" stroke="#FABBBE" stroke-width="0.5"/>
<path d="M36.0938 26.0312H36.3438V25.7812V13.4062V13.1562H36.0938H35.0625H34.8125V13.4062V25.7812V26.0312H35.0625H36.0938ZM33.4788 11.8226C33.6253 11.6761 33.8241 11.5938 34.0312 11.5938H37.125C37.3322 11.5938 37.5309 11.6761 37.6774 11.8226C37.8239 11.9691 37.9062 12.1678 37.9062 12.375C37.9062 12.375 37.9062 12.375 37.9062 12.375V26.8125C37.9062 27.0197 37.8239 27.2184 37.6774 27.3649C37.5309 27.5114 37.3322 27.5937 37.125 27.5938H34.0313C33.8241 27.5937 33.6254 27.5114 33.4788 27.3649C33.3323 27.2184 33.25 27.0197 33.25 26.8125V12.375C33.25 12.375 33.25 12.375 33.25 12.375C33.25 12.1678 33.3323 11.9691 33.4788 11.8226ZM34.0313 11.5938H37.125H34.0313Z" fill="#ED1C24" stroke="#FABBBE" stroke-width="0.5"/>
<path d="M48.4688 32.2188H48.7188V31.9688V17.5312V17.2812H48.4688H47.4375H47.1875V17.5312V31.9688V32.2188H47.4375H48.4688ZM45.8538 15.9476C46.0003 15.8011 46.1991 15.7188 46.4062 15.7188H49.5C49.7072 15.7188 49.9059 15.8011 50.0524 15.9476C50.1989 16.0941 50.2812 16.2928 50.2812 16.5C50.2812 16.5 50.2812 16.5 50.2812 16.5V33C50.2812 33.2072 50.1989 33.4059 50.0524 33.5524C49.9059 33.6989 49.7072 33.7812 49.5 33.7812H46.4063C46.1991 33.7812 46.0004 33.6989 45.8538 33.5524C45.7073 33.4059 45.625 33.2072 45.625 33V16.5C45.625 16.5 45.625 16.5 45.625 16.5C45.625 16.2928 45.7073 16.0941 45.8538 15.9476ZM46.4063 15.7188H49.5H46.4063Z" fill="#ED1C24" stroke="#FABBBE" stroke-width="0.5"/>
<path d="M29.9706 6.13823L29.8499 6.05776L29.7201 6.12264L24.2916 8.83696L23.5927 7.43945L29.5566 4.4575L29.5567 4.45749C29.6798 4.39588 29.8171 4.36793 29.9546 4.37649C30.092 4.38505 30.2248 4.4298 30.3394 4.50622L30.3394 4.50624L35.9199 8.22651L36.0671 8.32463L36.2086 8.2185L39.7498 5.56247C39.7498 5.56246 39.7498 5.56246 39.7498 5.56245C39.8884 5.45854 40.0576 5.40363 40.2308 5.40634C40.404 5.40905 40.5714 5.46923 40.7067 5.57743C40.7067 5.57744 40.7067 5.57744 40.7067 5.57744L45.1421 9.12588L45.3168 9.26567L45.4751 9.10744L47.9161 6.66631C47.9161 6.6663 47.9161 6.66629 47.9161 6.66627C48.0626 6.5198 48.2614 6.43751 48.4686 6.4375H53.1977H53.3012L53.3745 6.36428L58.0518 1.68681L59.1568 2.79176L54.1773 7.7712C54.1773 7.77121 54.1773 7.77122 54.1773 7.77123C54.0307 7.91771 53.832 8 53.6248 8H48.8957H48.7921L48.7189 8.07323L45.9273 10.865C45.9273 10.865 45.9273 10.865 45.9273 10.865C45.7913 11.0009 45.61 11.0819 45.418 11.0926C45.226 11.1032 45.0369 11.0427 44.8867 10.9226C44.8867 10.9226 44.8867 10.9226 44.8867 10.9226L40.3543 7.29658L40.2031 7.17559L40.0482 7.2918L36.5624 9.90624C36.433 10.0032 36.2768 10.0576 36.1152 10.0621C35.9537 10.0666 35.7947 10.0209 35.6602 9.93127C35.6602 9.93126 35.6602 9.93125 35.6602 9.93123L29.9706 6.13823Z" fill="#ED1C24" stroke="#FABBBE" stroke-width="0.5"/>
</svg>
