<svg width="20" height="20" viewBox="0 0 20 20" fill="none" xmlns="http://www.w3.org/2000/svg">
<g clip-path="url(#clip0_1448_31143)">
<path d="M19.6094 21.2188H19.4531V9.89062C19.4531 9.67488 19.2782 9.5 19.0625 9.5H15.9375C15.7218 9.5 15.5469 9.67488 15.5469 9.89062V21.2188H14.4531V12C14.4531 11.7843 14.2782 11.6094 14.0625 11.6094H10.9375C10.7218 11.6094 10.5469 11.7843 10.5469 12V21.2188H9.45312V14.2614C9.45312 14.0457 9.2782 13.8708 9.0625 13.8708H5.9375C5.7218 13.8708 5.54688 14.0457 5.54688 14.2614V21.2188H4.45312V17.2344C4.45312 17.0186 4.2782 16.8438 4.0625 16.8438H0.9375C0.721797 16.8438 0.546875 17.0186 0.546875 17.2344V21.2188H0.390625C0.174922 21.2188 0 21.3936 0 21.6094C0 21.8251 0.174922 22 0.390625 22H19.6094C19.8251 22 20 21.8251 20 21.6094C20 21.3936 19.8251 21.2188 19.6094 21.2188ZM1.32812 21.2188V17.625H3.67188V21.2188H1.32812ZM6.32812 21.2188V14.652H8.67188V21.2188H6.32812ZM11.3281 21.2188V12.3906H13.6719V21.2188H11.3281ZM16.3281 21.2188V10.2812H18.6719V21.2188H16.3281Z" fill="#555555"/>
<path d="M16.0362 7.65176C16.4554 7.92594 16.7445 8.01215 17.1093 8.03598V8.32812C17.1093 8.54387 17.2842 8.71875 17.4999 8.71875C17.7156 8.71875 17.8905 8.54387 17.8905 8.32812V7.99078C18.579 7.81418 19.0202 7.22535 19.1179 6.64465C19.2454 5.88594 18.849 5.22645 18.1079 4.96449C18.0364 4.93918 17.9635 4.91293 17.8906 4.8859V3.48813C18.0655 3.55051 18.1789 3.63105 18.185 3.63539C18.3568 3.76379 18.6004 3.72961 18.7301 3.55832C18.8604 3.38637 18.8266 3.14137 18.6547 3.01109C18.6351 2.99629 18.3351 2.77363 17.8905 2.67742V2.39062C17.8905 2.17488 17.7156 2 17.4999 2C17.2842 2 17.1093 2.17488 17.1093 2.39062V2.67512C17.0657 2.68465 17.0218 2.69547 16.9774 2.70883C16.4867 2.85625 16.1202 3.2752 16.0206 3.80215C15.9295 4.28512 16.0854 4.75191 16.4277 5.02039C16.6015 5.15668 16.8164 5.28121 17.1093 5.41211V7.25234C16.8783 7.23035 16.722 7.16676 16.4639 6.99793C16.2833 6.8798 16.0412 6.93047 15.9232 7.11102C15.805 7.29152 15.8557 7.53363 16.0362 7.65176ZM18.3474 6.51512C18.3061 6.76074 18.1513 7.01992 17.8905 7.15938V5.71746C18.4032 5.92336 18.3705 6.37773 18.3474 6.51512ZM16.9099 4.40566C16.7998 4.3193 16.752 4.1393 16.7884 3.94711C16.8191 3.78441 16.9192 3.59187 17.1093 3.49453V4.53813C17.0354 4.49527 16.9679 4.45117 16.9099 4.40566Z" fill="#555555"/>
<path d="M2.55183 13.8346C2.62511 13.9078 2.72444 13.949 2.82804 13.949C2.93163 13.949 3.03097 13.9078 3.10425 13.8346L7.6119 9.32691L8.90557 10.6206C8.97885 10.6939 9.07819 10.735 9.18178 10.735C9.28538 10.735 9.38471 10.6939 9.45799 10.6206L13.7398 6.33875L14.0586 6.6575C14.1703 6.76918 14.3383 6.80266 14.4843 6.74215C14.6302 6.68168 14.7254 6.53926 14.7254 6.38125V3.95312C14.7254 3.73738 14.5505 3.5625 14.3348 3.5625H11.9066C11.7486 3.5625 11.6062 3.6577 11.5457 3.80363C11.4853 3.94961 11.5187 4.11762 11.6304 4.22934L11.9531 4.55199L9.18178 7.3234L7.88811 6.02969C7.73553 5.87715 7.48827 5.87715 7.33565 6.02969L1.31753 12.0479C1.16499 12.2004 1.16499 12.4477 1.31753 12.6003L2.55183 13.8346ZM7.6119 6.8584L8.90557 8.15211C8.97885 8.22535 9.07819 8.26652 9.18178 8.26652C9.28538 8.26652 9.38471 8.22535 9.45799 8.15211L12.7818 4.82828C12.855 4.75504 12.8962 4.65566 12.8962 4.55207C12.8962 4.47777 12.875 4.40566 12.836 4.34379H13.9442V5.45336C13.7937 5.36082 13.594 5.37977 13.4636 5.51016L9.18182 9.79199L7.88815 8.49828C7.73557 8.34578 7.48831 8.34578 7.33569 8.49828L2.82804 13.0059L2.1462 12.3241L7.6119 6.8584Z" fill="#555555"/>
</g>
<defs>
<clipPath id="clip0_1448_31143">
<rect width="20" height="20" fill="white"/>
</clipPath>
</defs>
</svg>
