<svg width="20" height="20" viewBox="0 0 20 20" fill="none" xmlns="http://www.w3.org/2000/svg">
<g clip-path="url(#clip0_1448_31181)">
<path d="M18.6146 1.35229H1.38535C0.621509 1.35229 0 1.97381 0 2.73765V14.4267C0 15.1906 0.621509 15.8121 1.38535 15.8121H11.432L11.1287 17.6621C11.0716 18.0104 11.1868 18.3258 11.4368 18.5058C11.6868 18.6859 12.0223 18.6955 12.3346 18.5309L14.5022 17.39C14.5627 17.359 14.7293 17.359 14.7898 17.39L16.9574 18.5309C17.1056 18.609 17.2592 18.6479 17.4064 18.6479C17.5691 18.6479 17.724 18.6003 17.8552 18.5058C18.1052 18.3257 18.2204 18.0102 18.1634 17.662L17.8601 15.812H18.6147C19.3786 15.812 20.0001 15.1905 20.0001 14.4266V2.73765C20 1.97373 19.3785 1.35229 18.6146 1.35229ZM14.646 13.4375C13.3148 13.4375 12.2316 12.3543 12.2316 11.023C12.2316 9.69174 13.3148 8.60855 14.646 8.60855C15.9773 8.60855 17.0605 9.69174 17.0605 11.023C17.0605 12.3543 15.9773 13.4375 14.646 13.4375ZM15.3429 16.3393C14.9391 16.1267 14.3529 16.1267 13.9492 16.3393L12.4167 17.1459L12.9039 14.1742C13.4206 14.461 14.0145 14.6249 14.6461 14.6249C15.2778 14.6249 15.8716 14.4609 16.3883 14.1742L16.5782 15.3327C16.5786 15.3346 16.5788 15.3367 16.5792 15.3386L16.8755 17.146L15.3429 16.3393ZM18.8125 14.4267C18.8125 14.534 18.7219 14.6246 18.6146 14.6246H17.6654L17.4486 13.3019C17.4477 13.2967 17.4463 13.2917 17.4452 13.2865C17.9467 12.6676 18.248 11.8799 18.248 11.023C18.248 9.0369 16.6322 7.4211 14.6461 7.4211C12.66 7.4211 11.0442 9.0369 11.0442 11.023C11.0442 11.8799 11.3455 12.6674 11.847 13.2865C11.846 13.2916 11.8445 13.2967 11.8437 13.3018L11.6267 14.6257C11.62 14.6254 11.6136 14.6246 11.607 14.6246H1.38535C1.27809 14.6246 1.18745 14.534 1.18745 14.4267V2.73765C1.18745 2.63038 1.27809 2.53974 1.38535 2.53974H18.6146C18.7219 2.53974 18.8125 2.63038 18.8125 2.73765V14.4267Z" fill="#ED1C24"/>
<path d="M16.5153 4.76913H3.05759C2.72962 4.76913 2.46387 5.03488 2.46387 5.36286C2.46387 5.69083 2.72962 5.95658 3.05759 5.95658H16.5153C16.8433 5.95658 17.109 5.69083 17.109 5.36286C17.109 5.03488 16.8433 4.76913 16.5153 4.76913Z" fill="#ED1C24"/>
<path d="M8.75733 7.98854H3.05759C2.72962 7.98854 2.46387 8.25429 2.46387 8.58227C2.46387 8.91024 2.72962 9.17599 3.05759 9.17599H8.75733C9.0853 9.17599 9.35105 8.91024 9.35105 8.58227C9.35105 8.25429 9.0853 7.98854 8.75733 7.98854Z" fill="#ED1C24"/>
</g>
<defs>
<clipPath id="clip0_1448_31181">
<rect width="20" height="20" fill="white"/>
</clipPath>
</defs>
</svg>
