<svg width="20" height="20" viewBox="0 0 20 20" fill="none" xmlns="http://www.w3.org/2000/svg">
<g clip-path="url(#clip0_1448_35673)">
<path d="M13.9289 5.53544V4.46401C13.9289 4.36579 13.8485 4.28544 13.7503 4.28544H5.17885C5.08064 4.28544 5.00028 4.36579 5.00028 4.46401V5.53544C5.00028 5.63365 5.08064 5.71401 5.17885 5.71401H13.7503C13.8485 5.71401 13.9289 5.63365 13.9289 5.53544ZM5.17885 7.49972C5.08064 7.49972 5.00028 7.58008 5.00028 7.67829V8.74972C5.00028 8.84794 5.08064 8.92829 5.17885 8.92829H9.28599C9.38421 8.92829 9.46456 8.84794 9.46456 8.74972V7.67829C9.46456 7.58008 9.38421 7.49972 9.28599 7.49972H5.17885ZM8.39314 17.589H3.21456V1.87472H15.7146V9.55329C15.7146 9.65151 15.7949 9.73186 15.8931 9.73186H17.1431C17.2413 9.73186 17.3217 9.65151 17.3217 9.55329V0.981864C17.3217 0.586775 17.0025 0.267578 16.6074 0.267578H2.32171C1.92662 0.267578 1.60742 0.586775 1.60742 0.981864V18.4819C1.60742 18.877 1.92662 19.1961 2.32171 19.1961H8.39314C8.49135 19.1961 8.57171 19.1158 8.57171 19.0176V17.7676C8.57171 17.6694 8.49135 17.589 8.39314 17.589ZM18.3418 18.7386L16.2592 16.656C16.757 15.9975 17.0538 15.1761 17.0538 14.2854C17.0538 12.1158 15.2949 10.3569 13.1253 10.3569C10.9556 10.3569 9.19671 12.1158 9.19671 14.2854C9.19671 16.4551 10.9556 18.214 13.1253 18.214C13.9244 18.214 14.6655 17.9752 15.286 17.5667L17.3998 19.6805C17.4355 19.7162 17.4802 19.7319 17.5248 19.7319C17.5695 19.7319 17.6164 19.714 17.6498 19.6805L18.3418 18.9886C18.3583 18.9722 18.3713 18.9527 18.3802 18.9312C18.3892 18.9098 18.3938 18.8868 18.3938 18.8636C18.3938 18.8403 18.3892 18.8173 18.3802 18.7959C18.3713 18.7744 18.3583 18.7549 18.3418 18.7386ZM13.1253 16.7854C11.7436 16.7854 10.6253 15.6671 10.6253 14.2854C10.6253 12.9037 11.7436 11.7854 13.1253 11.7854C14.507 11.7854 15.6253 12.9037 15.6253 14.2854C15.6253 15.6671 14.507 16.7854 13.1253 16.7854Z" fill="#555555"/>
</g>
<defs>
<clipPath id="clip0_1448_35673">
<rect width="20" height="20" fill="white"/>
</clipPath>
</defs>
</svg>
