<svg width="20" height="20" viewBox="0 0 20 20" fill="none" xmlns="http://www.w3.org/2000/svg">
<g clip-path="url(#clip0_1448_31106)">
<path d="M18.4637 10.0588H10.6122L15.8411 15.2877C16.041 15.4876 16.3699 15.5038 16.5754 15.3102C17.8559 14.1038 18.7367 12.4776 18.9951 10.6494C19.0394 10.3364 18.7797 10.0588 18.4637 10.0588ZM17.9399 7.91469C17.6673 3.96198 14.5087 0.803384 10.556 0.530737C10.2542 0.509892 10.0001 0.76434 10.0001 1.06677V8.47057H17.4042C17.7067 8.47057 17.9608 8.21646 17.9399 7.91469ZM8.41184 10.0588V2.20731C8.41184 1.89132 8.13423 1.63158 7.82154 1.67592C3.87842 2.23312 0.864411 5.67793 1.0047 9.80634C1.14897 14.0463 4.79959 17.5232 9.04151 17.4699C10.7092 17.449 12.2501 16.9117 13.517 16.013C13.7784 15.8277 13.7956 15.4429 13.569 15.2163L8.41184 10.0588Z" fill="#ED1C24"/>
</g>
<defs>
<clipPath id="clip0_1448_31106">
<rect width="18" height="18" fill="white" transform="translate(1)"/>
</clipPath>
</defs>
</svg>
