<svg width="18" height="18" viewBox="0 0 18 18" fill="none" xmlns="http://www.w3.org/2000/svg">
<path d="M3.89088 13.821C3.93106 13.821 3.97123 13.817 4.01141 13.811L7.39043 13.2183C7.43061 13.2103 7.46878 13.1922 7.4969 13.1621L16.0128 4.64623C16.0314 4.62765 16.0462 4.60557 16.0562 4.58127C16.0663 4.55697 16.0715 4.53091 16.0715 4.5046C16.0715 4.47829 16.0663 4.45224 16.0562 4.42794C16.0462 4.40364 16.0314 4.38156 16.0128 4.36297L12.6739 1.02213C12.6357 0.983957 12.5855 0.963867 12.5313 0.963867C12.477 0.963867 12.4268 0.983957 12.3886 1.02213L3.8728 9.53797C3.84266 9.56811 3.82458 9.60427 3.81655 9.64445L3.22391 13.0235C3.20437 13.1311 3.21135 13.2418 3.24426 13.3462C3.27716 13.4505 3.33499 13.5452 3.41275 13.6221C3.54534 13.7507 3.71208 13.821 3.89088 13.821ZM5.24489 10.3174L12.5313 3.03306L14.0038 4.50561L6.71744 11.79L4.9315 12.1054L5.24489 10.3174ZM16.3924 15.5085H1.60672C1.25114 15.5085 0.963867 15.7958 0.963867 16.1514V16.8746C0.963867 16.963 1.03619 17.0353 1.12458 17.0353H16.8746C16.963 17.0353 17.0353 16.963 17.0353 16.8746V16.1514C17.0353 15.7958 16.748 15.5085 16.3924 15.5085Z" fill="#455560"/>
</svg>
