<svg width="20" height="20" viewBox="0 0 20 20" fill="none" xmlns="http://www.w3.org/2000/svg">
<path d="M18.75 2.1875H10.625C10.3764 2.1875 10.1379 2.28627 9.96209 2.46209C9.78627 2.6379 9.6875 2.87636 9.6875 3.125V9.6875C9.6875 9.93614 9.78627 10.1746 9.96209 10.3504C10.1379 10.5262 10.3764 10.625 10.625 10.625H11.875V11.5625C11.875 11.6214 11.8916 11.6791 11.9229 11.7289C11.9543 11.7788 11.9991 11.8188 12.0521 11.8443C12.1052 11.8698 12.1644 11.8798 12.2229 11.8731C12.2814 11.8664 12.3368 11.8434 12.3828 11.8066L13.8597 10.625H18.75C18.9986 10.625 19.2371 10.5262 19.4129 10.3504C19.5887 10.1746 19.6875 9.93614 19.6875 9.6875V3.125C19.6875 2.87636 19.5887 2.6379 19.4129 2.46209C19.2371 2.28627 18.9986 2.1875 18.75 2.1875ZM19.0625 9.6875C19.0625 9.77038 19.0296 9.84987 18.971 9.90847C18.9124 9.96708 18.8329 10 18.75 10H13.75C13.679 9.99997 13.6101 10.0241 13.5547 10.0684L12.5 10.9122V10.3125C12.5 10.2296 12.4671 10.1501 12.4085 10.0915C12.3499 10.0329 12.2704 10 12.1875 10H10.625C10.5421 10 10.4626 9.96708 10.404 9.90847C10.3454 9.84987 10.3125 9.77038 10.3125 9.6875V3.125C10.3125 3.04212 10.3454 2.96263 10.404 2.90403C10.4626 2.84542 10.5421 2.8125 10.625 2.8125H18.75C18.8329 2.8125 18.9124 2.84542 18.971 2.90403C19.0296 2.96263 19.0625 3.04212 19.0625 3.125V9.6875Z" fill="#555555"/>
<path d="M18.125 5.9375C18.125 5.85462 18.0921 5.77514 18.0335 5.71653C17.9749 5.65793 17.8954 5.625 17.8125 5.625H16.5625C16.4796 5.625 16.4001 5.65793 16.3415 5.71653C16.2829 5.77514 16.25 5.85462 16.25 5.9375V8.75H15.625V6.5625C15.625 6.47962 15.5921 6.40014 15.5335 6.34153C15.4749 6.28293 15.3954 6.25 15.3125 6.25H14.0625C13.9796 6.25 13.9001 6.28293 13.8415 6.34153C13.7829 6.40014 13.75 6.47962 13.75 6.5625V8.75H13.125V7.1875C13.125 7.10462 13.0921 7.02514 13.0335 6.96653C12.9749 6.90793 12.8954 6.875 12.8125 6.875H11.5625C11.4796 6.875 11.4001 6.90793 11.3415 6.96653C11.2829 7.02514 11.25 7.10462 11.25 7.1875V8.75H10.9375V9.375H18.4375V8.75H18.125V5.9375ZM16.875 6.25H17.5V8.75H16.875V6.25ZM14.375 6.875H15V8.75H14.375V6.875ZM11.875 7.5H12.5V8.75H11.875V7.5Z" fill="#555555"/>
<path d="M13.1988 5.31251H15.6251C15.6902 5.31255 15.7537 5.29211 15.8066 5.25407L17.9941 3.69156L17.631 3.18343L15.5251 4.6875H13.125C13.0766 4.68746 13.0287 4.69869 12.9854 4.72032L11.1104 5.65782L11.3897 6.2172L13.1988 5.31251Z" fill="#555555"/>
<path d="M1.25 5.625C1.49864 5.625 1.7371 5.52623 1.91291 5.35042C2.08873 5.1746 2.1875 4.93614 2.1875 4.6875C2.18696 4.54829 2.15491 4.411 2.09375 4.28594L3.34844 3.03125C3.47325 3.09313 3.61068 3.12533 3.75 3.12533C3.88931 3.12533 4.02674 3.09313 4.15156 3.03125L5.09375 3.97344C5.03259 4.0985 5.00054 4.23579 5 4.375C5 4.62364 5.09877 4.8621 5.27459 5.03792C5.4504 5.21373 5.68886 5.3125 5.9375 5.3125C6.18614 5.3125 6.4246 5.21373 6.60041 5.03792C6.77623 4.8621 6.875 4.62364 6.875 4.375C6.87446 4.23579 6.84241 4.0985 6.78125 3.97344L8.66094 2.09375C8.786 2.15491 8.92328 2.18696 9.0625 2.1875C9.24792 2.1875 9.42917 2.13252 9.58334 2.0295C9.73752 1.92649 9.85768 1.78007 9.92863 1.60877C9.99959 1.43746 10.0182 1.24896 9.98198 1.0671C9.94581 0.885246 9.85652 0.7182 9.72541 0.587088C9.5943 0.455976 9.42725 0.366688 9.24539 0.330514C9.06354 0.294341 8.87504 0.312906 8.70373 0.383863C8.53243 0.454821 8.38601 0.574982 8.28299 0.729154C8.17998 0.883325 8.125 1.06458 8.125 1.25C8.12554 1.38922 8.15759 1.5265 8.21875 1.65156L6.33906 3.53125C6.21424 3.46937 6.07681 3.43718 5.9375 3.43718C5.79818 3.43718 5.66075 3.46937 5.53594 3.53125L4.59375 2.58906C4.65491 2.464 4.68696 2.32672 4.6875 2.1875C4.6875 1.93886 4.58873 1.7004 4.41291 1.52459C4.2371 1.34877 3.99864 1.25 3.75 1.25C3.50136 1.25 3.2629 1.34877 3.08709 1.52459C2.91127 1.7004 2.8125 1.93886 2.8125 2.1875C2.81304 2.32672 2.84509 2.464 2.90625 2.58906L1.65156 3.84375C1.5265 3.78259 1.38921 3.75054 1.25 3.75C1.00136 3.75 0.762903 3.84877 0.587087 4.02459C0.411272 4.20041 0.3125 4.43886 0.3125 4.6875C0.3125 4.93614 0.411272 5.1746 0.587087 5.35042C0.762903 5.52623 1.00136 5.625 1.25 5.625ZM9.0625 0.937501C9.1243 0.937501 9.18472 0.955829 9.23611 0.990167C9.2875 1.0245 9.32756 1.07331 9.35121 1.13041C9.37486 1.18751 9.38105 1.25035 9.36899 1.31097C9.35693 1.37159 9.32717 1.42727 9.28347 1.47097C9.23976 1.51468 9.18408 1.54444 9.12346 1.5565C9.06284 1.56855 9.00001 1.56237 8.94291 1.53871C8.88581 1.51506 8.837 1.47501 8.80266 1.42362C8.76832 1.37223 8.75 1.31181 8.75 1.25C8.75 1.16712 8.78292 1.08764 8.84153 1.02903C8.90013 0.970425 8.97962 0.937501 9.0625 0.937501ZM6.25 4.375C6.25 4.43681 6.23167 4.49723 6.19733 4.54862C6.16299 4.60001 6.11419 4.64006 6.05709 4.66372C5.99998 4.68737 5.93715 4.69356 5.87653 4.6815C5.81591 4.66944 5.76023 4.63968 5.71653 4.59597C5.67282 4.55227 5.64306 4.49659 5.631 4.43597C5.61895 4.37535 5.62513 4.31252 5.64879 4.25541C5.67244 4.19831 5.71249 4.14951 5.76388 4.11517C5.81527 4.08083 5.87569 4.0625 5.9375 4.0625C6.02038 4.0625 6.09986 4.09543 6.15847 4.15403C6.21707 4.21264 6.25 4.29212 6.25 4.375ZM3.75 1.875C3.81181 1.875 3.87222 1.89333 3.92361 1.92767C3.97501 1.96201 4.01506 2.01081 4.03871 2.06791C4.06236 2.12502 4.06855 2.18785 4.05649 2.24847C4.04444 2.30909 4.01467 2.36477 3.97097 2.40847C3.92727 2.45218 3.87158 2.48194 3.81096 2.494C3.75035 2.50606 3.68751 2.49987 3.63041 2.47621C3.57331 2.45256 3.5245 2.41251 3.49016 2.36112C3.45583 2.30973 3.4375 2.24931 3.4375 2.1875C3.4375 2.10462 3.47042 2.02514 3.52903 1.96653C3.58763 1.90793 3.66712 1.875 3.75 1.875ZM1.25 4.375C1.31181 4.375 1.37223 4.39333 1.42362 4.42767C1.47501 4.46201 1.51506 4.51081 1.53871 4.56791C1.56236 4.62502 1.56855 4.68785 1.5565 4.74847C1.54444 4.80909 1.51467 4.86477 1.47097 4.90847C1.42727 4.95218 1.37158 4.98194 1.31097 4.994C1.25035 5.00606 1.18751 4.99987 1.13041 4.97622C1.07331 4.95256 1.0245 4.91251 0.990166 4.86112C0.955828 4.80973 0.9375 4.74931 0.9375 4.6875C0.9375 4.60462 0.970424 4.52514 1.02903 4.46653C1.08763 4.40793 1.16712 4.375 1.25 4.375Z" fill="#555555"/>
<path d="M11.9666 12.2791L11.6541 12.5916L9.55813 14.6875H7.1875V13.9325C7.51012 13.7227 7.78519 13.4476 7.995 13.125H8.75C8.99864 13.125 9.2371 13.0262 9.41291 12.8504C9.58873 12.6746 9.6875 12.4361 9.6875 12.1875V11.25C9.6875 11.0014 9.58873 10.7629 9.41291 10.5871C9.2371 10.4113 8.99864 10.3125 8.75 10.3125H8.58656L8.89 9.55344C9.03629 9.18797 9.09076 8.79222 9.04865 8.40082C9.00655 8.00942 8.86914 7.63431 8.64846 7.30832C8.42779 6.98233 8.13057 6.71541 7.78282 6.53091C7.43508 6.34641 7.04741 6.24996 6.65375 6.25H4.59625C4.20263 6.25 3.81501 6.34646 3.4673 6.53094C3.11959 6.71543 2.82239 6.98231 2.6017 7.30824C2.38101 7.63417 2.24356 8.00922 2.20137 8.40057C2.15918 8.79192 2.21354 9.18765 2.35969 9.55313L2.66344 10.3125H2.65625C2.36617 10.3125 2.08797 10.4277 1.88285 10.6329C1.67774 10.838 1.5625 11.1162 1.5625 11.4063C1.5625 11.6963 1.67774 11.9745 1.88285 12.1797C2.08797 12.3848 2.36617 12.5 2.65625 12.5H2.9775C3.18055 13.0694 3.56084 13.5587 4.0625 13.8959V14.775L1.80844 15.5266C1.3726 15.6712 0.993443 15.9495 0.724879 16.3219C0.456314 16.6944 0.312015 17.1421 0.312501 17.6013V19.3891C0.312501 19.4719 0.345425 19.5514 0.40403 19.61C0.462635 19.6686 0.542121 19.7016 0.625001 19.7016H9.375C9.45788 19.7016 9.53737 19.6686 9.59597 19.61C9.65458 19.5514 9.6875 19.4719 9.6875 19.3891V17.6372L13.3362 14.2934C13.3397 14.2903 13.3409 14.2856 13.3444 14.2825L13.3459 14.2841L13.6584 13.9716C13.8828 13.7472 14.0088 13.4429 14.0088 13.1256C14.0088 12.8083 13.8828 12.504 13.6584 12.2797C13.4341 12.0553 13.1298 11.9293 12.8125 11.9293C12.4952 11.9293 12.1909 12.0553 11.9666 12.2797V12.2791ZM13.2166 12.7209C13.3235 12.8282 13.3836 12.9735 13.3836 13.125C13.3836 13.2765 13.3235 13.4218 13.2166 13.5291L13.125 13.6206L12.3169 12.8125L12.4084 12.7209C12.5157 12.614 12.661 12.5539 12.8125 12.5539C12.964 12.5539 13.1093 12.614 13.2166 12.7209ZM4.29063 15.3575L5.0975 16.1644L4.53906 16.4434L4.12656 15.4122L4.29063 15.3575ZM5.5775 17.8125H5.67125L5.88031 19.0766H5.36844L5.5775 17.8125ZM5.77031 17.1875H5.47969L5.22188 16.8009L5.625 16.5994L6.02813 16.8009L5.77031 17.1875ZM6.71094 16.4434L6.1525 16.1644L7.00438 15.3125H7.16344L6.71094 16.4434ZM8.75 10.9375C8.83288 10.9375 8.91237 10.9704 8.97097 11.029C9.02958 11.0876 9.0625 11.1671 9.0625 11.25V12.1875C9.0625 12.2704 9.02958 12.3499 8.97097 12.4085C8.91237 12.4671 8.83288 12.5 8.75 12.5H8.29625C8.38941 12.222 8.4371 11.9307 8.4375 11.6375V10.9375H8.75ZM4.59625 6.875H6.65375C6.94529 6.87491 7.2324 6.94629 7.48996 7.0829C7.74751 7.2195 7.96765 7.41716 8.13109 7.65857C8.29454 7.89998 8.39632 8.17778 8.42751 8.46764C8.4587 8.75751 8.41835 9.0506 8.31 9.32125L8.04094 9.99407C7.83214 9.98065 7.63053 9.91262 7.4563 9.79679C7.28206 9.68096 7.1413 9.5214 7.04813 9.33407L6.84375 8.92282C6.81488 8.87439 6.77392 8.83428 6.72489 8.80643C6.67587 8.77858 6.62045 8.76394 6.56406 8.76394C6.50768 8.76394 6.45226 8.77858 6.40323 8.80643C6.35421 8.83428 6.31325 8.87439 6.28438 8.92282L6.07875 9.33407C5.97927 9.53489 5.82543 9.70377 5.63473 9.8215C5.44402 9.93922 5.22411 10.0011 5 10H3.21156L2.94 9.32094C2.8318 9.0503 2.79156 8.75726 2.82282 8.46747C2.85408 8.17768 2.95587 7.89997 3.11929 7.65862C3.28272 7.41727 3.5028 7.21965 3.76027 7.08305C4.01775 6.94644 4.30478 6.87501 4.59625 6.875ZM2.65625 11.875C2.53193 11.875 2.4127 11.8256 2.32479 11.7377C2.23689 11.6498 2.1875 11.5306 2.1875 11.4063C2.1875 11.2819 2.23689 11.1627 2.32479 11.0748C2.4127 10.9869 2.53193 10.9375 2.65625 10.9375H2.8125V11.5625C2.81294 11.6669 2.8192 11.7713 2.83125 11.875H2.65625ZM3.4375 11.5625V10.625H5C5.31409 10.6261 5.62311 10.5459 5.89695 10.392C6.17078 10.2382 6.40008 10.016 6.5625 9.74719C6.69742 9.97063 6.87891 10.1624 7.09462 10.3093C7.31033 10.4563 7.55519 10.555 7.8125 10.5988V11.6375C7.81233 11.9349 7.74895 12.2289 7.62656 12.5H5.625V13.125H7.19813C7.00219 13.3231 6.76888 13.4804 6.51171 13.5877C6.25455 13.695 5.97865 13.7501 5.7 13.75H5.6375C5.05593 13.7508 4.49776 13.521 4.08536 13.111C3.67296 12.7009 3.43998 12.1441 3.4375 11.5625ZM5.63719 14.375H5.69969C5.99302 14.3746 6.28437 14.3269 6.5625 14.2338V14.8706L5.625 15.8081L4.6875 14.8706V14.2078C4.99209 14.3178 5.31336 14.3743 5.63719 14.375ZM0.937501 17.6013C0.937247 17.2733 1.04034 16.9535 1.23214 16.6875C1.42393 16.4214 1.69468 16.2225 2.00594 16.1191L3.53125 15.6103L4.08344 16.9909C4.0995 17.0311 4.12374 17.0676 4.15461 17.0979C4.18549 17.1282 4.22234 17.1518 4.26281 17.1672C4.29862 17.1809 4.33667 17.1878 4.375 17.1875C4.42335 17.188 4.47117 17.1773 4.51469 17.1563L4.65875 17.0841L4.98406 17.5722L4.73406 19.0781H0.937501V17.6013ZM9.16375 17.2697C9.13183 17.299 9.10635 17.3346 9.08892 17.3742C9.07149 17.4139 9.0625 17.4567 9.0625 17.5V19.0766H6.515L6.265 17.5706L6.59031 17.0825L6.73438 17.1547C6.77805 17.1765 6.82621 17.1877 6.875 17.1875C6.91291 17.1876 6.95052 17.1807 6.98594 17.1672C7.02641 17.1518 7.06326 17.1282 7.09414 17.0979C7.12502 17.0676 7.14925 17.0311 7.16531 16.9909L7.83656 15.3125H9.6875C9.77037 15.3125 9.84985 15.2795 9.90844 15.2209L11.875 13.2544L12.6731 14.0528L9.16375 17.2697Z" fill="#555555"/>
</svg>
