<svg width="20" height="20" viewBox="0 0 20 20" fill="none" xmlns="http://www.w3.org/2000/svg">
<path d="M5.20079 12.1001C4.79523 12.1001 4.39877 11.9798 4.06157 11.7545C3.72436 11.5292 3.46156 11.2089 3.30639 10.8342C3.15123 10.4595 3.11067 10.0472 3.18985 9.64941C3.26903 9.25165 3.46439 8.8863 3.75122 8.59958C4.03806 8.31286 4.40348 8.11764 4.80127 8.03861C5.19906 7.95959 5.61135 8.00031 5.986 8.15562C6.36065 8.31093 6.68082 8.57386 6.90603 8.91116C7.13123 9.24845 7.25135 9.64495 7.25119 10.0505C7.25056 10.594 7.0343 11.1151 6.64989 11.4994C6.26548 11.8836 5.74432 12.0997 5.20079 12.1001ZM5.20079 8.80011C4.95349 8.80011 4.71173 8.87345 4.50611 9.01085C4.30048 9.14824 4.14021 9.34353 4.04557 9.57201C3.95093 9.80049 3.92617 10.0519 3.97442 10.2945C4.02266 10.537 4.14175 10.7598 4.31662 10.9347C4.4915 11.1096 4.7143 11.2286 4.95685 11.2769C5.1994 11.3251 5.45082 11.3004 5.6793 11.2057C5.90778 11.1111 6.10306 10.9508 6.24046 10.7452C6.37786 10.5396 6.45119 10.2978 6.45119 10.0505C6.45098 9.71895 6.31917 9.40103 6.08472 9.16658C5.85027 8.93213 5.53235 8.80033 5.20079 8.80011Z" fill="#555555"/>
<path d="M7.60039 16.8001C7.49431 16.8001 7.39257 16.758 7.31755 16.6829C7.24254 16.6079 7.20039 16.5062 7.20039 16.4001V15.6001C7.20039 15.0697 6.98968 14.561 6.61461 14.1859C6.23953 13.8108 5.73083 13.6001 5.20039 13.6001C4.66996 13.6001 4.16125 13.8108 3.78618 14.1859C3.41111 14.561 3.20039 15.0697 3.20039 15.6001V16.4001C3.20039 16.5062 3.15825 16.6079 3.08323 16.6829C3.00822 16.758 2.90648 16.8001 2.80039 16.8001C2.6943 16.8001 2.59256 16.758 2.51755 16.6829C2.44253 16.6079 2.40039 16.5062 2.40039 16.4001V15.6001C2.40039 14.8575 2.69539 14.1453 3.22049 13.6202C3.74559 13.0951 4.45779 12.8001 5.20039 12.8001C5.943 12.8001 6.65519 13.0951 7.18029 13.6202C7.70539 14.1453 8.00039 14.8575 8.00039 15.6001V16.4001C8.00039 16.5062 7.95825 16.6079 7.88324 16.6829C7.80822 16.758 7.70648 16.8001 7.60039 16.8001Z" fill="#555555"/>
<path d="M7.59991 16.288C7.52383 16.288 7.44934 16.2662 7.38518 16.2253C7.32103 16.1844 7.26987 16.1261 7.2377 16.0571C7.20553 15.9882 7.1937 15.9115 7.20359 15.836C7.21347 15.7606 7.24467 15.6896 7.29351 15.6312L12.8935 8.94319C12.9628 8.86587 13.0594 8.81849 13.1629 8.81109C13.2665 8.80368 13.3688 8.83682 13.4484 8.9035C13.528 8.97018 13.5785 9.06519 13.5893 9.16843C13.6001 9.27168 13.5703 9.37508 13.5063 9.45679L7.90631 16.1448C7.8688 16.1896 7.82193 16.2257 7.76899 16.2504C7.71606 16.2751 7.65835 16.288 7.59991 16.288Z" fill="#555555"/>
<path d="M4.4 7.2C4.29391 7.2 4.19217 7.15785 4.11716 7.08284C4.04214 7.00782 4 6.90608 4 6.8V3.6C4 3.49391 4.04214 3.39217 4.11716 3.31715C4.19217 3.24214 4.29391 3.2 4.4 3.2C4.50609 3.2 4.60783 3.24214 4.68284 3.31715C4.75786 3.39217 4.8 3.49391 4.8 3.6V6.8C4.8 6.90608 4.75786 7.00782 4.68284 7.08284C4.60783 7.15785 4.50609 7.2 4.4 7.2Z" fill="#555555"/>
<path d="M17.2002 4H3.6002C3.49411 4 3.39237 3.95785 3.31735 3.88284C3.24234 3.80783 3.2002 3.70608 3.2002 3.6C3.2002 3.49391 3.24234 3.39217 3.31735 3.31715C3.39237 3.24214 3.49411 3.2 3.6002 3.2H17.2002C17.3063 3.2 17.408 3.24214 17.483 3.31715C17.558 3.39217 17.6002 3.49391 17.6002 3.6C17.6002 3.70608 17.558 3.80783 17.483 3.88284C17.408 3.95785 17.3063 4 17.2002 4Z" fill="#555555"/>
<path d="M16.4 12.8C16.2939 12.8 16.1922 12.7578 16.1172 12.6828C16.0421 12.6078 16 12.5061 16 12.4V3.6C16 3.49391 16.0421 3.39217 16.1172 3.31715C16.1922 3.24214 16.2939 3.2 16.4 3.2C16.5061 3.2 16.6078 3.24214 16.6828 3.31715C16.7579 3.39217 16.8 3.49391 16.8 3.6V12.4C16.8 12.5061 16.7579 12.6078 16.6828 12.6828C16.6078 12.7578 16.5061 12.8 16.4 12.8Z" fill="#555555"/>
<path d="M17.2 12.8H12.4C12.2939 12.8 12.1922 12.7578 12.1172 12.6828C12.0421 12.6078 12 12.5061 12 12.4C12 12.2939 12.0421 12.1922 12.1172 12.1171C12.1922 12.0421 12.2939 12 12.4 12H17.2C17.3061 12 17.4078 12.0421 17.4828 12.1171C17.5579 12.1922 17.6 12.2939 17.6 12.4C17.6 12.5061 17.5579 12.6078 17.4828 12.6828C17.4078 12.7578 17.3061 12.8 17.2 12.8Z" fill="#555555"/>
<path d="M14.0008 6.3999H9.20078C9.09469 6.3999 8.99295 6.35776 8.91794 6.28274C8.84292 6.20773 8.80078 6.10599 8.80078 5.9999C8.80078 5.89381 8.84292 5.79207 8.91794 5.71706C8.99295 5.64204 9.09469 5.5999 9.20078 5.5999H14.0008C14.1069 5.5999 14.2086 5.64204 14.2836 5.71706C14.3586 5.79207 14.4008 5.89381 14.4008 5.9999C14.4008 6.10599 14.3586 6.20773 14.2836 6.28274C14.2086 6.35776 14.1069 6.3999 14.0008 6.3999Z" fill="#555555"/>
<path d="M14.0002 8H7.6002C7.49411 8 7.39237 7.95785 7.31735 7.88284C7.24234 7.80783 7.2002 7.70608 7.2002 7.6C7.2002 7.49391 7.24234 7.39217 7.31735 7.31715C7.39237 7.24214 7.49411 7.2 7.6002 7.2H14.0002C14.1063 7.2 14.208 7.24214 14.283 7.31715C14.3581 7.39217 14.4002 7.49391 14.4002 7.6C14.4002 7.70608 14.3581 7.80783 14.283 7.88284C14.208 7.95785 14.1063 8 14.0002 8Z" fill="#555555"/>
</svg>
