<svg width="20" height="20" viewBox="0 0 20 20" fill="none" xmlns="http://www.w3.org/2000/svg">
<path d="M18.125 2.5H4.375C4.01036 2.50051 3.65734 2.62836 3.37693 2.86146C3.09651 3.09456 2.90631 3.41827 2.83918 3.77668C2.5292 3.83496 2.24403 3.98547 2.021 4.2085C1.79797 4.43153 1.64746 4.7167 1.58918 5.02668C1.23077 5.09381 0.907055 5.28401 0.673957 5.56443C0.440859 5.84484 0.313012 6.19786 0.3125 6.5625V15.9375C0.312965 16.3518 0.477735 16.7489 0.77066 17.0418C1.06358 17.3348 1.46074 17.4995 1.875 17.5H15.625C15.9896 17.4995 16.3427 17.3716 16.6231 17.1385C16.9035 16.9054 17.0937 16.5817 17.1608 16.2233C17.4708 16.165 17.756 16.0145 17.979 15.7915C18.202 15.5685 18.3525 15.2833 18.4108 14.9733C18.7692 14.9062 19.0929 14.716 19.326 14.4356C19.5591 14.1552 19.687 13.8021 19.6875 13.4375V4.0625C19.687 3.64824 19.5223 3.25108 19.2293 2.95816C18.9364 2.66523 18.5393 2.50047 18.125 2.5ZM0.9375 6.5625C0.937779 6.31395 1.03664 6.07565 1.2124 5.8999C1.38815 5.72414 1.62645 5.62528 1.875 5.625H15.625C15.8736 5.62528 16.1118 5.72414 16.2876 5.8999C16.4634 6.07565 16.5622 6.31395 16.5625 6.5625V6.875H0.9375V6.5625ZM16.5625 15.9375C16.5622 16.1861 16.4634 16.4243 16.2876 16.6001C16.1118 16.7759 15.8736 16.8747 15.625 16.875H1.875C1.62645 16.8747 1.38815 16.7759 1.2124 16.6001C1.03664 16.4243 0.937779 16.1861 0.9375 15.9375V7.5H16.5625V15.9375ZM17.8125 14.6875C17.8123 14.8813 17.7521 15.0703 17.6402 15.2285C17.5283 15.3867 17.3701 15.5064 17.1875 15.5712V6.5625C17.187 6.14824 17.0223 5.75108 16.7293 5.45816C16.4364 5.16523 16.0393 5.00047 15.625 5H2.24125C2.30605 4.81736 2.42578 4.65924 2.58401 4.54734C2.74223 4.43545 2.9312 4.37524 3.125 4.375H16.875C17.1236 4.37528 17.3618 4.47414 17.5376 4.6499C17.7134 4.82565 17.8122 5.06395 17.8125 5.3125V14.6875ZM19.0625 13.4375C19.0623 13.6313 19.0021 13.8203 18.8902 13.9785C18.7783 14.1367 18.6201 14.2564 18.4375 14.3212V5.3125C18.437 4.89824 18.2723 4.50108 17.9793 4.20816C17.6864 3.91523 17.2893 3.75047 16.875 3.75H3.49125C3.55605 3.56736 3.67578 3.40924 3.83401 3.29734C3.99223 3.18545 4.1812 3.12524 4.375 3.125H18.125C18.3736 3.12528 18.6118 3.22414 18.7876 3.3999C18.9634 3.57565 19.0622 3.81395 19.0625 4.0625V13.4375Z" fill="#555555"/>
<path d="M1.875 6.5625C2.04759 6.5625 2.1875 6.42259 2.1875 6.25C2.1875 6.07741 2.04759 5.9375 1.875 5.9375C1.70241 5.9375 1.5625 6.07741 1.5625 6.25C1.5625 6.42259 1.70241 6.5625 1.875 6.5625Z" fill="#555555"/>
<path d="M3.125 6.5625C3.29759 6.5625 3.4375 6.42259 3.4375 6.25C3.4375 6.07741 3.29759 5.9375 3.125 5.9375C2.95241 5.9375 2.8125 6.07741 2.8125 6.25C2.8125 6.42259 2.95241 6.5625 3.125 6.5625Z" fill="#555555"/>
<path d="M4.375 6.5625C4.54759 6.5625 4.6875 6.42259 4.6875 6.25C4.6875 6.07741 4.54759 5.9375 4.375 5.9375C4.20241 5.9375 4.0625 6.07741 4.0625 6.25C4.0625 6.42259 4.20241 6.5625 4.375 6.5625Z" fill="#555555"/>
<path d="M5.3125 14.0625H12.1875C12.2704 14.0625 12.3499 14.0296 12.4085 13.971C12.4671 13.9124 12.5 13.8329 12.5 13.75V8.75C12.5 8.66712 12.4671 8.58763 12.4085 8.52903C12.3499 8.47042 12.2704 8.4375 12.1875 8.4375H5.3125C5.22962 8.4375 5.15013 8.47042 5.09153 8.52903C5.03292 8.58763 5 8.66712 5 8.75V13.75C5 13.8329 5.03292 13.9124 5.09153 13.971C5.15013 14.0296 5.22962 14.0625 5.3125 14.0625ZM5.625 9.0625H11.875V13.4375H5.625V9.0625Z" fill="#555555"/>
<path d="M7.97266 11.8353C8.02119 11.8624 8.07608 11.8761 8.13166 11.8749C8.18725 11.8737 8.24152 11.8578 8.28887 11.8286L9.8123 10.8911C9.85775 10.8632 9.89528 10.824 9.92131 10.7774C9.94734 10.7308 9.96101 10.6784 9.96101 10.625C9.96101 10.5716 9.94734 10.5192 9.92131 10.4726C9.89528 10.426 9.85775 10.3868 9.8123 10.3589L8.28887 9.42136C8.24152 9.3922 8.18724 9.37621 8.13164 9.37502C8.07604 9.37384 8.02114 9.38752 7.97259 9.41464C7.92404 9.44176 7.88361 9.48135 7.85547 9.52932C7.82732 9.57728 7.81249 9.63189 7.8125 9.6875V11.5625C7.81251 11.6181 7.82736 11.6727 7.85552 11.7206C7.88367 11.7686 7.92411 11.8082 7.97266 11.8353ZM8.4375 10.2467L9.05219 10.625L8.4375 11.0033V10.2467Z" fill="#555555"/>
<path d="M10.9375 12.1875H10.3125C10.3125 12.1046 10.2796 12.0251 10.221 11.9665C10.1624 11.9079 10.0829 11.875 10 11.875C9.91712 11.875 9.83763 11.9079 9.77903 11.9665C9.72042 12.0251 9.6875 12.1046 9.6875 12.1875H6.5625C6.47962 12.1875 6.40013 12.2204 6.34153 12.279C6.28292 12.3376 6.25 12.4171 6.25 12.5C6.25 12.5829 6.28292 12.6624 6.34153 12.721C6.40013 12.7796 6.47962 12.8125 6.5625 12.8125H9.6875C9.6875 12.8954 9.72042 12.9749 9.77903 13.0335C9.83763 13.0921 9.91712 13.125 10 13.125C10.0829 13.125 10.1624 13.0921 10.221 13.0335C10.2796 12.9749 10.3125 12.8954 10.3125 12.8125H10.9375C11.0204 12.8125 11.0999 12.7796 11.1585 12.721C11.2171 12.6624 11.25 12.5829 11.25 12.5C11.25 12.4171 11.2171 12.3376 11.1585 12.279C11.0999 12.2204 11.0204 12.1875 10.9375 12.1875Z" fill="#555555"/>
<path d="M5.3125 15H12.1875C12.2704 15 12.3499 14.9671 12.4085 14.9085C12.4671 14.8499 12.5 14.7704 12.5 14.6875C12.5 14.6046 12.4671 14.5251 12.4085 14.4665C12.3499 14.4079 12.2704 14.375 12.1875 14.375H5.3125C5.22962 14.375 5.15013 14.4079 5.09153 14.4665C5.03292 14.5251 5 14.6046 5 14.6875C5 14.7704 5.03292 14.8499 5.09153 14.9085C5.15013 14.9671 5.22962 15 5.3125 15Z" fill="#555555"/>
<path d="M5.3125 15.9375H9.6875C9.77038 15.9375 9.84987 15.9046 9.90847 15.846C9.96708 15.7874 10 15.7079 10 15.625C10 15.5421 9.96708 15.4626 9.90847 15.404C9.84987 15.3454 9.77038 15.3125 9.6875 15.3125H5.3125C5.22962 15.3125 5.15013 15.3454 5.09153 15.404C5.03292 15.4626 5 15.5421 5 15.625C5 15.7079 5.03292 15.7874 5.09153 15.846C5.15013 15.9046 5.22962 15.9375 5.3125 15.9375Z" fill="#555555"/>
<path d="M10.9375 15.3125H10.625C10.5421 15.3125 10.4626 15.3454 10.404 15.404C10.3454 15.4626 10.3125 15.5421 10.3125 15.625C10.3125 15.7079 10.3454 15.7874 10.404 15.846C10.4626 15.9046 10.5421 15.9375 10.625 15.9375H10.9375C11.0204 15.9375 11.0999 15.9046 11.1585 15.846C11.2171 15.7874 11.25 15.7079 11.25 15.625C11.25 15.5421 11.2171 15.4626 11.1585 15.404C11.0999 15.3454 11.0204 15.3125 10.9375 15.3125Z" fill="#555555"/>
</svg>
