<svg width="18" height="18" viewBox="0 0 18 18" fill="none" xmlns="http://www.w3.org/2000/svg">
<path d="M16.152 13.4194H14.7397C14.6432 13.4194 14.5528 13.4616 14.4926 13.5359C14.352 13.7067 14.2013 13.8714 14.0426 14.0281C13.3935 14.6778 12.6246 15.1957 11.7785 15.5529C10.9019 15.9231 9.95977 16.1131 9.0082 16.1114C8.04593 16.1114 7.11378 15.9225 6.23789 15.5529C5.39179 15.1957 4.62293 14.6778 3.97383 14.0281C3.32357 13.3805 2.80507 12.613 2.44704 11.7681C2.07539 10.8922 1.88856 9.96203 1.88856 8.99975C1.88856 8.03748 2.0774 7.10734 2.44704 6.23145C2.80463 5.38569 3.31892 4.62431 3.97383 3.9714C4.62874 3.3185 5.39012 2.80422 6.23789 2.44663C7.11378 2.07698 8.04593 1.88814 9.0082 1.88814C9.97048 1.88814 10.9026 2.07497 11.7785 2.44663C12.6263 2.80422 13.3877 3.3185 14.0426 3.9714C14.2013 4.13011 14.3499 4.29484 14.4926 4.46359C14.5528 4.53792 14.6453 4.58011 14.7397 4.58011H16.152C16.2785 4.58011 16.3569 4.43948 16.2866 4.33301C14.7457 1.93837 12.0497 0.353323 8.98611 0.361359C4.17271 0.373412 0.313561 4.28078 0.361775 9.08815C0.409989 13.8192 4.26312 17.6381 9.0082 17.6381C12.0638 17.6381 14.7477 16.0551 16.2866 13.6665C16.3549 13.56 16.2785 13.4194 16.152 13.4194ZM17.9379 8.87319L15.0872 6.62319C14.9807 6.53882 14.8261 6.61515 14.8261 6.74975V8.27654H8.51803C8.42963 8.27654 8.35731 8.34886 8.35731 8.43725V9.56225C8.35731 9.65065 8.42963 9.72297 8.51803 9.72297H14.8261V11.2498C14.8261 11.3844 14.9828 11.4607 15.0872 11.3763L17.9379 9.12632C17.9571 9.11128 17.9726 9.09207 17.9833 9.07015C17.994 9.04822 17.9996 9.02415 17.9996 8.99975C17.9996 8.97536 17.994 8.95129 17.9833 8.92936C17.9726 8.90743 17.9571 8.88822 17.9379 8.87319Z" fill="#556570"/>
</svg>
