<svg width="20" height="20" viewBox="0 0 20 20" fill="none" xmlns="http://www.w3.org/2000/svg">
<g clip-path="url(#clip0_1448_34120)">
<path d="M11.3322 15.5779C10.9664 15.5779 10.6699 15.2814 10.6699 14.9157V10.8976C10.6699 10.5318 10.9664 10.2353 11.3322 10.2353C11.6979 10.2353 11.9944 10.5318 11.9944 10.8976V14.9157C11.9944 15.2814 11.6979 15.5779 11.3322 15.5779Z" fill="#555555"/>
<path d="M8.67592 15.5779C8.31018 15.5779 8.01367 15.2814 8.01367 14.9157V13.0447C8.01367 12.6789 8.31018 12.3824 8.67592 12.3824C9.04166 12.3824 9.33817 12.6789 9.33817 13.0447V14.9157C9.33817 15.2814 9.04166 15.5779 8.67592 15.5779Z" fill="#555555"/>
<path d="M13.9962 15.5777C13.6305 15.5777 13.334 15.2812 13.334 14.9154V12.1242C13.334 11.7585 13.6305 11.462 13.9962 11.462C14.362 11.462 14.6585 11.7585 14.6585 12.1242V14.9154C14.6585 15.2812 14.362 15.5777 13.9962 15.5777Z" fill="#555555"/>
<path d="M16.6505 15.5779C16.2848 15.5779 15.9883 15.2814 15.9883 14.9157V9.36398C15.9883 8.99824 16.2848 8.70173 16.6505 8.70173C17.0163 8.70173 17.3128 8.99824 17.3128 9.36398V14.9157C17.3128 15.2814 17.0163 15.5779 16.6505 15.5779Z" fill="#555555"/>
<path d="M6.01967 15.5779C5.65393 15.5779 5.35742 15.2814 5.35742 14.9157V11.511C5.35742 11.1453 5.65393 10.8488 6.01967 10.8488C6.38541 10.8488 6.68192 11.1453 6.68192 11.511V14.9157C6.68192 15.2814 6.38541 15.5779 6.01967 15.5779Z" fill="#555555"/>
<path d="M3.36342 15.5777C2.99768 15.5777 2.70117 15.2812 2.70117 14.9155V13.6579C2.70117 13.2922 2.99768 12.9957 3.36342 12.9957C3.72916 12.9957 4.02567 13.2922 4.02567 13.6579V14.9155C4.02567 15.2812 3.72916 15.5777 3.36342 15.5777Z" fill="#555555"/>
<path d="M17.3666 6.42L16.8929 4.88919C16.7829 4.53268 16.3831 4.33493 16.033 4.46292L14.5694 4.99775C14.2258 5.12332 14.0491 5.50354 14.1746 5.84707C14.2961 6.17956 14.6562 6.35506 14.9908 6.25206L13.8001 8.82654L12.2419 6.74535C11.7572 6.09771 10.7384 6.15387 10.3275 6.85065L8.55862 9.84945L6.90114 8.04901C6.4237 7.53042 5.56891 7.5691 5.13995 8.12791L2.79108 11.1881C2.58759 11.4532 2.61752 11.841 2.85999 12.0712C3.14128 12.3382 3.60556 12.3023 3.84176 11.9945L6.06573 9.09709L7.7418 10.9177C8.25796 11.4784 9.19492 11.3778 9.58149 10.7224L11.3369 7.74645L12.9133 9.85188C13.4279 10.5393 14.5214 10.4227 14.8811 9.64464L16.1434 6.91541C16.3022 7.22919 16.6919 7.36385 17.0111 7.21713C17.309 7.08009 17.4635 6.73343 17.3666 6.42Z" fill="#555555"/>
<path d="M19.338 18.0355H0.71108C0.34534 18.0355 0.0488281 17.739 0.0488281 17.3732V9.36087C0.0488281 8.99513 0.34534 8.69862 0.71108 8.69862C1.07682 8.69862 1.37333 8.99513 1.37333 9.36087V16.711H18.6758V3.28935H1.37333V9.44555C1.37333 9.81129 1.07682 10.1078 0.71108 10.1078C0.34534 10.1078 0.0488281 9.81129 0.0488281 9.44555V2.6271C0.0488281 2.26136 0.34534 1.96484 0.71108 1.96484H19.338C19.7037 1.96484 20.0003 2.26136 20.0003 2.6271V17.3732C20.0003 17.739 19.7037 18.0355 19.338 18.0355Z" fill="#555555"/>
</g>
<defs>
<clipPath id="clip0_1448_34120">
<rect width="20" height="20" fill="white"/>
</clipPath>
</defs>
</svg>
