<svg width="20" height="20" viewBox="0 0 20 20" fill="none" xmlns="http://www.w3.org/2000/svg">
<path d="M18.4377 12.8438V7.78125C18.6799 7.73331 18.9074 7.62864 19.1013 7.47582C19.2953 7.32301 19.4503 7.1264 19.5536 6.90212C19.6569 6.67784 19.7055 6.43227 19.6956 6.18554C19.6856 5.93882 19.6174 5.69796 19.4963 5.48272C19.3753 5.26749 19.205 5.08399 18.9994 4.94729C18.7938 4.81058 18.5587 4.72456 18.3134 4.69627C18.0681 4.66798 17.8195 4.69824 17.5882 4.78455C17.3568 4.87086 17.1492 5.01077 16.9824 5.19281L11.5418 1.76938C11.5534 1.70096 11.5604 1.63185 11.5627 1.5625C11.5627 1.1481 11.3981 0.750671 11.1051 0.457646C10.812 0.16462 10.4146 0 10.0002 0C9.58582 0 9.18839 0.16462 8.89536 0.457646C8.60234 0.750671 8.43772 1.1481 8.43772 1.5625C8.44006 1.63185 8.44706 1.70096 8.45865 1.76938L3.01803 5.1925C2.85097 5.01213 2.64366 4.8738 2.41298 4.78878C2.18231 4.70376 1.93481 4.67446 1.69066 4.70327C1.44651 4.73208 1.21262 4.81819 1.00808 4.95458C0.803531 5.09096 0.634114 5.27375 0.51364 5.48806C0.393166 5.70236 0.325047 5.9421 0.314836 6.18773C0.304626 6.43336 0.352614 6.67793 0.454887 6.90149C0.55716 7.12505 0.710822 7.32128 0.903344 7.47416C1.09587 7.62705 1.3218 7.73227 1.56271 7.78125V12.8438C1.31616 12.8921 1.08491 12.9992 0.888546 13.1559C0.692186 13.3126 0.536517 13.5144 0.434737 13.7441C0.332957 13.9738 0.288069 14.2246 0.303878 14.4754C0.319687 14.7261 0.395728 14.9694 0.525552 15.1845C0.655376 15.3996 0.835155 15.5802 1.04965 15.711C1.26414 15.8418 1.50701 15.919 1.75768 15.936C2.00834 15.953 2.25941 15.9093 2.48958 15.8086C2.71976 15.7079 2.92225 15.5531 3.0799 15.3575L8.45272 18.2884C8.44803 18.3381 8.43772 18.3863 8.43772 18.4372C8.43772 18.8516 8.60234 19.249 8.89536 19.542C9.18839 19.8351 9.58582 19.9997 10.0002 19.9997C10.4146 19.9997 10.812 19.8351 11.1051 19.542C11.3981 19.249 11.5627 18.8516 11.5627 18.4372C11.5627 18.3863 11.5524 18.3381 11.5477 18.2884L16.9205 15.3575C17.0785 15.5511 17.2807 15.7039 17.5101 15.803C17.7395 15.9021 17.9893 15.9447 18.2386 15.927C18.4879 15.9094 18.7292 15.8321 18.9424 15.7016C19.1555 15.5712 19.3341 15.3914 19.4633 15.1775C19.5924 14.9635 19.6682 14.7217 19.6843 14.4723C19.7004 14.2229 19.6563 13.9734 19.5558 13.7446C19.4553 13.5158 19.3012 13.3146 19.1066 13.1578C18.9121 13.001 18.6826 12.8933 18.4377 12.8438ZM18.1252 5.3125C18.3106 5.3125 18.4919 5.36748 18.6461 5.4705C18.8002 5.57351 18.9204 5.71993 18.9914 5.89123C19.0623 6.06254 19.0809 6.25104 19.0447 6.4329C19.0085 6.61476 18.9192 6.7818 18.7881 6.91291C18.657 7.04402 18.49 7.13331 18.3081 7.16949C18.1263 7.20566 17.9378 7.1871 17.7665 7.11614C17.5951 7.04518 17.4487 6.92502 17.3457 6.77085C17.2427 6.61668 17.1877 6.43542 17.1877 6.25C17.1877 6.00136 17.2865 5.7629 17.4623 5.58709C17.6381 5.41127 17.8766 5.3125 18.1252 5.3125ZM10.0002 0.625C10.1856 0.625 10.3669 0.679983 10.5211 0.782997C10.6752 0.886011 10.7954 1.03243 10.8664 1.20373C10.9373 1.37504 10.9559 1.56354 10.9197 1.7454C10.8835 1.92725 10.7942 2.0943 10.6631 2.22541C10.532 2.35652 10.365 2.44581 10.1831 2.48199C10.0013 2.51816 9.81276 2.49959 9.64145 2.42864C9.47015 2.35768 9.32373 2.23752 9.22071 2.08335C9.1177 1.92918 9.06272 1.74792 9.06272 1.5625C9.06272 1.31386 9.16149 1.0754 9.3373 0.899588C9.51312 0.723772 9.75158 0.625 10.0002 0.625ZM0.937712 6.25C0.937712 6.06458 0.992696 5.88332 1.09571 5.72915C1.19872 5.57498 1.34514 5.45482 1.51645 5.38386C1.68775 5.31291 1.87625 5.29434 2.05811 5.33051C2.23997 5.36669 2.40701 5.45598 2.53813 5.58709C2.66924 5.7182 2.75853 5.88525 2.7947 6.0671C2.83087 6.24896 2.81231 6.43746 2.74135 6.60877C2.67039 6.78007 2.55023 6.92649 2.39606 7.0295C2.24189 7.13252 2.06063 7.1875 1.87521 7.1875C1.62657 7.1875 1.38812 7.08873 1.2123 6.91291C1.03648 6.7371 0.937712 6.49864 0.937712 6.25ZM1.87521 15.3125C1.68979 15.3125 1.50854 15.2575 1.35437 15.1545C1.20019 15.0515 1.08003 14.9051 1.00908 14.7338C0.938118 14.5625 0.919553 14.374 0.955726 14.1921C0.9919 14.0102 1.08119 13.8432 1.2123 13.7121C1.34341 13.581 1.51046 13.4917 1.69232 13.4555C1.87417 13.4193 2.06267 13.4379 2.23398 13.5089C2.40528 13.5798 2.5517 13.7 2.65472 13.8542C2.75773 14.0083 2.81271 14.1896 2.81271 14.375C2.81271 14.6236 2.71394 14.8621 2.53813 15.0379C2.36231 15.2137 2.12385 15.3125 1.87521 15.3125ZM10.0002 19.375C9.8148 19.375 9.63354 19.32 9.47937 19.217C9.3252 19.114 9.20504 18.9676 9.13408 18.7963C9.06312 18.625 9.04456 18.4365 9.08073 18.2546C9.1169 18.0727 9.20619 17.9057 9.3373 17.7746C9.46842 17.6435 9.63546 17.5542 9.81732 17.518C9.99918 17.4818 10.1877 17.5004 10.359 17.5714C10.5303 17.6423 10.6767 17.7625 10.7797 17.9167C10.8827 18.0708 10.9377 18.2521 10.9377 18.4375C10.9377 18.6861 10.8389 18.9246 10.6631 19.1004C10.4873 19.2762 10.2489 19.375 10.0002 19.375ZM11.3583 17.68C11.225 17.4363 11.0286 17.233 10.7896 17.0914C10.5507 16.9497 10.278 16.875 10.0002 16.875C9.72244 16.875 9.44978 16.9497 9.21082 17.0914C8.97187 17.233 8.77542 17.4363 8.64209 17.68L3.37021 14.805C3.41298 14.6656 3.43571 14.5208 3.43771 14.375C3.43726 14.0149 3.31269 13.666 3.08499 13.3871C2.85729 13.1082 2.5404 12.9163 2.18771 12.8438V7.78125C2.5404 7.70872 2.85729 7.51682 3.08499 7.23789C3.31269 6.95896 3.43726 6.61006 3.43771 6.25C3.43597 6.07156 3.4033 5.89478 3.34115 5.7275L8.67147 2.375C8.80947 2.60384 9.00426 2.79314 9.23696 2.92455C9.46966 3.05596 9.73236 3.12501 9.99959 3.12501C10.2668 3.12501 10.5295 3.05596 10.7622 2.92455C10.9949 2.79314 11.1897 2.60384 11.3277 2.375L16.6593 5.7275C16.5971 5.89478 16.5645 6.07156 16.5627 6.25C16.5632 6.61006 16.6877 6.95896 16.9154 7.23789C17.1431 7.51682 17.46 7.70872 17.8127 7.78125V12.8438C17.46 12.9163 17.1431 13.1082 16.9154 13.3871C16.6877 13.666 16.5632 14.0149 16.5627 14.375C16.5648 14.5206 16.5875 14.6652 16.6302 14.8044L11.3583 17.68ZM18.1252 15.3125C17.9398 15.3125 17.7585 15.2575 17.6044 15.1545C17.4502 15.0515 17.33 14.9051 17.2591 14.7338C17.1881 14.5625 17.1696 14.374 17.2057 14.1921C17.2419 14.0102 17.3312 13.8432 17.4623 13.7121C17.5934 13.581 17.7605 13.4917 17.9423 13.4555C18.1242 13.4193 18.3127 13.4379 18.484 13.5089C18.6553 13.5798 18.8017 13.7 18.9047 13.8542C19.0077 14.0083 19.0627 14.1896 19.0627 14.375C19.0627 14.6236 18.9639 14.8621 18.7881 15.0379C18.6123 15.2137 18.3739 15.3125 18.1252 15.3125Z" fill="#555555"/>
<path d="M7.77352 9.7034C7.56999 9.63674 7.39165 9.50957 7.26233 9.33886C7.133 9.16816 7.05885 8.96206 7.04977 8.74809C7.04952 8.66521 7.01635 8.58582 6.95757 8.52739C6.89879 8.46896 6.81921 8.43628 6.73633 8.43652C6.65345 8.43677 6.57406 8.46994 6.51563 8.52872C6.4572 8.5875 6.42452 8.66708 6.42477 8.74996C6.43234 8.98921 6.49024 9.22418 6.5947 9.43956C6.69915 9.65494 6.84782 9.84589 7.03102 9.99996C6.84765 10.154 6.69881 10.3449 6.59418 10.5602C6.48956 10.7756 6.43152 11.0106 6.42383 11.25C6.42383 11.3324 6.45641 11.4115 6.51447 11.4701C6.57254 11.5286 6.65138 11.5618 6.73383 11.5625H6.73633C6.81862 11.5625 6.89759 11.53 6.95609 11.4722C7.0146 11.4143 7.04792 11.3357 7.04883 11.2534C7.05789 11.0394 7.13203 10.8332 7.26136 10.6625C7.39068 10.4917 7.56903 10.3645 7.77258 10.2978C7.8351 10.2772 7.88954 10.2375 7.92813 10.1842C7.96672 10.1308 7.9875 10.0667 7.9875 10.0009C7.9875 9.93509 7.96672 9.87096 7.92813 9.81765C7.88954 9.76434 7.8351 9.72457 7.77258 9.70402L7.77352 9.7034Z" fill="#555555"/>
<path d="M15.3192 8.4974C15.4344 7.96712 15.3569 7.41313 15.1004 6.93489C14.9275 6.61948 14.6838 6.34847 14.3885 6.14318C14.0931 5.93789 13.7542 5.80391 13.3983 5.75177C13.2919 5.35753 13.0589 5.00919 12.7351 4.7604C12.4113 4.5116 12.0147 4.37614 11.6064 4.37489C11.298 4.35026 10.9884 4.40506 10.7073 4.53405C10.4261 4.66305 10.1826 4.86195 10.0001 5.11176C9.81765 4.86195 9.5742 4.66305 9.29301 4.53405C9.01182 4.40506 8.70227 4.35026 8.39389 4.37489C7.98518 4.37598 7.58819 4.51155 7.26417 4.76067C6.94016 5.00979 6.70714 5.35862 6.60107 5.75333C6.24519 5.80561 5.90628 5.93976 5.61103 6.14522C5.31577 6.35069 5.07221 6.62185 4.89951 6.93739C4.64353 7.4151 4.56598 7.96834 4.68076 8.49802C4.46976 8.68444 4.30432 8.91676 4.19716 9.17713C4.09 9.43749 4.04398 9.71896 4.06264 9.9999C4.04411 10.2809 4.09022 10.5625 4.19743 10.8229C4.30463 11.0834 4.47008 11.3158 4.68108 11.5024C4.56622 12.0322 4.64377 12.5855 4.89983 13.0633C5.07273 13.3788 5.31645 13.6498 5.61181 13.8551C5.90716 14.0603 6.24611 14.1943 6.60201 14.2465C6.70809 14.641 6.94098 14.9897 7.26479 15.2388C7.5886 15.4879 7.98535 15.6236 8.39389 15.6249C8.70227 15.6495 9.01182 15.5947 9.29301 15.4657C9.5742 15.3367 9.81765 15.1379 10.0001 14.888C10.1826 15.1379 10.4261 15.3367 10.7073 15.4657C10.9884 15.5947 11.298 15.6495 11.6064 15.6249C12.0151 15.6238 12.4121 15.4883 12.7361 15.2391C13.0601 14.99 13.2931 14.6412 13.3992 14.2465C13.7551 14.1942 14.094 14.06 14.3892 13.8546C14.6845 13.6491 14.9281 13.3779 15.1008 13.0624C15.3567 12.5847 15.4343 12.0315 15.3195 11.5018C15.5305 11.3154 15.6959 11.083 15.8031 10.8227C15.9103 10.5623 15.9563 10.2808 15.9376 9.9999C15.9562 9.71886 15.91 9.4373 15.8028 9.17685C15.6956 8.9164 15.5302 8.68397 15.3192 8.4974ZM8.39389 14.9999C8.08798 14.9952 7.79391 14.8809 7.56512 14.6778C7.33632 14.4747 7.18797 14.1962 7.14701 13.893C7.11257 13.7489 7.09578 13.6012 7.09701 13.453C7.07983 13.0722 7.19745 12.6976 7.4292 12.3949C7.45787 12.3635 7.47984 12.3267 7.49378 12.2865C7.50771 12.2464 7.51331 12.2038 7.51024 12.1614C7.50716 12.1191 7.49548 12.0778 7.4759 12.04C7.45632 12.0023 7.42925 11.969 7.39636 11.9421C7.36346 11.9152 7.32543 11.8953 7.28458 11.8836C7.24373 11.8719 7.20092 11.8687 7.15878 11.8741C7.11663 11.8795 7.07603 11.8934 7.03946 11.9151C7.00289 11.9367 6.97111 11.9656 6.94607 11.9999C6.62204 12.4134 6.45418 12.928 6.47201 13.453C6.47201 13.494 6.47701 13.5321 6.47858 13.5724C6.26296 13.518 6.06091 13.4197 5.88511 13.2835C5.70931 13.1474 5.56356 12.9763 5.45701 12.7812C5.30009 12.4868 5.23233 12.1531 5.26201 11.8208C5.40599 11.8687 5.55558 11.8975 5.70701 11.9068H5.71608C5.79896 11.9082 5.879 11.8766 5.9386 11.819C5.9982 11.7614 6.03248 11.6825 6.03389 11.5996C6.0353 11.5167 6.00372 11.4367 5.94612 11.3771C5.88851 11.3175 5.80958 11.2832 5.7267 11.2818C5.54088 11.2658 5.36113 11.2078 5.20108 11.1121C5.02374 10.9897 4.88253 10.8219 4.79221 10.6262C4.7019 10.4306 4.66578 10.2143 4.68764 9.9999C4.66583 9.78568 4.7019 9.56954 4.79211 9.37402C4.88231 9.1785 5.02333 9.01077 5.20045 8.88833C5.36065 8.79262 5.54048 8.7345 5.72639 8.71833C5.80889 8.71556 5.88695 8.68025 5.94351 8.62012C6.00007 8.55999 6.03054 8.47992 6.02826 8.3974C6.02759 8.35621 6.01869 8.31558 6.00208 8.27788C5.98548 8.24019 5.96151 8.20619 5.93158 8.1779C5.90165 8.1496 5.86637 8.12757 5.8278 8.1131C5.78924 8.09863 5.74817 8.09202 5.70701 8.09365C5.55558 8.10288 5.40599 8.13177 5.26201 8.17958C5.23242 7.84747 5.30006 7.51392 5.4567 7.21958C5.56323 7.02423 5.709 6.85302 5.88485 6.71669C6.0607 6.58037 6.26284 6.48187 6.47858 6.42739C6.47701 6.46739 6.47201 6.50583 6.47201 6.54677C6.45418 7.07183 6.62204 7.58636 6.94607 7.9999C6.99927 8.06184 7.0746 8.1005 7.15595 8.1076C7.23729 8.11471 7.31818 8.08969 7.38131 8.03791C7.44445 7.98613 7.48481 7.9117 7.49376 7.83054C7.5027 7.74938 7.47953 7.66794 7.4292 7.60365C7.19773 7.30133 7.08012 6.92715 7.09701 6.54677C7.09596 6.39573 7.11338 6.24514 7.14889 6.09833C7.19097 5.7967 7.33965 5.5201 7.56803 5.31861C7.7964 5.11713 8.08936 5.00406 8.39389 4.99989C9.2767 4.99989 9.68763 5.40614 9.68763 6.28114V8.45427C9.42562 8.18846 9.1104 7.98102 8.76263 7.84552C8.6844 7.81817 8.5985 7.82302 8.52383 7.859C8.44917 7.89499 8.39186 7.95916 8.36451 8.0374C8.33716 8.11563 8.34201 8.20153 8.37799 8.2762C8.41398 8.35086 8.47815 8.40817 8.55638 8.43552C8.56763 8.43927 9.68763 8.84365 9.68763 9.9999C9.67585 10.3435 9.56195 10.6759 9.36046 10.9545C9.15897 11.2332 8.87904 11.4454 8.55638 11.5643C8.51764 11.5778 8.48195 11.5989 8.45134 11.6262C8.42073 11.6535 8.39581 11.6866 8.37799 11.7236C8.36018 11.7606 8.34981 11.8007 8.3475 11.8417C8.34519 11.8826 8.35097 11.9237 8.36451 11.9624C8.37805 12.0011 8.39909 12.0368 8.42643 12.0674C8.45377 12.0981 8.48686 12.123 8.52383 12.1408C8.5608 12.1586 8.60092 12.169 8.64189 12.1713C8.68287 12.1736 8.7239 12.1678 8.76263 12.1543C9.1104 12.0188 9.42562 11.8113 9.68763 11.5455V13.7187C9.68763 14.5937 9.2767 14.9999 8.39389 14.9999ZM14.5436 12.7812C14.437 12.9765 14.2913 13.1477 14.1154 13.284C13.9396 13.4204 13.7374 13.5189 13.5217 13.5733C13.5233 13.5333 13.5283 13.4949 13.5283 13.454C13.5463 12.9286 13.3784 12.4137 13.0542 11.9999C13.0285 11.9671 12.9966 11.9398 12.9602 11.9195C12.9238 11.8993 12.8838 11.8865 12.8424 11.8819C12.801 11.8774 12.7591 11.8811 12.7192 11.893C12.6793 11.9048 12.6421 11.9245 12.61 11.9509C12.5778 11.9773 12.5512 12.0099 12.5317 12.0467C12.5123 12.0835 12.5004 12.1239 12.4968 12.1654C12.4932 12.2068 12.4979 12.2486 12.5106 12.2882C12.5234 12.3279 12.5439 12.3646 12.5711 12.3962C12.8025 12.6985 12.9201 13.0727 12.9033 13.453C12.9043 13.6041 12.8869 13.7547 12.8514 13.9015C12.8093 14.2031 12.6606 14.4797 12.4322 14.6812C12.2039 14.8827 11.9109 14.9957 11.6064 14.9999C10.7236 14.9999 10.3126 14.5937 10.3126 13.7187V11.5455C10.5746 11.8113 10.8899 12.0188 11.2376 12.1543C11.2764 12.1678 11.3174 12.1736 11.3584 12.1713C11.3993 12.169 11.4395 12.1586 11.4764 12.1408C11.5134 12.123 11.5465 12.0981 11.5738 12.0674C11.6012 12.0368 11.6222 12.0011 11.6358 11.9624C11.6493 11.9237 11.6551 11.8826 11.6528 11.8417C11.6505 11.8007 11.6401 11.7606 11.6223 11.7236C11.6045 11.6866 11.5795 11.6535 11.5489 11.6262C11.5183 11.5989 11.4826 11.5778 11.4439 11.5643C11.4326 11.5605 10.3126 11.1562 10.3126 9.9999C10.3244 9.65625 10.4383 9.32391 10.6398 9.04528C10.8413 8.76665 11.1212 8.55437 11.4439 8.43552C11.5221 8.40817 11.5863 8.35086 11.6223 8.2762C11.6583 8.20153 11.6631 8.11563 11.6358 8.0374C11.6084 7.95916 11.5511 7.89499 11.4764 7.859C11.4018 7.82302 11.3159 7.81817 11.2376 7.84552C10.8899 7.98102 10.5746 8.18846 10.3126 8.45427V6.28114C10.3126 5.40614 10.7236 4.99989 11.6064 4.99989C11.9123 5.00462 12.2064 5.11892 12.4351 5.32203C12.6639 5.52513 12.8123 5.80358 12.8533 6.10677C12.8877 6.25087 12.9045 6.39862 12.9033 6.54677C12.9204 6.92757 12.8028 7.30224 12.5711 7.60489C12.524 7.66944 12.5034 7.74957 12.5136 7.82882C12.5238 7.90806 12.5639 7.9804 12.6257 8.03097C12.6876 8.08154 12.7665 8.1065 12.8462 8.10072C12.9258 8.09494 13.0003 8.05886 13.0542 7.9999C13.3782 7.58636 13.5461 7.07183 13.5283 6.54677C13.5283 6.50583 13.5233 6.46771 13.5217 6.42739C13.7373 6.48175 13.9394 6.5801 14.1152 6.71626C14.291 6.85243 14.4367 7.02347 14.5433 7.21864C14.7002 7.513 14.7679 7.84671 14.7383 8.17896C14.5943 8.13114 14.4447 8.10226 14.2933 8.09302C14.2104 8.09041 14.1299 8.12083 14.0694 8.17759C14.0089 8.23435 13.9735 8.3128 13.9709 8.39568C13.9683 8.47856 13.9987 8.55908 14.0555 8.61953C14.1122 8.67998 14.1907 8.71541 14.2736 8.71802C14.4594 8.73395 14.6391 8.79198 14.7992 8.88771C14.9765 9.01013 15.1177 9.17792 15.2081 9.37357C15.2984 9.56921 15.3345 9.78552 15.3126 9.9999C15.3344 10.2141 15.2984 10.4303 15.2082 10.6258C15.118 10.8213 14.9769 10.989 14.7998 11.1115C14.6396 11.2072 14.4598 11.2653 14.2739 11.2815C14.191 11.2828 14.1121 11.3171 14.0544 11.3766C13.9968 11.4362 13.9652 11.5162 13.9665 11.5991C13.9679 11.682 14.0021 11.7609 14.0617 11.8186C14.1213 11.8762 14.2013 11.9078 14.2842 11.9065H14.2933C14.4447 11.8972 14.5943 11.8683 14.7383 11.8205C14.768 12.1528 14.7003 12.4866 14.5436 12.7812Z" fill="#555555"/>
<path d="M13.5754 8.75C13.5754 8.66755 13.5428 8.58844 13.4847 8.52991C13.4267 8.47137 13.3478 8.43816 13.2654 8.4375H13.2629C13.1806 8.4375 13.1016 8.46995 13.0431 8.52781C12.9846 8.58567 12.9513 8.66428 12.9504 8.74656C12.9413 8.96057 12.8672 9.16673 12.7379 9.33748C12.6085 9.50824 12.4302 9.63547 12.2266 9.70219C12.1641 9.72274 12.1097 9.7625 12.0711 9.81581C12.0325 9.86912 12.0117 9.93325 12.0117 9.99906C12.0117 10.0649 12.0325 10.129 12.0711 10.1823C12.1097 10.2356 12.1641 10.2754 12.2266 10.2959C12.4302 10.3626 12.6085 10.4898 12.7378 10.6605C12.8672 10.8312 12.9413 11.0373 12.9504 11.2513C12.9506 11.3341 12.9838 11.4135 13.0426 11.4719C13.1014 11.5304 13.1809 11.5631 13.2638 11.5628C13.3467 11.5626 13.4261 11.5294 13.4845 11.4706C13.543 11.4118 13.5756 11.3323 13.5754 11.2494C13.5677 11.0102 13.5098 10.7754 13.4053 10.5601C13.3009 10.3449 13.1523 10.154 12.9691 10C13.1523 9.84592 13.301 9.65498 13.4055 9.4396C13.5099 9.22422 13.5678 8.98925 13.5754 8.75Z" fill="#555555"/>
</svg>
