<svg width="20" height="20" viewBox="0 0 20 20" fill="none" xmlns="http://www.w3.org/2000/svg">
<path d="M18.8747 17.645L13.0779 11.8481C13.9774 10.6851 14.464 9.26326 14.464 7.76772C14.464 5.97754 13.7654 4.29897 12.502 3.03334C11.2386 1.76772 9.55554 1.07129 7.7676 1.07129C5.97965 1.07129 4.29661 1.76995 3.03322 3.03334C1.7676 4.29674 1.07117 5.97754 1.07117 7.76772C1.07117 9.55567 1.76983 11.2387 3.03322 12.5021C4.29661 13.7677 5.97742 14.4641 7.7676 14.4641C9.26313 14.4641 10.6828 13.9775 11.8457 13.0802L17.6426 18.8749C17.6596 18.8919 17.6798 18.9054 17.702 18.9146C17.7242 18.9238 17.748 18.9285 17.7721 18.9285C17.7961 18.9285 17.8199 18.9238 17.8421 18.9146C17.8643 18.9054 17.8845 18.8919 17.9015 18.8749L18.8747 17.9039C18.8917 17.8869 18.9052 17.8667 18.9144 17.8445C18.9237 17.8223 18.9284 17.7985 18.9284 17.7744C18.9284 17.7504 18.9237 17.7266 18.9144 17.7043C18.9052 17.6821 18.8917 17.662 18.8747 17.645ZM11.3033 11.3034C10.3569 12.2476 9.10242 12.7677 7.7676 12.7677C6.43278 12.7677 5.17831 12.2476 4.23188 11.3034C3.28769 10.357 2.7676 9.10254 2.7676 7.76772C2.7676 6.4329 3.28769 5.1762 4.23188 4.232C5.17831 3.28781 6.43278 2.76772 7.7676 2.76772C9.10242 2.76772 10.3591 3.28558 11.3033 4.232C12.2475 5.17843 12.7676 6.4329 12.7676 7.76772C12.7676 9.10254 12.2475 10.3592 11.3033 11.3034Z" fill="#556570"/>
</svg>
