<svg width="20" height="20" viewBox="0 0 20 20" fill="none" xmlns="http://www.w3.org/2000/svg">
<path d="M3.54471 8.90891C3.4636 8.99021 3.39997 9.08726 3.35776 9.19407C3.31554 9.30088 3.29563 9.41521 3.29925 9.53L3.45456 14.2477C3.45997 14.4112 3.51308 14.5697 3.60735 14.7035C3.70163 14.8373 3.83296 14.9406 3.98519 15.0007C4.13741 15.0609 4.3039 15.0752 4.46416 15.0419C4.62442 15.0087 4.77147 14.9293 4.88721 14.8136L5.87487 13.8261L9.60456 17.5559C9.62992 17.5813 9.66005 17.6015 9.69322 17.6153C9.72638 17.629 9.76193 17.6361 9.79784 17.6361C9.83374 17.6361 9.86929 17.629 9.90246 17.6153C9.93562 17.6015 9.96575 17.5813 9.99112 17.5559L12.1917 15.3553C12.2172 15.3299 12.2373 15.2998 12.2511 15.2666C12.2648 15.2334 12.2719 15.1979 12.2719 15.162C12.2719 15.126 12.2648 15.0905 12.2511 15.0573C12.2373 15.0241 12.2172 14.994 12.1917 14.9686L8.46206 11.2389L9.44956 10.2514C9.56533 10.1357 9.64474 9.98861 9.67802 9.82832C9.7113 9.66803 9.69698 9.50152 9.63684 9.34926C9.5767 9.197 9.47336 9.06565 9.33953 8.97136C9.20571 8.87708 9.04724 8.82398 8.88362 8.81859L4.16596 8.66328C4.05116 8.65993 3.93688 8.67998 3.83008 8.72221C3.72328 8.76444 3.62618 8.82796 3.54471 8.90891ZM9.12815 9.54953C9.14988 9.6026 9.15527 9.66094 9.14363 9.71709C9.132 9.77323 9.10386 9.82463 9.06284 9.86469L7.88206 11.0455C7.83081 11.0968 7.80202 11.1663 7.80202 11.2388C7.80202 11.3113 7.83081 11.3809 7.88206 11.4322L11.6117 15.162L9.79721 16.9759L6.06815 13.2461C6.01683 13.1949 5.94729 13.1661 5.87479 13.1661C5.80229 13.1661 5.73275 13.1949 5.68143 13.2461L4.50034 14.4269C4.46001 14.4674 4.4087 14.4952 4.35273 14.5069C4.29677 14.5186 4.2386 14.5137 4.18541 14.4927C4.13223 14.4717 4.08636 14.4356 4.05347 14.3888C4.02058 14.3421 4.00211 14.2867 4.00034 14.2295L3.84503 9.51188C3.84372 9.47185 3.85065 9.43198 3.86537 9.39473C3.8801 9.35749 3.90231 9.32366 3.93064 9.29535C3.95897 9.26703 3.99281 9.24484 4.03006 9.23013C4.06731 9.21542 4.10719 9.20852 4.14721 9.20984L8.86471 9.36609C8.92195 9.36708 8.9776 9.38512 9.02453 9.41791C9.07146 9.4507 9.10754 9.49674 9.12815 9.55016V9.54953Z" fill="#555555" stroke="#555555" stroke-width="0.5"/>
<path d="M10.3637 10.6508C10.4225 10.804 10.5254 10.9363 10.6595 11.0309C10.7936 11.1254 10.9528 11.1781 11.1168 11.182L15.8345 11.3373H15.8618C15.9744 11.3373 16.0858 11.3147 16.1895 11.2708C16.2932 11.2268 16.3869 11.1625 16.4652 11.0816C16.5435 11.0007 16.6048 10.9049 16.6453 10.7998C16.6859 10.6948 16.7048 10.5827 16.7012 10.4702L16.5459 5.7525C16.5405 5.58892 16.4873 5.43048 16.3931 5.29669C16.2988 5.16289 16.1675 5.05957 16.0152 4.99944C15.863 4.93931 15.6965 4.92498 15.5363 4.95823C15.376 4.99147 15.229 5.07084 15.1132 5.18656L14.1251 6.17391L10.3959 2.44406C10.3436 2.39466 10.2745 2.36713 10.2026 2.36713C10.1307 2.36713 10.0615 2.39466 10.0093 2.44406L7.80868 4.64469C7.78327 4.67007 7.76311 4.70021 7.74935 4.73339C7.7356 4.76657 7.72852 4.80213 7.72852 4.83805C7.72852 4.87396 7.7356 4.90953 7.74935 4.94271C7.76311 4.97588 7.78327 5.00603 7.80868 5.03141L11.5384 8.76109L10.5509 9.74859C10.4338 9.86353 10.3535 10.0106 10.3202 10.1713C10.2869 10.3319 10.302 10.4988 10.3637 10.6508ZM10.9376 10.1353L12.1184 8.95453C12.1696 8.90323 12.1984 8.83368 12.1984 8.76117C12.1984 8.68866 12.1696 8.61911 12.1184 8.56781L8.38868 4.83797L10.2032 3.02406L13.9329 6.75391C13.9842 6.80515 14.0537 6.83394 14.1263 6.83394C14.1988 6.83394 14.2683 6.80515 14.3196 6.75391L15.5001 5.57313C15.5404 5.53259 15.5917 5.50475 15.6477 5.49305C15.7037 5.48136 15.7618 5.48631 15.815 5.5073C15.8682 5.52829 15.9141 5.5644 15.947 5.61117C15.9798 5.65794 15.9983 5.71332 16.0001 5.77047L16.1554 10.4881C16.1569 10.5281 16.15 10.568 16.1353 10.6053C16.1206 10.6425 16.0983 10.6763 16.0699 10.7045C16.0418 10.7332 16.008 10.7557 15.9707 10.7704C15.9334 10.7852 15.8933 10.7919 15.8532 10.7902L11.1357 10.6348C11.0786 10.6331 11.0232 10.6147 10.9764 10.5819C10.9296 10.5491 10.8935 10.5033 10.8724 10.4502C10.8513 10.3971 10.8463 10.339 10.8579 10.283C10.8695 10.2271 10.8972 10.1757 10.9376 10.1353Z" fill="#555555" stroke="#555555" stroke-width="0.5"/>
</svg>
