<svg width="20" height="20" viewBox="0 0 20 20" fill="none" xmlns="http://www.w3.org/2000/svg">
<g clip-path="url(#clip0_1448_31110)">
<path d="M11.6133 2.72433H3.86719C3.70539 2.72433 3.57422 2.85551 3.57422 3.0173C3.57422 3.1791 3.70539 3.31027 3.86719 3.31027H11.6133C11.7751 3.31027 11.9063 3.1791 11.9063 3.0173C11.9063 2.85551 11.7751 2.72433 11.6133 2.72433Z" fill="#555555" stroke="#555555" stroke-width="0.3"/>
<path d="M11.6133 4.8596H3.86719C3.70539 4.8596 3.57422 4.99078 3.57422 5.15257C3.57422 5.31437 3.70539 5.44554 3.86719 5.44554H11.6133C11.7751 5.44554 11.9063 5.31437 11.9063 5.15257C11.9063 4.99078 11.7751 4.8596 11.6133 4.8596Z" fill="#555555" stroke="#555555" stroke-width="0.3"/>
<path d="M11.6133 6.99484H3.86719C3.70539 6.99484 3.57422 7.12601 3.57422 7.28781C3.57422 7.44961 3.70539 7.58078 3.86719 7.58078H11.6133C11.7751 7.58078 11.9063 7.44961 11.9063 7.28781C11.9063 7.12601 11.7751 6.99484 11.6133 6.99484Z" fill="#555555" stroke="#555555" stroke-width="0.3"/>
<path d="M11.6133 9.13011H3.86719C3.70539 9.13011 3.57422 9.26124 3.57422 9.42308C3.57422 9.58488 3.70539 9.71605 3.86719 9.71605H11.6133C11.7751 9.71605 11.9063 9.58488 11.9063 9.42308C11.9063 9.26124 11.7751 9.13011 11.6133 9.13011Z" fill="#555555" stroke="#555555" stroke-width="0.3"/>
<path d="M7.26805 11.2654H3.86719C3.70539 11.2654 3.57422 11.3965 3.57422 11.5583C3.57422 11.7201 3.70539 11.8513 3.86719 11.8513H7.26805C7.42984 11.8513 7.56102 11.7201 7.56102 11.5583C7.56102 11.3965 7.42984 11.2654 7.26805 11.2654Z" fill="#555555" stroke="#555555" stroke-width="0.3"/>
<path d="M16.937 13.9923C16.7532 13.3182 16.094 12.8654 15.2965 12.8654C14.8431 12.8654 14.3897 13.0127 13.9976 13.2842C13.6056 13.0127 13.1521 12.8654 12.6988 12.8654C11.9015 12.8654 11.2422 13.3182 11.0584 13.9923C10.7491 15.1268 11.7661 16.4813 13.8489 17.7083C13.9356 17.7594 14.0537 17.7629 14.1463 17.7083C16.2292 16.4812 17.2464 15.1268 16.937 13.9923ZM16.0261 15.388C15.6249 15.9606 14.9429 16.541 13.9976 17.1146C13.0524 16.541 12.3705 15.9606 11.9693 15.3881C11.6472 14.9282 11.5276 14.4988 11.6237 14.1464C11.7371 13.7306 12.1691 13.4513 12.6988 13.4513C13.089 13.4513 13.4832 13.6024 13.8089 13.8767C13.918 13.9686 14.0773 13.9686 14.1864 13.8767C14.512 13.6024 14.9063 13.4513 15.2965 13.4513C15.8263 13.4513 16.2584 13.7307 16.3718 14.1465C16.4678 14.4988 16.3483 14.9281 16.0261 15.388Z" fill="#555555" stroke="#555555" stroke-width="0.3"/>
<path d="M14.2903 10.3864V1.32102C14.2903 0.592578 13.6977 0 12.9693 0H11.3415C11.1797 0 11.0486 0.131172 11.0486 0.292969C11.0486 0.454766 11.1797 0.585938 11.3415 0.585938H12.9693C13.3746 0.585938 13.7044 0.915703 13.7044 1.32102V10.3861C13.6908 10.3869 13.6773 10.3881 13.6638 10.389C12.5452 10.4659 11.4728 10.944 10.665 11.7213C9.67668 12.6723 9.13055 14.0418 9.19145 15.4121C9.22508 16.1689 9.44008 16.9143 9.81657 17.5718H2.51145C2.10613 17.5718 1.77637 17.242 1.77637 16.8367V1.32102C1.77637 0.915703 2.10609 0.585938 2.51145 0.585938H10.1697C10.3315 0.585938 10.4626 0.454766 10.4626 0.292969C10.4626 0.131172 10.3315 0 10.1697 0H2.51145C1.78305 0 1.19043 0.592578 1.19043 1.32102V16.8367C1.19043 17.5651 1.78305 18.1577 2.51145 18.1577H10.2138C11.0955 19.2788 12.4638 20 13.9973 20C16.6504 20 18.8087 17.8416 18.8087 15.1886C18.8087 12.6341 16.8074 10.5384 14.2903 10.3864ZM13.9973 19.4141C11.947 19.4141 10.1056 17.8315 9.81614 15.7981C9.46438 13.3268 11.4825 10.9632 13.9973 10.9632C16.3273 10.9632 18.2228 12.8587 18.2228 15.1886C18.2228 17.5186 16.3273 19.4141 13.9973 19.4141Z" fill="#555555" stroke="#555555" stroke-width="0.3"/>
</g>
<defs>
<clipPath id="clip0_1448_31110">
<rect width="20" height="20" fill="white"/>
</clipPath>
</defs>
</svg>
