<svg width="103" height="49" viewBox="0 0 103 49" fill="none" xmlns="http://www.w3.org/2000/svg">
<path d="M103 49V39.41L98.9597 38.7823L94.9195 38.9411L90.8792 37.6141L86.8389 32.1563L74.7182 29.5707L70.6779 29.577L66.6376 26.7484L62.5974 27.7593L58.5571 27.577L46.4363 26.9789L42.3961 23.2625L38.3558 21.9308L34.3155 24.007L30.2753 23.8435L18.1545 26.792L14.1142 27.3107L10.074 24.0584L6.03368 15.322L1.99342 1V49H103Z" fill="url(#paint0_linear_232_2014)"/>
<path d="M102.006 39.41L97.9656 38.7823L93.9253 38.9411L89.8851 37.6141L85.8448 32.1563L73.724 29.5707L69.6838 29.577L65.6435 26.7484L61.6032 27.7593L57.563 27.577L45.4422 26.9789L41.4019 23.2625L37.3616 21.9308L33.3214 24.007L29.2811 23.8435L17.1603 26.792L13.1201 27.3107L9.07981 24.0584L5.03954 15.322L0.999279 1" stroke="#ED1C24" stroke-width="2"/>
<line x1="1.67188" y1="48.4382" x2="103.001" y2="48.4382" stroke="#ED1C24" stroke-width="0.5" stroke-dasharray="3 3"/>
<defs>
<linearGradient id="paint0_linear_232_2014" x1="103" y1="1" x2="103" y2="49" gradientUnits="userSpaceOnUse">
<stop stop-color="#ED1C24" stop-opacity="0.42"/>
<stop offset="1" stop-color="#ED1C24" stop-opacity="0"/>
</linearGradient>
</defs>
</svg>
