<svg width="106" height="106" viewBox="0 0 106 106" fill="none" xmlns="http://www.w3.org/2000/svg">
<g clip-path="url(#clip0_1448_17189)">
<path d="M17.5738 38.9295C16.7133 38.7944 15.9111 39.398 15.7793 40.2786C14.8436 46.504 15.3045 52.7303 17.1484 58.7849C19.0052 64.8851 22.5005 70.2698 27.2557 74.3559C31.5597 78.0549 36.7032 80.5382 42.1976 81.588C42.6658 83.7554 44.5542 85.3823 46.8073 85.3823C48.9196 85.3823 50.7117 83.9519 51.3134 81.9868C53.4978 81.7646 55.6724 81.3135 57.7937 80.6352C71.6243 76.2116 79.3661 61.0742 75.0508 46.8912C71.5451 35.379 59.5575 28.9355 48.3284 32.5266C43.8959 33.9445 40.2672 37.0473 38.1111 41.2636C35.9551 45.48 35.5289 50.3049 36.9118 54.8496C38.044 58.5676 40.5195 61.6115 43.8846 63.4208C47.2488 65.2292 51.0983 65.5858 54.7246 64.4249C55.5543 64.1596 56.0161 63.255 55.7573 62.4034C55.4985 61.5527 54.6154 61.0792 53.7857 61.3445C50.9632 62.2483 47.9653 61.9697 45.3459 60.5618C42.7265 59.1539 40.7977 56.7833 39.9162 53.8878C38.784 50.1665 39.1325 46.2146 40.8988 42.7619C42.665 39.3093 45.6362 36.7679 49.2658 35.607C58.8385 32.5457 69.0574 38.039 72.0457 47.8522C75.8442 60.3354 69.03 73.6602 56.8564 77.554C55.0012 78.1469 53.1023 78.5474 51.1945 78.7547C50.499 76.967 48.7959 75.6992 46.8073 75.6992C44.9618 75.6992 43.3621 76.7912 42.5858 78.3766C37.6938 77.4081 33.1165 75.1809 29.2783 71.8825C24.9857 68.1935 21.8301 63.3321 20.1536 57.823C18.4537 52.2419 18.0291 46.5048 18.8904 40.7694C19.0222 39.8897 18.4335 39.0655 17.5738 38.9295ZM46.8073 78.9271C47.675 78.9271 48.381 79.651 48.381 80.5407C48.381 81.4304 47.675 82.1543 46.8073 82.1543C45.9387 82.1543 45.2335 81.4304 45.2335 80.5407C45.2335 79.651 45.9387 78.9271 46.8073 78.9271Z" fill="#ED1C24"/>
<path d="M105.929 40.7427C101.965 27.7181 93.2905 17.0558 81.506 10.7201C69.7197 4.38437 56.2328 3.13398 43.5295 7.19941C34.294 10.1537 26.4859 16.3593 21.4007 24.7438C20.9106 24.6087 20.3963 24.5357 19.8658 24.5357C16.6034 24.5357 13.9492 27.2571 13.9492 30.6019C13.9492 33.9468 16.6034 36.6673 19.8658 36.6673C23.1281 36.6673 25.7823 33.9468 25.7823 30.6019C25.7823 28.9643 25.1451 27.4768 24.1123 26.3839C28.7996 18.6892 35.9794 12.9953 44.4668 10.2798C56.3679 6.4714 69.0032 7.64301 80.0438 13.5782C91.0852 19.5143 99.2111 29.5024 102.925 41.7037C103.135 42.3944 103.756 42.8372 104.427 42.8372C104.583 42.8372 104.74 42.814 104.896 42.7634C105.725 42.498 106.189 41.5934 105.929 40.7427ZM19.8658 33.4402C18.3389 33.4402 17.0967 32.1666 17.0967 30.6019C17.0967 29.0365 18.3389 27.7628 19.8658 27.7628C21.3918 27.7628 22.634 29.0365 22.634 30.6019C22.634 32.1666 21.3918 33.4402 19.8658 33.4402Z" fill="#ED1C24"/>
<path d="M42.6894 23.112C29.5534 29.3822 23.8423 45.4399 29.9578 58.9082C33.5719 66.8641 41.2895 71.5481 49.3338 71.5473C52.3447 71.5473 55.4016 70.8914 58.3065 69.505C66.9946 65.3575 70.7729 54.7341 66.7285 45.8238C63.4176 38.5354 54.9415 35.3663 47.8328 38.7601C47.0452 39.1357 46.7031 40.0959 47.0702 40.9035C47.4374 41.712 48.3731 42.0619 49.1616 41.6854C54.6964 39.0445 61.2972 41.5113 63.8745 47.1862C67.187 54.4829 64.0929 63.1826 56.9778 66.5789C47.8862 70.9188 37.0446 66.8658 32.8109 57.5459C27.4281 45.6912 32.4559 31.5563 44.0181 26.0373C51.0062 22.7015 58.8581 22.3118 66.1276 24.9395C72.8925 27.3855 78.4516 32.1889 81.9307 38.5528C80.412 39.6523 79.4172 41.4641 79.4172 43.5105C79.4172 46.8553 82.0714 49.5767 85.3338 49.5767C88.5962 49.5767 91.2504 46.8553 91.2504 43.5105C91.2504 40.1656 88.5962 37.4442 85.3338 37.4442C85.1996 37.4442 85.0669 37.4509 84.9351 37.46C81.1026 30.1699 74.8375 24.6658 67.1741 21.8956C59.1241 18.9852 50.4288 19.4172 42.6894 23.112ZM88.1028 43.5105C88.1028 45.0751 86.8607 46.3487 85.3338 46.3487C83.8069 46.3487 82.5656 45.0751 82.5656 43.5105C82.5656 41.945 83.8069 40.6714 85.3338 40.6714C86.8607 40.6714 88.1028 41.945 88.1028 43.5105Z" fill="#ED1C24"/>
<path d="M89.4714 53.7697C89.4116 52.88 88.6603 52.2084 87.7933 52.2706C86.9264 52.332 86.2713 53.1031 86.332 53.992C86.8423 61.5681 85.1424 69.0605 81.4174 75.6616C77.6084 82.411 71.936 87.7252 65.0134 91.0294C53.7116 96.4249 41.0366 96.9846 29.324 92.6049C17.6122 88.226 8.26341 79.4326 3.0011 67.8449C2.63394 67.0373 1.69826 66.6866 0.909757 67.063C0.122068 67.4395 -0.21921 68.3997 0.147138 69.2073C5.76529 81.576 15.744 90.9623 28.2452 95.6372C33.8148 97.7192 39.5866 98.7557 45.343 98.7557C52.5099 98.7557 59.6516 97.1487 66.3421 93.9548C73.8519 90.3703 80.007 84.6034 84.142 77.2776C88.1823 70.1185 90.0254 61.9893 89.4714 53.7697Z" fill="#ED1C24"/>
<path d="M52.194 42.7529C47.725 42.7529 44.0898 46.4809 44.0898 51.0621C44.0898 55.6433 47.725 59.3704 52.194 59.3704C56.6621 59.3704 60.2973 55.6433 60.2973 51.0621C60.2973 46.4809 56.6621 42.7529 52.194 42.7529ZM52.194 56.1441C49.4613 56.1441 47.2374 53.8638 47.2374 51.0621C47.2374 48.2603 49.4613 45.9809 52.194 45.9809C54.9266 45.9809 57.1498 48.2603 57.1498 51.0621C57.1498 53.8638 54.9266 56.1441 52.194 56.1441Z" fill="#ED1C24"/>
<path d="M90.4936 90.3615H89.5668V89.4104C89.5668 88.5191 88.8616 87.7969 87.9931 87.7969C87.1237 87.7969 86.4193 88.5191 86.4193 89.4104V90.3615H85.4917C84.6224 90.3615 83.918 91.0837 83.918 91.9751C83.918 92.8664 84.6224 93.5887 85.4917 93.5887H86.4193V94.5389C86.4193 95.4303 87.1237 96.1525 87.9931 96.1525C88.8616 96.1525 89.5668 95.4303 89.5668 94.5389V93.5887H90.4936C91.363 93.5887 92.0674 92.8664 92.0674 91.9751C92.0674 91.0837 91.363 90.3615 90.4936 90.3615Z" fill="#ED1C24"/>
<path d="M80.9892 17.4326C80.1198 17.4326 79.4146 18.1548 79.4146 19.0462V19.9964H78.4878C77.6185 19.9964 76.9141 20.7186 76.9141 21.61C76.9141 22.5013 77.6185 23.2236 78.4878 23.2236H79.4146V24.1746C79.4146 25.066 80.1198 25.7882 80.9892 25.7882C81.8577 25.7882 82.5629 25.066 82.5629 24.1746V23.2236H83.4897C84.3591 23.2236 85.0635 22.5013 85.0635 21.61C85.0635 20.7186 84.3591 19.9964 83.4897 19.9964H82.5629V19.0462C82.5629 18.1548 81.8577 17.4326 80.9892 17.4326Z" fill="#ED1C24"/>
<path d="M14.3871 12.9646H15.3139V13.9149C15.3139 14.8062 16.0183 15.5284 16.8876 15.5284C17.757 15.5284 18.4614 14.8062 18.4614 13.9149V12.9646H19.389C20.2575 12.9646 20.9627 12.2424 20.9627 11.3511C20.9627 10.4597 20.2575 9.73665 19.389 9.73665H18.4614V8.78642C18.4614 7.89506 17.757 7.17285 16.8876 7.17285C16.0183 7.17285 15.3139 7.89506 15.3139 8.78642V9.73665H14.3871C13.5177 9.73665 12.8125 10.4597 12.8125 11.3511C12.8125 12.2424 13.5177 12.9646 14.3871 12.9646Z" fill="#ED1C24"/>
<path d="M13.0191 77.6435H13.9467V78.5945C13.9467 79.4859 14.6511 80.2081 15.5204 80.2081C16.3898 80.2081 17.0942 79.4859 17.0942 78.5945V77.6435H18.021C18.8904 77.6435 19.5947 76.9213 19.5947 76.0299C19.5947 75.1386 18.8904 74.4163 18.021 74.4163H17.0942V73.4661C17.0942 72.5747 16.3898 71.8525 15.5204 71.8525C14.6511 71.8525 13.9467 72.5747 13.9467 73.4661V74.4163H13.0191C12.1505 74.4163 11.4453 75.1386 11.4453 76.0299C11.4453 76.9213 12.1497 77.6435 13.0191 77.6435Z" fill="#ED1C24"/>
<path d="M61.2853 60.4457C61.2853 61.5145 60.4394 62.3818 59.3962 62.3818C58.3537 62.3818 57.5078 61.5145 57.5078 60.4457C57.5078 59.3761 58.3537 58.5088 59.3962 58.5088C60.4394 58.5088 61.2853 59.3761 61.2853 60.4457Z" fill="#ED1C24"/>
<path d="M54.0822 27.475C54.0822 28.5447 53.2371 29.4112 52.1938 29.4112C51.1506 29.4112 50.3047 28.5447 50.3047 27.475C50.3047 26.4054 51.1506 25.5381 52.1938 25.5381C53.2371 25.5381 54.0822 26.4054 54.0822 27.475Z" fill="#ED1C24"/>
<path d="M67.6525 83.769C67.6525 84.8378 66.8066 85.7051 65.7642 85.7051C64.7209 85.7051 63.875 84.8378 63.875 83.769C63.875 82.6993 64.7209 81.832 65.7642 81.832C66.8066 81.832 67.6525 82.6993 67.6525 83.769Z" fill="#ED1C24"/>
<path d="M11.8314 47.9633C11.8314 49.0321 10.9863 49.8994 9.94304 49.8994C8.89979 49.8994 8.05469 49.0321 8.05469 47.9633C8.05469 46.8937 8.89979 46.0264 9.94304 46.0264C10.9863 46.0264 11.8314 46.8937 11.8314 47.9633Z" fill="#ED1C24"/>
<path d="M98.7072 49.899C98.7072 50.9686 97.8613 51.8351 96.8188 51.8351C95.7756 51.8351 94.9297 50.9686 94.9297 49.899C94.9297 48.8294 95.7756 47.9629 96.8188 47.9629C97.8613 47.9629 98.7072 48.8294 98.7072 49.899Z" fill="#ED1C24"/>
</g>
<defs>
<clipPath id="clip0_1448_17189">
<rect width="106" height="106" fill="white"/>
</clipPath>
</defs>
</svg>
