<svg width="106" height="106" viewBox="0 0 106 106" fill="none" xmlns="http://www.w3.org/2000/svg">
<g clip-path="url(#clip0_1448_17209)">
<path d="M104.694 1.5404C103.704 0.550587 102.341 0.0887003 100.953 0.271716L93.6582 1.23731C79.884 3.06063 66.8872 9.47529 57.0623 19.3L52.8716 23.4907C42.6701 22.3164 32.3177 25.9047 25.0391 33.1818L13.2425 44.9805C12.0775 46.1457 11.6537 47.7862 12.109 49.3692C12.5638 50.9515 13.794 52.1159 15.3987 52.4838L24.6638 54.6114C24.5232 56.0283 24.7124 57.4771 25.246 58.8257L20.9913 61.1163C19.7373 61.7919 18.8994 62.9877 18.6926 64.3974C18.486 65.8068 18.9452 67.1929 19.9524 68.2003L25.0598 73.3078C25.3631 73.6109 25.7606 73.7624 26.1579 73.7624C26.5552 73.7624 26.9527 73.6109 27.256 73.3078C27.8624 72.7012 27.8624 71.7182 27.256 71.1118L22.1486 66.0043C21.8422 65.6981 21.7026 65.2766 21.7653 64.8481C21.8281 64.4195 22.0827 64.056 22.4637 63.8508L26.8769 61.4747C26.996 61.6084 44.6264 79.2367 44.7603 79.3558L42.3815 83.773C42.1766 84.1535 41.8138 84.4078 41.3861 84.4705C40.9567 84.533 40.5375 84.3939 40.2321 84.0881L31.8788 75.7348C31.2722 75.1286 30.2892 75.1286 29.6828 75.7348C29.0764 76.3414 29.0764 77.3244 29.6828 77.9308L38.0361 86.2841C38.8846 87.1323 40.0013 87.5915 41.1745 87.5915C41.394 87.5915 41.6153 87.5753 41.837 87.5428C43.2457 87.3362 44.4406 86.4988 45.1158 85.245L47.4113 80.9824C48.4744 81.4023 49.598 81.6139 50.7203 81.6139C51.0213 81.6139 51.322 81.5985 51.6215 81.5689L53.7492 90.8359C54.1173 92.4408 55.2825 93.6703 56.8658 94.1256C57.2845 94.2459 57.7072 94.3047 58.1242 94.3047C59.2838 94.3047 60.398 93.849 61.2547 92.9921L73.0513 81.1938C80.3297 73.915 83.919 63.5639 82.7425 53.3643L86.4129 49.694C87.0195 49.0876 87.0195 48.1044 86.4131 47.4982C85.8067 46.892 84.8235 46.8916 84.2174 47.498L54.9224 76.7909C52.983 78.7301 49.899 79.0746 47.5842 77.6074C47.2198 77.3782 46.8764 77.1033 46.5635 76.7909C46.5635 76.7909 28.8529 59.0139 28.6228 58.646C27.1579 56.3351 27.5024 53.2512 29.4425 51.313L39.8083 40.9469C40.4147 40.3403 40.4147 39.3573 39.8083 38.751C39.2017 38.1448 38.2187 38.1448 37.6123 38.751L27.2467 49.1166C26.5072 49.8553 25.9198 50.7035 25.4894 51.6148L16.0933 49.457C15.39 49.2959 15.1598 48.7417 15.0933 48.511C15.0271 48.28 14.9275 47.6873 15.4385 47.1763L27.2349 35.3778C33.2407 29.3735 41.5503 26.1367 49.9686 26.3937L41.3476 35.0147C40.7412 35.6213 40.7412 36.6042 41.3476 37.2106C41.9542 37.8168 42.9372 37.8168 43.5436 37.2106L59.2583 21.4959C68.6028 12.1512 80.9645 6.04996 94.0656 4.31607L101.36 3.35048C101.782 3.29437 102.197 3.43495 102.498 3.73597C102.799 4.03699 102.939 4.45126 102.883 4.87298L101.918 12.1679C100.43 23.4089 95.825 33.9743 88.6004 42.7224C88.0543 43.3835 88.1476 44.3623 88.8091 44.9085C89.0983 45.1474 89.4486 45.264 89.7968 45.264C90.244 45.264 90.6879 45.0716 90.9949 44.6998C98.5905 35.5024 103.432 24.3942 104.996 12.5756L105.962 5.28063C106.146 3.89331 105.684 2.53001 104.694 1.5404ZM57.1178 78.9871L79.8419 56.2646C80.1007 64.6818 76.8615 72.9914 70.8551 78.9982L59.0585 90.7967C58.5478 91.3073 57.9544 91.2073 57.7236 91.141C57.4923 91.0748 56.9371 90.8442 56.7758 90.1413L54.6177 80.7421C55.5294 80.3119 56.3787 79.7262 57.1178 78.9871Z" fill="#ED1C24"/>
<path d="M87.2544 18.9786C85.347 17.071 82.8109 16.0205 80.1134 16.0205C77.416 16.0205 74.8799 17.071 72.9725 18.9784C69.0352 22.9159 69.0352 29.3227 72.9725 33.2602C74.9414 35.2289 77.5274 36.2133 80.1134 36.2133C82.6995 36.2133 85.2855 35.2289 87.2544 33.2602V33.26C91.1917 29.3227 91.1917 22.9159 87.2544 18.9786ZM85.0584 31.0642C82.3318 33.7908 77.8951 33.791 75.1685 31.0644C72.4419 28.3376 72.4419 23.9009 75.1685 21.1743C76.4894 19.8535 78.2454 19.126 80.1134 19.126C81.9815 19.126 83.7375 19.8535 85.0584 21.1746C87.785 23.9012 87.785 28.3376 85.0584 31.0642Z" fill="#ED1C24"/>
<path d="M27.9121 78.3375C27.3055 77.7313 26.3225 77.7313 25.7161 78.3375L5.54464 98.5089C4.93825 99.1155 4.93825 100.098 5.54464 100.705C5.84794 101.008 6.24544 101.16 6.64273 101.16C7.04003 101.16 7.43753 101.008 7.74083 100.705L27.9123 80.5334C28.5185 79.927 28.5185 78.9441 27.9121 78.3375Z" fill="#ED1C24"/>
<path d="M22.6539 73.4146C22.0473 72.8084 21.0643 72.8084 20.4579 73.4146L0.454796 93.4179C-0.151599 94.0245 -0.151599 95.0075 0.454796 95.6139C0.758097 95.917 1.1556 96.0686 1.55289 96.0686C1.95018 96.0686 2.34768 95.917 2.65098 95.6139L22.6541 75.6108C23.2603 75.0042 23.2603 74.0212 22.6539 73.4146Z" fill="#ED1C24"/>
<path d="M32.9872 83.4107C32.3806 82.8045 31.3976 82.8045 30.791 83.4107L11.0837 103.118C10.4773 103.725 10.4773 104.708 11.0837 105.314C11.387 105.617 11.7845 105.769 12.1818 105.769C12.5791 105.769 12.9766 105.617 13.2799 105.314L32.9872 85.6067C33.5936 85.0001 33.5936 84.0171 32.9872 83.4107Z" fill="#ED1C24"/>
<path d="M48.6659 67.9637L38.2682 57.566C37.6614 56.9598 36.6784 56.9598 36.072 57.566C35.4656 58.1726 35.4656 59.1556 36.072 59.7619L46.4697 70.1597C46.773 70.4628 47.1705 70.6143 47.5678 70.6143C47.9651 70.6143 48.3626 70.4628 48.6659 70.1597C49.2723 69.5531 49.2723 68.5699 48.6659 67.9637Z" fill="#ED1C24"/>
<path d="M44.3404 57.2956L41.4398 54.3951C40.8332 53.7889 39.8503 53.7889 39.2439 54.3951C38.6375 55.0017 38.6375 55.9847 39.2439 56.5911L42.1444 59.4916C42.4477 59.7946 42.8452 59.9462 43.2423 59.9462C43.6395 59.9462 44.037 59.7946 44.3404 59.4916C44.9467 58.885 44.9467 57.9018 44.3404 57.2956Z" fill="#ED1C24"/>
</g>
<defs>
<clipPath id="clip0_1448_17209">
<rect width="106" height="106" fill="white"/>
</clipPath>
</defs>
</svg>
