<svg width="106" height="106" viewBox="0 0 106 106" fill="none" xmlns="http://www.w3.org/2000/svg">
<path d="M70.7969 67.9808C68.2854 67.9808 66.2422 66.2123 66.2422 64.0387C66.2422 61.8648 68.2854 60.0964 70.7969 60.0964C73.3084 60.0964 75.3516 61.8648 75.3516 64.0387C75.3516 65.1819 76.2786 66.109 77.4219 66.109C78.5651 66.109 79.4922 65.1819 79.4922 64.0387C79.4922 60.2448 76.6654 57.0549 72.8672 56.1891V55.1123C72.8672 53.9691 71.9401 53.042 70.7969 53.042C69.6536 53.042 68.7266 53.9691 68.7266 55.1123V56.1891C64.9284 57.0549 62.1016 60.2448 62.1016 64.0387C62.1016 68.4954 66.0022 72.1214 70.7969 72.1214C73.3084 72.1214 75.3516 73.8898 75.3516 76.0637C75.3516 78.2375 73.3084 80.006 70.7969 80.006C68.2854 80.006 66.2422 78.2375 66.2422 76.0637C66.2422 74.9204 65.3151 73.9934 64.1719 73.9934C63.0286 73.9934 62.1016 74.9204 62.1016 76.0637C62.1016 79.8575 64.9284 83.0475 68.7266 83.9133V84.8076C68.7266 85.9509 69.6536 86.8779 70.7969 86.8779C71.9401 86.8779 72.8672 85.9509 72.8672 84.8076V83.9133C76.6654 83.0475 79.4922 79.8575 79.4922 76.0637C79.4922 71.6067 75.5915 67.9808 70.7969 67.9808Z" fill="#ED1C24"/>
<path d="M93.4709 55.6654C90.7665 51.4512 86.9563 48.0791 82.4523 45.914C81.4215 45.4184 80.1845 45.8523 79.6893 46.8829C79.1939 47.9135 79.6276 49.1503 80.6582 49.6457C88.507 53.4187 93.5782 61.4803 93.5782 70.1834C93.5782 73.9075 92.6602 77.6007 90.9238 80.8644C90.3868 81.8736 90.7696 83.1274 91.7791 83.6645C92.0888 83.8293 92.4217 83.9075 92.7497 83.9075C93.4904 83.9075 94.2069 83.5088 94.5792 82.8092C96.6331 78.9493 97.7188 74.5833 97.7188 70.1834C97.7188 65.0159 96.2499 59.9956 93.4709 55.6654Z" fill="#ED1C24"/>
<path d="M74.0495 43.2697L73.9102 43.2695C72.7669 43.2695 71.8398 44.1964 71.8398 45.3398C71.8398 46.4833 72.7669 47.4102 73.9102 47.4102L74.03 47.4104C74.0333 47.4104 74.0365 47.4104 74.04 47.4104C75.1789 47.4104 76.1047 46.4899 76.1101 45.3498C76.1153 44.2063 75.1927 43.2751 74.0495 43.2697Z" fill="#ED1C24"/>
<path d="M60.951 90.7217C53.1025 86.9486 48.0312 78.887 48.0312 70.184C48.0312 66.4599 48.9492 62.7667 50.6856 59.5031C51.2226 58.4938 50.8398 57.24 49.8303 56.703C48.8213 56.1659 47.5671 56.5487 47.0303 57.5582C44.9763 61.4183 43.8906 65.7842 43.8906 70.184C43.8906 75.3515 45.3595 80.3716 48.1385 84.7021C50.8429 88.9162 54.6531 92.2883 59.1571 94.4537C59.4463 94.5928 59.7519 94.6584 60.0527 94.6584C60.8237 94.6584 61.5636 94.2259 61.9201 93.4848C62.4152 92.4542 61.9816 91.2171 60.951 90.7217Z" fill="#ED1C24"/>
<path d="M67.6995 92.9575L67.5797 92.957C66.431 92.955 65.5052 93.874 65.5 95.0176C65.4946 96.1611 66.4176 97.0923 67.5608 97.0977L67.6995 97.0981C68.8428 97.0981 69.7698 96.171 69.7698 95.0278C69.7698 93.8845 68.8428 92.9575 67.6995 92.9575Z" fill="#ED1C24"/>
<path d="M80.2056 36.2652C79.9537 35.6648 79.645 35.099 79.2858 34.5742H84.6756C89.9268 34.5742 94.199 30.3019 94.199 25.0507C94.199 19.7996 89.9268 15.5273 84.6756 15.5273H68.0966C69.1506 13.9949 69.7694 12.1409 69.7694 10.1445C69.7694 4.89338 65.4971 0.621094 60.246 0.621094H9.52342C4.27229 0.621094 0 4.89338 0 10.1445C0 15.3956 4.27229 19.6679 9.52342 19.6679H26.1024C25.0485 21.2004 24.4296 23.0543 24.4296 25.0507C24.4296 27.0471 25.0482 28.9011 26.1024 30.4335H20.7031C15.452 30.4335 11.1797 34.7058 11.1797 39.957C11.1797 42.9728 12.5904 45.664 14.7851 47.4101C12.5904 49.1562 11.1797 51.8474 11.1797 54.8632C11.1797 57.879 12.5904 60.5702 14.7851 62.3163C12.5904 64.0624 11.1797 66.7536 11.1797 69.7694C11.1797 72.7852 12.5904 75.4764 14.7851 77.2225C12.5904 78.9686 11.1797 81.6598 11.1797 84.6756C11.1797 89.9267 15.452 94.199 20.7031 94.199H45.1017C51.5292 101.074 60.6729 105.379 70.8048 105.379C90.2114 105.379 106 89.5903 106 70.1837C106 54.0317 95.0626 40.3882 80.2056 36.2652ZM84.6756 19.6679C87.6438 19.6679 90.0584 22.0827 90.0584 25.0507C90.0584 28.0187 87.6438 30.4335 84.6756 30.4335H71.4256H33.9531C30.9849 30.4335 28.5703 28.0187 28.5703 25.0507C28.5703 22.0827 30.9849 19.6679 33.9531 19.6679H84.6756ZM9.52342 15.5273C6.55522 15.5273 4.14062 13.1125 4.14062 10.1445C4.14062 7.17652 6.55522 4.76171 9.52342 4.76171H60.246C63.2142 4.76171 65.6288 7.17652 65.6288 10.1445C65.6288 13.1125 63.2142 15.5273 60.246 15.5273H9.52342ZM20.7031 34.5742H71.4256C72.2596 34.5742 73.0581 34.7679 73.7744 35.1149C72.7952 35.0327 71.8051 34.9884 70.8048 34.9884C61.0857 34.9884 52.2745 38.9487 45.8992 45.3398H20.7031C17.7351 45.3398 15.3203 42.9249 15.3203 39.957C15.3203 36.989 17.7351 34.5742 20.7031 34.5742ZM20.7031 49.4804H42.3616C40.0114 52.7003 38.1943 56.3321 37.0403 60.246H20.7031C17.7349 60.246 15.3203 57.8314 15.3203 54.8632C15.3203 51.8952 17.7349 49.4804 20.7031 49.4804ZM20.7031 64.3866H36.0896C35.7756 66.2733 35.6095 68.2092 35.6095 70.1837C35.6095 71.8701 35.7315 73.5285 35.9619 75.1522H20.7031C17.7349 75.1522 15.3203 72.7376 15.3203 69.7694C15.3203 66.8012 17.7349 64.3866 20.7031 64.3866ZM20.7031 90.0584C17.7349 90.0584 15.3203 87.6438 15.3203 84.6756C15.3203 81.7074 17.7349 79.2928 20.7031 79.2928H36.8072C37.8519 83.1877 39.5489 86.8176 41.7745 90.0584H20.7031ZM70.8048 101.238C53.6812 101.238 39.7501 87.3072 39.7501 70.1837C39.7501 53.0601 53.6812 39.129 70.8048 39.129C87.9283 39.129 101.859 53.0601 101.859 70.1837C101.859 87.3072 87.9283 101.238 70.8048 101.238Z" fill="#ED1C24"/>
</svg>
