<svg width="52" height="52" viewBox="0 0 52 52" fill="none" xmlns="http://www.w3.org/2000/svg">
<path d="M0 0H52V52H0V0Z" fill="url(#paint0_linear_232_2085)"/>
<path d="M37.5564 30.6134C37.095 31.9445 36.4346 33.1981 35.5978 34.3314C34.8206 35.3801 34.1851 36.1052 33.6969 36.5068C32.94 37.1712 32.1253 37.5092 31.2558 37.5265C30.6289 37.5265 29.8749 37.3561 28.9966 37.0152C28.226 36.6976 27.4033 36.5252 26.57 36.5068C25.7958 36.5068 24.9638 36.6743 24.074 37.0152C23.1813 37.3561 22.462 37.5352 21.9131 37.5525C21.0811 37.5872 20.2462 37.2405 19.4171 36.5068C18.8855 36.0705 18.224 35.3165 17.4295 34.2534C16.5378 33.0447 15.8291 31.7111 15.3264 30.2956C14.7604 28.7894 14.4622 27.1957 14.4453 25.5868C14.4453 23.8448 14.844 22.3396 15.6384 21.0801C16.2613 20.0804 17.1264 19.2539 18.1535 18.6772C19.1806 18.1006 20.3366 17.7923 21.5144 17.781C22.1789 17.781 23.0484 17.9774 24.1289 18.3588C25.2064 18.743 25.8969 18.9365 26.2002 18.9365C26.4284 18.9365 27.1969 18.7083 28.4998 18.2548C29.7304 17.8359 30.7733 17.6625 31.6255 17.729C33.9338 17.9081 35.6671 18.769 36.8198 20.3232C34.7571 21.5076 33.7344 23.1688 33.7546 25.2979C33.7749 26.9561 34.4075 28.3399 35.6555 29.4348C36.2218 29.9432 36.8544 30.3361 37.5564 30.6163V30.6134ZM31.7498 11.5554C31.7671 11.7288 31.7786 11.9021 31.7786 12.0754C31.7786 13.3754 31.276 14.5888 30.2764 15.7154C29.0718 17.0501 27.6129 17.8243 26.0298 17.7001C26.0096 17.5372 26 17.3731 26.0009 17.209C26.0009 15.9581 26.5729 14.6234 27.5898 13.5314C28.0982 12.9768 28.7453 12.5203 29.5282 12.1505C30.2237 11.8117 30.9779 11.6096 31.7498 11.5554Z" fill="white"/>
<defs>
<linearGradient id="paint0_linear_232_2085" x1="9.67489" y1="9.01911" x2="63.2782" y2="70.5871" gradientUnits="userSpaceOnUse">
<stop stop-color="#1A1E21"/>
<stop offset="1" stop-color="#06060A"/>
</linearGradient>
</defs>
</svg>
