<svg width="54" height="54" viewBox="0 0 54 54" fill="none" xmlns="http://www.w3.org/2000/svg">
<g clip-path="url(#clip0_1448_14156)">
<path d="M41.3767 7.74906C41.4002 7.75077 41.4237 7.75248 41.4476 7.75248C41.4882 7.75248 41.5287 7.74906 41.5685 7.74351C42.6317 7.76529 43.4827 8.63249 43.484 9.69576C43.484 10.1789 43.8757 10.5706 44.3589 10.5706C44.842 10.5706 45.2338 10.1789 45.2338 9.69576C45.2316 7.95667 44.021 6.45211 42.3225 6.0779V5.23719C42.3225 4.75404 41.9307 4.3623 41.4476 4.3623C40.9644 4.3623 40.5727 4.75404 40.5727 5.23719V6.11763C38.7768 6.59779 37.6148 8.33516 37.857 10.1785C38.0993 12.0218 39.6705 13.3999 41.5296 13.3999C42.6091 13.3999 43.484 14.2752 43.484 15.3547C43.484 16.4338 42.6091 17.3091 41.5296 17.3091C40.4501 17.3091 39.5752 16.4338 39.5752 15.3547C39.5752 14.8716 39.1835 14.4799 38.7003 14.4799C38.2172 14.4799 37.8254 14.8716 37.8254 15.3547C37.8276 17.031 38.9536 18.4976 40.5727 18.9329V19.8915C40.5727 20.3746 40.9644 20.7664 41.4476 20.7664C41.9307 20.7664 42.3225 20.3746 42.3225 19.8915V18.973C44.1701 18.5685 45.4162 16.8367 45.2124 14.9562C45.0091 13.0757 43.4212 11.6506 41.5296 11.651C40.48 11.6514 39.6175 10.8227 39.5761 9.77394C39.535 8.72519 40.33 7.83108 41.3767 7.74949V7.74906Z" fill="#ED1C24"/>
<path d="M41.5796 0.0849609C36.1974 0.0849609 31.6043 3.59688 29.8836 8.29938H8.16914C7.68812 8.29938 7.29767 8.73298 7.29426 9.21357L7.0875 39.9045H0.897952C0.414801 39.9045 0 40.2544 0 40.7384V44.6331C0.0111069 48.2997 2.89891 51.3118 6.56163 51.4775V51.4968H33.5737V51.4711C33.7924 51.4792 33.8825 51.4968 34.0209 51.4968H34.0397C37.8306 51.4908 40.9008 48.4159 40.9008 44.625V24.9333C41.1195 24.9452 41.3511 24.9516 41.5775 24.9516C48.4266 24.9516 54.0001 19.3674 54.0001 12.5179C54.0001 5.66875 48.4292 0.0849609 41.5796 0.0849609ZM6.89441 49.747H6.88885C4.05872 49.7431 1.76258 47.4547 1.74977 44.6241V41.6543H27.1214V44.6117C27.1227 46.4376 27.8519 48.1877 29.1471 49.4749C29.239 49.5667 29.353 49.6376 29.4491 49.747H6.89441ZM39.151 44.6241C39.1515 47.4496 36.8639 49.7414 34.0389 49.747H34.0222C31.1857 49.7419 28.8853 47.4487 28.8712 44.6126V40.7384C28.8784 40.5146 28.793 40.298 28.6345 40.1399C28.476 39.9819 28.2594 39.8969 28.036 39.9045H8.83726L9.03804 10.0491H29.3979C29.2428 10.8501 29.1625 11.6635 29.1582 12.479C29.1565 14.2036 29.5162 15.9089 30.2142 17.4857H21.9507C21.4671 17.4857 21.0758 17.8774 21.0758 18.3605C21.0758 18.8437 21.4671 19.2354 21.9507 19.2354H31.1635C32.9683 22.0737 35.8536 24.0524 39.151 24.7146V44.6241ZM41.5796 23.2023C35.6861 23.2023 30.908 18.4246 30.9084 12.5307C30.9084 6.63676 35.6861 1.85908 41.58 1.85908C47.4735 1.85908 52.2512 6.63719 52.2512 12.5307C52.2448 18.4216 47.471 23.1959 41.5796 23.2023Z" fill="#ED1C24"/>
<path d="M16.3349 23.3076C14.7906 23.3076 13.5347 24.5238 13.5347 26.019C13.5347 27.5141 14.7906 28.7303 16.3349 28.7303C17.8792 28.7303 19.1355 27.5141 19.1355 26.019C19.1355 24.5238 17.8792 23.3076 16.3349 23.3076ZM16.3349 26.9806C15.7552 26.9806 15.2844 26.5491 15.2844 26.019C15.2844 25.4884 15.7556 25.0574 16.3349 25.0574C16.9142 25.0574 17.3858 25.4888 17.3858 26.019C17.3858 26.5491 16.9142 26.9806 16.3349 26.9806Z" fill="#ED1C24"/>
<path d="M21.0757 26.0155C21.0757 26.4987 21.467 26.8904 21.9506 26.8904H33.6145C34.0977 26.8904 34.4894 26.4987 34.4894 26.0155C34.4894 25.5324 34.0977 25.1406 33.6145 25.1406H21.9506C21.467 25.1406 21.0757 25.5324 21.0757 26.0155Z" fill="#ED1C24"/>
<path d="M16.3349 15.7031C14.7906 15.7031 13.5347 16.9198 13.5347 18.4149C13.5347 19.9101 14.7906 21.1263 16.3349 21.1263C17.8792 21.1263 19.1355 19.9101 19.1355 18.4149C19.1355 16.9198 17.8792 15.7031 16.3349 15.7031ZM16.3349 19.3765C15.7552 19.3765 15.2844 18.9451 15.2844 18.4149C15.2844 17.8848 15.7556 17.4529 16.3349 17.4529C16.9142 17.4529 17.3858 17.8844 17.3858 18.4149C17.3858 18.9451 16.9142 19.3769 16.3349 19.3769V19.3765Z" fill="#ED1C24"/>
<path d="M16.3349 30.9131C14.7906 30.9131 13.5347 32.1293 13.5347 33.6244C13.5347 35.1196 14.7906 36.3358 16.3349 36.3358C17.8792 36.3358 19.1355 35.1196 19.1355 33.6244C19.1355 32.1293 17.8792 30.9131 16.3349 30.9131ZM16.3349 34.586C15.7552 34.586 15.2844 34.155 15.2844 33.6244C15.2844 33.0943 15.7556 32.6628 16.3349 32.6628C16.9142 32.6628 17.3858 33.0943 17.3858 33.6244C17.3858 34.1546 16.9142 34.586 16.3349 34.586Z" fill="#ED1C24"/>
<path d="M33.6145 32.7959H21.9506C21.467 32.7959 21.0757 33.1876 21.0757 33.6708C21.0757 34.1539 21.467 34.5457 21.9506 34.5457H33.6145C34.0977 34.5457 34.4894 34.1539 34.4894 33.6708C34.4894 33.1876 34.0977 32.7959 33.6145 32.7959Z" fill="#ED1C24"/>
</g>
<defs>
<clipPath id="clip0_1448_14156">
<rect width="54" height="54" fill="white"/>
</clipPath>
</defs>
</svg>
