<svg width="52" height="52" viewBox="0 0 52 52" fill="none" xmlns="http://www.w3.org/2000/svg">
<g clip-path="url(#clip0_1448_14121)">
<path d="M51.9939 43.8767V12.4965C52.0018 12.4208 52.0018 12.3445 51.9939 12.2688C51.9988 12.2082 51.9988 12.1472 51.9939 12.0866L51.88 11.9044L51.7434 11.7222H51.584L51.379 11.5855C50.1235 11.1425 48.8467 10.7625 47.5533 10.4469V5.11814C47.5533 4.48931 47.0435 3.97949 46.4146 3.97949C38.3491 4.06169 30.795 7.94422 26.0334 14.4547C21.3175 7.93867 13.7865 4.05058 5.74329 3.97949C5.11446 3.97949 4.60464 4.48931 4.60464 5.11814V10.2875C3.30235 10.607 2.01778 10.9947 0.756153 11.4489L0.528465 11.5855H0.368988L0.232354 11.7677L0.118457 11.9499C0.113653 12.0106 0.113653 12.0715 0.118457 12.1322C0.0703145 12.2106 0.0320997 12.2947 0.0045594 12.3827V43.8994C-0.00184532 43.9677 -0.00184532 44.0362 0.0045594 44.1044C0.0230263 44.1593 0.0458698 44.2126 0.0728764 44.2638C0.108956 44.3449 0.154857 44.4214 0.20951 44.4915V44.6281L0.391724 44.7647L0.573939 44.8786H0.733309H1.00658H1.18879H1.39374C9.43027 42.1763 18.2608 43.2916 25.373 47.9073L25.578 48.0212H25.9195H26.2611H26.4661C33.5797 43.4933 42.3555 42.4141 50.3543 45.0836H50.5592H50.7414H51.0147H51.1741L51.379 44.9469L51.5384 44.833V44.6737C51.7255 44.5822 51.8833 44.4402 51.9939 44.2638C51.9991 44.2031 51.9991 44.1422 51.9939 44.0816C52.0003 44.0135 52.0003 43.9449 51.9939 43.8767ZM2.25913 42.351V13.339C2.97261 13.0961 3.73178 12.8684 4.53632 12.6559V35.7014C4.53515 36.3302 5.044 36.8409 5.67284 36.8421C5.69632 36.8421 5.71981 36.8415 5.74319 36.8401L5.76592 36.8628C11.6561 36.8609 17.3068 39.1949 21.4788 43.3529C15.3472 40.9593 8.60663 40.608 2.25913 42.351ZM24.8948 43.6034C20.4389 38.181 13.9126 34.8765 6.90468 34.4946V6.27964C14.1959 6.77312 20.8437 10.6272 24.8948 16.7094V43.6034ZM27.1948 43.6945V16.7093C31.2844 10.657 37.9228 6.81337 45.2078 6.27953H45.2305V34.5855C38.2116 34.9744 31.6737 38.2763 27.1948 43.6945ZM49.785 42.351C43.4436 40.6227 36.715 40.9739 30.5879 43.353C34.7773 39.1903 40.4405 36.8497 46.3464 36.8402C46.9753 36.8402 47.4851 36.3304 47.4851 35.7015V12.6559C48.2441 12.8532 49.0108 13.0809 49.7851 13.339V42.351H49.785Z" fill="#ED1C24"/>
</g>
<defs>
<clipPath id="clip0_1448_14121">
<rect width="52" height="52" fill="white"/>
</clipPath>
</defs>
</svg>
