<svg width="15" height="15" viewBox="0 0 15 15" fill="none" xmlns="http://www.w3.org/2000/svg">
<g clip-path="url(#clip0_1268_6782)">
<path d="M14.0291 7.71536C13.9804 7.59853 13.8666 7.5223 13.7404 7.5223H10.3172L10.3172 -0.28757C10.3172 -0.460013 10.1772 -0.599976 10.0048 -0.599976L5.00646 -0.599976C4.83402 -0.599976 4.69406 -0.460013 4.69406 -0.28757L4.69406 7.52233H1.25772C1.13152 7.52233 1.0178 7.59856 0.969062 7.71478C0.920943 7.8316 0.947184 7.96594 1.03654 8.0553L7.26883 14.3082C7.32755 14.3669 7.40692 14.4001 7.49001 14.4001C7.5731 14.4001 7.65247 14.3669 7.71119 14.3088L13.9616 8.05591C14.051 7.96653 14.0778 7.83222 14.0291 7.71536Z" fill="white"/>
</g>
<defs>
<clipPath id="clip0_1268_6782">
<rect width="15" height="15" fill="white"/>
</clipPath>
</defs>
</svg>
