<svg width="20" height="20" viewBox="0 0 20 20" fill="none" xmlns="http://www.w3.org/2000/svg">
<path d="M14.5673 1.59961H5.43135C4.83228 1.60804 4.26098 1.85359 3.84262 2.28245C3.42425 2.71131 3.19294 3.28852 3.19935 3.88761V16.9596C3.19774 17.2207 3.27265 17.4765 3.41483 17.6954C3.55701 17.9144 3.76022 18.0869 3.99935 18.1916C4.22638 18.2989 4.48035 18.3356 4.72848 18.2971C4.97661 18.2586 5.2075 18.1466 5.39135 17.9756L9.67135 14.1836C9.76909 14.1057 9.89037 14.0633 10.0153 14.0633C10.1403 14.0633 10.2616 14.1057 10.3593 14.1836L14.6393 17.9756C14.8243 18.1447 15.0551 18.2555 15.3027 18.2939C15.5504 18.3323 15.8039 18.2967 16.0313 18.1916C16.2705 18.0869 16.4737 17.9144 16.6159 17.6954C16.758 17.4765 16.833 17.2207 16.8313 16.9596V3.88761C16.8345 3.58828 16.7783 3.2913 16.6659 3.01384C16.5536 2.73638 16.3873 2.48396 16.1768 2.27118C15.9662 2.0584 15.7156 1.88949 15.4393 1.77421C15.1631 1.65894 14.8667 1.59959 14.5673 1.59961ZM15.9993 16.9596C16.0027 17.065 15.9749 17.169 15.9194 17.2587C15.8639 17.3483 15.7832 17.4196 15.6873 17.4636C15.6001 17.5047 15.5026 17.5191 15.4072 17.5049C15.3118 17.4906 15.2228 17.4484 15.1513 17.3836L10.8713 13.5996C10.6274 13.3937 10.3185 13.2808 9.99935 13.2808C9.68016 13.2808 9.37127 13.3937 9.12735 13.5996L4.84735 17.3836C4.77591 17.4484 4.68687 17.4906 4.59147 17.5049C4.49608 17.5191 4.3986 17.5047 4.31135 17.4636C4.21554 17.4196 4.13484 17.3483 4.07934 17.2587C4.02384 17.169 3.99602 17.065 3.99935 16.9596V3.88761C3.99291 3.50068 4.13994 3.12694 4.40828 2.8481C4.67663 2.56926 5.04445 2.40801 5.43135 2.39961H14.5673C14.9542 2.40801 15.3221 2.56926 15.5904 2.8481C15.8588 3.12694 16.0058 3.50068 15.9993 3.88761V16.9596Z" fill="#1F1F1F"/>
</svg>
