<svg width="18" height="18" viewBox="0 0 18 18" fill="none" xmlns="http://www.w3.org/2000/svg">
<g clip-path="url(#clip0_883_16764)">
<path d="M17.3571 1.92847H0.642857C0.287277 1.92847 0 2.21574 0 2.57132V15.4285C0 15.784 0.287277 16.0713 0.642857 16.0713H17.3571C17.7127 16.0713 18 15.784 18 15.4285V2.57132C18 2.21574 17.7127 1.92847 17.3571 1.92847ZM16.5536 4.15436V14.6249H1.44643V4.15436L0.891964 3.72244L1.68147 2.70793L2.54129 3.3769H15.4607L16.3205 2.70793L17.11 3.72244L16.5536 4.15436ZM15.4607 3.3749L9 8.39722L2.53929 3.3749L1.67946 2.70592L0.889955 3.72043L1.44442 4.15235L8.30692 9.48807C8.50428 9.64139 8.74707 9.72462 8.99699 9.72462C9.2469 9.72462 9.4897 9.64139 9.68705 9.48807L16.5536 4.15436L17.108 3.72244L16.3185 2.70793L15.4607 3.3749Z" fill="#555555"/>
</g>
<defs>
<clipPath id="clip0_883_16764">
<rect width="18" height="18" fill="white"/>
</clipPath>
</defs>
</svg>
