<svg width="28" height="28" viewBox="0 0 28 28" fill="none" xmlns="http://www.w3.org/2000/svg">
<path d="M13.9987 4.00001C16.5182 3.9961 18.9462 4.94332 20.7974 6.65228C22.6486 8.36124 23.7865 10.706 23.9836 13.2177C24.1807 15.7294 23.4225 18.2229 21.8605 20.1997C20.2985 22.1765 18.0479 23.4909 15.5587 23.88V16.89H17.8887L18.3387 14H15.5587V12.12C15.5587 11.33 15.9487 10.56 17.1887 10.56H18.4487V8.10001C18.4487 8.10001 17.3087 7.90001 16.2087 7.90001C13.9287 7.90001 12.4387 9.30001 12.4387 11.8V14H9.89874V16.9H12.4387V23.88C9.97245 23.464 7.75125 22.1397 6.21246 20.168C4.67367 18.1962 3.92878 15.7198 4.12445 13.2264C4.32011 10.7329 5.44215 8.40302 7.26966 6.69543C9.09718 4.98783 11.4977 4.02626 13.9987 4.00001Z" fill="#1877F2"/>
</svg>
