<svg width="100" height="100" viewBox="0 0 100 100" fill="none" xmlns="http://www.w3.org/2000/svg">
<path d="M85.833 12.0666C84.9315 11.5422 83.8178 11.5422 82.9164 12.0666C79.4264 14.0096 75.4941 15.0199 71.4998 15C65.6617 15.1291 60.0168 12.9072 55.8332 8.8334C51.0035 4.10586 44.4734 1.52266 37.7166 1.6668C32.275 1.61973 26.9547 3.27461 22.5 6.4002V5C22.5 2.23867 20.2615 0 17.5 0C14.7385 0 12.5 2.23848 12.5 5V95C12.5 97.7613 14.7385 100 17.5 100C20.2613 100 22.5 97.7615 22.5 95V51.6666C23.0523 51.6148 23.5785 51.4068 24.0166 51.0666C27.9818 48.1465 32.7926 46.6016 37.7166 46.6666C43.5654 46.5322 49.2227 48.7543 53.4166 52.8332C58.2371 57.5539 64.7543 60.1367 71.5 59.9998C76.6697 60.06 81.7404 58.5807 86.0666 55.7498C86.9924 55.1082 87.5316 54.0424 87.5 52.9164V15C87.5166 13.7926 86.8789 12.6703 85.833 12.0666ZM19.1664 95C19.1664 95.9205 18.4203 96.6666 17.4998 96.6666C16.5793 96.6666 15.8332 95.9205 15.8332 95V5C15.8332 4.07949 16.5793 3.3334 17.4998 3.3334C18.4203 3.3334 19.1664 4.07949 19.1664 5V95ZM84.1664 52.9834C80.3932 55.4189 75.9906 56.6992 71.4998 56.6668C65.6617 56.7959 60.0168 54.574 55.8332 50.5002C51.0035 45.7727 44.4734 43.1895 37.7166 43.3336C32.2785 43.2756 26.9582 44.9189 22.5 48.0336V10.7C26.6625 6.93359 32.1041 4.89531 37.7166 5C43.5654 4.86563 49.2227 7.0877 53.4166 11.1666C58.2371 15.8873 64.7543 18.4701 71.5 18.3332C75.9137 18.3641 80.266 17.2988 84.1666 15.2332V52.9834H84.1664Z" fill="black"/>
</svg>
