<svg width="52" height="52" viewBox="0 0 52 52" fill="none" xmlns="http://www.w3.org/2000/svg">
<path d="M0 0H52V52H0V0Z" fill="#002660"/>
<path d="M5.77734 25.9799C5.77734 30.7668 14.8369 34.6552 25.9996 34.6552C37.1738 34.6552 46.2218 30.7668 46.2218 25.9799C46.2362 21.193 37.1882 17.3219 26.014 17.3219C14.8369 17.3219 5.77734 21.193 5.77734 25.9799ZM6.4909 25.9799C6.4909 21.5975 15.224 18.0615 26.014 18.0615C36.7896 18.0615 45.5342 21.5975 45.5342 25.9799C45.5342 30.3623 36.804 33.8983 26.014 33.8983C15.2385 33.8983 6.4909 30.3623 6.4909 25.9828V25.9799Z" fill="white"/>
<path d="M19.5923 19.6501C19.9246 19.6155 20.2568 19.5981 20.5861 19.5981C22.0479 19.5981 23.475 19.8697 24.9252 20.147C25.6619 20.2857 26.3986 20.4273 27.1526 20.5341C29.1054 20.7999 30.9803 20.8173 32.9332 20.303C33.1701 20.251 33.3261 20.4099 33.3117 20.6786C33.2972 21.0484 33.0286 21.4181 32.3814 21.8081C31.6592 22.2704 30.885 22.409 30.0819 22.409C28.753 22.4206 27.4848 22.0248 26.2166 21.6261C25.6388 21.4441 25.061 21.2621 24.4774 21.1177C24.4772 21.136 24.4772 21.1543 24.4774 21.1726C24.4774 21.2593 24.4803 21.3401 24.4283 21.3835C23.3883 22.2501 22.461 23.1168 21.8283 24.3359C21.8139 24.3735 21.8283 24.3908 21.863 24.3908C22.0739 24.3764 22.2761 24.3677 22.4754 24.3619C22.7932 24.3475 23.0966 24.333 23.4057 24.3041C23.4837 24.3041 23.4837 24.2666 23.4837 24.1973C23.4538 23.9745 23.4735 23.7479 23.5415 23.5336C23.6094 23.3194 23.7238 23.1228 23.8766 22.9579C24.2088 22.6026 24.6334 22.5679 24.9166 22.8164C25.2343 23.0821 25.1997 23.5964 25.0263 23.9661C24.9527 24.1255 24.8482 24.2686 24.7187 24.3871C24.5893 24.5057 24.4375 24.5973 24.2723 24.6566C24.2723 24.6566 24.2088 24.6739 24.2232 24.7259C24.2319 24.775 24.3561 24.8704 24.4688 24.957C24.5554 25.0235 24.6363 25.0841 24.6508 25.1159C24.6797 25.1853 24.6652 25.2748 24.6017 25.347C24.5554 25.399 24.4919 25.451 24.4139 25.451C24.3503 25.451 24.3041 25.4337 24.2232 25.3817C24.0174 25.2556 23.8363 25.0931 23.6888 24.9021C23.6426 24.8328 23.6252 24.8328 23.501 24.8328C22.9492 24.8675 22.097 24.957 21.5163 25.0437C21.3777 25.061 21.3603 25.0957 21.3286 25.1448V25.1506C20.4128 26.8666 19.4219 28.7039 18.3328 29.9461C17.183 31.2721 16.2066 31.6073 15.1839 31.6217C13.8926 31.6217 12.7572 30.7406 12.633 29.1835C12.5676 28.3907 12.7733 27.5993 13.2166 26.9388C13.6094 26.3726 14.2566 25.893 14.8054 25.789C14.9788 25.7515 15.2301 25.7688 15.3254 25.9104C15.4843 26.1068 15.4352 26.335 15.2792 26.4246C14.8546 26.673 14.349 27.0775 14.0948 27.6437C13.9774 27.8858 13.922 28.1532 13.9336 28.422C13.9452 28.6907 14.0234 28.9524 14.1612 29.1835C14.6812 30.0675 16.1286 30.0848 17.469 28.6895C17.7983 28.3515 18.0988 28.0164 18.3963 27.6264C18.9655 26.9042 19.4913 26.1489 19.9708 25.3644V25.3268C19.9563 25.3095 19.9419 25.3095 19.9246 25.3095C19.3951 25.3233 18.8875 25.5238 18.4917 25.8757C18.3646 25.9826 18.1739 25.9624 18.0988 25.8237C18.0179 25.6648 18.0814 25.451 18.223 25.3441C18.8614 24.8473 19.5403 24.7173 20.2423 24.5873L20.5226 24.5295C20.5226 24.5295 20.5717 24.5295 20.6179 24.4601C20.7566 24.2579 20.8837 24.0644 21.0079 23.8737C21.1812 23.6137 21.3459 23.3566 21.5481 23.0821C21.8919 22.6055 22.3454 22.1664 22.6892 21.8313L22.6979 21.8255C23.111 21.4355 23.3999 21.2621 23.6714 21.1004L23.8159 21.0137C23.9083 20.9588 23.8159 20.9068 23.7841 20.9068L23.4086 20.8259C21.7619 20.4735 20.0546 20.1066 18.4281 20.7826C17.2148 21.2939 16.6803 22.3715 16.9317 23.0995C17.105 23.6108 17.703 23.683 18.2721 23.3826C18.7697 23.0943 19.1822 22.6797 19.4681 22.1808C19.6241 21.8775 19.9881 22.0913 19.7974 22.6026C19.2774 23.9661 18.301 25.0293 17.105 25.0813C16.0968 25.1159 15.4352 24.2839 15.4352 23.241C15.4526 21.1899 17.469 19.8437 19.5952 19.6501H19.5923ZM24.2232 23.241C24.1219 23.3376 24.045 23.4568 23.9988 23.5889C23.9526 23.721 23.9384 23.8622 23.9574 24.0008C23.9719 24.0875 24.0037 24.1077 24.0181 24.0875H24.0354C24.2428 24.0277 24.4182 23.8886 24.5237 23.7004C24.619 23.5415 24.6797 23.2959 24.5699 23.189C24.4919 23.0995 24.333 23.1341 24.2232 23.241Z" fill="white"/>
<path d="M38.7991 23.2498C38.8454 23.1631 38.8771 23.1111 38.9725 23.1111H40.1685C40.232 23.1111 40.2638 23.2151 40.232 23.2671C40.1742 23.3826 39.7929 24.1106 39.2729 25.012C38.178 26.9129 36.5343 29.7729 36.384 30.1918C36.3205 30.3853 36.3205 30.5269 36.384 30.6338C36.5574 30.8995 36.9676 30.7406 37.2218 30.5471C37.7563 30.1311 38.1665 29.6631 38.568 29.2038C38.7298 29.0189 38.8945 28.8311 39.0591 28.6549C39.0938 28.6346 39.1574 28.6173 39.1891 28.6549L39.2469 28.7098C39.3336 28.7849 39.4231 28.8686 39.4867 28.9553C39.5185 29.0073 39.504 29.042 39.4867 29.0766C38.9205 29.8566 38.3051 30.5789 37.7071 31.0931C36.7943 31.9078 35.864 32.1042 35.4076 31.59C35.252 31.3847 35.1588 31.139 35.1389 30.8822C35.1389 30.758 35.0783 30.758 35.0291 30.81C34.4803 31.4138 33.5327 32.084 32.666 31.6073C31.9438 31.2173 31.7705 30.2438 31.912 29.432C31.9265 29.4146 31.912 29.2875 31.8167 29.3598C31.6346 29.505 31.4334 29.6246 31.2187 29.7151C30.9978 29.8365 30.7484 29.8964 30.4965 29.8884C30.3122 29.8824 30.1328 29.8269 29.9773 29.7278C29.8218 29.6287 29.6958 29.4896 29.6125 29.3251C29.4958 29.0882 29.4308 28.8292 29.4218 28.5653C29.4218 28.5306 29.3929 28.4931 29.3611 28.548C28.8411 29.4464 28.3125 30.4431 27.7983 31.3502L27.6105 31.6766C27.596 31.7315 27.5643 31.7633 27.5007 31.7633H26.3509C26.2903 31.7633 26.2585 31.694 26.2903 31.6246C26.3654 31.4571 26.5734 31.0931 26.8709 30.498C27.3158 29.7151 27.9283 28.6346 28.3991 27.664C28.6014 27.2393 28.558 27.0082 28.428 26.9186C28.272 26.8146 27.9427 26.9909 27.6769 27.2191C27.0471 27.7593 26.4983 28.5538 26.1545 29.0535L25.9898 29.2904L25.802 29.5793C25.6576 29.8133 25.4727 30.1166 25.1376 30.5269C24.3663 31.4658 23.3436 31.9944 22.3671 31.6246C22.0977 31.5121 21.8597 31.3357 21.6735 31.1108C21.4873 30.8858 21.3585 30.619 21.2983 30.3333C21.2636 30.2264 21.2029 30.1918 21.1538 30.264C20.9978 30.4951 20.6656 30.8129 20.3998 31.0238L20.3883 31.0295C20.3536 31.0498 20.2814 31.0902 20.2265 31.0584C20.1089 30.9237 20.008 30.7753 19.926 30.6164C19.8971 30.5442 19.926 30.4749 19.9549 30.4402C20.3507 30.0675 20.5558 29.8566 20.7291 29.6082C20.8738 29.396 20.9858 29.1632 21.0614 28.9178C21.2954 28.2475 21.8327 26.9909 22.9016 26.3524C23.3291 26.1069 23.7394 25.9306 24.1929 25.8758C24.398 25.8584 24.5569 25.8757 24.6205 26.052C24.6263 26.0866 24.6436 26.1386 24.6638 26.1964C24.6869 26.2658 24.7129 26.3409 24.7303 26.4073C24.7591 26.4766 24.7447 26.5315 24.6667 26.5662C23.9806 26.8385 23.3892 27.3054 22.9651 27.9095C22.4625 28.6693 22.3354 29.5735 22.6676 30.0849C22.9016 30.4575 23.2974 30.5269 23.6758 30.3853C24.242 30.1744 24.7303 29.5909 24.9816 28.9178C25.2503 28.1955 25.2965 27.3433 25.0914 26.5835C25.0625 26.4593 25.0914 26.3524 25.1694 26.2831C25.3138 26.156 25.49 26.0578 25.5738 26.0144L25.5969 26C25.7211 25.9306 25.88 25.9826 25.958 26.1069C26.1603 26.4593 26.2758 26.936 26.2903 27.4502C26.2903 27.5571 26.3365 27.5571 26.3827 27.5022L26.7063 27.1151C26.9663 26.7973 27.2205 26.4795 27.5007 26.2311C27.8647 25.8931 28.3211 25.6273 28.7603 25.6475C29.312 25.6649 29.598 26.0895 29.5807 26.8493C29.5634 26.936 29.6269 26.936 29.676 26.8666C29.8059 26.6517 29.9643 26.4554 30.1469 26.2831C30.5254 25.9104 30.9356 25.7515 31.3458 25.7891C31.8485 25.8411 32.2587 26.3524 32.1807 26.9562C32.1666 27.1394 32.1092 27.3166 32.0133 27.4733C31.9174 27.63 31.7856 27.7616 31.6289 27.8575C31.5013 27.9284 31.3543 27.9563 31.2097 27.937C31.065 27.9178 30.9304 27.8524 30.8258 27.7506C30.7401 27.6563 30.6782 27.5428 30.645 27.4198C30.6119 27.2967 30.6085 27.1675 30.6351 27.0429C30.6351 26.9735 30.5716 26.936 30.5254 26.9909C30.0371 27.5744 29.9909 28.3342 30.3231 28.6693C30.6843 29.0593 31.2187 28.7935 31.6116 28.5104C32.016 28.21 32.3714 27.846 32.7238 27.4849C32.9925 27.2133 33.2554 26.9446 33.5327 26.7049C33.9603 26.3351 34.4485 26.0173 34.9974 25.9306C35.3023 25.8833 35.6144 25.9255 35.8958 26.052C36.2887 26.2311 36.5429 26.6009 36.5718 26.9186C36.5891 27.0082 36.6527 27.0255 36.6989 26.9389C36.8318 26.6933 37.242 25.9971 37.6638 25.2778C38.1838 24.388 38.7183 23.4173 38.7991 23.2498ZM33.2525 29.8566C33.2525 30.0675 33.3305 30.3506 33.5009 30.4575C33.5818 30.5095 33.6916 30.5442 33.7869 30.5442C34.1163 30.5442 34.4629 30.2813 34.7316 30.0329C34.9898 29.8024 35.2085 29.5311 35.3787 29.2298C35.5434 28.9698 35.6734 28.7646 35.8005 28.4411C35.8178 28.3891 35.8005 28.3689 35.786 28.3689C35.7398 28.3515 35.6763 28.3169 35.6763 28.2649C35.6589 28.2475 35.6589 28.21 35.6763 28.1782C35.864 27.7333 36.0056 27.1844 35.5809 26.9562C35.1707 26.7424 34.5409 27.1498 33.9747 27.9269C33.5183 28.5624 33.2669 29.2182 33.2525 29.8566Z" fill="white"/>
</svg>
