<svg width="116" height="124" viewBox="0 0 116 124" fill="none" xmlns="http://www.w3.org/2000/svg">
<g clip-path="url(#clip0_883_12910)">
<path d="M107.403 50.1147L7.32527 51.0779C5.36385 51.0972 3.49037 51.8945 2.11677 53.2945C0.743167 54.6945 -0.0181089 56.5827 0.000327215 58.5438L0.560138 116.683C0.569513 117.654 0.770098 118.613 1.15044 119.507C1.53078 120.4 2.08343 121.21 2.77682 121.89C3.47022 122.57 4.29079 123.107 5.19166 123.47C6.09254 123.833 7.05608 124.015 8.02727 124.005L108.105 123.042C109.077 123.033 110.036 122.832 110.93 122.452C111.824 122.072 112.634 121.52 113.314 120.827C113.994 120.133 114.531 119.313 114.894 118.412C115.257 117.512 115.44 116.548 115.43 115.577L114.87 57.4384C114.851 55.4773 114.054 53.6042 112.653 52.2308C111.253 50.8574 109.365 50.0963 107.403 50.1147Z" fill="#1F1F1F"/>
<path d="M28.0089 56.1284L10.7611 56.2937C10.5405 56.2952 10.3223 56.3402 10.1191 56.4262C9.91589 56.5122 9.73165 56.6374 9.57694 56.7947C9.42223 56.952 9.30009 57.1383 9.21753 57.3428C9.13496 57.5474 9.09359 57.7663 9.09579 57.9869L9.15599 64.3423C9.1575 64.5629 9.20254 64.7811 9.28853 64.9843C9.37451 65.1874 9.49976 65.3716 9.65709 65.5263C9.81442 65.681 10.0007 65.8031 10.2054 65.8857C10.41 65.9682 10.6289 66.0096 10.8495 66.0074L28.1024 65.8345C28.3231 65.833 28.5413 65.788 28.7445 65.702C28.9477 65.616 29.1319 65.4908 29.2866 65.3335C29.4413 65.1762 29.5635 64.9899 29.646 64.7853C29.7286 64.5807 29.77 64.3619 29.7678 64.1412L29.7063 57.7858C29.704 57.5655 29.6582 57.3478 29.5715 57.1452C29.4849 56.9425 29.3592 56.759 29.2015 56.605C29.0438 56.4511 28.8574 56.3297 28.6527 56.248C28.4481 56.1662 28.2293 56.1256 28.0089 56.1284Z" fill="white"/>
<path d="M0.222656 81.6921L0.304642 90.1532L45.7377 50.7091L35.8008 50.8039L0.222656 81.6921Z" fill="#828282"/>
<path opacity="0.08" d="M108.677 50.1033C108.727 56.1104 107.996 63.7504 105.074 71.9669C97.1954 94.1251 78.8843 105.047 69.333 110.744C57.0748 118.053 44.2248 121.959 31.9717 123.77L108.275 123.034C109.225 123.025 110.163 122.829 111.037 122.458C111.911 122.086 112.703 121.545 113.367 120.867C114.032 120.189 114.557 119.387 114.911 118.506C115.266 117.625 115.443 116.683 115.433 115.734L114.858 56.1654C114.851 55.3616 114.685 54.5671 114.37 53.8275C114.055 53.0878 113.598 52.4173 113.024 51.8544C112.45 51.2915 111.77 50.8471 111.025 50.5466C110.279 50.2462 109.481 50.0955 108.677 50.1033Z" fill="#010119"/>
<path d="M38.3731 99.5695L9.0375 99.8513C8.59116 99.8564 8.16509 100.038 7.85284 100.357C7.5406 100.676 7.36771 101.106 7.37215 101.552L7.38881 103.335C7.39388 103.781 7.57588 104.207 7.89485 104.52C8.21382 104.832 8.64368 105.005 9.09002 105L38.4256 104.718C38.8719 104.713 39.2977 104.531 39.6099 104.212C39.9221 103.893 40.0951 103.464 40.091 103.017L40.0731 101.235C40.068 100.789 39.8862 100.363 39.5675 100.051C39.2488 99.7384 38.8192 99.5654 38.3731 99.5695Z" fill="#C6C6C6"/>
<path d="M63.715 99.325L46.5197 99.4902C46.3475 99.4919 46.1772 99.5275 46.0187 99.5949C45.8602 99.6624 45.7165 99.7604 45.5959 99.8834C45.4753 100.006 45.3801 100.152 45.3157 100.312C45.2513 100.471 45.2191 100.642 45.2208 100.815L45.2451 103.344C45.2468 103.516 45.2824 103.687 45.3498 103.845C45.4173 104.004 45.5154 104.147 45.6384 104.268C45.7614 104.389 45.9069 104.484 46.0667 104.548C46.2265 104.612 46.3974 104.645 46.5697 104.643L63.765 104.476C63.9371 104.475 64.1073 104.44 64.2657 104.372C64.4242 104.305 64.5678 104.207 64.6883 104.084C64.8088 103.961 64.9039 103.816 64.9682 103.656C65.0324 103.496 65.0645 103.326 65.0627 103.153L65.0383 100.624C65.035 100.276 64.8937 99.9441 64.6455 99.7005C64.3974 99.457 64.0627 99.3219 63.715 99.325Z" fill="#C6C6C6"/>
<path d="M87.6955 99.0945L70.5002 99.2636C70.1524 99.2673 69.8203 99.4089 69.5767 99.6572C69.3332 99.9055 69.1981 100.24 69.2012 100.588L69.2256 103.118C69.2272 103.29 69.2628 103.46 69.3303 103.618C69.3978 103.777 69.4959 103.92 69.6189 104.041C69.7419 104.161 69.8875 104.256 70.0473 104.321C70.2071 104.385 70.3779 104.417 70.5501 104.415L87.7442 104.25C87.9164 104.248 88.0866 104.213 88.2451 104.146C88.4036 104.078 88.5473 103.98 88.6679 103.857C88.7886 103.735 88.8838 103.589 88.9482 103.429C89.0126 103.27 89.0448 103.099 89.0431 102.927L89.0188 100.397C89.0178 100.225 88.9827 100.054 88.9156 99.8951C88.8485 99.7362 88.7507 99.5921 88.6277 99.471C88.5048 99.35 88.3591 99.2545 88.1992 99.1899C88.0392 99.1252 87.868 99.0929 87.6955 99.0945Z" fill="#C6C6C6"/>
<path d="M106.355 98.9152L94.8514 99.0254C94.5624 99.0284 94.2864 99.146 94.0839 99.3522C93.8815 99.5585 93.7691 99.8366 93.7715 100.126L93.7997 103.098C93.8027 103.387 93.9204 103.663 94.1267 103.865C94.333 104.068 94.6112 104.18 94.9001 104.177L106.405 104.067C106.548 104.065 106.69 104.036 106.821 103.98C106.953 103.924 107.072 103.842 107.172 103.74C107.273 103.638 107.352 103.517 107.405 103.384C107.458 103.252 107.485 103.11 107.484 102.966L107.455 99.9937C107.454 99.8506 107.425 99.7092 107.369 99.5775C107.313 99.4459 107.231 99.3265 107.129 99.2264C107.027 99.1262 106.906 99.0472 106.773 98.9938C106.64 98.9404 106.498 98.9137 106.355 98.9152Z" fill="#C6C6C6"/>
<path d="M38.8618 59.9553C38.8284 59.8732 38.7782 59.7991 38.7144 59.7376C38.6505 59.6762 38.5744 59.6288 38.4911 59.5986C38.4078 59.5684 38.319 59.5561 38.2306 59.5624C38.1422 59.5687 38.0561 59.5935 37.9779 59.6351C37.8402 59.7076 37.7342 59.8283 37.68 59.9742C37.6259 60.12 37.6275 60.2807 37.6846 60.4254C37.8667 60.8818 37.9806 61.3626 38.0227 61.8522C38.0943 62.7879 37.9105 63.7255 37.4911 64.565C37.4232 64.706 37.4093 64.867 37.4521 65.0175C37.4948 65.1681 37.5911 65.2978 37.723 65.3822C37.7984 65.4286 37.8827 65.4588 37.9704 65.471C38.0581 65.4832 38.1474 65.477 38.2327 65.453C38.3179 65.4289 38.3972 65.3874 38.4656 65.3311C38.534 65.2748 38.5899 65.205 38.6299 65.126C39.1514 64.0788 39.3786 62.9096 39.2871 61.7434C39.2353 61.1295 39.0919 60.5268 38.8618 59.9553Z" fill="white"/>
<path d="M41.2501 58.1655C41.1982 58.094 41.1321 58.034 41.056 57.9893C40.9798 57.9446 40.8952 57.9161 40.8075 57.9056C40.7198 57.8952 40.6309 57.903 40.5463 57.9285C40.4618 57.954 40.3834 57.9968 40.3162 58.0541C40.1972 58.1571 40.1209 58.3009 40.1021 58.4572C40.0834 58.6135 40.1237 58.7712 40.215 58.8994C40.8466 59.7735 41.231 60.8015 41.3277 61.8755C41.4244 62.9495 41.2299 64.0297 40.7646 65.0025C40.6978 65.1456 40.6863 65.3082 40.7321 65.4593C40.778 65.6104 40.8781 65.7391 41.0131 65.821C41.089 65.8662 41.1734 65.895 41.2611 65.9056C41.3488 65.9163 41.4377 65.9084 41.5222 65.8826C41.6067 65.8568 41.6848 65.8136 41.7515 65.7557C41.8183 65.6979 41.8722 65.6268 41.9098 65.5469C42.472 64.3704 42.7073 63.0645 42.5913 61.7658C42.4752 60.4672 42.012 59.2236 41.2501 58.1655Z" fill="white"/>
<path d="M44.0366 56.5733C43.9851 56.5038 43.9201 56.4454 43.8454 56.4016C43.7708 56.3579 43.6881 56.3297 43.6022 56.3188C43.5164 56.3079 43.4292 56.3145 43.346 56.3382C43.2628 56.362 43.1852 56.4023 43.1181 56.4568C42.9943 56.5607 42.9145 56.7076 42.8946 56.8679C42.8746 57.0283 42.916 57.1902 43.0104 57.3213C43.8146 58.4302 44.352 59.7096 44.581 61.06C44.8824 62.9272 44.5903 64.8419 43.7458 66.5343C43.6771 66.6792 43.6653 66.8446 43.7127 66.9978C43.7602 67.151 43.8634 67.2809 44.002 67.3617C44.0773 67.4053 44.1607 67.4328 44.2472 67.4427C44.3336 67.4526 44.4212 67.4445 44.5044 67.4191C44.5876 67.3936 44.6646 67.3512 44.7307 67.2946C44.7968 67.238 44.8505 67.1684 44.8884 67.0901C45.8485 65.1601 46.1791 62.9777 45.8338 60.85C45.5716 59.3052 44.9566 57.8417 44.0366 56.5733Z" fill="white"/>
<path d="M47.4375 55.2403C47.3949 55.1651 47.3376 55.0992 47.2689 55.0467C47.2002 54.9943 47.1216 54.9562 47.0378 54.9349C46.954 54.9136 46.8668 54.9095 46.7813 54.9228C46.6959 54.9361 46.6141 54.9666 46.5407 55.0123C46.404 55.1 46.3057 55.2364 46.2658 55.3938C46.2258 55.5512 46.2472 55.718 46.3255 55.8602C47.3922 57.7331 47.9855 59.8381 48.0538 61.9923C48.1221 64.1464 47.6634 66.2847 46.7175 68.2214C46.6486 68.3687 46.6383 68.5367 46.6888 68.6914C46.7392 68.846 46.8466 68.9756 46.9891 69.054C47.0645 69.0936 47.1471 69.1178 47.232 69.1252C47.317 69.1325 47.4025 69.1229 47.4836 69.0967C47.5647 69.0706 47.6398 69.0286 47.7045 68.9731C47.7692 68.9176 47.8221 68.8497 47.8602 68.7735C48.895 66.6525 49.3969 64.3113 49.3223 61.9526C49.2478 59.594 48.599 57.2891 47.4323 55.2378L47.4375 55.2403Z" fill="white"/>
<path d="M25.7889 74.022L13.204 74.1501C12.8239 74.1536 12.4481 74.232 12.0983 74.3807C11.7485 74.5294 11.4314 74.7456 11.1651 75.017C10.8989 75.2883 10.6887 75.6094 10.5466 75.9619C10.4046 76.3145 10.3333 76.6915 10.3371 77.0716L10.4139 85.1254C10.4176 85.5055 10.4961 85.8812 10.645 86.231C10.7939 86.5808 11.0103 86.8978 11.2818 87.164C11.5532 87.4302 11.8745 87.6403 12.2271 87.7823C12.5798 87.9244 12.957 87.9956 13.3372 87.9919L25.9221 87.8638C26.3022 87.8603 26.678 87.7819 27.0278 87.6332C27.3776 87.4844 27.6947 87.2682 27.961 86.9969C28.2272 86.7256 28.4374 86.4045 28.5795 86.0519C28.7215 85.6994 28.7928 85.3223 28.789 84.9422L28.7122 76.8885C28.7085 76.5083 28.63 76.1326 28.4811 75.7828C28.3321 75.4331 28.1158 75.116 27.8443 74.8498C27.5729 74.5837 27.2516 74.3736 26.8989 74.2315C26.5463 74.0895 26.1691 74.0183 25.7889 74.022Z" fill="#FFC71F"/>
<path d="M16.5371 78.8527L16.5845 83.7198L22.7078 83.6609L22.6617 78.7938L16.5371 78.8527ZM16.9996 83.2933L16.9611 79.2677L22.2454 79.2165L22.2851 83.2434L16.9996 83.2933Z" fill="white"/>
<path d="M27.6765 74.6998L21.4635 74.6921L19.5842 77.4895L17.7434 74.9022L11.4458 74.7613C11.2906 74.8832 11.1481 75.0206 11.0205 75.1712L17.523 75.3121L19.5996 78.226L21.6915 75.1123L28.0967 75.1199C27.9711 74.9661 27.8303 74.8253 27.6765 74.6998Z" fill="white"/>
<path d="M19.6466 83.5284L17.6315 86.4743L11.1328 86.7433C11.2629 86.8919 11.408 87.0267 11.5658 87.1455L17.8595 86.8893L19.653 84.2662L21.5848 87.0264L27.7965 86.8983C27.944 86.7694 28.0783 86.6261 28.1974 86.4705L21.8 86.5986L19.6466 83.5284Z" fill="white"/>
<path d="M15.5995 77.9745L15.5457 77.9387L10.3447 77.9105V78.3291L15.4125 78.3573C15.6905 78.5468 16.4898 79.055 16.8421 79.4659L17.0881 79.1357C16.6628 78.6415 15.6661 78.0193 15.5995 77.9745Z" fill="white"/>
<path d="M15.4734 84.2309L10.4082 84.3589V84.7788L15.6079 84.6508L15.6592 84.6149C15.7258 84.5688 16.7122 84.0094 17.1311 83.4999L16.8749 83.0979C16.5405 83.5088 15.7488 84.0363 15.4734 84.2309Z" fill="white"/>
<path d="M16.7436 80.8214L10.3721 80.8826L10.3761 81.3012L16.7476 81.24L16.7436 80.8214Z" fill="white"/>
<path d="M23.6337 77.8622L23.5824 77.8981C23.5158 77.9441 22.596 78.6022 22.0811 79.0387L22.5281 79.2128C22.6652 79.191 23.4979 78.4729 23.772 78.277L28.7232 78.1554V77.7355L23.6337 77.8622Z" fill="white"/>
<path d="M23.8273 84.1488C23.5493 83.9581 22.8794 83.551 22.5271 83.14L22.0557 83.2949C22.4848 83.7968 23.5788 84.4868 23.6454 84.5316L23.6979 84.5674L28.7849 84.5956V84.1757L23.8273 84.1488Z" fill="white"/>
<path d="M28.7497 80.7053L22.4307 80.766L22.4347 81.1846L28.7537 81.124L28.7497 80.7053Z" fill="white"/>
<path d="M28.5073 56.1975C26.0215 59.0155 22.9216 61.2249 19.4465 62.6554C16.1841 63.9772 12.6789 64.594 9.16113 64.4652C9.19606 64.8869 9.38929 65.2798 9.70201 65.5649C10.0147 65.85 10.4238 66.0062 10.847 66.0022L28.1025 65.8344C28.3231 65.8329 28.5413 65.7879 28.7445 65.7019C28.9477 65.6159 29.1319 65.4907 29.2867 65.3334C29.4414 65.1761 29.5635 64.9898 29.6461 64.7852C29.7286 64.5807 29.77 64.3618 29.7678 64.1412L29.7063 57.7857C29.7023 57.4277 29.5837 57.0803 29.3679 56.7945C29.1522 56.5087 28.8506 56.2995 28.5073 56.1975Z" fill="#F2F6F9"/>
<path d="M95.735 79.4669H51.6252C51.5123 79.4668 51.4004 79.4889 51.2961 79.532C51.1917 79.5751 51.0969 79.6383 51.017 79.7181C50.9372 79.7979 50.8739 79.8927 50.8307 79.997C50.7876 80.1013 50.7655 80.2131 50.7656 80.3259C50.7655 80.4388 50.7876 80.5506 50.8307 80.6548C50.8739 80.7591 50.9372 80.8539 51.017 80.9337C51.0969 81.0135 51.1917 81.0768 51.2961 81.1199C51.4004 81.163 51.5123 81.1851 51.6252 81.1849H95.735C95.9629 81.1849 96.1816 81.0944 96.3428 80.9333C96.504 80.7722 96.5945 80.5537 96.5945 80.3259C96.5945 80.0981 96.504 79.8796 96.3428 79.7185C96.1816 79.5574 95.9629 79.4669 95.735 79.4669Z" fill="#CFD2DA"/>
<path d="M84.7752 91.9638C90.8995 85.8404 90.8995 75.9125 84.7752 69.7892C78.6508 63.6658 68.7213 63.6658 62.5969 69.7892C56.4726 75.9125 56.4726 85.8404 62.5969 91.9638C68.7213 98.0871 78.6508 98.0871 84.7752 91.9638Z" fill="#FFF68A"/>
<path d="M83.0736 90.2611C88.2574 85.0781 88.2574 76.6748 83.0736 71.4918C77.8897 66.3089 69.4851 66.3089 64.3012 71.4918C59.1174 76.6748 59.1174 85.0781 64.3012 90.2611C69.4851 95.4441 77.8897 95.4441 83.0736 90.2611Z" fill="#FFDA3E"/>
<path d="M82.2127 70.7013C83.5467 73.4337 83.9018 76.5413 83.2188 79.5041C82.5357 82.467 80.8558 85.1056 78.4601 86.9784C76.0644 88.8513 73.0982 89.8449 70.0576 89.7931C67.0169 89.7412 64.0863 88.6471 61.7559 86.6936C62.6233 88.4704 63.8768 90.031 65.4248 91.2612C66.9728 92.4915 68.7762 93.3605 70.7031 93.8046C72.6301 94.2486 74.6319 94.2567 76.5624 93.828C78.4928 93.3994 80.3031 92.545 81.8609 91.3271C83.4187 90.1093 84.6847 88.5588 85.5664 86.7891C86.448 85.0193 86.9231 83.0749 86.9568 81.0981C86.9905 79.1212 86.582 77.1618 85.7612 75.363C84.9404 73.5642 83.7281 71.9715 82.2127 70.7013Z" fill="#F7D02D"/>
<path d="M61.7002 75.1843L74.2543 67.6211C71.6504 67.5112 69.0716 68.1696 66.8393 69.5145C64.607 70.8594 62.8198 72.8312 61.7002 75.1843Z" fill="#FFEE52"/>
<path d="M78.6559 68.5697L60.4819 79.522C60.3808 80.4941 60.3881 81.4744 60.5036 82.4448L81.2269 69.9543C80.4235 69.3996 79.5612 68.9352 78.6559 68.5697Z" fill="#FFEE52"/>
<path d="M77.9122 68.2941C75.4234 67.4586 72.7427 67.3798 70.209 68.0676C67.6754 68.7554 65.4026 70.1789 63.6781 72.1582C61.9537 74.1375 60.855 76.5836 60.521 79.1872C60.1869 81.7908 60.6326 84.435 61.8016 86.7854C62.9707 89.1357 64.8105 91.0867 67.0885 92.3916C69.3665 93.6965 71.9804 94.2966 74.5995 94.1162C77.2187 93.9358 79.7255 92.9829 81.803 91.378C83.8805 89.773 85.4354 87.5882 86.271 85.0998C87.3911 81.7629 87.1397 78.1179 85.5722 74.9664C84.0047 71.8148 81.2494 69.4148 77.9122 68.2941ZM69.7815 92.5093C67.4797 91.7377 65.4584 90.3008 63.9734 88.3805C62.4884 86.4601 61.6064 84.1426 61.4389 81.721C61.2714 79.2994 61.826 76.8825 63.0325 74.7761C64.2389 72.6696 66.0431 70.9683 68.2168 69.8872C70.3905 68.806 72.8361 68.3938 75.2441 68.7025C77.6522 69.0112 79.9146 70.027 81.7452 71.6214C83.5758 73.2159 84.8923 75.3173 85.5283 77.6599C86.1642 80.0025 86.091 82.4811 85.3179 84.7821C84.282 87.8664 82.0634 90.413 79.1499 91.862C76.2364 93.3111 72.8666 93.5439 69.7815 92.5093Z" fill="#F9BE2B"/>
<path d="M70.9498 66.5157C70.9498 66.5157 68.3698 66.8615 67.842 66.5528C67.2015 66.1686 66.2638 63.7709 66.2638 63.7709C66.2638 63.7709 66.3842 66.1942 66.0742 66.7244C65.6976 67.3648 63.5186 68.4548 63.5186 68.4548C63.5186 68.4548 65.8385 68.2742 66.4867 68.6521C67.0158 68.9633 68.2097 71.2035 68.2097 71.2035C68.2097 71.2035 68.006 68.8736 68.3673 68.2576C68.6862 67.7004 70.9498 66.5157 70.9498 66.5157Z" fill="white"/>
<path d="M62.7 59.5556C71.3611 59.5556 78.3824 52.5355 78.3824 43.8758C78.3824 35.2161 71.3611 28.196 62.7 28.196C54.0388 28.196 47.0176 35.2161 47.0176 43.8758C47.0176 52.5355 54.0388 59.5556 62.7 59.5556Z" fill="#FFF68A"/>
<path d="M72.0863 53.2601C77.2701 48.0771 77.2701 39.6738 72.0863 34.4909C66.9024 29.3079 58.4978 29.3079 53.3139 34.4909C48.1301 39.6738 48.1301 48.0771 53.3139 53.2601C58.4978 58.4431 66.9024 58.4431 72.0863 53.2601Z" fill="#FFDA3E"/>
<path d="M71.2257 33.7047C72.5594 36.4368 72.9145 39.5439 72.2315 42.5064C71.5485 45.4689 69.8689 48.107 67.4736 49.9797C65.0783 51.8524 62.1125 52.8459 59.0723 52.7942C56.032 52.7426 53.1018 51.6488 50.7715 49.6958C51.6388 51.4724 52.8922 53.0329 54.4401 54.2632C55.9879 55.4934 57.7912 56.3623 59.718 56.8064C61.6448 57.2504 63.6465 57.2585 65.5768 56.8298C67.5072 56.4012 69.3173 55.5468 70.875 54.329C72.4327 53.1112 73.6985 51.5608 74.5801 49.7911C75.4616 48.0215 75.9365 46.0772 75.9702 44.1005C76.0038 42.1238 75.5952 40.1645 74.7744 38.3659C73.9535 36.5673 72.7411 34.9747 71.2257 33.7047Z" fill="#F7D02D"/>
<path d="M50.7139 38.1791L63.2616 30.6223C60.6594 30.5131 58.0826 31.1712 55.8516 32.5148C53.6206 33.8584 51.8339 35.8282 50.7139 38.1791Z" fill="#FFEE52"/>
<path d="M67.6672 31.5696L49.4971 42.5232C49.3956 43.4952 49.4025 44.4755 49.5176 45.446L70.2408 32.9554C69.4369 32.3995 68.5738 31.9347 67.6672 31.5696Z" fill="#FFEE52"/>
<path d="M66.9259 31.294C64.4371 30.4585 61.7563 30.3797 59.2227 31.0675C56.689 31.7553 54.4163 33.1788 52.6918 35.1581C50.9674 37.1374 49.8686 39.5835 49.5346 42.1871C49.2006 44.7907 49.6463 47.4349 50.8153 49.7852C51.9843 52.1356 53.8242 54.0866 56.1022 55.3915C58.3802 56.6963 60.994 57.2965 63.6132 57.1161C66.2324 56.9357 68.7392 55.9827 70.8167 54.3778C72.8942 52.7729 74.449 50.5881 75.2846 48.0997C76.4051 44.7628 76.1539 41.1177 74.5863 37.966C73.0188 34.8143 70.2632 32.4144 66.9259 31.294ZM58.8003 55.5079C56.4993 54.7355 54.4791 53.2983 52.9951 51.3779C51.511 49.4575 50.6299 47.1403 50.463 44.7192C50.2962 42.2981 50.8511 39.882 52.0577 37.7762C53.2642 35.6705 55.0682 33.9698 57.2415 32.8891C59.4148 31.8085 61.8598 31.3965 64.2673 31.7051C66.6748 32.0138 68.9367 33.0294 70.7669 34.6233C72.5972 36.2173 73.9136 38.3181 74.5496 40.6601C75.1857 43.0021 75.113 45.4801 74.3405 47.7807C73.8276 49.3083 73.0188 50.72 71.9602 51.935C70.9017 53.1501 69.6141 54.1448 68.1711 54.8623C66.728 55.5799 65.1577 56.0062 63.5499 56.117C61.9421 56.2277 60.3281 56.0208 58.8003 55.5079Z" fill="#F9BE2B"/>
<path d="M59.9635 29.5151C59.9635 29.5151 57.3848 29.8609 56.857 29.5523C56.2165 29.1744 55.2775 26.769 55.2775 26.769C55.2775 26.769 55.3979 29.1936 55.0879 29.7239C54.7113 30.3643 52.5322 31.4543 52.5322 31.4543C52.5322 31.4543 54.8522 31.2737 55.494 31.649C56.023 31.9602 57.2182 34.2004 57.2182 34.2004C57.2182 34.2004 57.0146 31.8705 57.3745 31.2545C57.7012 30.6986 59.9635 29.5151 59.9635 29.5151Z" fill="white"/>
<path d="M111.404 28.1931C117.528 22.0698 117.528 12.1419 111.404 6.01855C105.28 -0.104794 95.3502 -0.104795 89.2258 6.01855C83.1015 12.1419 83.1015 22.0698 89.2258 28.1931C95.3502 34.3165 105.28 34.3165 111.404 28.1931Z" fill="#FFF68A"/>
<path d="M109.701 26.4904C114.884 21.3075 114.884 12.9042 109.701 7.72122C104.517 2.53824 96.112 2.53824 90.9282 7.72122C85.7443 12.9042 85.7443 21.3075 90.9282 26.4904C96.112 31.6734 104.517 31.6734 109.701 26.4904Z" fill="#FFDA3E"/>
<path d="M108.841 6.93408C110.173 9.66554 110.527 12.7713 109.844 15.7324C109.161 18.6935 107.482 21.3304 105.088 23.2027C102.694 25.0749 99.7297 26.0689 96.6908 26.0186C93.6519 25.9683 90.7223 24.8768 88.3916 22.9264C89.2585 24.704 90.5117 26.2655 92.0598 27.4966C93.6078 28.7276 95.4115 29.5972 97.3389 30.0417C99.2663 30.4862 101.269 30.4943 103.2 30.0655C105.131 29.6367 106.941 28.7819 108.499 27.5634C110.057 26.345 111.323 24.7938 112.205 23.0232C113.086 21.2527 113.56 19.3076 113.593 17.3302C113.626 15.3528 113.216 13.3931 112.394 11.5944C111.571 9.79565 110.358 8.20341 108.841 6.93408Z" fill="#F7D02D"/>
<path d="M88.3281 11.4092L100.882 3.8524C98.279 3.74193 95.7008 4.39946 93.4685 5.74314C91.2363 7.08682 89.4486 9.05729 88.3281 11.4092Z" fill="#FFEE52"/>
<path d="M105.28 4.80054L87.1113 15.7541C87.0099 16.7261 87.0167 17.7064 87.1318 18.6769L107.855 6.18382C107.051 5.62901 106.187 5.16508 105.28 4.80054Z" fill="#FFEE52"/>
<path d="M104.54 4.52398C102.051 3.68857 99.3703 3.6098 96.8367 4.29762C94.3032 4.98545 92.0305 6.40898 90.3061 8.38821C88.5817 10.3674 87.483 12.8135 87.1489 15.417C86.8149 18.0205 87.2605 20.6646 88.4294 23.015C89.5983 25.3653 91.438 27.3163 93.7159 28.6212C95.9938 29.9262 98.6076 30.5265 101.227 30.3462C103.846 30.166 106.353 29.2133 108.43 27.6085C110.508 26.0038 112.063 23.8192 112.899 21.3309C113.454 19.6786 113.678 17.9332 113.558 16.1943C113.438 14.4554 112.977 12.7571 112.201 11.1965C111.425 9.63577 110.349 8.24324 109.034 7.09837C107.72 5.9535 106.192 5.07872 104.54 4.52398ZM96.4091 28.7392C94.1081 27.9668 92.0878 26.5295 90.6038 24.6091C89.1198 22.6888 88.2386 20.3715 88.0718 17.9505C87.9049 15.5294 88.4599 13.1132 89.6664 11.0075C90.873 8.90175 92.677 7.20103 94.8503 6.12039C97.0236 5.03975 99.4686 4.62771 101.876 4.9364C104.284 5.24508 106.545 6.26062 108.376 7.85459C110.206 9.44855 111.522 11.5494 112.158 13.8914C112.795 16.2333 112.722 18.7113 111.949 21.012C111.436 22.5396 110.628 23.9512 109.569 25.1663C108.51 26.3813 107.223 27.376 105.78 28.0936C104.337 28.8111 102.767 29.2374 101.159 29.3482C99.5508 29.459 97.9369 29.252 96.4091 28.7392Z" fill="#F9BE2B"/>
<path d="M97.5758 2.74608C97.5758 2.74608 94.9971 3.0919 94.4693 2.78194C93.8249 2.40538 92.8898 0 92.8898 0C92.8898 0 93.0102 2.42459 92.7002 2.95357C92.3236 3.59398 90.1445 4.68524 90.1445 4.68524C90.1445 4.68524 92.4645 4.50336 93.1063 4.87992C93.6353 5.18988 94.8305 7.42875 94.8305 7.42875C94.8305 7.42875 94.6269 5.09894 94.9868 4.48287C95.3084 3.92955 97.5758 2.74608 97.5758 2.74608Z" fill="white"/>
<path d="M54.0357 81.1858H92.2104V89.7532C92.2104 91.6572 91.454 93.4832 90.1074 94.8295C88.7609 96.1758 86.9346 96.9322 85.0303 96.9322H54.0293V81.1858H54.0357Z" fill="#1F1F1F"/>
</g>
<defs>
<clipPath id="clip0_883_12910">
<rect width="116" height="124" fill="white"/>
</clipPath>
</defs>
</svg>
