<svg width="52" height="52" viewBox="0 0 52 52" fill="none" xmlns="http://www.w3.org/2000/svg">
<g clip-path="url(#clip0_1448_14127)">
<path d="M25.9999 22.953C28.7999 22.953 31.078 20.6749 31.078 17.8749C31.078 15.0749 28.7999 12.7969 25.9999 12.7969C23.1999 12.7969 20.9219 15.0749 20.9219 17.8749C20.9219 20.6749 23.1999 22.953 25.9999 22.953ZM25.9999 14.8281C27.6799 14.8281 29.0467 16.1949 29.0467 17.8749C29.0467 19.5549 27.6799 20.9217 25.9999 20.9217C24.3199 20.9217 22.9531 19.5549 22.9531 17.8749C22.9531 16.1949 24.3199 14.8281 25.9999 14.8281Z" fill="#ED1C24"/>
<path d="M18.558 45.7802C18.0608 43.6228 16.1853 41.9865 13.9123 41.852C12.5866 39.1119 9.48945 37.4011 6.28591 37.8536C2.93734 38.3262 0 41.6142 0 44.8899C0 48.5693 3.20567 51.9992 7.31239 51.9992H21.4294C21.9902 51.9992 22.445 51.5445 22.445 50.9836C22.445 50.4226 21.9902 49.9679 21.4294 49.9679H7.31239C4.49905 49.9679 2.03122 47.5951 2.03122 44.8899C2.03122 42.6362 4.23692 40.1941 6.56977 39.8649C8.63247 39.5734 10.692 40.5386 11.773 42.1881C11.1198 42.4417 10.52 42.8289 10.0183 43.3314C9.62198 43.7283 9.62249 44.3714 10.0194 44.7678C10.2176 44.9658 10.4773 45.0647 10.7369 45.0647C10.9971 45.0647 11.2572 44.9653 11.4556 44.7667C11.9678 44.2536 12.6374 43.9086 13.6091 43.8744C15.2891 43.8744 16.6559 45.2412 16.6559 46.9212C16.6559 47.4821 17.1107 47.9368 17.6715 47.9368C20.5342 47.9368 22.9527 45.6114 22.9527 42.8588V39.2026H29.0463V42.8588C29.0463 45.6114 31.4648 47.9368 34.3275 47.9368C34.8883 47.9368 35.3431 47.4821 35.3431 46.9212C35.3431 45.2412 36.7099 43.8744 38.388 43.8744C39.3039 43.9028 40.0028 44.2253 40.5434 44.7667C40.9381 45.162 41.581 45.1657 41.9797 44.7678C42.3766 44.3715 42.3771 43.7284 41.9808 43.3314C41.4791 42.8289 40.8793 42.4417 40.2259 42.1881C41.3068 40.5388 43.3659 39.5737 45.4295 39.8649C47.8062 40.2 50.0118 42.682 49.9681 44.9718C49.9154 47.68 47.4969 49.9679 44.6867 49.9679H30.5698C30.009 49.9679 29.5542 50.4226 29.5542 50.9836C29.5542 51.5445 30.009 51.9992 30.5698 51.9992H44.6868C48.5769 51.9992 51.9254 48.7991 51.999 45.0109C52.0627 41.6793 49.1254 38.3348 45.7134 37.8536C42.5083 37.4012 39.4121 39.1128 38.0869 41.852C35.8139 41.9864 33.9384 43.6228 33.4412 45.7802C32.1093 45.3986 31.0776 44.1963 31.0776 42.8587V39.2025H32.0933C32.6024 39.2025 33.0327 38.8256 33.0999 38.321L33.5241 35.1401H37.9939C39.7804 35.1401 41.2337 33.6867 41.2337 31.9003C41.2337 31.1279 40.9569 30.3793 40.454 29.7921L35.0742 23.5157L35.5972 19.5931C36.631 11.834 32.8559 3.94612 26.5222 0.1448C26.2005 -0.0482668 25.7986 -0.0482668 25.4769 0.1448C19.1418 3.94694 15.3684 11.8356 16.4019 19.5934L16.9249 23.5158L11.5448 29.7925C11.0423 30.3794 10.7655 31.1279 10.7655 31.9003C10.7655 33.6867 12.2189 35.1401 14.0052 35.1401H18.475L18.8993 38.321C18.9665 38.8256 19.3968 39.2025 19.9059 39.2025H20.9215V42.8587C20.9215 44.1963 19.8899 45.3986 18.558 45.7802ZM38.9115 31.1137C39.0992 31.3328 39.2025 31.6121 39.2025 31.9004C39.2025 32.5668 38.6603 33.1089 37.9939 33.1089H33.795L34.714 26.2168L38.9115 31.1137ZM25.9996 2.21492C27.5467 3.23185 28.9342 4.5497 30.0913 6.09363H21.9079C23.0649 4.5497 24.4525 3.23185 25.9996 2.21492ZM20.5933 8.12485H31.406C33.3181 11.5619 34.0913 15.5163 33.584 19.3248L31.7455 33.1088H20.2535L18.4153 19.325C17.9079 15.5164 18.6811 11.5621 20.5933 8.12485ZM14.0052 33.1088C13.3388 33.1088 12.7967 32.5667 12.7967 31.9003C12.7967 31.6121 12.9001 31.3327 13.0873 31.114L17.2852 26.2168L18.2042 33.1088H14.0052ZM20.5243 35.1401H31.4747L31.2041 37.1713H20.7952L20.5243 35.1401Z" fill="#ED1C24"/>
<path d="M25.9995 51.999C26.5604 51.999 27.0151 51.5443 27.0151 50.9834C27.0151 50.4225 26.5604 49.9678 25.9995 49.9678C25.4386 49.9678 24.9839 50.4225 24.9839 50.9834C24.9839 51.5443 25.4386 51.999 25.9995 51.999Z" fill="#ED1C24"/>
</g>
<defs>
<clipPath id="clip0_1448_14127">
<rect width="52" height="52" fill="white"/>
</clipPath>
</defs>
</svg>
