<svg width="29" height="28" viewBox="0 0 29 28" fill="none" xmlns="http://www.w3.org/2000/svg">
<path d="M24.1 14.2299C24.1 13.5199 24.04 12.8299 23.92 12.1799H14.5V16.0499H19.88C19.7684 16.6625 19.5335 17.246 19.1898 17.7651C18.846 18.2842 18.4004 18.7281 17.88 19.0699V21.5699H21.12C23.01 19.8399 24.1 17.2699 24.1 14.2299Z" fill="#4285F4"/>
<path d="M14.4986 23.9999C17.1986 23.9999 19.4586 23.0999 21.1186 21.5799L17.8886 19.0699C16.9886 19.6699 15.8486 20.0199 14.4986 20.0199C11.8986 20.0199 9.69859 18.2599 8.89859 15.8999H5.55859V18.4999C6.39266 20.1551 7.67032 21.5459 9.24897 22.5171C10.8276 23.4883 12.6451 24.0017 14.4986 23.9999Z" fill="#34A853"/>
<path d="M8.9019 15.9C8.49092 14.6667 8.49092 13.3333 8.9019 12.1V9.5H5.5619C4.85856 10.8958 4.49219 12.437 4.49219 14C4.49219 15.563 4.85856 17.1042 5.5619 18.5L8.9019 15.9Z" fill="#FBBC05"/>
<path d="M14.4986 7.98007C15.9686 7.98007 17.2886 8.48007 18.3186 9.48007L21.1986 6.60007C20.0579 5.56641 18.694 4.81005 17.213 4.38991C15.7321 3.96977 14.1742 3.8972 12.6606 4.17785C11.147 4.4585 9.71868 5.08479 8.48683 6.00794C7.25498 6.93109 6.25288 8.12616 5.55859 9.50007L8.89859 12.1001C9.69859 9.74008 11.8986 7.98007 14.4986 7.98007Z" fill="#EA4335"/>
</svg>
