<svg width="42" height="43" viewBox="0 0 42 43" fill="none" xmlns="http://www.w3.org/2000/svg">
<path d="M35.4375 0.00439453L6.5625 0.00439453C2.93813 0.00439453 0 2.94253 0 6.56689L0 35.4419C0 39.0663 2.93813 42.0044 6.5625 42.0044H35.4375C39.0619 42.0044 42 39.0663 42 35.4419V6.56689C42 2.94253 39.0619 0.00439453 35.4375 0.00439453Z" fill="url(#paint0_linear_234_728)"/>
<path d="M21.0002 12.0794C23.8877 12.0794 24.2814 12.0794 25.4627 12.0794C26.5127 12.0794 27.0377 12.3419 27.4314 12.4731C27.9564 12.7356 28.3502 12.8669 28.7439 13.2606C29.1377 13.6544 29.4002 14.0481 29.5314 14.5731C29.6627 14.9669 29.7939 15.4919 29.9252 16.5419C29.9252 17.7231 29.9252 17.9856 29.9252 21.0044C29.9252 24.0231 29.9252 24.2856 29.9252 25.4669C29.9252 26.5169 29.6627 27.0419 29.5314 27.4356C29.2689 27.9606 29.1377 28.3544 28.7439 28.7481C28.3502 29.1419 27.9564 29.4044 27.4314 29.5356C27.0377 29.6669 26.5127 29.7981 25.4627 29.9294C24.2814 29.9294 24.0189 29.9294 21.0002 29.9294C17.9814 29.9294 17.7189 29.9294 16.5377 29.9294C15.4877 29.9294 14.9627 29.6669 14.5689 29.5356C14.0439 29.2731 13.6502 29.1419 13.2564 28.7481C12.8627 28.3544 12.6002 27.9606 12.4689 27.4356C12.3377 27.0419 12.2064 26.5169 12.0752 25.4669C12.0752 24.2856 12.0752 24.0231 12.0752 21.0044C12.0752 17.9856 12.0752 17.7231 12.0752 16.5419C12.0752 15.4919 12.3377 14.9669 12.4689 14.5731C12.7314 14.0481 12.8627 13.6544 13.2564 13.2606C13.6502 12.8669 14.0439 12.6044 14.5689 12.4731C14.9627 12.3419 15.4877 12.2106 16.5377 12.0794C17.7189 12.0794 18.1127 12.0794 21.0002 12.0794ZM21.0002 10.1106C17.9814 10.1106 17.7189 10.1106 16.5377 10.1106C15.3564 10.1106 14.5689 10.3731 13.9127 10.6356C13.2564 10.8981 12.6002 11.2919 11.9439 11.9481C11.2877 12.6044 11.0252 13.1294 10.6314 13.9169C10.3689 14.5731 10.2377 15.3606 10.1064 16.5419C10.1064 17.7231 10.1064 18.1169 10.1064 21.0044C10.1064 24.0231 10.1064 24.2856 10.1064 25.4669C10.1064 26.6481 10.3689 27.4356 10.6314 28.0919C10.8939 28.7481 11.2877 29.4044 11.9439 30.0606C12.6002 30.7169 13.1252 30.9794 13.9127 31.3731C14.5689 31.6356 15.3564 31.7669 16.5377 31.8981C17.7189 31.8981 18.1127 31.8981 21.0002 31.8981C23.8877 31.8981 24.2814 31.8981 25.4627 31.8981C26.6439 31.8981 27.4314 31.6356 28.0877 31.3731C28.7439 31.1106 29.4002 30.7169 30.0564 30.0606C30.7127 29.4044 30.9752 28.8794 31.3689 28.0919C31.6314 27.4356 31.7627 26.6481 31.8939 25.4669C31.8939 24.2856 31.8939 23.8919 31.8939 21.0044C31.8939 18.1169 31.8939 17.7231 31.8939 16.5419C31.8939 15.3606 31.6314 14.5731 31.3689 13.9169C31.1064 13.2606 30.7127 12.6044 30.0564 11.9481C29.4002 11.2919 28.8752 11.0294 28.0877 10.6356C27.4314 10.3731 26.6439 10.2419 25.4627 10.1106C24.2814 10.1106 24.0189 10.1106 21.0002 10.1106Z" fill="white"/>
<path d="M21.0002 15.3606C17.8502 15.3606 15.3564 17.8544 15.3564 21.0044C15.3564 24.1544 17.8502 26.6481 21.0002 26.6481C24.1502 26.6481 26.6439 24.1544 26.6439 21.0044C26.6439 17.8544 24.1502 15.3606 21.0002 15.3606ZM21.0002 24.6794C19.0314 24.6794 17.3252 23.1044 17.3252 21.0044C17.3252 19.0356 18.9002 17.3294 21.0002 17.3294C22.9689 17.3294 24.6752 18.9044 24.6752 21.0044C24.6752 22.9731 22.9689 24.6794 21.0002 24.6794Z" fill="white"/>
<path d="M26.7752 16.5419C27.5001 16.5419 28.0877 15.9543 28.0877 15.2294C28.0877 14.5045 27.5001 13.9169 26.7752 13.9169C26.0503 13.9169 25.4627 14.5045 25.4627 15.2294C25.4627 15.9543 26.0503 16.5419 26.7752 16.5419Z" fill="white"/>
<defs>
<linearGradient id="paint0_linear_234_728" x1="21" y1="0.00439453" x2="21" y2="42.0044" gradientUnits="userSpaceOnUse">
<stop stop-color="#F00073"/>
<stop offset="1" stop-color="#F06500"/>
</linearGradient>
</defs>
</svg>
