<svg width="54" height="54" viewBox="0 0 54 54" fill="none" xmlns="http://www.w3.org/2000/svg">
<path d="M1.07999 49.1631H11.6849C12.2818 49.1631 12.7648 48.6796 12.7648 48.0831V37.4789C12.7648 36.8824 12.2818 36.3989 11.6849 36.3989H7.46301V31.2867H25.92V36.3989H21.698C21.1011 36.3989 20.618 36.8824 20.618 37.4789V48.0831C20.618 48.6796 21.1011 49.1631 21.698 49.1631H32.3029C32.8998 49.1631 33.3828 48.6796 33.3828 48.0831V37.4789C33.3828 36.8824 32.8998 36.3989 32.3029 36.3989H28.0799V31.2867H46.538V36.3989H42.315C41.7181 36.3989 41.235 36.8824 41.235 37.4789V48.0831C41.235 48.6796 41.7181 49.1631 42.315 49.1631H52.9199C53.5168 49.1631 53.9999 48.6796 53.9999 48.0831V37.4789C53.9999 36.8824 53.5168 36.3989 52.9199 36.3989H48.6979V30.2068C48.6979 29.6103 48.2149 29.1268 47.6179 29.1268H28.08V22.5508H34.7773C35.3742 22.5508 35.8573 22.0672 35.8573 21.4708V5.91788C35.8573 5.32143 35.3742 4.83789 34.7773 4.83789H19.2238C18.6269 4.83789 18.1438 5.32155 18.1438 5.91788V21.4708C18.1438 22.0672 18.6269 22.5508 19.2238 22.5508H25.9201V29.1268H6.38303C5.78609 29.1268 5.30304 29.6104 5.30304 30.2068V36.3989H1.07999C0.483054 36.3989 0 36.8824 0 37.4789V48.0831C0 48.6796 0.483054 49.1631 1.07999 49.1631ZM31.223 47.0031H22.7781V38.5589H31.223V47.0031ZM51.84 47.0031H43.3951V38.5589H51.84V47.0031ZM20.3038 6.99787H33.6973V20.3908H20.3038V6.99787ZM2.15998 38.5589H10.6049V47.0031H2.15998V38.5589Z" fill="#ED1C24"/>
</svg>
