<svg width="42" height="42" viewBox="0 0 42 42" fill="none" xmlns="http://www.w3.org/2000/svg">
<path d="M35.4375 0L6.5625 0C2.93813 0 0 2.93813 0 6.5625L0 35.4375C0 39.0619 2.93813 42 6.5625 42H35.4375C39.0619 42 42 39.0619 42 35.4375V6.5625C42 2.93813 39.0619 0 35.4375 0Z" fill="#2867B2"/>
<path d="M15.225 31.5H10.7625V17.4563H15.225V31.5ZM12.9938 15.4875C11.55 15.4875 10.5 14.4375 10.5 12.9937C10.5 11.55 11.6813 10.5 12.9938 10.5C14.4375 10.5 15.4875 11.55 15.4875 12.9937C15.4875 14.4375 14.4375 15.4875 12.9938 15.4875ZM31.5 31.5H27.0375V23.8875C27.0375 21.6563 26.1187 21 24.8062 21C23.4937 21 22.1812 22.05 22.1812 24.0187V31.5H17.7188V17.4563H21.9187V19.425C22.3125 18.5063 23.8875 17.0625 26.1187 17.0625C28.6125 17.0625 31.2375 18.5062 31.2375 22.8375V31.5H31.5Z" fill="white"/>
</svg>
