<svg width="18" height="18" viewBox="0 0 18 18" fill="none" xmlns="http://www.w3.org/2000/svg">
<path d="M15.4297 8.03578H14.0636V3.53578C14.0636 2.11547 12.9125 0.964355 11.4922 0.964355H6.51005C5.08973 0.964355 3.93862 2.11547 3.93862 3.53578V8.03578H2.57254C2.21696 8.03578 1.92969 8.32306 1.92969 8.67864V16.3929C1.92969 16.7485 2.21696 17.0358 2.57254 17.0358H15.4297C15.7853 17.0358 16.0725 16.7485 16.0725 16.3929V8.67864C16.0725 8.32306 15.7853 8.03578 15.4297 8.03578ZM5.38505 3.53578C5.38505 2.91503 5.88929 2.41078 6.51005 2.41078H11.4922C12.1129 2.41078 12.6172 2.91503 12.6172 3.53578V8.03578H5.38505V3.53578ZM14.6261 15.5894H3.37612V9.48221H14.6261V15.5894ZM8.43862 12.7969V13.8617C8.43862 13.9501 8.51094 14.0224 8.59933 14.0224H9.4029C9.4913 14.0224 9.56362 13.9501 9.56362 13.8617V12.7969C9.72945 12.6779 9.85322 12.5093 9.91713 12.3154C9.98103 12.1215 9.98177 11.9123 9.91924 11.718C9.8567 11.5237 9.73411 11.3542 9.56913 11.234C9.40414 11.1138 9.20526 11.049 9.00112 11.049C8.79697 11.049 8.59809 11.1138 8.43311 11.234C8.26812 11.3542 8.14553 11.5237 8.083 11.718C8.02046 11.9123 8.0212 12.1215 8.0851 12.3154C8.14901 12.5093 8.27279 12.6779 8.43862 12.7969Z" fill="#555555"/>
</svg>
