<svg width="20" height="20" viewBox="0 0 20 20" fill="none" xmlns="http://www.w3.org/2000/svg">
<path d="M5 18.75C4.90812 18.75 4.81563 18.7294 4.72875 18.6881C4.51312 18.5838 4.375 18.3656 4.375 18.125V15H2.5C1.46625 15 0.625 14.1588 0.625 13.125V3.125C0.625 2.09125 1.46625 1.25 2.5 1.25H17.5C18.5338 1.25 19.375 2.09125 19.375 3.125V13.125C19.375 14.1588 18.5338 15 17.5 15H9.90687L5.39062 18.6131C5.2775 18.7038 5.13938 18.75 5 18.75ZM2.5 2.5C2.155 2.5 1.875 2.78063 1.875 3.125V13.125C1.875 13.4694 2.155 13.75 2.5 13.75H5C5.34562 13.75 5.625 14.0294 5.625 14.375V16.825L9.29688 13.8869C9.40812 13.7981 9.545 13.75 9.6875 13.75H17.5C17.845 13.75 18.125 13.4694 18.125 13.125V3.125C18.125 2.78063 17.845 2.5 17.5 2.5H2.5Z" fill="#1F1F1F"/>
<path d="M15 7.5H5C4.65438 7.5 4.375 7.22 4.375 6.875C4.375 6.53 4.65438 6.25 5 6.25H15C15.3456 6.25 15.625 6.53 15.625 6.875C15.625 7.22 15.3456 7.5 15 7.5Z" fill="#1F1F1F"/>
<path d="M10 10H5C4.65438 10 4.375 9.72 4.375 9.375C4.375 9.03 4.65438 8.75 5 8.75H10C10.3456 8.75 10.625 9.03 10.625 9.375C10.625 9.72 10.3456 10 10 10Z" fill="#1F1F1F"/>
</svg>
