<svg width="100" height="100" viewBox="0 0 100 100" fill="none" xmlns="http://www.w3.org/2000/svg">
<g clip-path="url(#clip0_748_1182)">
<path d="M96.7937 89.5715H95.3287V44.5285C95.3287 42.4811 93.6629 40.8152 91.6152 40.8152H65.0352V4.98633C65.0352 2.24609 62.8057 0.0166016 60.0654 0.0166016H13.6412C10.901 0.0166016 8.67148 2.24609 8.67148 4.98633V89.5713H7.20645C4.33555 89.5715 2 91.907 2 94.7779C2 97.6486 4.33555 99.9842 7.20625 99.9842H96.7937C99.6645 99.9842 102 97.6486 102 94.7779C102 91.907 99.6645 89.5715 96.7937 89.5715ZM11.601 4.98633C11.601 3.86133 12.5162 2.94629 13.641 2.94629H60.0652C61.1902 2.94629 62.1053 3.86152 62.1053 4.98633V40.8152H49.6012C47.5535 40.8152 45.8875 42.4809 45.8875 44.5285V78.2166C45.8875 79.0258 46.5432 79.6814 47.3523 79.6814C48.1615 79.6814 48.8172 79.0258 48.8172 78.2166V44.5285C48.8172 44.0965 49.1689 43.7449 49.6012 43.7449H91.6152C92.0475 43.7449 92.399 44.0965 92.399 44.5285V89.5713H48.8174V85.0648C48.8174 84.2557 48.1617 83.6 47.3525 83.6C46.5434 83.6 45.8877 84.2557 45.8877 85.0648V89.5713H11.601V4.98633ZM96.7937 97.0545H7.20625C5.95078 97.0545 4.92969 96.0332 4.92969 94.7779C4.92969 93.5227 5.95098 92.5012 7.20625 92.5012H96.7937C98.0492 92.5012 99.0703 93.5225 99.0703 94.7779C99.0703 96.0334 98.049 97.0545 96.7937 97.0545Z" fill="black"/>
<path d="M24.9156 8.94336H18.9057C17.3051 8.94336 16.0029 10.2455 16.0029 11.8461V17.8561C16.0029 19.4566 17.3051 20.7588 18.9057 20.7588H24.9156C26.5162 20.7588 27.8184 19.4566 27.8184 17.8561V11.8461C27.8184 10.2455 26.5162 8.94336 24.9156 8.94336ZM24.8887 17.8293H18.9324V11.873H24.8887V17.8293Z" fill="black"/>
<path d="M39.858 8.94336H33.8479C32.2475 8.94336 30.9453 10.2455 30.9453 11.8461V17.8561C30.9453 19.4566 32.2475 20.7588 33.8479 20.7588H39.858C41.4586 20.7588 42.7607 19.4566 42.7607 17.8561V11.8461C42.7607 10.2455 41.4586 8.94336 39.858 8.94336ZM39.8311 17.8293H33.8748V11.873H39.8311V17.8293Z" fill="black"/>
<path d="M48.7904 20.759H54.8006C56.4012 20.759 57.7033 19.4568 57.7033 17.8562V11.8461C57.7033 10.2455 56.4012 8.94336 54.8006 8.94336H48.7904C47.1898 8.94336 45.8877 10.2455 45.8877 11.8461V17.8561C45.8877 19.4568 47.1898 20.759 48.7904 20.759ZM48.8174 11.873H54.7738V17.8293H48.8174V11.873Z" fill="black"/>
<path d="M24.9156 27.2295H18.9057C17.3051 27.2295 16.0029 28.5316 16.0029 30.1322V36.1422C16.0029 37.7428 17.3051 39.0449 18.9057 39.0449H24.9156C26.5162 39.0449 27.8184 37.7428 27.8184 36.1422V30.1322C27.8184 28.5316 26.5162 27.2295 24.9156 27.2295ZM24.8887 36.1154H18.9324V30.1592H24.8887V36.1154Z" fill="black"/>
<path d="M39.858 27.2295H33.8479C32.2475 27.2295 30.9453 28.5316 30.9453 30.1322V36.1422C30.9453 37.7428 32.2475 39.0449 33.8479 39.0449H39.858C41.4586 39.0449 42.7607 37.7428 42.7607 36.1422V30.1322C42.7607 28.5316 41.4586 27.2295 39.858 27.2295ZM39.8311 36.1154H33.8748V30.1592H39.8311V36.1154Z" fill="black"/>
<path d="M48.7904 39.0449H54.8006C56.4012 39.0449 57.7033 37.7428 57.7033 36.1422V30.1322C57.7033 28.5316 56.4012 27.2295 54.8006 27.2295H48.7904C47.1898 27.2295 45.8877 28.5316 45.8877 30.1322V36.1422C45.8877 37.7428 47.1898 39.0449 48.7904 39.0449ZM48.8174 30.159H54.7738V36.1152H48.8174V30.159Z" fill="black"/>
<path d="M24.9156 45.5156H18.9057C17.3051 45.5156 16.0029 46.8178 16.0029 48.4184V54.4283C16.0029 56.0289 17.3051 57.3311 18.9057 57.3311H24.9156C26.5162 57.3311 27.8184 56.0289 27.8184 54.4283V48.4184C27.8184 46.8178 26.5162 45.5156 24.9156 45.5156ZM24.8887 54.4016H18.9324V48.4453H24.8887V54.4016Z" fill="black"/>
<path d="M39.858 45.5156H33.8479C32.2475 45.5156 30.9453 46.8178 30.9453 48.4184V54.4283C30.9453 56.0289 32.2475 57.3311 33.8479 57.3311H39.858C41.4586 57.3311 42.7607 56.0289 42.7607 54.4283V48.4184C42.7607 46.8178 41.4586 45.5156 39.858 45.5156ZM39.8311 54.4016H33.8748V48.4453H39.8311V54.4016Z" fill="black"/>
<path d="M24.9156 63.8008H18.9057C17.3051 63.8008 16.0029 65.1029 16.0029 66.7033V72.7135C16.0029 74.3141 17.3051 75.6162 18.9057 75.6162H24.9156C26.5162 75.6162 27.8184 74.3141 27.8184 72.7135V66.7033C27.8184 65.1029 26.5162 63.8008 24.9156 63.8008ZM24.8887 72.6867H18.9324V66.7305H24.8887V72.6867Z" fill="black"/>
<path d="M39.858 63.8008H33.8479C32.2475 63.8008 30.9453 65.1029 30.9453 66.7033V72.7135C30.9453 74.3141 32.2475 75.6162 33.8479 75.6162H39.858C41.4586 75.6162 42.7607 74.3141 42.7607 72.7135V66.7033C42.7607 65.1029 41.4586 63.8008 39.858 63.8008ZM39.8311 72.6867H33.8748V66.7305H39.8311V72.6867Z" fill="black"/>
<path d="M54.7658 59.1567H60.4574C61.8377 59.1567 62.9605 58.0338 62.9605 56.6537V51.1066C62.9605 49.7264 61.8377 48.6035 60.4574 48.6035H54.7658C53.3855 48.6035 52.2627 49.7264 52.2627 51.1066V56.6537C52.2627 58.0338 53.3855 59.1567 54.7658 59.1567ZM55.1924 51.533H60.0309V56.227H55.1924V51.533Z" fill="black"/>
<path d="M54.7658 71.1312H60.4574C61.8377 71.1312 62.9605 70.0084 62.9605 68.6281V63.0812C62.9605 61.701 61.8377 60.5781 60.4574 60.5781H54.7658C53.3855 60.5781 52.2627 61.701 52.2627 63.0812V68.6281C52.2627 70.0084 53.3855 71.1312 54.7658 71.1312ZM55.1924 63.5076H60.0309V68.2016H55.1924V63.5076Z" fill="black"/>
<path d="M54.7658 83.1061H60.4574C61.8377 83.1061 62.9605 81.9832 62.9605 80.6029V75.0559C62.9605 73.6756 61.8377 72.5527 60.4574 72.5527H54.7658C53.3855 72.5527 52.2627 73.6756 52.2627 75.0559V80.6029C52.2627 81.9832 53.3855 83.1061 54.7658 83.1061ZM55.1924 75.4822H60.0309V80.1764H55.1924V75.4822Z" fill="black"/>
<path d="M67.7629 59.1567H73.4547C74.835 59.1567 75.9578 58.0338 75.9578 56.6537V51.1066C75.9578 49.7264 74.835 48.6035 73.4547 48.6035H67.7629C66.3826 48.6035 65.2598 49.7264 65.2598 51.1066V56.6537C65.2598 58.0338 66.3826 59.1567 67.7629 59.1567ZM68.1895 51.533H73.0281V56.227H68.1895V51.533Z" fill="black"/>
<path d="M67.7629 71.1312H73.4547C74.835 71.1312 75.9578 70.0084 75.9578 68.6281V63.0812C75.9578 61.701 74.835 60.5781 73.4547 60.5781H67.7629C66.3826 60.5781 65.2598 61.701 65.2598 63.0812V68.6281C65.2598 70.0084 66.3826 71.1312 67.7629 71.1312ZM68.1895 63.5076H73.0281V68.2016H68.1895V63.5076Z" fill="black"/>
<path d="M67.7629 83.1061H73.4547C74.835 83.1061 75.9578 81.9832 75.9578 80.6029V75.0559C75.9578 73.6756 74.835 72.5527 73.4547 72.5527H67.7629C66.3826 72.5527 65.2598 73.6756 65.2598 75.0559V80.6029C65.2598 81.9832 66.3826 83.1061 67.7629 83.1061ZM68.1895 75.4822H73.0281V80.1764H68.1895V75.4822Z" fill="black"/>
<path d="M80.76 59.1567H86.4518C87.832 59.1567 88.9549 58.0338 88.9549 56.6537V51.1066C88.9549 49.7264 87.832 48.6035 86.4518 48.6035H80.76C79.3797 48.6035 78.2568 49.7264 78.2568 51.1066V56.6537C78.2568 58.0338 79.3797 59.1567 80.76 59.1567ZM81.1865 51.533H86.0252V56.227H81.1865V51.533Z" fill="black"/>
<path d="M80.76 71.1312H86.4518C87.832 71.1312 88.9549 70.0084 88.9549 68.6281V63.0812C88.9549 61.701 87.832 60.5781 86.4518 60.5781H80.76C79.3797 60.5781 78.2568 61.701 78.2568 63.0812V68.6281C78.2568 70.0084 79.3797 71.1312 80.76 71.1312ZM81.1865 63.5076H86.0252V68.2016H81.1865V63.5076Z" fill="black"/>
<path d="M80.76 83.1061H86.4518C87.832 83.1061 88.9549 81.9832 88.9549 80.6029V75.0559C88.9549 73.6756 87.832 72.5527 86.4518 72.5527H80.76C79.3797 72.5527 78.2568 73.6756 78.2568 75.0559V80.6029C78.2568 81.9832 79.3797 83.1061 80.76 83.1061ZM81.1865 75.4822H86.0252V80.1764H81.1865V75.4822Z" fill="black"/>
<path d="M81.9258 33.9438C82.9299 34.677 84.2799 34.6773 85.2842 33.9438C87.8174 32.0936 93.8947 27.0215 95.61 19.8984C95.7994 19.1119 95.3152 18.3207 94.5287 18.1313C93.742 17.9428 92.951 18.4262 92.7615 19.2125C91.2455 25.508 85.4344 30.1984 83.6049 31.5422C81.3031 29.8523 74.0762 23.9182 74.0762 16.1314C74.0762 10.8773 78.3508 6.60273 83.6047 6.60273C87.732 6.60273 91.3705 9.23477 92.6586 13.152C92.9113 13.9205 93.7393 14.3389 94.5078 14.0859C95.2764 13.8332 95.6945 13.0053 95.4418 12.2367C93.7572 7.11426 89.0004 3.67285 83.6047 3.67285C76.7352 3.67285 71.1465 9.26172 71.1465 16.1313C71.1465 25.3545 79.3969 32.0969 81.9258 33.9438Z" fill="black"/>
<path d="M83.6055 9.20215C79.785 9.20215 76.6768 12.3104 76.6768 16.1311C76.6768 19.9518 79.785 23.06 83.6055 23.06C87.4262 23.06 90.5344 19.9518 90.5344 16.1311C90.5344 12.3104 87.4262 9.20215 83.6055 9.20215ZM83.6055 20.1301C81.4004 20.1301 79.6064 18.3359 79.6064 16.1309C79.6064 13.9258 81.4004 12.1316 83.6055 12.1316C85.8105 12.1316 87.6047 13.9258 87.6047 16.1309C87.6047 18.3359 85.8105 20.1301 83.6055 20.1301Z" fill="black"/>
</g>
<defs>
<clipPath id="clip0_748_1182">
<rect width="100" height="100" fill="white"/>
</clipPath>
</defs>
</svg>
