<svg width="60" height="60" viewBox="0 0 60 60" fill="none" xmlns="http://www.w3.org/2000/svg">
<g clip-path="url(#clip0_1448_13080)">
<path d="M30.1004 20.9326C30.9262 20.9326 31.595 20.2633 31.595 19.438C31.595 18.6126 30.9262 17.9434 30.1004 17.9434C23.4971 17.9434 18.144 23.2964 18.144 29.9001C18.144 36.5034 23.4971 41.8565 30.1004 41.8565C36.7041 41.8565 42.0572 36.5034 42.0572 29.9001C42.0572 29.0743 41.3879 28.4055 40.5626 28.4055C39.7372 28.4055 39.068 29.0743 39.068 29.9001C39.068 34.8527 35.0534 38.8677 30.1004 38.8677C25.1478 38.8677 21.1328 34.8527 21.1328 29.9001C21.1328 24.9471 25.1478 20.9326 30.1004 20.9326Z" fill="#ED1C24"/>
<path d="M58.6173 21.0228C58.3578 20.2387 57.5118 19.8134 56.7272 20.073C55.9609 20.3266 55.5343 21.1423 55.7627 21.9164C60.2323 36.1496 52.3176 51.3112 38.0843 55.7808C23.8515 60.2504 8.68996 52.3357 4.22035 38.1024C-0.24971 23.8692 7.66548 8.70761 21.8983 4.238C27.1671 2.58364 32.8159 2.58364 38.0843 4.238C38.8754 4.4765 39.7099 4.0288 39.9483 3.23779C40.1832 2.45867 39.7524 1.63516 38.9783 1.38339C23.1741 -3.57511 6.34209 5.21716 1.38359 21.0219C-3.57491 36.8262 5.21782 53.6582 21.0221 58.6167C36.8269 63.5752 53.6584 54.7829 58.6169 38.9781C60.4507 33.1334 60.4507 26.8675 58.6173 21.0228Z" fill="#ED1C24"/>
<path d="M32.9468 10.6776C32.9546 9.82657 32.3009 9.1152 31.4522 9.05157C31.0059 9.01358 30.5591 8.97559 30.1009 8.97559C18.5446 8.97559 9.17651 18.3437 9.17651 29.9C9.17651 41.4557 18.5446 50.8239 30.1009 50.8239C41.6567 50.8239 51.0248 41.4557 51.0248 29.9C51.0248 29.3593 50.9919 28.8192 50.9255 28.2827C50.806 27.4624 50.0443 26.8943 49.224 27.0138C48.4037 27.1328 47.8356 27.895 47.9546 28.7153C47.9592 28.7464 47.9647 28.7771 47.9711 28.8082C48.0036 29.1703 48.0356 29.5292 48.0356 29.899C48.0361 39.8046 40.0064 47.8342 30.1013 47.8351C20.1958 47.8356 12.1662 39.8055 12.1657 29.9004C12.1653 19.9953 20.1944 11.9652 30.1 11.9648H30.1004C30.4712 11.9648 30.8306 11.9968 31.1917 12.0289L31.4719 12.0522C32.2528 12.0856 32.9129 11.4796 32.9459 10.6986C32.9464 10.6913 32.9464 10.6844 32.9468 10.6776Z" fill="#ED1C24"/>
<path d="M39.0705 13.4598V18.8193L29.0464 28.8434C28.4526 29.417 28.4362 30.3631 29.0097 30.9569C29.5833 31.5506 30.5295 31.5671 31.1232 30.9935C31.1356 30.9816 31.148 30.9692 31.1599 30.9569L41.184 20.9328H46.5435C46.9399 20.9328 47.3198 20.7753 47.6004 20.4947L56.5676 11.5271C57.1512 10.9434 57.1512 9.99725 56.5676 9.4136C56.2874 9.13345 55.9075 8.97598 55.511 8.97598H51.0272V4.49219C51.0272 3.66684 50.358 2.99759 49.5322 2.99805C49.1362 2.99805 48.7563 3.15552 48.4761 3.43567L39.5085 12.4033C39.2279 12.6834 39.0705 13.0633 39.0705 13.4598ZM42.0597 14.0787L48.038 8.10028V10.4706C48.038 11.2959 48.7073 11.9652 49.5326 11.9652H51.9029L45.9246 17.9436H42.0597V14.0787Z" fill="#ED1C24"/>
</g>
<defs>
<clipPath id="clip0_1448_13080">
<rect width="60" height="60" fill="white"/>
</clipPath>
</defs>
</svg>
