<svg width="52" height="52" viewBox="0 0 52 52" fill="none" xmlns="http://www.w3.org/2000/svg">
<g clip-path="url(#clip0_1448_14142)">
<path d="M33.3983 37.4491C32.8515 37.1206 32.2904 36.7903 31.7293 36.4665C31.8612 35.3422 31.8615 34.2049 31.7299 33.0829C32.2932 32.7579 32.854 32.4278 33.3981 32.1007C34.3141 31.5502 34.696 30.3887 34.2861 29.3988C34.2861 29.3988 34.2861 29.3988 34.286 29.3987L33.0905 26.5125C32.6805 25.5229 31.5897 24.9713 30.5522 25.2297C29.9356 25.3832 29.3056 25.5464 28.6778 25.7148C27.9769 24.828 27.1727 24.0239 26.2847 23.3226C26.4531 22.6947 26.6164 22.0644 26.77 21.4477C27.0285 20.4106 26.477 19.3194 25.4873 18.9094L22.6011 17.7139C21.6115 17.3038 20.4497 17.6854 19.8991 18.6017C19.5711 19.1475 19.2407 19.7086 18.9166 20.2706C17.7926 20.1387 16.6555 20.1384 15.5329 20.2699C15.2077 19.7062 14.8775 19.1452 14.5508 18.6017C13.9999 17.6856 12.8384 17.3039 11.8487 17.7139L8.96252 18.9094C7.9731 19.3193 7.42141 20.4106 7.67988 21.4477C7.83375 22.0657 7.99686 22.6958 8.16495 23.322C7.2782 24.0227 6.47403 24.8272 5.77285 25.7151C5.14356 25.5462 4.51327 25.3831 3.8977 25.2297C2.86034 24.9711 1.76935 25.5231 1.35935 26.5126L0.164056 29.3987C-0.245748 30.3884 0.136025 31.55 1.05192 32.1005C1.59781 32.4285 2.15895 32.7588 2.72089 33.0831C2.58906 34.207 2.58876 35.3441 2.72028 36.4667C2.15783 36.7912 1.597 37.1214 1.05171 37.449C0.135822 37.9996 -0.245952 39.1611 0.163955 40.1509L1.35955 43.0371C1.76945 44.0266 2.86013 44.5784 3.8979 44.3199C4.51378 44.1665 5.14387 44.0034 5.77203 43.8348C6.47292 44.7215 7.27719 45.5255 8.16515 46.2269C7.99656 46.8555 7.83335 47.4858 7.67988 48.1018C7.42141 49.1389 7.97289 50.2302 8.96252 50.6401L11.8488 51.8357C12.1169 51.9467 12.3976 51.9997 12.6752 51.9997C13.4229 51.9997 14.1493 51.6159 14.5512 50.948C14.8767 50.4064 15.2069 49.8455 15.5337 49.2792C16.6575 49.4109 17.7949 49.4111 18.9174 49.2798C19.2402 49.8396 19.5704 50.4004 19.8995 50.9481C20.4502 51.8642 21.6116 52.2458 22.6015 51.8359L25.4878 50.6404C26.4772 50.2305 27.0289 49.1392 26.7704 48.1021C26.6177 47.4894 26.4546 46.8593 26.2853 46.2278C27.1719 45.5271 27.9761 44.7228 28.6775 43.8348C29.305 44.0031 29.9353 44.1662 30.5524 44.32C31.5894 44.5786 32.6807 44.0271 33.0907 43.0372L34.2862 40.1509C34.6959 39.1612 34.3141 37.9996 33.3983 37.4491ZM30.9884 42.0297C30.3956 41.8812 29.7913 41.7242 29.1904 41.5623C28.3397 41.3335 27.442 41.6326 26.9033 42.3248C26.2842 43.12 25.5677 43.8366 24.7738 44.4548C24.0824 44.9933 23.7837 45.8907 24.0128 46.7409C24.1756 47.3456 24.3325 47.9495 24.48 48.5382L21.827 49.637C21.5115 49.1105 21.1955 48.5725 20.8867 48.0358C20.4472 47.2727 19.6014 46.8498 18.7319 46.9574C17.7335 47.0814 16.72 47.0813 15.7202 46.9569C14.8483 46.8487 14.0032 47.2716 13.5638 48.0349C13.2512 48.5777 12.9351 49.1159 12.623 49.6369L9.97002 48.538C10.1184 47.9461 10.2754 47.342 10.4375 46.7402C10.6665 45.8896 10.3672 44.9918 9.67508 44.453C8.87985 43.834 8.16332 43.1176 7.54501 42.3237C7.00673 41.6322 6.10932 41.3336 5.25884 41.5625C4.65728 41.7245 4.05329 41.8815 3.46169 42.0298L2.36278 39.3769C2.88685 39.0627 3.42503 38.7467 3.96392 38.4364C4.72716 37.997 5.15047 37.1514 5.04241 36.2818C4.9182 35.2832 4.9185 34.2698 5.04271 33.27C5.15118 32.3996 4.72817 31.553 3.96453 31.1135C3.42584 30.8033 2.88756 30.4872 2.36268 30.1725L3.46159 27.5196C4.05268 27.6678 4.65678 27.8248 5.25945 27.987C6.10973 28.2161 7.00754 27.9167 7.54663 27.2245C8.16566 26.4293 8.88218 25.7127 9.67589 25.0946C10.3673 24.5562 10.666 23.6587 10.437 22.8082C10.2755 22.2086 10.1185 21.6047 9.96971 21.0111L12.6227 19.9123C12.9359 20.435 13.252 20.9731 13.5631 21.5135C14.0027 22.2767 14.8492 22.7006 15.7178 22.5919C16.7159 22.4677 17.7292 22.4677 18.7299 22.5924C19.6008 22.7008 20.4468 22.2773 20.8862 21.5141C21.1962 20.9754 21.5124 20.4371 21.8268 19.9123L24.4798 21.0111C24.3314 21.6036 24.1743 22.2078 24.0124 22.8091C23.7833 23.6596 24.0826 24.5574 24.7748 25.0962C25.5699 25.7152 26.2865 26.4316 26.9049 27.2255C27.4431 27.9168 28.3402 28.2155 29.1911 27.9866C29.7923 27.8247 30.3962 27.6677 30.9882 27.5193L32.087 30.1722C31.5636 30.4859 31.0256 30.8019 30.4858 31.1127C29.7226 31.5521 29.2992 32.3978 29.4074 33.2674C29.5316 34.2655 29.5314 35.279 29.4068 36.2795C29.2986 37.1499 29.7218 37.9963 30.4851 38.4357C31.023 38.7454 31.5613 39.0615 32.087 39.3765L30.9884 42.0297Z" fill="#ED1C24"/>
<path d="M24.5539 31.7399C24.5539 31.7399 24.5539 31.7399 24.5538 31.7398C22.88 27.6987 18.2309 25.7728 14.1892 27.4467C10.1482 29.1206 8.22221 33.7701 9.89616 37.8112C10.7069 39.7689 12.2318 41.2935 14.1893 42.1045C15.1681 42.5098 16.1965 42.7125 17.2249 42.7125C18.2533 42.7125 19.2818 42.5098 20.2607 42.1045C24.3017 40.4305 26.2276 35.7811 24.5539 31.7399ZM19.3699 39.954C17.9868 40.5269 16.4635 40.5268 15.08 39.954C13.6969 39.3811 12.6197 38.3037 12.0466 36.9205C10.8637 34.0652 12.2247 30.7798 15.0801 29.5971C15.7794 29.3075 16.5041 29.1704 17.2177 29.1704C19.4183 29.1704 21.5102 30.4744 22.4035 32.6306C23.5862 35.4859 22.2252 38.7712 19.3699 39.954Z" fill="#ED1C24"/>
<path d="M50.4313 10.2513C50.0295 10.1912 49.6169 10.1328 49.2013 10.0773C48.9919 9.38092 48.7122 8.70573 48.3671 8.06447C48.6214 7.73185 48.872 7.39862 49.1143 7.07129C49.652 6.344 49.5742 5.31253 48.9335 4.67208L47.328 3.06678C46.6872 2.42592 45.6558 2.34823 44.9287 2.8862C44.6002 3.12924 44.2671 3.3798 43.9355 3.6332C43.2943 3.28809 42.6192 3.00838 41.9226 2.79886C41.8671 2.38327 41.8089 1.97062 41.7487 1.56894C41.615 0.674578 40.8307 0 39.9246 0H37.654C36.7479 0 35.9636 0.674578 35.8299 1.56884C35.7699 1.97031 35.7116 2.38306 35.656 2.79876C34.9594 3.00828 34.2842 3.28798 33.6431 3.63309C33.3117 3.37959 32.9784 3.12894 32.6501 2.8861C31.9228 2.34812 30.8913 2.42582 30.2508 3.06658L28.6455 4.67177C28.0046 5.31243 27.9267 6.344 28.4647 7.07139C28.7067 7.39862 28.9574 7.73195 29.2116 8.06447C28.8667 8.70563 28.5869 9.38072 28.3773 10.0773C27.9618 10.1329 27.5491 10.1912 27.1474 10.2513C26.2529 10.3852 25.5784 11.1693 25.5784 12.0756V14.346C25.5784 15.2521 26.2527 16.0364 27.1472 16.1703C27.549 16.2304 27.9616 16.2888 28.3772 16.3442C28.5868 17.0408 28.8665 17.7159 29.2115 18.3571C28.9575 18.6894 28.7068 19.0226 28.4643 19.3503C27.9266 20.0774 28.0043 21.1091 28.645 21.7494L30.2505 23.3549C30.8912 23.9958 31.9227 24.0734 32.6499 23.5355C32.9783 23.2926 33.3114 23.0419 33.6429 22.7886C34.2843 23.1337 34.9595 23.4134 35.6559 23.6228C35.7113 24.0383 35.7697 24.4511 35.8298 24.8529C35.9636 25.7472 36.7479 26.4218 37.654 26.4218H39.9246C40.8307 26.4218 41.615 25.7474 41.7487 24.8527C41.8088 24.451 41.8671 24.0383 41.9226 23.6227C42.6191 23.4134 43.2942 23.1335 43.9355 22.7884C44.2669 23.0419 44.6002 23.2925 44.9286 23.5355C45.6557 24.0735 46.6873 23.9958 47.3279 23.355L48.9334 21.7497C49.5741 21.1091 49.6519 20.0775 49.114 19.3502C48.8716 19.0226 48.621 18.6892 48.3671 18.3572C48.712 17.7161 48.9918 17.0411 49.2013 16.3444C49.6168 16.2888 50.0295 16.2305 50.4312 16.1704C51.3257 16.0365 52.0003 15.2524 52.0003 14.3461V12.0757C52.0002 11.1694 51.3257 10.3852 50.4313 10.2513ZM49.7889 14.03C49.4241 14.083 49.0519 14.1344 48.6785 14.183C47.9398 14.2794 47.3351 14.8036 47.1383 15.5184C46.9497 16.2029 46.6759 16.8633 46.3248 17.4814C45.9581 18.1267 46.0147 18.9252 46.469 19.5159C46.698 19.8137 46.9252 20.1134 47.1463 20.4096L45.9881 21.5679C45.691 21.3462 45.3913 21.1191 45.0941 20.8906C44.5036 20.4361 43.7049 20.3799 43.0596 20.7463C42.4414 21.0975 41.7809 21.3712 41.0969 21.5598C40.3817 21.7568 39.8574 22.3615 39.7614 23.1C39.7127 23.4734 39.6614 23.8458 39.6084 24.2106H37.9702C37.9173 23.8458 37.866 23.4735 37.8173 23.1004C37.7209 22.3616 37.1967 21.7569 36.4817 21.5599C35.7975 21.3714 35.1372 21.0977 34.5188 20.7465C33.8735 20.3798 33.0748 20.4362 32.4844 20.8906C32.1871 21.1192 31.8876 21.3462 31.5904 21.5679L30.4321 20.4096C30.6532 20.1131 30.8803 19.8136 31.1097 19.5155C31.5636 18.925 31.6202 18.1265 31.2536 17.4812C30.9025 16.8631 30.6288 16.2026 30.4402 15.5183C30.2432 14.8033 29.6386 14.2792 28.9 14.1828C28.5265 14.134 28.1542 14.0829 27.7894 14.0297V12.3917C28.1542 12.3388 28.5264 12.2874 28.8999 12.2388C29.6385 12.1424 30.2432 11.6181 30.4401 10.9033C30.6287 10.219 30.9023 9.55855 31.2535 8.94034C31.6202 8.29512 31.5637 7.49653 31.1096 6.90595C30.8801 6.60776 30.653 6.30815 30.4321 6.0122L31.5904 4.85388C31.8874 5.07559 32.187 5.30268 32.4841 5.53109C33.0744 5.98559 33.873 6.04226 34.5188 5.67552C35.1368 5.32441 35.7974 5.0507 36.4815 4.862C37.1967 4.66497 37.721 4.06027 37.8171 3.3218C37.8658 2.94836 37.9172 2.57613 37.9701 2.21132H39.6083C39.6612 2.57603 39.7125 2.94826 39.7612 3.3215C39.8575 4.06027 40.3818 4.66497 41.0967 4.8619C41.781 5.0505 42.4416 5.32431 43.0597 5.67541C43.7051 6.04216 44.5037 5.98518 45.094 5.5312C45.3913 5.30268 45.6908 5.07559 45.9881 4.85388L47.1463 6.0122C46.9254 6.30825 46.6983 6.60796 46.4689 6.90625C46.0148 7.49673 45.9583 8.29522 46.3247 8.94044C46.6758 9.55876 46.9496 10.2193 47.1382 10.9034C47.3351 11.6184 47.9397 12.1426 48.6784 12.239C49.0518 12.2877 49.4241 12.339 49.7889 12.392V14.03Z" fill="#ED1C24"/>
<path d="M38.789 8.49805C36.1905 8.49805 34.0764 10.6121 34.0764 13.2106C34.0764 15.8093 36.1904 17.9234 38.789 17.9234C41.3876 17.9234 43.5016 15.8093 43.5016 13.2106C43.5016 10.6121 41.3876 8.49805 38.789 8.49805ZM38.789 15.8284C37.3457 15.8284 36.1712 14.6541 36.1712 13.2105C36.1712 11.767 37.3456 10.5928 38.789 10.5928C40.2324 10.5928 41.4067 11.7671 41.4068 13.2105C41.4068 14.6541 40.2324 15.8284 38.789 15.8284Z" fill="#ED1C24"/>
</g>
<defs>
<clipPath id="clip0_1448_14142">
<rect width="52" height="52" fill="white"/>
</clipPath>
</defs>
</svg>
