<svg width="128" height="130" viewBox="0 0 128 130" fill="none" xmlns="http://www.w3.org/2000/svg">
<g clip-path="url(#clip0_883_12599)">
<path d="M36.7307 96.7614L31.768 99.6159C31.768 99.6159 31.0429 102.19 31.0374 102.196C30.1299 103.061 30.8219 102.21 31.7169 103.239C37.4862 109.869 46.2858 121.54 49.1035 125.307C50.0176 126.551 51.1317 127.634 52.4004 128.513C55.2484 130.441 57.7346 130.493 59.6393 128.668C62.4431 125.988 62.1544 119.997 58.9777 115.282L44.0966 93.1242C43.4474 92.1562 42.3453 91.9128 41.5455 92.5531C39.8936 93.8752 38.2887 95.278 36.7307 96.7614Z" fill="black"/>
<path d="M124.841 76.5275L125.094 76.3892C126.413 75.6433 127.383 74.4031 127.789 72.9413C128.196 71.4796 128.006 69.9161 127.261 68.5948L90.2322 2.90399C89.486 1.58355 88.2467 0.613823 86.7867 0.207969C85.3267 -0.197885 83.7656 -0.00664404 82.4463 0.739653L82.1922 0.877949C80.8725 1.62413 79.9028 2.86458 79.4964 4.32652C79.09 5.78845 79.2802 7.35215 80.0251 8.67372L117.055 74.3521C117.424 75.0068 117.917 75.5825 118.508 76.0462C119.099 76.5098 119.775 76.8525 120.498 77.0545C121.221 77.2565 121.977 77.3139 122.722 77.2235C123.467 77.1331 124.187 76.8966 124.841 76.5275Z" fill="black"/>
<path d="M46.3426 92.1677L110.715 78.5953C111.165 78.5006 111.587 78.3008 111.945 78.0123C112.304 77.7238 112.59 77.3547 112.78 76.9349C112.969 76.5152 113.057 76.0565 113.037 75.5963C113.016 75.136 112.887 74.6871 112.661 74.286L77.816 12.4827C77.5895 12.082 77.2718 11.7404 76.8888 11.4856C76.5058 11.2307 76.0682 11.0699 75.6115 11.016C75.1548 10.9621 74.6918 11.0167 74.2601 11.1755C73.8284 11.3342 73.4402 11.5925 73.1269 11.9296L28.2627 60.0982L46.3426 92.1677Z" fill="black"/>
<path d="M34.4142 102.9L43.9224 97.5248C45.2025 96.801 46.1431 95.5977 46.5374 94.1796C46.9316 92.7616 46.7471 91.2447 46.0246 89.9628L29.9833 61.5069C29.6257 60.8722 29.1466 60.3142 28.5735 59.8649C28.0004 59.4156 27.3445 59.0837 26.6433 58.8882C25.9421 58.6927 25.2093 58.6375 24.4868 58.7257C23.7642 58.8139 23.0661 59.0437 22.4323 59.4021L12.92 64.7776C12.2861 65.136 11.7289 65.6159 11.2803 66.1899C10.8317 66.7639 10.5004 67.4208 10.3053 68.123C10.1102 68.8252 10.0552 69.559 10.1434 70.2825C10.2315 71.006 10.4612 71.705 10.8192 72.3397L26.8632 100.796C27.2209 101.43 27.6999 101.988 28.273 102.438C28.8461 102.887 29.502 103.219 30.2032 103.414C30.9044 103.61 31.6372 103.665 32.3598 103.577C33.0823 103.489 33.7804 103.259 34.4142 102.9Z" fill="#ED1C24"/>
<path d="M19.9947 101.967L16.2927 104.06C15.1253 104.72 13.7437 104.888 12.4521 104.529C11.1604 104.169 10.0645 103.31 9.40529 102.141L0.648474 86.6117C-0.0107094 85.4428 -0.179117 84.0595 0.180303 82.7662C0.539722 81.4729 1.39753 80.3755 2.56501 79.7155L6.26701 77.6226C6.74548 77.3521 7.31168 77.283 7.84104 77.4305C8.3704 77.578 8.81957 77.93 9.08973 78.4091L20.7822 99.1441C21.0511 99.6231 21.1192 100.189 20.9715 100.719C20.8239 101.248 20.4726 101.697 19.9947 101.967Z" fill="black"/>
<path d="M75.2938 17.6643L79.8131 25.68L33.3398 59.7438L75.2938 17.6643Z" fill="white"/>
</g>
<defs>
<clipPath id="clip0_883_12599">
<rect width="128" height="130" fill="white"/>
</clipPath>
</defs>
</svg>
