<svg width="1254" height="310" viewBox="0 0 1254 310" fill="none" xmlns="http://www.w3.org/2000/svg">
<path fill-rule="evenodd" clip-rule="evenodd" d="M1254 89C1254 96.732 1247.73 103 1240 103C1237.55 103 1235.24 102.367 1233.23 101.255C1126.83 240.978 961.287 241.78 872.881 221.052C870.624 225.754 865.82 229 860.257 229C852.528 229 846.262 222.732 846.262 215C846.262 214.543 846.284 214.092 846.326 213.647C618.115 148.189 476.055 113.817 407.49 99.3045C405.321 104.229 400.4 107.667 394.675 107.667C387.028 107.667 380.813 101.531 380.682 93.9134C375.965 93.0317 372.002 92.3413 368.782 91.83L368.709 91.8184L368.637 91.8025C189.552 52.3888 65.5558 158.224 23.6291 218.844C26.3158 221.395 27.9911 225.002 27.9911 229C27.9911 236.732 21.7251 243 13.9955 243C6.26602 243 0 236.732 0 229C0 221.268 6.26602 215 13.9955 215C15.9293 215 17.7715 215.392 19.4469 216.102C62.0751 154.399 187.909 46.9433 369.639 86.9035C372.859 87.4157 376.803 88.103 381.484 88.9771C383.412 83.5514 388.59 79.6665 394.675 79.6665C402.405 79.6665 408.671 85.9345 408.671 93.6665C408.671 93.926 408.664 94.1839 408.65 94.4399C477.513 109.02 619.679 143.437 847.688 208.836C849.967 204.194 854.739 201 860.257 201C867.987 201 874.253 207.268 874.253 215C874.253 215.415 874.235 215.825 874.199 216.231C961.526 236.677 1124.68 235.685 1229.36 98.0887C1227.27 95.643 1226.01 92.4688 1226.01 89C1226.01 81.268 1232.27 75 1240 75C1247.73 75 1254 81.268 1254 89ZM869.253 215.03C869.253 215.02 869.253 215.01 869.253 215C869.253 210.028 865.224 206 860.257 206C857.018 206 854.178 207.713 852.594 210.284C857.724 211.935 863.293 213.53 869.253 215.03ZM851.262 215.107C851.32 220.03 855.327 224 860.257 224C863.448 224 866.253 222.337 867.85 219.829C861.921 218.335 856.376 216.748 851.262 215.107ZM403.667 93.3926C403.522 88.5474 399.55 84.6665 394.675 84.6665C391.041 84.6665 387.908 86.8235 386.49 89.9291C391.514 90.9006 397.236 92.0516 403.667 93.3926ZM385.761 94.8803C386.353 99.278 390.12 102.667 394.675 102.667C397.973 102.667 400.858 100.89 402.424 98.2406C396.199 96.9434 390.649 95.8267 385.761 94.8803ZM13.9955 238C18.9621 238 22.9911 233.972 22.9911 229C22.9911 224.028 18.9621 220 13.9955 220C9.02894 220 5 224.028 5 229C5 233.972 9.02894 238 13.9955 238Z" fill="#ED1C24"/>
<ellipse cx="860.26" cy="215" rx="9.33036" ry="9.33333" fill="#FFE8E9"/>
<ellipse cx="394.674" cy="93.6668" rx="9.33036" ry="9.33333" fill="#FFE8E9"/>
<path d="M7.936 262.552H12.4V277H15.136V262.552H19.576V260.32H7.936V262.552ZM25.0829 270.04C25.0829 267.232 26.3309 266.392 28.3469 266.392H29.0429V263.56C27.1709 263.56 25.8509 264.376 25.0829 265.696V263.776H22.3469V277H25.0829V270.04ZM30.6458 270.328C30.6458 274.408 33.4058 277.216 36.8378 277.216C39.0458 277.216 40.6298 276.16 41.4698 275.032V277H44.2298V263.776H41.4698V265.696C40.6538 264.616 39.1178 263.56 36.8858 263.56C33.4058 263.56 30.6458 266.248 30.6458 270.328ZM41.4698 270.376C41.4698 273.232 39.5258 274.84 37.4618 274.84C35.4218 274.84 33.4538 273.184 33.4538 270.328C33.4538 267.472 35.4218 265.936 37.4618 265.936C39.5258 265.936 41.4698 267.544 41.4698 270.376ZM46.9114 270.328C46.9114 274.408 49.6714 277.216 53.1514 277.216C55.3114 277.216 56.8954 276.208 57.7354 275.008V277H60.4954V259.24H57.7354V265.624C56.7274 264.376 54.9034 263.56 53.1754 263.56C49.6714 263.56 46.9114 266.248 46.9114 270.328ZM57.7354 270.376C57.7354 273.232 55.7914 274.84 53.7274 274.84C51.6874 274.84 49.7194 273.184 49.7194 270.328C49.7194 267.472 51.6874 265.936 53.7274 265.936C55.7914 265.936 57.7354 267.544 57.7354 270.376ZM69.6571 265.864C71.6971 265.864 73.3051 267.16 73.3531 269.2H66.0331C66.3211 267.112 67.8091 265.864 69.6571 265.864ZM75.8491 273.064H72.8971C72.3931 274.096 71.4571 274.912 69.7771 274.912C67.7611 274.912 66.2011 273.592 66.0091 271.408H76.1131C76.1851 270.952 76.2091 270.52 76.2091 270.064C76.2091 266.176 73.5451 263.56 69.7771 263.56C65.8651 263.56 63.1771 266.224 63.1771 270.376C63.1771 274.528 65.9851 277.216 69.7771 277.216C73.0171 277.216 75.1051 275.368 75.8491 273.064ZM85.5679 273.328C85.5679 276.016 87.0319 277 89.3839 277H91.5439V274.72H89.8639C88.7119 274.72 88.3279 274.312 88.3279 273.328V266.008H91.5439V263.776H88.3279V260.488H85.5679V263.776H84.0079V266.008H85.5679V273.328ZM106.666 270.376C106.666 266.224 103.69 263.56 99.9216 263.56C96.1536 263.56 93.1776 266.224 93.1776 270.376C93.1776 274.528 96.0336 277.216 99.8016 277.216C103.594 277.216 106.666 274.528 106.666 270.376ZM95.9616 270.376C95.9616 267.376 97.8096 265.936 99.8736 265.936C101.914 265.936 103.858 267.376 103.858 270.376C103.858 273.376 101.842 274.84 99.8016 274.84C97.7376 274.84 95.9616 273.376 95.9616 270.376ZM108.458 270.328C108.458 274.408 111.218 277.216 114.698 277.216C116.858 277.216 118.442 276.136 119.282 275.008V277.216C119.282 279.856 117.698 281.152 115.586 281.152C113.69 281.152 112.226 280.216 111.818 278.848H109.106C109.442 281.776 112.058 283.528 115.586 283.528C119.714 283.528 122.042 280.816 122.042 277.216V263.776H119.282V265.696C118.466 264.568 116.858 263.56 114.698 263.56C111.218 263.56 108.458 266.248 108.458 270.328ZM119.282 270.376C119.282 273.232 117.338 274.84 115.274 274.84C113.234 274.84 111.266 273.184 111.266 270.328C111.266 267.472 113.234 265.936 115.274 265.936C117.338 265.936 119.282 267.544 119.282 270.376ZM131.204 265.864C133.244 265.864 134.852 267.16 134.9 269.2H127.58C127.868 267.112 129.356 265.864 131.204 265.864ZM137.396 273.064H134.444C133.94 274.096 133.004 274.912 131.324 274.912C129.308 274.912 127.748 273.592 127.556 271.408H137.66C137.732 270.952 137.756 270.52 137.756 270.064C137.756 266.176 135.092 263.56 131.324 263.56C127.412 263.56 124.724 266.224 124.724 270.376C124.724 274.528 127.532 277.216 131.324 277.216C134.564 277.216 136.652 275.368 137.396 273.064ZM140.88 273.328C140.88 276.016 142.344 277 144.696 277H146.856V274.72H145.176C144.024 274.72 143.64 274.312 143.64 273.328V266.008H146.856V263.776H143.64V260.488H140.88V263.776H139.32V266.008H140.88V273.328ZM149.378 277H152.114V269.608C152.114 267.184 153.434 265.936 155.45 265.936C157.442 265.936 158.762 267.184 158.762 269.608V277H161.474V269.2C161.474 265.504 159.17 263.56 156.218 263.56C154.514 263.56 153.026 264.208 152.114 265.312V259.24H149.378V277ZM170.532 265.864C172.572 265.864 174.18 267.16 174.228 269.2H166.908C167.196 267.112 168.684 265.864 170.532 265.864ZM176.724 273.064H173.772C173.268 274.096 172.332 274.912 170.652 274.912C168.636 274.912 167.076 273.592 166.884 271.408H176.988C177.06 270.952 177.084 270.52 177.084 270.064C177.084 266.176 174.42 263.56 170.652 263.56C166.74 263.56 164.052 266.224 164.052 270.376C164.052 274.528 166.86 277.216 170.652 277.216C173.892 277.216 175.98 275.368 176.724 273.064ZM182.513 270.04C182.513 267.232 183.761 266.392 185.777 266.392H186.473V263.56C184.601 263.56 183.281 264.376 182.513 265.696V263.776H179.777V277H182.513V270.04Z" fill="#151515"/>
<path d="M304.936 19.552H309.4V34H312.136V19.552H316.576V17.32H304.936V19.552ZM322.083 27.04C322.083 24.232 323.331 23.392 325.347 23.392H326.043V20.56C324.171 20.56 322.851 21.376 322.083 22.696V20.776H319.347V34H322.083V27.04ZM327.646 27.328C327.646 31.408 330.406 34.216 333.838 34.216C336.046 34.216 337.63 33.16 338.47 32.032V34H341.23V20.776H338.47V22.696C337.654 21.616 336.118 20.56 333.886 20.56C330.406 20.56 327.646 23.248 327.646 27.328ZM338.47 27.376C338.47 30.232 336.526 31.84 334.462 31.84C332.422 31.84 330.454 30.184 330.454 27.328C330.454 24.472 332.422 22.936 334.462 22.936C336.526 22.936 338.47 24.544 338.47 27.376ZM343.911 27.328C343.911 31.408 346.671 34.216 350.151 34.216C352.311 34.216 353.895 33.208 354.735 32.008V34H357.495V16.24H354.735V22.624C353.727 21.376 351.903 20.56 350.175 20.56C346.671 20.56 343.911 23.248 343.911 27.328ZM354.735 27.376C354.735 30.232 352.791 31.84 350.727 31.84C348.687 31.84 346.719 30.184 346.719 27.328C346.719 24.472 348.687 22.936 350.727 22.936C352.791 22.936 354.735 24.544 354.735 27.376ZM366.657 22.864C368.697 22.864 370.305 24.16 370.353 26.2H363.033C363.321 24.112 364.809 22.864 366.657 22.864ZM372.849 30.064H369.897C369.393 31.096 368.457 31.912 366.777 31.912C364.761 31.912 363.201 30.592 363.009 28.408H373.113C373.185 27.952 373.209 27.52 373.209 27.064C373.209 23.176 370.545 20.56 366.777 20.56C362.865 20.56 360.177 23.224 360.177 27.376C360.177 31.528 362.985 34.216 366.777 34.216C370.017 34.216 372.105 32.368 372.849 30.064ZM382.568 30.328C382.568 33.016 384.032 34 386.384 34H388.544V31.72H386.864C385.712 31.72 385.328 31.312 385.328 30.328V23.008H388.544V20.776H385.328V17.488H382.568V20.776H381.008V23.008H382.568V30.328ZM403.666 27.376C403.666 23.224 400.69 20.56 396.922 20.56C393.154 20.56 390.178 23.224 390.178 27.376C390.178 31.528 393.034 34.216 396.802 34.216C400.594 34.216 403.666 31.528 403.666 27.376ZM392.962 27.376C392.962 24.376 394.81 22.936 396.874 22.936C398.914 22.936 400.858 24.376 400.858 27.376C400.858 30.376 398.842 31.84 396.802 31.84C394.738 31.84 392.962 30.376 392.962 27.376ZM405.458 27.328C405.458 31.408 408.218 34.216 411.698 34.216C413.858 34.216 415.442 33.136 416.282 32.008V34.216C416.282 36.856 414.698 38.152 412.586 38.152C410.69 38.152 409.226 37.216 408.818 35.848H406.106C406.442 38.776 409.058 40.528 412.586 40.528C416.714 40.528 419.042 37.816 419.042 34.216V20.776H416.282V22.696C415.466 21.568 413.858 20.56 411.698 20.56C408.218 20.56 405.458 23.248 405.458 27.328ZM416.282 27.376C416.282 30.232 414.338 31.84 412.274 31.84C410.234 31.84 408.266 30.184 408.266 27.328C408.266 24.472 410.234 22.936 412.274 22.936C414.338 22.936 416.282 24.544 416.282 27.376ZM428.204 22.864C430.244 22.864 431.852 24.16 431.9 26.2H424.58C424.868 24.112 426.356 22.864 428.204 22.864ZM434.396 30.064H431.444C430.94 31.096 430.004 31.912 428.324 31.912C426.308 31.912 424.748 30.592 424.556 28.408H434.66C434.732 27.952 434.756 27.52 434.756 27.064C434.756 23.176 432.092 20.56 428.324 20.56C424.412 20.56 421.724 23.224 421.724 27.376C421.724 31.528 424.532 34.216 428.324 34.216C431.564 34.216 433.652 32.368 434.396 30.064ZM437.88 30.328C437.88 33.016 439.344 34 441.696 34H443.856V31.72H442.176C441.024 31.72 440.64 31.312 440.64 30.328V23.008H443.856V20.776H440.64V17.488H437.88V20.776H436.32V23.008H437.88V30.328ZM446.378 34H449.114V26.608C449.114 24.184 450.434 22.936 452.45 22.936C454.442 22.936 455.762 24.184 455.762 26.608V34H458.474V26.2C458.474 22.504 456.17 20.56 453.218 20.56C451.514 20.56 450.026 21.208 449.114 22.312V16.24H446.378V34ZM467.532 22.864C469.572 22.864 471.18 24.16 471.228 26.2H463.908C464.196 24.112 465.684 22.864 467.532 22.864ZM473.724 30.064H470.772C470.268 31.096 469.332 31.912 467.652 31.912C465.636 31.912 464.076 30.592 463.884 28.408H473.988C474.06 27.952 474.084 27.52 474.084 27.064C474.084 23.176 471.42 20.56 467.652 20.56C463.74 20.56 461.052 23.224 461.052 27.376C461.052 31.528 463.86 34.216 467.652 34.216C470.892 34.216 472.98 32.368 473.724 30.064ZM479.513 27.04C479.513 24.232 480.761 23.392 482.777 23.392H483.473V20.56C481.601 20.56 480.281 21.376 479.513 22.696V20.776H476.777V34H479.513V27.04Z" fill="#151515"/>
<path d="M773.936 285.552H778.4V300H781.136V285.552H785.576V283.32H773.936V285.552ZM791.083 293.04C791.083 290.232 792.331 289.392 794.347 289.392H795.043V286.56C793.171 286.56 791.851 287.376 791.083 288.696V286.776H788.347V300H791.083V293.04ZM796.646 293.328C796.646 297.408 799.406 300.216 802.838 300.216C805.046 300.216 806.63 299.16 807.47 298.032V300H810.23V286.776H807.47V288.696C806.654 287.616 805.118 286.56 802.886 286.56C799.406 286.56 796.646 289.248 796.646 293.328ZM807.47 293.376C807.47 296.232 805.526 297.84 803.462 297.84C801.422 297.84 799.454 296.184 799.454 293.328C799.454 290.472 801.422 288.936 803.462 288.936C805.526 288.936 807.47 290.544 807.47 293.376ZM812.911 293.328C812.911 297.408 815.671 300.216 819.151 300.216C821.311 300.216 822.895 299.208 823.735 298.008V300H826.495V282.24H823.735V288.624C822.727 287.376 820.903 286.56 819.175 286.56C815.671 286.56 812.911 289.248 812.911 293.328ZM823.735 293.376C823.735 296.232 821.791 297.84 819.727 297.84C817.687 297.84 815.719 296.184 815.719 293.328C815.719 290.472 817.687 288.936 819.727 288.936C821.791 288.936 823.735 290.544 823.735 293.376ZM835.657 288.864C837.697 288.864 839.305 290.16 839.353 292.2H832.033C832.321 290.112 833.809 288.864 835.657 288.864ZM841.849 296.064H838.897C838.393 297.096 837.457 297.912 835.777 297.912C833.761 297.912 832.201 296.592 832.009 294.408H842.113C842.185 293.952 842.209 293.52 842.209 293.064C842.209 289.176 839.545 286.56 835.777 286.56C831.865 286.56 829.177 289.224 829.177 293.376C829.177 297.528 831.985 300.216 835.777 300.216C839.017 300.216 841.105 298.368 841.849 296.064ZM851.568 296.328C851.568 299.016 853.032 300 855.384 300H857.544V297.72H855.864C854.712 297.72 854.328 297.312 854.328 296.328V289.008H857.544V286.776H854.328V283.488H851.568V286.776H850.008V289.008H851.568V296.328ZM872.666 293.376C872.666 289.224 869.69 286.56 865.922 286.56C862.154 286.56 859.178 289.224 859.178 293.376C859.178 297.528 862.034 300.216 865.802 300.216C869.594 300.216 872.666 297.528 872.666 293.376ZM861.962 293.376C861.962 290.376 863.81 288.936 865.874 288.936C867.914 288.936 869.858 290.376 869.858 293.376C869.858 296.376 867.842 297.84 865.802 297.84C863.738 297.84 861.962 296.376 861.962 293.376ZM874.458 293.328C874.458 297.408 877.218 300.216 880.698 300.216C882.858 300.216 884.442 299.136 885.282 298.008V300.216C885.282 302.856 883.698 304.152 881.586 304.152C879.69 304.152 878.226 303.216 877.818 301.848H875.106C875.442 304.776 878.058 306.528 881.586 306.528C885.714 306.528 888.042 303.816 888.042 300.216V286.776H885.282V288.696C884.466 287.568 882.858 286.56 880.698 286.56C877.218 286.56 874.458 289.248 874.458 293.328ZM885.282 293.376C885.282 296.232 883.338 297.84 881.274 297.84C879.234 297.84 877.266 296.184 877.266 293.328C877.266 290.472 879.234 288.936 881.274 288.936C883.338 288.936 885.282 290.544 885.282 293.376ZM897.204 288.864C899.244 288.864 900.852 290.16 900.9 292.2H893.58C893.868 290.112 895.356 288.864 897.204 288.864ZM903.396 296.064H900.444C899.94 297.096 899.004 297.912 897.324 297.912C895.308 297.912 893.748 296.592 893.556 294.408H903.66C903.732 293.952 903.756 293.52 903.756 293.064C903.756 289.176 901.092 286.56 897.324 286.56C893.412 286.56 890.724 289.224 890.724 293.376C890.724 297.528 893.532 300.216 897.324 300.216C900.564 300.216 902.652 298.368 903.396 296.064ZM906.88 296.328C906.88 299.016 908.344 300 910.696 300H912.856V297.72H911.176C910.024 297.72 909.64 297.312 909.64 296.328V289.008H912.856V286.776H909.64V283.488H906.88V286.776H905.32V289.008H906.88V296.328ZM915.378 300H918.114V292.608C918.114 290.184 919.434 288.936 921.45 288.936C923.442 288.936 924.762 290.184 924.762 292.608V300H927.474V292.2C927.474 288.504 925.17 286.56 922.218 286.56C920.514 286.56 919.026 287.208 918.114 288.312V282.24H915.378V300ZM936.532 288.864C938.572 288.864 940.18 290.16 940.228 292.2H932.908C933.196 290.112 934.684 288.864 936.532 288.864ZM942.724 296.064H939.772C939.268 297.096 938.332 297.912 936.652 297.912C934.636 297.912 933.076 296.592 932.884 294.408H942.988C943.06 293.952 943.084 293.52 943.084 293.064C943.084 289.176 940.42 286.56 936.652 286.56C932.74 286.56 930.052 289.224 930.052 293.376C930.052 297.528 932.86 300.216 936.652 300.216C939.892 300.216 941.98 298.368 942.724 296.064ZM948.513 293.04C948.513 290.232 949.761 289.392 951.777 289.392H952.473V286.56C950.601 286.56 949.281 287.376 948.513 288.696V286.776H945.777V300H948.513V293.04Z" fill="#151515"/>
<path d="M1062.94 11.552H1067.4V26H1070.14V11.552H1074.58V9.32H1062.94V11.552ZM1080.08 19.04C1080.08 16.232 1081.33 15.392 1083.35 15.392H1084.04V12.56C1082.17 12.56 1080.85 13.376 1080.08 14.696V12.776H1077.35V26H1080.08V19.04ZM1085.65 19.328C1085.65 23.408 1088.41 26.216 1091.84 26.216C1094.05 26.216 1095.63 25.16 1096.47 24.032V26H1099.23V12.776H1096.47V14.696C1095.65 13.616 1094.12 12.56 1091.89 12.56C1088.41 12.56 1085.65 15.248 1085.65 19.328ZM1096.47 19.376C1096.47 22.232 1094.53 23.84 1092.46 23.84C1090.42 23.84 1088.45 22.184 1088.45 19.328C1088.45 16.472 1090.42 14.936 1092.46 14.936C1094.53 14.936 1096.47 16.544 1096.47 19.376ZM1101.91 19.328C1101.91 23.408 1104.67 26.216 1108.15 26.216C1110.31 26.216 1111.9 25.208 1112.74 24.008V26H1115.5V8.24H1112.74V14.624C1111.73 13.376 1109.9 12.56 1108.18 12.56C1104.67 12.56 1101.91 15.248 1101.91 19.328ZM1112.74 19.376C1112.74 22.232 1110.79 23.84 1108.73 23.84C1106.69 23.84 1104.72 22.184 1104.72 19.328C1104.72 16.472 1106.69 14.936 1108.73 14.936C1110.79 14.936 1112.74 16.544 1112.74 19.376ZM1124.66 14.864C1126.7 14.864 1128.31 16.16 1128.35 18.2H1121.03C1121.32 16.112 1122.81 14.864 1124.66 14.864ZM1130.85 22.064H1127.9C1127.39 23.096 1126.46 23.912 1124.78 23.912C1122.76 23.912 1121.2 22.592 1121.01 20.408H1131.11C1131.19 19.952 1131.21 19.52 1131.21 19.064C1131.21 15.176 1128.55 12.56 1124.78 12.56C1120.87 12.56 1118.18 15.224 1118.18 19.376C1118.18 23.528 1120.99 26.216 1124.78 26.216C1128.02 26.216 1130.11 24.368 1130.85 22.064ZM1140.57 22.328C1140.57 25.016 1142.03 26 1144.38 26H1146.54V23.72H1144.86C1143.71 23.72 1143.33 23.312 1143.33 22.328V15.008H1146.54V12.776H1143.33V9.488H1140.57V12.776H1139.01V15.008H1140.57V22.328ZM1161.67 19.376C1161.67 15.224 1158.69 12.56 1154.92 12.56C1151.15 12.56 1148.18 15.224 1148.18 19.376C1148.18 23.528 1151.03 26.216 1154.8 26.216C1158.59 26.216 1161.67 23.528 1161.67 19.376ZM1150.96 19.376C1150.96 16.376 1152.81 14.936 1154.87 14.936C1156.91 14.936 1158.86 16.376 1158.86 19.376C1158.86 22.376 1156.84 23.84 1154.8 23.84C1152.74 23.84 1150.96 22.376 1150.96 19.376ZM1163.46 19.328C1163.46 23.408 1166.22 26.216 1169.7 26.216C1171.86 26.216 1173.44 25.136 1174.28 24.008V26.216C1174.28 28.856 1172.7 30.152 1170.59 30.152C1168.69 30.152 1167.23 29.216 1166.82 27.848H1164.11C1164.44 30.776 1167.06 32.528 1170.59 32.528C1174.71 32.528 1177.04 29.816 1177.04 26.216V12.776H1174.28V14.696C1173.47 13.568 1171.86 12.56 1169.7 12.56C1166.22 12.56 1163.46 15.248 1163.46 19.328ZM1174.28 19.376C1174.28 22.232 1172.34 23.84 1170.27 23.84C1168.23 23.84 1166.27 22.184 1166.27 19.328C1166.27 16.472 1168.23 14.936 1170.27 14.936C1172.34 14.936 1174.28 16.544 1174.28 19.376ZM1186.2 14.864C1188.24 14.864 1189.85 16.16 1189.9 18.2H1182.58C1182.87 16.112 1184.36 14.864 1186.2 14.864ZM1192.4 22.064H1189.44C1188.94 23.096 1188 23.912 1186.32 23.912C1184.31 23.912 1182.75 22.592 1182.56 20.408H1192.66C1192.73 19.952 1192.76 19.52 1192.76 19.064C1192.76 15.176 1190.09 12.56 1186.32 12.56C1182.41 12.56 1179.72 15.224 1179.72 19.376C1179.72 23.528 1182.53 26.216 1186.32 26.216C1189.56 26.216 1191.65 24.368 1192.4 22.064ZM1195.88 22.328C1195.88 25.016 1197.34 26 1199.7 26H1201.86V23.72H1200.18C1199.02 23.72 1198.64 23.312 1198.64 22.328V15.008H1201.86V12.776H1198.64V9.488H1195.88V12.776H1194.32V15.008H1195.88V22.328ZM1204.38 26H1207.11V18.608C1207.11 16.184 1208.43 14.936 1210.45 14.936C1212.44 14.936 1213.76 16.184 1213.76 18.608V26H1216.47V18.2C1216.47 14.504 1214.17 12.56 1211.22 12.56C1209.51 12.56 1208.03 13.208 1207.11 14.312V8.24H1204.38V26ZM1225.53 14.864C1227.57 14.864 1229.18 16.16 1229.23 18.2H1221.91C1222.2 16.112 1223.68 14.864 1225.53 14.864ZM1231.72 22.064H1228.77C1228.27 23.096 1227.33 23.912 1225.65 23.912C1223.64 23.912 1222.08 22.592 1221.88 20.408H1231.99C1232.06 19.952 1232.08 19.52 1232.08 19.064C1232.08 15.176 1229.42 12.56 1225.65 12.56C1221.74 12.56 1219.05 15.224 1219.05 19.376C1219.05 23.528 1221.86 26.216 1225.65 26.216C1228.89 26.216 1230.98 24.368 1231.72 22.064ZM1237.51 19.04C1237.51 16.232 1238.76 15.392 1240.78 15.392H1241.47V12.56C1239.6 12.56 1238.28 13.376 1237.51 14.696V12.776H1234.78V26H1237.51V19.04Z" fill="#151515"/>
</svg>
