<svg width="52" height="52" viewBox="0 0 52 52" fill="none" xmlns="http://www.w3.org/2000/svg">
<g clip-path="url(#clip0_1448_14092)">
<path d="M44.3407 23.778V10.6632C44.3407 7.54626 41.7882 4.97178 38.671 4.97178H37.9649V4.08275C37.9649 1.85882 36.162 0.055928 33.9381 0.055928C31.7141 0.055928 29.9112 1.85882 29.9112 4.08275V4.97178H15.1462V4.08275C15.1462 1.82795 13.3183 0 11.0635 0C8.80869 0 6.98074 1.82795 6.98074 4.08275V4.97178H6.37056C3.25347 4.97178 0.716797 7.54626 0.716797 10.6632V40.7776C0.716797 43.8947 3.25347 46.4704 6.37056 46.4704H24.1103C27.035 49.9688 31.358 51.9933 35.9179 52C44.3854 52 51.283 45.101 51.283 36.6333C51.2832 31.2664 48.4794 26.5245 44.3407 23.778ZM32.1484 4.08275C32.1311 3.10848 32.9069 2.30468 33.8811 2.28746C33.8968 2.28723 33.9124 2.28712 33.9281 2.28723C34.9115 2.27683 35.7174 3.06564 35.7278 4.04919C35.7279 4.06038 35.7279 4.07156 35.7278 4.08275V8.43932H32.1484V4.08275ZM9.21786 4.08275C9.22849 3.0804 10.0497 2.2765 11.0521 2.28712C11.0539 2.28712 11.0555 2.28712 11.0572 2.28723C12.0633 2.28723 12.9091 3.07683 12.9091 4.08275V8.43932H9.21786V4.08275ZM2.95392 10.6632C2.95392 8.7797 4.48702 7.2089 6.37056 7.2089H6.98074V9.60441C6.98074 10.2221 7.49662 10.6764 8.1144 10.6764H14.0003C14.6179 10.6764 15.1462 10.2221 15.1462 9.60441V7.2089H29.9112V9.60441C29.8947 10.1799 30.3478 10.6599 30.9233 10.6764C30.9439 10.677 30.9645 10.677 30.9851 10.6764H36.8709C37.4554 10.6959 37.945 10.2379 37.9644 9.65341C37.965 9.63707 37.9651 9.62074 37.9649 9.60441V7.2089H38.671C40.5673 7.22803 42.0964 8.76695 42.1036 10.6632V14.2558H2.95392V10.6632ZM6.37056 44.2333C4.48702 44.2333 2.95392 42.6611 2.95392 40.7776V16.493H42.1036V22.5616C40.1565 21.7067 38.0529 21.2657 35.9264 21.2665C27.4589 21.2665 20.5655 28.1755 20.5655 36.6433C20.5613 39.3035 21.2489 41.9191 22.561 44.2333H6.37056ZM35.9179 49.743C28.6721 49.743 22.7982 43.8691 22.7982 36.6233C22.7982 29.3774 28.6721 23.5035 35.9179 23.5035C43.1637 23.5035 49.0376 29.3774 49.0376 36.6233V36.6234C49.0295 43.8657 43.1604 49.7348 35.9179 49.743Z" fill="#ED1C24"/>
<path d="M41.1873 36.6273H36.2869V29.8969C36.2869 29.2791 35.7861 28.7783 35.1684 28.7783C34.5506 28.7783 34.0498 29.2791 34.0498 29.8969V37.7447C34.0596 38.3667 34.5673 38.8655 35.1894 38.8644H41.1873C41.8051 38.8644 42.3059 38.3636 42.3059 37.7458C42.3059 37.128 41.8051 36.6273 41.1873 36.6273Z" fill="#ED1C24"/>
</g>
<defs>
<clipPath id="clip0_1448_14092">
<rect width="52" height="52" fill="white"/>
</clipPath>
</defs>
</svg>
