<svg width="52" height="52" viewBox="0 0 52 52" fill="none" xmlns="http://www.w3.org/2000/svg">
<g clip-path="url(#clip0_1448_14134)">
<path d="M0.00136239 37.4404C0.0281722 38.0735 0.444232 38.624 1.04613 38.8225L10.1678 41.8317L13.177 50.9533C13.3755 51.5552 13.9259 51.9712 14.5591 51.9981C15.2027 52.0246 15.7797 51.6482 16.0247 51.074L25.7737 28.2247C26.3112 26.9647 25.0347 25.6884 23.7748 26.2257L0.925489 35.9748C0.34268 36.2236 -0.0253459 36.8072 0.00136239 37.4404Z" fill="#ED1C24"/>
<path d="M25.9974 39.1026C33.2209 39.1026 39.0977 33.2258 39.0977 26.0023C39.0977 18.7788 33.2209 12.902 25.9974 12.902C18.7739 12.902 12.8972 18.7788 12.8972 26.0023C12.8972 26.8436 12.2151 27.5256 11.3739 27.5256C10.5326 27.5256 9.85059 26.8436 9.85059 26.0023C9.85059 17.0989 17.094 9.85547 25.9974 9.85547C34.9008 9.85547 42.1442 17.0989 42.1442 26.0023C42.1442 34.9057 34.9008 42.1491 25.9974 42.1491C25.1562 42.1491 24.4741 41.4671 24.4741 40.6258C24.4741 39.7846 25.1562 39.1026 25.9974 39.1026Z" fill="#ED1C24"/>
<path d="M25.9974 48.9524C38.6526 48.9524 48.9483 38.6567 48.9483 26.0016C48.9483 13.3464 38.6526 3.05072 25.9974 3.05072C13.3423 3.05072 3.04657 13.3464 3.04657 26.0016C3.04657 26.8428 2.36455 27.5248 1.52329 27.5248C0.682026 27.5248 0 26.8428 0 26.0016C0 19.0845 2.71165 12.5634 7.63552 7.63967C17.8212 -2.54613 34.1701 -2.54959 44.3593 7.63967C54.5451 17.8254 54.5486 34.1743 44.3593 44.3634C39.4355 49.2873 32.9144 51.999 25.9974 51.999C25.1562 51.999 24.4741 51.3169 24.4741 50.4757C24.4741 49.6344 25.1562 48.9524 25.9974 48.9524Z" fill="#ED1C24"/>
</g>
<defs>
<clipPath id="clip0_1448_14134">
<rect width="52" height="52" fill="white"/>
</clipPath>
</defs>
</svg>
