<svg width="42" height="43" viewBox="0 0 42 43" fill="none" xmlns="http://www.w3.org/2000/svg">
<path d="M35.4375 0.00439453L6.5625 0.00439453C2.93813 0.00439453 0 2.94253 0 6.56689L0 35.4419C0 39.0663 2.93813 42.0044 6.5625 42.0044H35.4375C39.0619 42.0044 42 39.0663 42 35.4419V6.56689C42 2.94253 39.0619 0.00439453 35.4375 0.00439453Z" fill="#0078D7"/>
<path d="M21.0004 27.3044C17.4566 27.3044 15.8816 25.4669 15.8816 24.1544C15.8816 23.8919 16.0129 23.4981 16.2754 23.3669C16.5379 23.1044 16.8004 23.1044 17.0629 23.1044C18.5066 23.1044 18.1129 25.3356 21.0004 25.3356C22.4441 25.3356 23.2317 24.4169 23.2317 23.6294C23.2317 23.1044 22.9691 22.5794 22.0504 22.3169L18.9004 21.5294C16.4067 20.8731 16.0129 19.4294 16.0129 18.2481C16.0129 15.4919 18.5067 14.5731 20.8692 14.5731C22.9692 14.5731 25.5941 15.7544 25.5941 17.3294C25.5941 17.9856 25.0691 18.3794 24.2816 18.3794C22.9691 18.3794 23.2317 16.5419 20.6067 16.5419C19.2942 16.5419 18.6379 17.1981 18.6379 17.9856C18.6379 18.7731 19.6879 19.1669 20.4754 19.2981L22.8379 19.8231C25.3317 20.3481 25.9879 21.9231 25.9879 23.2356C25.9879 25.7294 24.2816 27.3044 21.0004 27.3044ZM30.7129 22.7106C30.8442 22.1856 30.8441 21.5294 30.8441 21.0044C30.8441 18.1169 29.5316 15.3606 27.3004 13.3919C25.0691 11.4231 22.0504 10.7669 19.1629 11.1606C18.3754 10.7669 17.3254 10.5044 16.2754 10.5044C14.1754 10.5044 12.2066 11.6856 11.1566 13.5231C10.1066 15.3606 10.1066 17.5919 11.1566 19.4294C10.6316 22.5794 11.5504 25.8606 13.9129 28.2231C16.1441 30.4544 19.4254 31.5044 22.5754 30.9794C23.4942 31.5044 24.4129 31.7669 25.4629 31.7669C27.5629 31.7669 29.5316 30.5856 30.5816 28.7481C31.6316 26.7794 31.7629 24.5481 30.7129 22.7106Z" fill="white"/>
</svg>
