<svg width="52" height="52" viewBox="0 0 52 52" fill="none" xmlns="http://www.w3.org/2000/svg">
<path d="M9.14578 40.2136C8.41779 40.2136 7.71796 40.3953 7.09708 40.7365C3.82645 36.5439 2.03125 31.3356 2.03125 26C2.03125 12.7834 12.7834 2.03125 26 2.03125C27.6068 2.03125 29.2127 2.19113 30.7734 2.50653C31.3225 2.61761 31.8589 2.26215 31.97 1.71228C32.0811 1.16241 31.7256 0.626831 31.1757 0.51535C29.4829 0.17337 27.7416 0 26 0C19.0553 0 12.5259 2.7045 7.6152 7.6152C2.7045 12.5259 0 19.0553 0 26C0 31.8418 1.98364 37.5428 5.59506 42.1131C5.1301 42.8078 4.88016 43.6243 4.88016 44.4792C4.88016 45.6186 5.3241 46.6898 6.12985 47.4951C6.93521 48.3009 8.00638 48.7448 9.14578 48.7448C10.2852 48.7448 11.3564 48.3009 12.1621 47.4951C12.9679 46.6898 13.4114 45.6182 13.4114 44.4788C13.4114 43.3398 12.9679 42.2682 12.1621 41.4629C11.3564 40.6571 10.2852 40.2136 9.14578 40.2136ZM10.7256 46.059C10.3038 46.4811 9.74246 46.7136 9.14578 46.7136C8.5491 46.7136 7.98813 46.4811 7.56601 46.059C7.14389 45.6369 6.91141 45.0759 6.91141 44.4792C6.91141 43.8821 7.14389 43.3212 7.56601 42.899C7.98773 42.4769 8.5491 42.2448 9.14578 42.2448C9.74246 42.2448 10.3034 42.4773 10.7256 42.899C11.1477 43.3212 11.3802 43.8821 11.3802 44.4792C11.3802 45.0759 11.1477 45.6369 10.7256 46.059Z" fill="#ED1C24"/>
<path d="M46.4043 9.88541C47.5084 8.22906 47.3311 5.96454 45.8707 4.50418C45.065 3.69882 43.9938 3.25488 42.8544 3.25488C41.715 3.25488 40.6438 3.69882 39.8381 4.50418C39.0323 5.30994 38.5888 6.3811 38.5888 7.52051C38.5888 8.65991 39.0323 9.73108 39.8381 10.5368C40.6438 11.3426 41.715 11.7861 42.8544 11.7861C43.5824 11.7861 44.2822 11.6044 44.9031 11.2632C48.1737 15.4563 49.9689 20.6641 49.9689 25.9997C49.9689 39.2163 39.2168 49.9685 26.0002 49.9685C24.4093 49.9685 22.8184 49.8118 21.2724 49.5023C20.7225 49.3924 20.1873 49.7491 20.077 50.299C19.9671 50.8492 20.3238 51.384 20.8736 51.4943C22.5506 51.8295 24.2756 51.9997 26.0002 51.9997C32.9449 51.9997 39.4743 49.2952 44.385 44.3845C49.2957 39.4738 52.0002 32.9445 52.0002 25.9997C52.0002 20.1575 50.0161 14.4561 46.4043 9.88541ZM41.2746 9.10068C40.8525 8.67856 40.62 8.11758 40.62 7.52051C40.62 6.92383 40.8525 6.36285 41.2746 5.94073C41.6963 5.51862 42.2577 5.28613 42.8544 5.28613C43.4511 5.28613 44.0124 5.51862 44.4346 5.94073C45.3054 6.81195 45.3054 8.22946 44.4346 9.10068C44.0124 9.5224 43.4511 9.75488 42.8544 9.75488C42.2573 9.75488 41.6963 9.5224 41.2746 9.10068Z" fill="#ED1C24"/>
<path d="M21.8091 43.4688C21.8091 44.0297 22.2641 44.4844 22.8247 44.4844H29.1751C29.7361 44.4844 30.1908 44.0297 30.1908 43.4688V41.4998C31.5262 41.1404 32.8028 40.6111 34.0025 39.92L35.3927 41.3102C35.5831 41.5006 35.8414 41.6077 36.1111 41.6077C36.3801 41.6077 36.6388 41.5006 36.8292 41.3098L41.3178 36.818C41.7141 36.4213 41.7141 35.7782 41.3178 35.3818L39.9293 33.9933C40.6204 32.7936 41.1496 31.5169 41.509 30.1815H43.4705C44.0314 30.1815 44.4861 29.7269 44.4861 29.1659V22.8155C44.4861 22.2545 44.0314 21.7998 43.4705 21.7998H41.5086C41.1492 20.4648 40.6204 19.1882 39.9293 17.9885L41.3103 16.6075C41.5007 16.417 41.6078 16.1584 41.6078 15.889C41.6074 15.6196 41.5003 15.3609 41.3099 15.1705L36.8177 10.6819C36.4214 10.2856 35.7783 10.2856 35.3816 10.6823L34.0025 12.0617C32.8028 11.3706 31.5262 10.8414 30.1908 10.482V8.53125C30.1908 7.97028 29.7361 7.51562 29.1751 7.51562H22.8247C22.2641 7.51562 21.8091 7.97028 21.8091 8.53125V10.4824C20.4741 10.8414 19.1974 11.3706 17.9977 12.0617L16.6183 10.6823C16.222 10.286 15.5789 10.2856 15.1821 10.6819L10.6904 15.1709C10.4995 15.3613 10.3924 15.6196 10.3924 15.889C10.3924 16.1584 10.4995 16.417 10.69 16.6075L12.071 17.9885C11.3799 19.1882 10.8506 20.4644 10.4912 21.7998H8.53336C7.97238 21.7998 7.51773 22.2545 7.51773 22.8151L7.51416 29.1655C7.51376 29.4349 7.62088 29.6935 7.81131 29.884C8.00174 30.0744 8.26001 30.1815 8.52979 30.1815H10.4912C10.8506 31.5169 11.3799 32.7936 12.071 33.9933L10.6824 35.3818C10.2861 35.7782 10.2857 36.4213 10.6824 36.818L15.171 41.3098C15.3615 41.5002 15.6197 41.6077 15.8891 41.6077H15.8895C16.1589 41.6077 16.4171 41.5006 16.6076 41.3102L17.9973 39.92C19.1974 40.6111 20.4741 41.1404 21.8091 41.4998V43.4688ZM18.3956 37.784C17.9937 37.5242 17.4649 37.5805 17.1261 37.9189L15.8895 39.1555L12.8367 36.1003L14.0721 34.8645C14.4105 34.5261 14.4668 33.9973 14.207 33.5954C13.2862 32.1703 12.6387 30.6084 12.2832 28.9525C12.1825 28.4847 11.7691 28.1503 11.2902 28.1503H9.54581L9.54819 23.8311H11.2902C11.7691 23.8311 12.1825 23.497 12.2832 23.0289C12.6387 21.3734 13.2862 19.8114 14.207 18.3864C14.4668 17.9845 14.4105 17.4557 14.0721 17.1172L12.8446 15.8894L15.8998 12.8365L17.1261 14.0632C17.4649 14.4016 17.9933 14.4576 18.3956 14.1981C19.8203 13.2773 21.3822 12.6299 23.0381 12.2744C23.5059 12.1736 23.8403 11.7598 23.8403 11.2814V9.54688H28.1595V11.281C28.1595 11.7598 28.4936 12.1736 28.9617 12.274C30.6173 12.6299 32.1796 13.2769 33.6042 14.1977C34.0061 14.4576 34.5349 14.4016 34.8734 14.0628L36.1 12.8365L39.1552 15.8894L37.9278 17.1169C37.589 17.4557 37.533 17.9845 37.7929 18.3864C38.7137 19.8114 39.3607 21.3734 39.7166 23.0289C39.817 23.497 40.2308 23.8311 40.7096 23.8311H42.4548V28.1503H40.7096C40.2308 28.1503 39.8174 28.4847 39.7166 28.9525C39.3611 30.608 38.7137 32.1703 37.7929 33.595C37.533 33.9973 37.5894 34.5261 37.9278 34.8645L39.1632 36.0999L36.1104 39.1551L34.8737 37.9189C34.5349 37.5801 34.0061 37.5242 33.6042 37.784C32.1792 38.7048 30.6173 39.3519 28.9617 39.7078C28.4936 39.8085 28.1595 40.2219 28.1595 40.7008V42.4531H23.8403V40.7008C23.8403 40.2223 23.5059 39.8085 23.0381 39.7078C21.3826 39.3523 19.8207 38.7048 18.3956 37.784Z" fill="#ED1C24"/>
<path d="M34.3919 26.0004C34.3919 21.373 30.6273 17.6084 25.9999 17.6084C21.3725 17.6084 17.6079 21.373 17.6079 26.0004C17.6079 30.6278 21.3725 34.3924 25.9999 34.3924C30.6273 34.3924 34.3919 30.6278 34.3919 26.0004ZM19.6392 26.0004C19.6392 22.4929 22.4924 19.6396 25.9999 19.6396C29.5074 19.6396 32.3607 22.4933 32.3607 26.0004C32.3607 29.5075 29.5074 32.3611 25.9999 32.3611C22.4924 32.3611 19.6392 29.5079 19.6392 26.0004Z" fill="#ED1C24"/>
<path d="M35.3516 3.84103C35.619 3.84103 35.8808 3.73233 36.0696 3.54349C36.2585 3.35345 36.3672 3.09161 36.3672 2.82422C36.3672 2.55841 36.2589 2.29617 36.0696 2.10614C35.8808 1.9173 35.619 1.80859 35.3516 1.80859C35.0834 1.80859 34.8227 1.9173 34.6339 2.10614C34.4446 2.29617 34.3359 2.55722 34.3359 2.82422C34.3359 3.09241 34.4446 3.35345 34.6339 3.54349C34.8227 3.73233 35.0834 3.84103 35.3516 3.84103Z" fill="#ED1C24"/>
<path d="M16.6929 48.1768C16.4259 48.1768 16.1636 48.2855 15.9748 48.4743C15.7859 48.6631 15.6772 48.9254 15.6772 49.1924C15.6772 49.4606 15.7859 49.7216 15.9748 49.9105C16.1636 50.0993 16.4259 50.208 16.6929 50.208C16.9599 50.208 17.2221 50.0993 17.4109 49.9105C17.5998 49.7216 17.7085 49.4594 17.7085 49.1924C17.7085 48.9254 17.5998 48.6631 17.4109 48.4743C17.2221 48.2855 16.9599 48.1768 16.6929 48.1768Z" fill="#ED1C24"/>
</svg>
