<svg width="42" height="42" viewBox="0 0 42 42" fill="none" xmlns="http://www.w3.org/2000/svg">
<path d="M35.4375 0L6.5625 0C2.93813 0 0 2.93813 0 6.5625L0 35.4375C0 39.0619 2.93813 42 6.5625 42H35.4375C39.0619 42 42 39.0619 42 35.4375V6.5625C42 2.93813 39.0619 0 35.4375 0Z" fill="#0088CC"/>
<path d="M10.6311 20.6171C16.2683 18.1611 20.0272 16.542 21.9081 15.7597C27.2781 13.5261 28.394 13.1381 29.1213 13.1251C29.2813 13.1224 29.6389 13.1621 29.8706 13.3501C30.0662 13.5088 30.1201 13.7232 30.1458 13.8737C30.1716 14.0243 30.2037 14.3671 30.1782 14.635C29.8872 17.6926 28.628 25.1127 27.9874 28.5373C27.7163 29.9864 27.1826 30.4723 26.6659 30.5198C25.5429 30.6231 24.6902 29.7777 23.6026 29.0648C21.9007 27.9491 20.9392 27.2547 19.2872 26.166C17.3781 24.9079 18.6157 24.2164 19.7037 23.0863C19.9885 22.7906 24.9361 18.2903 25.0319 17.882C25.0439 17.831 25.055 17.6407 24.9419 17.5402C24.8289 17.4397 24.662 17.474 24.5416 17.5014C24.3709 17.5401 21.6521 19.3372 16.3851 22.8925C15.6134 23.4224 14.9144 23.6806 14.2881 23.6671C13.5977 23.6522 12.2695 23.2767 11.2822 22.9558C10.0712 22.5621 9.10878 22.354 9.19259 21.6855C9.23624 21.3373 9.71576 20.9812 10.6311 20.6171Z" fill="white"/>
</svg>
