<svg width="17" height="17" viewBox="0 0 17 17" fill="none" xmlns="http://www.w3.org/2000/svg">
<path d="M16.0198 11.3775C16.3571 10.9592 16.5189 10.5109 16.4982 10.0491C16.4776 9.54057 16.2435 9.14241 16.0508 8.89816C16.2745 8.35613 16.3606 7.50293 15.6137 6.84044C15.0664 6.35529 14.1371 6.13781 12.8498 6.19803C11.9445 6.23818 11.1873 6.40213 11.1563 6.40882H11.1529C10.9808 6.43894 10.7984 6.47574 10.6125 6.51589C10.5987 6.30176 10.6366 5.76976 11.0427 4.57194C11.5246 3.14659 11.4971 2.05583 10.9532 1.32643C10.3819 0.560226 9.46976 0.5 9.20128 0.5C8.94314 0.5 8.70564 0.603722 8.53698 0.794437C8.15493 1.22606 8.19967 2.02238 8.24786 2.39042C7.79352 3.57486 6.51999 6.47909 5.44266 7.28545C5.42201 7.29883 5.4048 7.31556 5.38759 7.33229C5.07093 7.65684 4.85753 8.00816 4.71296 8.31598C4.50989 8.20891 4.27928 8.14868 4.03145 8.14868H1.93186C1.14021 8.14868 0.5 8.77436 0.5 9.54057V14.9776C0.5 15.7472 1.14365 16.3695 1.93186 16.3695H4.03145C4.33779 16.3695 4.62347 16.2758 4.85753 16.1152L5.66639 16.2089C5.7903 16.2256 7.99316 16.4967 10.2545 16.4532C10.6641 16.4833 11.0496 16.5 11.4076 16.5C12.0237 16.5 12.5606 16.4532 13.0081 16.3595C14.0613 16.142 14.7807 15.707 15.1456 15.068C15.4244 14.5795 15.4244 14.0943 15.3796 13.7865C16.0646 13.1842 16.185 12.5184 16.1609 12.05C16.1472 11.779 16.0852 11.5481 16.0198 11.3775ZM1.93186 15.4661C1.65306 15.4661 1.42933 15.2453 1.42933 14.9776V9.53722C1.42933 9.26621 1.6565 9.04872 1.93186 9.04872H4.03145C4.31025 9.04872 4.53398 9.26955 4.53398 9.53722V14.9743C4.53398 15.2453 4.30681 15.4628 4.03145 15.4628H1.93186V15.4661ZM15.1387 10.986C14.9941 11.1332 14.9666 11.3574 15.0767 11.5314C15.0767 11.5347 15.2178 11.7689 15.235 12.0901C15.2591 12.5284 15.0423 12.9166 14.588 13.2478C14.4262 13.3683 14.3608 13.5757 14.4296 13.7631C14.4296 13.7664 14.5776 14.2081 14.3367 14.6263C14.1061 15.0278 13.5932 15.3156 12.8153 15.4762C12.1924 15.6066 11.3456 15.6301 10.3062 15.5498C10.2924 15.5498 10.2752 15.5498 10.258 15.5498C8.04478 15.5966 5.80751 15.3156 5.78341 15.3122H5.77997L5.43233 15.2721C5.45299 15.1784 5.46331 15.078 5.46331 14.9776V9.53722C5.46331 9.39335 5.43922 9.25282 5.39791 9.12233C5.45987 8.89816 5.63197 8.39962 6.03812 7.9747C7.58356 6.78356 9.09458 2.76516 9.15998 2.59118C9.18752 2.52091 9.1944 2.44396 9.18063 2.367C9.12212 1.99226 9.14277 1.53388 9.22538 1.3967C9.4078 1.40004 9.9 1.45023 10.196 1.84839C10.5471 2.32016 10.5333 3.16332 10.1547 4.28084C9.57646 5.9839 9.52827 6.88059 9.98605 7.27541C10.2132 7.47281 10.5161 7.48285 10.7364 7.4059C10.9464 7.35905 11.146 7.3189 11.3353 7.28879C11.3491 7.28545 11.3663 7.2821 11.38 7.27875C12.4367 7.05458 14.3298 6.9174 14.9872 7.49958C15.5448 7.99477 15.149 8.65056 15.1043 8.72083C14.9769 8.9082 15.0148 9.15245 15.1869 9.30301C15.1903 9.30636 15.5517 9.6376 15.5689 10.0826C15.5827 10.3804 15.4381 10.6849 15.1387 10.986Z" fill="#1F1F1F"/>
</svg>
