<svg width="60" height="60" viewBox="0 0 60 60" fill="none" xmlns="http://www.w3.org/2000/svg">
<g clip-path="url(#clip0_1448_13068)">
<path d="M58.2384 49.942H54.6923V26.4882C54.6923 25.5169 53.9036 24.7295 52.9307 24.7295H43.2041C42.2312 24.7295 41.4425 25.5169 41.4425 26.4882V49.942H36.625V19.5204C36.625 18.5491 35.8363 17.7617 34.8633 17.7617H25.1368C24.1639 17.7617 23.3752 18.5491 23.3752 19.5204V49.942H18.5576V24.627C18.5576 23.6558 17.7689 22.8684 16.796 22.8684H7.06933C6.09642 22.8684 5.30771 23.6558 5.30771 24.627V49.942H1.76162C0.788711 49.942 0 50.7294 0 51.7007C0 52.672 0.788711 53.4594 1.76162 53.4594H58.2384C59.2113 53.4594 60 52.672 60 51.7007C60 50.7294 59.2113 49.942 58.2384 49.942ZM8.83094 49.942V26.3857H15.0344V49.942H8.83094ZM26.8983 49.942V21.2791H33.1017V49.942H26.8983ZM44.9657 49.942V28.2469H51.1692V49.942H44.9657Z" fill="#ED1C24"/>
<path d="M58.7123 13.2322C58.7707 12.4972 58.3423 11.5947 57.3613 11.3664L51.679 9.98523C50.7348 9.75508 49.784 10.3349 49.5547 11.2787C49.3252 12.2225 49.9043 13.1736 50.8481 13.4029L52.4553 13.7936L47.8994 16.605L30.6249 6.77047C30.1283 6.48756 29.5247 6.46376 29.0076 6.70681L11.8365 14.7665L3.62804 9.64369C2.80415 9.1291 1.71928 9.38048 1.20492 10.2045C0.690682 11.0284 0.941822 12.1132 1.76582 12.6276L10.7862 18.2571C11.2924 18.5731 11.9243 18.6109 12.4646 18.3573L29.6769 10.2781L47.0656 20.1777C47.518 20.4151 48.1487 20.538 48.8593 20.146L54.3822 16.7378L54.0144 18.4603C53.6096 20.7517 56.8532 21.4024 57.4541 19.195L58.6732 13.4858C58.6871 13.4059 58.6922 13.4171 58.7123 13.2322Z" fill="#ED1C24"/>
</g>
<defs>
<clipPath id="clip0_1448_13068">
<rect width="60" height="60" fill="white"/>
</clipPath>
</defs>
</svg>
