<svg width="52" height="51" viewBox="0 0 52 51" fill="none" xmlns="http://www.w3.org/2000/svg">
<path d="M25.7861 19.0152L17.0183 10.2716C17.8137 7.29887 16.8666 4.13285 14.5678 2.08128C12.269 0.0291838 9.00865 -0.559633 6.13485 0.557473C5.70416 0.722065 5.38686 1.0932 5.28996 1.5429C5.19414 1.99314 5.33255 2.46091 5.6589 2.78584L8.71318 5.83346L8.30431 7.34877L6.78489 7.75707L3.72902 4.71052C3.40267 4.38611 2.93364 4.24753 2.48271 4.3431C2.03125 4.4392 1.65912 4.75565 1.49355 5.18518C0.374481 8.05174 0.96436 11.3032 3.02202 13.5953C5.07914 15.8885 8.25427 16.833 11.2351 16.0398L19.0382 23.8229L18.3567 24.5025C17.8249 23.9721 16.9619 23.9721 16.4301 24.5025L1.97482 38.9182C-0.666326 41.5755 -0.657276 45.8624 1.99612 48.5081C4.64951 51.1543 8.94743 51.1639 11.612 48.5293L26.0683 34.1126C26.6002 33.5816 26.6002 32.7205 26.0683 32.1906L26.7498 31.511L35.9168 40.6528C35.131 43.6234 36.0819 46.7836 38.3775 48.8319C40.6731 50.8809 43.9265 51.4745 46.8009 50.3674C47.231 50.2018 47.5489 49.8312 47.6452 49.3809C47.741 48.9312 47.6026 48.4629 47.2763 48.138L44.222 45.0904L44.6314 43.5751L46.1503 43.1668L49.2062 46.2133C49.5325 46.5383 50.0015 46.6763 50.453 46.5807C50.9039 46.4846 51.2761 46.1682 51.4416 45.7387C52.5607 42.8721 51.9708 39.6211 49.9132 37.3285C47.856 35.0354 44.6809 34.0914 41.7012 34.8841L31.5694 24.7823L42.4518 13.9304C42.7074 14.1852 43.054 14.3286 43.4154 14.3286H43.5118C43.9063 14.2994 44.2683 14.1013 44.5042 13.7854L50.2885 6.09575C50.6952 5.55472 50.6409 4.79759 50.1618 4.31921L46.3073 0.475708C45.8277 -0.00267277 45.0685 -0.0562982 44.526 0.348812L36.816 6.11752C36.5003 6.35379 36.3028 6.71483 36.2746 7.10773C36.2464 7.50009 36.3907 7.88556 36.6686 8.1643L25.7861 19.0152ZM11.1195 13.229C9.49791 13.8656 7.66918 13.6904 6.19874 12.758C4.72777 11.8252 3.79291 10.2472 3.68324 8.51207L5.41507 10.2387C5.75952 10.5828 6.26156 10.7171 6.73272 10.5907L9.77209 9.77519C10.2411 9.64935 10.6079 9.28354 10.7346 8.81577L11.5524 5.78461C11.6785 5.31526 11.5444 4.81352 11.1989 4.47053L9.4681 2.74284C11.2074 2.85168 12.7896 3.78296 13.7256 5.24889C14.6615 6.7143 14.8382 8.53809 14.2015 10.1564C14.0072 10.6581 14.1275 11.2273 14.5098 11.6075L23.8642 20.9372L22.2181 22.5789C21.9615 22.3235 21.6144 22.1802 21.2518 22.1807L12.5799 13.5321C12.1966 13.1515 11.6237 13.032 11.1195 13.229ZM17.3894 27.3882L19.3166 29.3113L6.78862 41.8049L4.86566 39.8776L17.3894 27.3882ZM3.89672 46.6115C2.68076 45.3882 2.36665 43.5353 3.11146 41.9817L8.53909 47.3947C6.98134 48.1332 5.12652 47.8189 3.90204 46.6073L3.89672 46.6115ZM10.6447 45.6505L8.71584 43.7269L21.2439 31.2333L23.1721 33.1553L10.6447 45.6505ZM22.2112 28.3529L20.2866 26.4335L21.2502 25.4619L25.1047 29.306L24.1411 30.2686L22.2112 28.3529ZM40.3542 37.3954C40.7386 37.7761 41.312 37.8934 41.8156 37.6949C43.4373 37.0583 45.266 37.2335 46.737 38.1663C48.2079 39.0987 49.1423 40.6767 49.2525 42.4118L47.5201 40.6857C47.1762 40.3411 46.6736 40.2068 46.2025 40.3331L43.1631 41.1487C42.6941 41.275 42.3273 41.6403 42.2011 42.1086L41.3828 45.1392C41.2566 45.6086 41.3908 46.1103 41.7363 46.4533L43.4671 48.181C41.7278 48.0727 40.1461 47.1409 39.2096 45.6755C38.2737 44.2095 38.0969 42.3858 38.7337 40.7685C38.928 40.2662 38.8077 39.6965 38.4254 39.3164L28.3948 29.3086C28.3953 28.947 28.2516 28.6003 27.9955 28.3449L29.6422 26.7033L40.3542 37.3954ZM45.2101 3.23343L47.3907 5.40818L43.2595 10.9008L39.7015 7.35196L45.2101 3.23343ZM40.523 12.0057L26.0683 26.4229L24.1411 24.5009L38.5974 10.0853L40.523 12.0057Z" fill="#ED1C24"/>
</svg>
