<svg width="62" height="62" viewBox="0 0 62 62" fill="none" xmlns="http://www.w3.org/2000/svg">
<g clip-path="url(#clip0_1448_13057)">
<path d="M59.3618 52.6558C59.3618 50.1747 58.4258 47.8423 56.726 46.0879C56.4723 45.8261 56.206 45.5848 55.9305 45.3601C58.1653 40.953 59.3438 36.0058 59.3438 30.9985C59.3438 23.9974 57.1368 17.3909 52.9613 11.8936C52.9388 11.864 52.9146 11.8369 52.8895 11.8111C52.9157 11.6143 52.9045 11.4104 52.8522 11.209L51.272 5.12224C51.1349 4.59383 50.7472 4.19385 50.2354 4.05222C49.7231 3.9107 49.194 4.05706 48.8192 4.44384L47.2072 6.10765C42.0077 2.11469 35.8401 0.0078125 29.3184 0.0078125C24.4492 0.0078125 19.6403 1.23279 15.3585 3.5554C13.7093 1.39731 11.1557 0.0078125 8.29202 0.0078125C3.32998 0.0078125 -0.707031 4.17448 -0.707031 9.29618C-0.707031 11.8657 0.286856 14.2564 2.09119 16.0276C2.29551 16.2282 2.50791 16.4174 2.72701 16.5957C0.478737 21.0134 -0.707031 25.9749 -0.707031 30.9985C-0.707031 37.9997 1.49995 44.6061 5.67548 50.1034C5.698 50.1331 5.72204 50.1607 5.74714 50.1866C5.72098 50.3832 5.73224 50.5869 5.78455 50.7881L7.36476 56.8749C7.50186 57.4033 7.8895 57.8032 8.40134 57.9449C8.53 57.9804 8.65948 57.9979 8.78756 57.9979C9.16945 57.9979 9.53691 57.843 9.81757 57.5533L11.4296 55.8895C16.6291 59.8823 22.7968 61.9892 29.3185 61.9892C34.2003 61.9892 39.0215 60.7579 43.3114 58.4235C43.5165 58.69 43.7354 58.947 43.9702 59.1917C44.0613 59.3725 44.2094 59.5174 44.3902 59.6016C46.0382 61.1153 48.1384 61.9441 50.3628 61.9441C52.6114 61.9441 54.734 61.0983 56.39 59.553C56.5021 59.4836 56.5984 59.3899 56.6709 59.278C56.6891 59.2596 56.7081 59.2423 56.7262 59.2236C58.4258 57.4692 59.3618 55.1368 59.3618 52.6558ZM49.7041 6.09845L51.0213 11.1726L46.1053 9.81297L47.9083 7.95196C47.9089 7.95135 47.9095 7.95075 47.9101 7.95014L49.7041 6.09845ZM1.05227 9.29618C1.05227 5.17575 4.29994 1.82367 8.29214 1.82367C12.2841 1.82367 15.5319 5.17575 15.5319 9.29618C15.5319 10.5649 15.2265 11.7849 14.6535 12.8682C14.3282 11.7161 13.3286 10.8582 12.1268 10.7825C12.3187 10.291 12.4254 9.75499 12.4254 9.1934V7.86044C12.4254 5.50805 10.5713 3.59426 8.29214 3.59426C6.01303 3.59426 4.15896 5.50805 4.15896 7.86044V9.19352C4.15896 9.75511 4.26569 10.2911 4.45757 10.7826C3.25491 10.8583 2.25469 11.7176 1.93016 12.871C1.35698 11.7891 1.05227 10.5702 1.05227 9.29618ZM3.57745 14.9667V13.6789C3.57745 13.0798 4.04965 12.5924 4.63022 12.5924H5.79781C6.49156 13.1361 7.35584 13.4596 8.29214 13.4596C9.22844 13.4596 10.0926 13.1361 10.7865 12.5924H11.9539C12.5344 12.5924 13.0067 13.0798 13.0067 13.6789V14.9648C11.6947 16.1308 10.0415 16.7688 8.29226 16.7688C6.54997 16.7687 4.88989 16.1313 3.57745 14.9667ZM10.666 9.19352C10.666 10.5446 9.60106 11.6438 8.29214 11.6438H8.29202C6.98311 11.6438 5.91814 10.5446 5.91814 9.19352V7.86044C5.91814 6.50932 6.98311 5.41012 8.29214 5.41012C9.60106 5.41012 10.666 6.50932 10.666 7.86044V9.19352ZM8.93253 55.8987L7.61528 50.8245L12.5314 52.1841L8.93253 55.8987ZM29.3184 60.1733C23.2659 60.1733 17.538 58.2458 12.6877 54.5907L14.1345 53.0974C14.5093 52.7106 14.6511 52.1642 14.514 51.6357C14.3767 51.1073 13.9891 50.7073 13.4773 50.5658L7.58009 48.935C7.3847 48.8808 7.18672 48.8695 6.99566 48.8967C3.1076 43.7393 1.05227 37.5531 1.05227 30.9985C1.05227 26.321 2.14304 21.7013 4.21385 17.5782C5.46436 18.2354 6.85573 18.5845 8.29214 18.5845C10.5978 18.5845 12.7697 17.6934 14.4432 16.0725C14.4743 16.0462 14.5029 16.0173 14.5303 15.9869C14.5718 15.9456 14.6145 15.9062 14.6554 15.8639C16.355 14.1095 17.2912 11.777 17.2912 9.29606C17.2912 7.78236 16.9363 6.3534 16.3114 5.08944C20.3073 2.95035 24.785 1.82355 29.3185 1.82355C35.3709 1.82355 41.0989 3.75103 45.9491 7.40611L44.5023 8.89947C44.1276 9.28625 43.9858 9.8327 44.1229 10.3611C44.2601 10.8895 44.6477 11.2895 45.1596 11.431L51.0567 13.0619C51.1854 13.0975 51.315 13.1149 51.4431 13.1149C51.5096 13.1149 51.5753 13.1085 51.6405 13.0993C55.5289 18.2571 57.5845 24.4436 57.5845 30.9985C57.5845 35.6586 56.5013 40.263 54.4452 44.3746C51.5472 42.8476 47.9938 43.0264 45.207 45.0414C44.809 45.329 44.7124 45.8952 44.9911 46.3059C45.2697 46.7167 45.8181 46.8164 46.2162 46.5287C49.0951 44.4472 52.992 44.8018 55.482 47.372C56.8494 48.7834 57.6025 50.6599 57.6025 52.6559C57.6025 53.9392 57.2896 55.1723 56.7039 56.265C56.3762 55.117 55.3783 54.2628 54.1794 54.1874C54.3713 53.6959 54.478 53.1598 54.478 52.5983V51.2651C54.478 48.9127 52.6238 46.9989 50.3448 46.9989C48.0657 46.9989 46.2115 48.9127 46.2115 51.2651V52.5981C46.2115 53.1597 46.3182 53.6958 46.5101 54.1873C45.3266 54.2617 44.3385 55.0947 43.9981 56.2204C43.4568 55.1928 43.1547 54.0409 43.1256 52.8445C43.0951 51.5948 43.3694 50.3502 43.9189 49.2452C44.1407 48.799 43.9702 48.2518 43.5378 48.0229C43.1056 47.7941 42.5755 47.97 42.3536 48.4162C41.6703 49.7907 41.3291 51.3378 41.3668 52.8901C41.4011 54.3026 41.7435 55.6643 42.3541 56.892C38.351 59.0409 33.8629 60.1733 29.3184 60.1733ZM47.9707 52.5981V51.2651C47.9707 49.9139 49.0357 48.8147 50.3447 48.8147C51.6536 48.8147 52.7186 49.9139 52.7186 51.2651V52.5981C52.7186 53.9493 51.6536 55.0485 50.3447 55.0485C49.0357 55.0485 47.9707 53.9493 47.9707 52.5981ZM45.6302 58.3083V57.0836C45.6302 56.4844 46.1024 55.9971 46.6829 55.9971H47.8505C48.5442 56.5407 49.4085 56.8643 50.3448 56.8643C51.2811 56.8643 52.1453 56.5409 52.8392 55.9971H54.0066C54.5871 55.9971 55.0594 56.4844 55.0594 57.0836V58.3405C53.7504 59.4964 52.1041 60.1284 50.3629 60.1284C48.6055 60.1283 46.945 59.4845 45.6302 58.3083Z" fill="#ED1C24"/>
<path d="M34.9682 33.3677C34.6247 33.7223 34.6247 34.2972 34.9682 34.6518C35.3118 35.0064 35.8687 35.0064 36.2122 34.6518L38.9426 31.8337C41.3743 29.3239 41.3743 25.2401 38.9426 22.7302C37.7645 21.5143 36.1984 20.8447 34.5326 20.8447C32.8668 20.8447 31.3005 21.5143 30.1225 22.7302L29.3153 23.5634L28.508 22.7302C27.33 21.5143 25.7639 20.8447 24.098 20.8447C22.4322 20.8447 20.866 21.5143 19.6879 22.7302C17.2564 25.2401 17.2564 29.3239 19.6879 31.8337L28.3003 40.7229C28.5716 41.0027 28.932 41.1568 29.3153 41.1568C29.699 41.1568 30.0594 41.0027 30.3304 40.7228L33.5077 37.4434C33.8513 37.0888 33.8513 36.5139 33.5077 36.1594C33.1641 35.8049 32.6072 35.8049 32.2637 36.1594L29.3153 39.2025L20.932 30.5496C19.1862 28.7478 19.1862 25.8161 20.932 24.0141C22.6776 22.2123 25.5184 22.2123 27.2639 24.0141L28.6931 25.4895C28.8581 25.6598 29.0818 25.7554 29.3152 25.7554C29.5485 25.7554 29.7722 25.6598 29.9373 25.4895L31.3665 24.0141C32.2122 23.1413 33.3365 22.6606 34.5325 22.6606C35.7284 22.6606 36.8528 23.1413 37.6984 24.0141C38.5441 24.8869 39.0099 26.0475 39.0099 27.2819C39.0099 28.5162 38.5441 29.6768 37.6984 30.5496L34.9682 33.3677Z" fill="#ED1C24"/>
<path d="M40.7247 19.2026C34.9618 13.2547 25.7728 12.6585 19.3496 17.8156C18.9662 18.1236 18.8971 18.6939 19.1955 19.0897C19.4938 19.4856 20.0466 19.5567 20.4299 19.2489C26.1542 14.6526 34.3442 15.1852 39.4807 20.4866C45.1074 26.2941 45.1074 35.7436 39.4807 41.5511C33.854 47.3586 24.6989 47.3584 19.0724 41.5511C13.9357 36.2494 13.4203 27.7961 17.8733 21.8879C18.1716 21.4921 18.1025 20.9216 17.7192 20.6139C17.3356 20.306 16.7832 20.3769 16.4847 20.7729C11.488 27.4024 12.0656 36.8871 17.8284 42.8351C20.9847 46.0929 25.1306 47.7217 29.2765 47.7217C33.4226 47.7217 37.5684 46.0929 40.7247 42.8351C47.0372 36.3195 47.0372 25.718 40.7247 19.2026Z" fill="#ED1C24"/>
</g>
<defs>
<clipPath id="clip0_1448_13057">
<rect width="62" height="62" fill="white"/>
</clipPath>
</defs>
</svg>
