<svg width="15" height="16" viewBox="0 0 15 16" fill="none" xmlns="http://www.w3.org/2000/svg">
<path d="M0.970915 6.78464C1.01965 6.90147 1.13337 6.9777 1.25957 6.9777L4.68279 6.9777L4.68279 14.7876C4.68279 14.96 4.82275 15.1 4.9952 15.1L9.99354 15.1C10.166 15.1 10.3059 14.96 10.3059 14.7876L10.3059 6.97767L13.7423 6.97767C13.8685 6.97767 13.9822 6.90144 14.0309 6.78522C14.0791 6.6684 14.0528 6.53406 13.9635 6.4447L7.73117 0.191793C7.67245 0.133072 7.59308 0.0999493 7.50999 0.0999493C7.4269 0.0999493 7.34754 0.133072 7.28882 0.191179L1.03839 6.44409C0.949037 6.53347 0.922181 6.66778 0.970915 6.78464Z" fill="white"/>
</svg>
