<svg width="42" height="43" viewBox="0 0 42 43" fill="none" xmlns="http://www.w3.org/2000/svg">
<path d="M35.4375 0.00439453L6.5625 0.00439453C2.93813 0.00439453 0 2.94253 0 6.56689L0 35.4419C0 39.0663 2.93813 42.0044 6.5625 42.0044H35.4375C39.0619 42.0044 42 39.0663 42 35.4419V6.56689C42 2.94253 39.0619 0.00439453 35.4375 0.00439453Z" fill="#25D366"/>
<path fill-rule="evenodd" clip-rule="evenodd" d="M28.35 13.5231C26.3813 11.5544 23.7563 10.5044 21 10.5044C15.225 10.5044 10.5 15.2294 10.5 21.0044C10.5 22.8419 11.025 24.6794 11.9438 26.2544L10.5 31.5044L16.0125 30.0606C17.5875 30.8481 19.2938 31.3731 21 31.3731C26.775 31.3731 31.5 26.6481 31.5 20.8731C31.5 18.1169 30.3188 15.4919 28.35 13.5231ZM21 29.6669C19.425 29.6669 17.85 29.2731 16.5375 28.4856L16.275 28.3544L12.9937 29.2731L13.9125 26.1231L13.65 25.7294C12.7312 24.2856 12.3375 22.7106 12.3375 21.1356C12.3375 16.4106 16.275 12.4731 21 12.4731C23.3625 12.4731 25.4625 13.3919 27.1688 14.9669C28.875 16.6731 29.6625 18.7731 29.6625 21.1356C29.6625 25.7294 25.8563 29.6669 21 29.6669ZM25.725 23.1044C25.4625 22.9731 24.15 22.3169 23.8875 22.3169C23.625 22.1856 23.4937 22.1856 23.3625 22.4481C23.2312 22.7106 22.7063 23.2356 22.575 23.4981C22.4438 23.6294 22.3125 23.6294 22.05 23.6294C21.7875 23.4981 21 23.2356 19.95 22.3169C19.1625 21.6606 18.6375 20.7419 18.5063 20.4794C18.375 20.2169 18.5063 20.0856 18.6375 19.9544C18.7688 19.8231 18.9 19.6919 19.0313 19.5606C19.1625 19.4294 19.1625 19.2981 19.2938 19.1669C19.425 19.0356 19.2938 18.9044 19.2938 18.7731C19.2938 18.6419 18.7688 17.3294 18.5063 16.8044C18.375 16.4106 18.1125 16.4106 17.9813 16.4106C17.85 16.4106 17.7187 16.4106 17.4562 16.4106C17.325 16.4106 17.0625 16.4106 16.8 16.6731C16.5375 16.9356 15.8813 17.5919 15.8813 18.9044C15.8813 20.2169 16.8 21.3981 16.9312 21.6606C17.0625 21.7919 18.7687 24.5481 21.3937 25.5981C23.625 26.5169 24.0188 26.2544 24.5438 26.2544C25.0688 26.2544 26.1188 25.5981 26.25 25.0731C26.5125 24.4169 26.5125 23.8919 26.3813 23.8919C26.25 23.2356 25.9875 23.2356 25.725 23.1044Z" fill="white"/>
</svg>
