<svg width="60" height="60" viewBox="0 0 60 60" fill="none" xmlns="http://www.w3.org/2000/svg">
<g clip-path="url(#clip0_1448_32607)">
<path d="M54.3077 8.37907H43.5669V4.85353C43.5669 4.3684 43.1737 3.9751 42.6884 3.9751C42.2032 3.9751 41.81 4.3684 41.81 4.85353V8.37907H38.1713C37.6861 8.37907 37.2929 8.77237 37.2929 9.25749C37.2929 9.74262 37.6861 10.1359 38.1713 10.1359H41.81V13.8555H41.1507C40.2301 13.8555 39.4811 14.6045 39.4811 15.525V25.8663C39.4811 26.7869 40.2301 27.5358 41.1507 27.5358H41.81V34.5048C41.81 34.9899 42.2032 35.3832 42.6884 35.3832C43.1737 35.3832 43.5669 34.9899 43.5669 34.5048V27.5358H44.2262C45.1466 27.5358 45.8956 26.7868 45.8956 25.8663V15.525C45.8956 14.6044 45.1466 13.8555 44.2262 13.8555H43.5669V10.1359H54.3077C56.4184 10.1359 58.1358 11.8532 58.1358 13.964V44.0291H1.86428V13.9641C1.86428 11.8533 3.58155 10.136 5.69235 10.136H21.0908V11.8504H20.4315C19.511 11.8504 18.7621 12.5994 18.7621 13.5199V23.8612C18.7621 24.7818 19.5111 25.5307 20.4315 25.5307H21.0908V33.2928C21.0908 33.7779 21.4841 34.1712 21.9693 34.1712C22.4544 34.1712 22.8477 33.7779 22.8477 33.2928V25.5307H23.507C24.4276 25.5307 25.1765 24.7816 25.1765 23.8612V13.5199C25.1765 12.5993 24.4275 11.8504 23.507 11.8504H22.8477V10.1359H26.4864C26.9715 10.1359 27.3648 9.74262 27.3648 9.25749C27.3648 8.77237 26.9715 8.37907 26.4864 8.37907H22.8477V7.94524C22.8477 7.46011 22.4544 7.06681 21.9693 7.06681C21.4841 7.06681 21.0908 7.46011 21.0908 7.94524V8.37907H5.69235C2.61282 8.37907 0.107422 10.8845 0.107422 13.964V44.9075C0.107422 47.987 2.61282 50.4924 5.69235 50.4924H19.0642V54.9588L16.233 58.2429H15.1092C14.6241 58.2429 14.2308 58.6362 14.2308 59.1214C14.2308 59.6065 14.6241 59.9998 15.1092 59.9998H44.8098C45.295 59.9998 45.6882 59.6065 45.6882 59.1214C45.6882 58.6362 45.295 58.2429 44.8098 58.2429H43.7669L40.9357 54.9588V50.4924H54.3077C57.3872 50.4924 59.8926 47.987 59.8926 44.9075V13.9641C59.8926 10.8846 57.3872 8.37907 54.3077 8.37907ZM44.1388 25.7792H41.2381V15.6125H44.1389V25.7792H44.1388ZM23.4196 23.7738H20.5188V13.6072H23.4196V23.7738ZM54.3077 48.7355H36.5294C36.0441 48.7355 35.651 49.1289 35.651 49.614C35.651 50.0991 36.0441 50.4924 36.5294 50.4924H39.1788V54.4068H36.9907C36.5055 54.4068 36.1123 54.8001 36.1123 55.2852C36.1123 55.7704 36.5055 56.1637 36.9907 56.1637H39.6547L41.4473 58.2429H18.5526L20.3452 56.1637H23.0092C23.4943 56.1637 23.8876 55.7704 23.8876 55.2852C23.8876 54.8001 23.4943 54.4068 23.0092 54.4068H20.8211V50.4924H32.7858C33.271 50.4924 33.6642 50.0991 33.6642 49.614C33.6642 49.1289 33.271 48.7355 32.7858 48.7355H5.69235C3.88384 48.7355 2.36533 47.4746 1.96711 45.7859H58.0328C57.6347 47.4746 56.1162 48.7355 54.3077 48.7355Z" fill="black"/>
<path d="M9.28077 25.6459C8.79565 25.6459 8.40234 26.0392 8.40234 26.5243V28.6449C8.40234 29.5655 9.15123 30.3144 10.0718 30.3144H10.7311V34.9925C10.7311 35.4776 11.1244 35.8709 11.6095 35.8709C12.0947 35.8709 12.488 35.4776 12.488 34.9925V30.3144H13.1473C14.0679 30.3144 14.8167 29.5655 14.8167 28.6449V18.3036C14.8167 17.383 14.0677 16.634 13.1473 16.634H12.488V15.229C12.488 14.7439 12.0947 14.3506 11.6095 14.3506C11.1244 14.3506 10.7311 14.7439 10.7311 15.229V16.634H10.0718C9.15123 16.634 8.40234 17.383 8.40234 18.3036V22.7808C8.40234 23.2659 8.79565 23.6592 9.28077 23.6592C9.7659 23.6592 10.1592 23.2659 10.1592 22.7808V18.391H11.6085H11.6097C11.6097 18.391 11.6104 18.391 11.6108 18.391H13.0601V28.5577H10.1592V26.5244C10.1592 26.0392 9.7659 25.6459 9.28077 25.6459Z" fill="black"/>
<path d="M30.7906 23.7926H31.45V28.4705C31.45 28.9557 31.8432 29.349 32.3284 29.349C32.8137 29.349 33.2068 28.9557 33.2068 28.4705V23.7926H33.8661C34.7866 23.7926 35.5356 23.0436 35.5356 22.123V15.233C35.5356 14.7479 35.1424 14.3546 34.6572 14.3546C34.1719 14.3546 33.7788 14.7479 33.7788 15.233V22.0358H30.8779V6.13002H33.7788V11.4895C33.7788 11.9746 34.1719 12.3679 34.6572 12.3679C35.1424 12.3679 35.5356 11.9746 35.5356 11.4895V6.04264C35.5356 5.12217 34.7866 4.37316 33.8661 4.37316H33.2068V0.878428C33.2068 0.393301 32.8137 0 32.3284 0C31.8432 0 31.45 0.393301 31.45 0.878428V4.37316H30.7906C29.87 4.37316 29.1211 5.12217 29.1211 6.04264V22.123C29.1211 23.0437 29.87 23.7926 30.7906 23.7926Z" fill="black"/>
<path d="M47.7578 24.0825C47.9165 24.3769 48.2191 24.5442 48.5317 24.5442C48.6724 24.5442 48.8153 24.5102 48.9478 24.4388L52.9941 22.2571L52.7031 23.021C52.5303 23.4744 52.7579 23.9819 53.2113 24.1546C53.3142 24.1937 53.4199 24.2124 53.5239 24.2124C53.8777 24.2124 54.2114 23.9969 54.3449 23.6464L55.3339 21.0503C55.5067 20.5969 55.2791 20.0894 54.8257 19.9166L52.0701 18.8668C51.6169 18.6942 51.1092 18.9217 50.9365 19.375C50.7637 19.8284 50.9913 20.3359 51.4447 20.5087L52.0836 20.7521L48.114 22.8924C47.687 23.1226 47.5275 23.6554 47.7578 24.0825Z" fill="#ED1C24"/>
<path d="M5.30149 41.2464C5.44415 41.5797 5.76847 41.7794 6.10941 41.7794C6.22466 41.7794 6.3419 41.7566 6.45469 41.7083L17.7897 36.8572L18.8198 39.5561C18.91 39.7923 19.0975 39.9782 19.3344 40.0662C19.5713 40.1542 19.8348 40.1361 20.0573 40.016L38.7835 29.9194C39.2106 29.6891 39.3701 29.1563 39.1398 28.7293C38.9097 28.3023 38.377 28.1427 37.9497 28.373L20.1043 37.9947L19.1051 35.3766C19.0198 35.1533 18.8473 34.9743 18.6272 34.8811C18.4072 34.7877 18.1586 34.7883 17.9388 34.8822L5.76343 40.0931C5.31754 40.2841 5.1107 40.8004 5.30149 41.2464Z" fill="#ED1C24"/>
</g>
<defs>
<clipPath id="clip0_1448_32607">
<rect width="60" height="60" fill="white"/>
</clipPath>
</defs>
</svg>
