<svg width="60" height="60" viewBox="0 0 60 60" fill="none" xmlns="http://www.w3.org/2000/svg">
<path d="M59.1628 58.3256H1.67442V0.837209C1.67442 0.615168 1.58621 0.40222 1.42921 0.245213C1.2722 0.0882057 1.05925 0 0.837209 0C0.615168 0 0.40222 0.0882057 0.245213 0.245213C0.0882057 0.40222 0 0.615168 0 0.837209L0 59.1628C0 59.3848 0.0882057 59.5978 0.245213 59.7548C0.40222 59.9118 0.615168 60 0.837209 60H59.1628C59.3848 60 59.5978 59.9118 59.7548 59.7548C59.9118 59.5978 60 59.3848 60 59.1628C60 58.9408 59.9118 58.7278 59.7548 58.5708C59.5978 58.4138 59.3848 58.3256 59.1628 58.3256Z" fill="black"/>
<path d="M12.2205 17.3887H9.83727V10.8836C9.83727 10.6616 9.74906 10.4486 9.59205 10.2916C9.43505 10.1346 9.2221 10.0464 9.00006 10.0464C8.77802 10.0464 8.56507 10.1346 8.40806 10.2916C8.25105 10.4486 8.16285 10.6616 8.16285 10.8836V17.3887H5.77959C5.55755 17.3887 5.3446 17.4769 5.1876 17.6339C5.03059 17.7909 4.94238 18.0039 4.94238 18.2259V34.3757C4.94238 34.5977 5.03059 34.8107 5.1876 34.9677C5.3446 35.1247 5.55755 35.2129 5.77959 35.2129H8.16285V47.6789C8.16285 47.901 8.25105 48.1139 8.40806 48.2709C8.56507 48.4279 8.77802 48.5162 9.00006 48.5162C9.2221 48.5162 9.43505 48.4279 9.59205 48.2709C9.74906 48.1139 9.83727 47.901 9.83727 47.6789V35.2129H12.2205C12.4426 35.2129 12.6555 35.1247 12.8125 34.9677C12.9695 34.8107 13.0577 34.5977 13.0577 34.3757V18.2259C13.0577 18.0039 12.9695 17.7909 12.8125 17.6339C12.6555 17.4769 12.4426 17.3887 12.2205 17.3887ZM11.3833 33.5385H6.6168V19.0631H11.3833V33.5385Z" fill="black"/>
<path d="M23.1937 26.601H20.8105V20.9554C20.8105 20.7333 20.7223 20.5204 20.5653 20.3634C20.4083 20.2064 20.1953 20.1182 19.9733 20.1182C19.7512 20.1182 19.5383 20.2064 19.3813 20.3634C19.2243 20.5204 19.1361 20.7333 19.1361 20.9554V26.601H16.7444C16.5224 26.601 16.3094 26.6892 16.1524 26.8462C15.9954 27.0032 15.9072 27.2161 15.9072 27.4382V32.6065C15.9072 32.8286 15.9954 33.0415 16.1524 33.1985C16.3094 33.3555 16.5224 33.4437 16.7444 33.4437H19.1277V53.4837C19.1277 53.7058 19.2159 53.9187 19.3729 54.0757C19.5299 54.2328 19.7429 54.321 19.9649 54.321C20.1869 54.321 20.3999 54.2328 20.5569 54.0757C20.7139 53.9187 20.8021 53.7058 20.8021 53.4837V33.4437H23.1854C23.4074 33.4437 23.6204 33.3555 23.7774 33.1985C23.9344 33.0415 24.0226 32.8286 24.0226 32.6065V27.4382C24.0226 27.2176 23.9355 27.0059 23.7803 26.8491C23.6251 26.6923 23.4143 26.6032 23.1937 26.601ZM22.3565 31.7693H17.5816V28.2754H22.3565V31.7693Z" fill="black"/>
<path d="M34.1668 27.4993H31.7836V19.8919C31.7836 19.6699 31.6954 19.4569 31.5383 19.2999C31.3813 19.1429 31.1684 19.0547 30.9463 19.0547C30.7243 19.0547 30.5114 19.1429 30.3543 19.2999C30.1973 19.4569 30.1091 19.6699 30.1091 19.8919V27.4993H27.7259C27.5038 27.4993 27.2909 27.5875 27.1339 27.7446C26.9769 27.9016 26.8887 28.1145 26.8887 28.3365V43.6547C26.8887 43.8767 26.9769 44.0897 27.1339 44.2467C27.2909 44.4037 27.5038 44.4919 27.7259 44.4919H30.1091V49.4426C30.1091 49.6646 30.1973 49.8776 30.3543 50.0346C30.5114 50.1916 30.7243 50.2798 30.9463 50.2798C31.1684 50.2798 31.3813 50.1916 31.5383 50.0346C31.6954 49.8776 31.7836 49.6646 31.7836 49.4426V44.4919H34.1668C34.3889 44.4919 34.6018 44.4037 34.7588 44.2467C34.9158 44.0897 35.004 43.8767 35.004 43.6547V28.3365C35.004 28.1145 34.9158 27.9016 34.7588 27.7446C34.6018 27.5875 34.3889 27.4993 34.1668 27.4993ZM33.3296 42.8175H28.5631V29.1738H33.3296V42.8175Z" fill="black"/>
<path d="M45.1395 32.6509H42.7562V22.6658C42.7562 22.4438 42.668 22.2308 42.511 22.0738C42.354 21.9168 42.1411 21.8286 41.919 21.8286C41.697 21.8286 41.484 21.9168 41.327 22.0738C41.17 22.2308 41.0818 22.4438 41.0818 22.6658V32.6509H38.6985C38.4765 32.6509 38.2635 32.7391 38.1065 32.8961C37.9495 33.0532 37.8613 33.2661 37.8613 33.4881V48.4044C37.8613 48.6265 37.9495 48.8394 38.1065 48.9964C38.2635 49.1534 38.4765 49.2416 38.6985 49.2416H41.0818V51.6612C41.0818 51.8832 41.17 52.0962 41.327 52.2532C41.484 52.4102 41.697 52.4984 41.919 52.4984C42.1411 52.4984 42.354 52.4102 42.511 52.2532C42.668 52.0962 42.7562 51.8832 42.7562 51.6612V49.2416H45.1395C45.3615 49.2416 45.5745 49.1534 45.7315 48.9964C45.8885 48.8394 45.9767 48.6265 45.9767 48.4044V33.4881C45.9767 33.2661 45.8885 33.0532 45.7315 32.8961C45.5745 32.7391 45.3615 32.6509 45.1395 32.6509ZM44.3023 47.5672H39.5357V34.3254H44.3023V47.5672Z" fill="black"/>
<path d="M56.1132 41.8605H53.73V34.6912C53.73 34.4692 53.6418 34.2562 53.4848 34.0992C53.3278 33.9422 53.1148 33.854 52.8928 33.854C52.6707 33.854 52.4578 33.9422 52.3008 34.0992C52.1438 34.2562 52.0556 34.4692 52.0556 34.6912V41.8605H49.6751C49.4531 41.8605 49.2401 41.9487 49.0831 42.1057C48.9261 42.2627 48.8379 42.4757 48.8379 42.6977V50.28C48.8379 50.5021 48.9261 50.715 49.0831 50.872C49.2401 51.029 49.4531 51.1173 49.6751 51.1173H52.0584V55.3033C52.0584 55.5253 52.1466 55.7383 52.3036 55.8953C52.4606 56.0523 52.6735 56.1405 52.8956 56.1405C53.1176 56.1405 53.3306 56.0523 53.4876 55.8953C53.6446 55.7383 53.7328 55.5253 53.7328 55.3033V51.1173H56.116C56.3381 51.1173 56.551 51.029 56.708 50.872C56.865 50.715 56.9532 50.5021 56.9532 50.28V42.6977C56.9532 42.5875 56.9315 42.4784 56.8893 42.3767C56.847 42.2749 56.7851 42.1825 56.707 42.1047C56.629 42.027 56.5364 41.9653 56.4345 41.9234C56.3326 41.8815 56.2234 41.8601 56.1132 41.8605ZM55.276 49.4428H50.5123V43.5349H55.2788L55.276 49.4428Z" fill="black"/>
<path d="M52.5823 19.2698C52.3602 19.2698 52.1473 19.358 51.9903 19.515C51.8332 19.672 51.745 19.885 51.745 20.107V24.5219L34.0604 6.84561C33.9034 6.68883 33.6906 6.60077 33.4688 6.60077C33.2469 6.60077 33.0341 6.68883 32.8771 6.84561L23.1795 16.5154L9.59155 2.93026C9.43284 2.78238 9.22293 2.70187 9.00603 2.7057C8.78914 2.70952 8.5822 2.79739 8.42881 2.95078C8.27542 3.10417 8.18755 3.31111 8.18372 3.52801C8.1799 3.7449 8.26041 3.95481 8.40829 4.11352L22.585 18.2903C22.742 18.447 22.9548 18.5351 23.1767 18.5351C23.3985 18.5351 23.6113 18.447 23.7683 18.2903L33.466 8.61771L50.5478 25.6912H46.1553C45.9332 25.6912 45.7203 25.7794 45.5633 25.9364C45.4063 26.0934 45.3181 26.3064 45.3181 26.5284C45.3181 26.7504 45.4063 26.9634 45.5633 27.1204C45.7203 27.2774 45.9332 27.3656 46.1553 27.3656H52.5739C52.7959 27.3656 53.0089 27.2774 53.1659 27.1204C53.3229 26.9634 53.4111 26.7504 53.4111 26.5284V20.1098C53.4118 19.8887 53.3251 19.6763 53.1698 19.5189C53.0145 19.3616 52.8033 19.272 52.5823 19.2698Z" fill="#ED1C24"/>
</svg>
