<svg width="60" height="60" viewBox="0 0 60 60" fill="none" xmlns="http://www.w3.org/2000/svg">
<path d="M55 0H5C2.23975 0.00341798 0.00341798 2.23975 0 5V39C0.00341798 41.7603 2.23975 43.9966 5 44H25V42H5C3.34326 42 2 40.6567 2 39V5C2 3.34326 3.34326 2 5 2H55C56.6567 2 58 3.34326 58 5V39C58 40.6567 56.6567 42 55 42H54V44H55C57.7603 43.9966 59.9966 41.7603 60 39V5C59.9966 2.23975 57.7603 0.00341798 55 0Z" fill="black"/>
<path d="M55 37V5C55 4.44775 54.5523 4 54 4H6C5.44775 4 5 4.44775 5 5V39C5 39.5522 5.44775 40 6 40H32V38H7V6H53V37H55Z" fill="black"/>
<path d="M9 8H11V10H9V8Z" fill="black"/>
<path d="M9 12H13V14H9V12Z" fill="black"/>
<path d="M9 16H13V18H9V16Z" fill="black"/>
<path d="M9 20H13V22H9V20Z" fill="black"/>
<path d="M9 24H13V26H9V24Z" fill="black"/>
<path d="M9 28H13V30H9V28Z" fill="black"/>
<path d="M9 32H13V34H9V32Z" fill="black"/>
<path d="M51 24H21V21.4141L22.8452 19.5688L24.168 21.5552C24.333 21.8057 24.6016 21.9688 24.8999 22H25C25.2651 22 25.5195 21.8945 25.707 21.707L30 17.4141L32.293 19.707C32.4897 19.9082 32.7642 20.0146 33.0449 19.999C33.3257 19.9858 33.5884 19.856 33.769 19.6411L38 14.562L42.231 19.6411C42.4116 19.856 42.6743 19.9858 42.9551 19.999C43.2363 20.0156 43.5107 19.9092 43.707 19.707L46 17.4141L47.293 18.707C47.4956 18.916 47.7813 19.0225 48.0708 18.9971C48.3604 18.9756 48.6265 18.8296 48.7998 18.5972L51.7998 14.5972L50.2002 13.397L47.8921 16.4751L46.707 15.29C46.3164 14.8994 45.6836 14.8994 45.293 15.29L43.0669 17.5161L38.7671 12.356C38.5703 12.1387 38.291 12.0146 37.998 12.0146C37.7051 12.0146 37.4258 12.1387 37.229 12.356L32.9292 17.5161L30.7031 15.29C30.3125 14.8994 29.6797 14.8994 29.2891 15.29L25.1509 19.4282L23.8281 17.4419C23.6616 17.1929 23.3926 17.0313 23.0942 17.002C22.7964 16.9727 22.501 17.0781 22.2891 17.29L21 18.5859V12H19V25C19 25.5522 19.4478 26 20 26H51V24Z" fill="black"/>
<path d="M19 8H25V10H19V8Z" fill="black"/>
<path d="M27 8H29V10H27V8Z" fill="black"/>
<path d="M19 28H23V30H19V28Z" fill="black"/>
<path d="M25 28H27V30H25V28Z" fill="black"/>
<path d="M19 32H23V34H19V32Z" fill="black"/>
<path d="M25 32H27V34H25V32Z" fill="black"/>
<path d="M31 28H33V30H31V28Z" fill="black"/>
<path d="M43 28H47V30H43V28Z" fill="black"/>
<path d="M49 28H51V30H49V28Z" fill="black"/>
<path d="M43 32H47V34H43V32Z" fill="black"/>
<path d="M49 32H51V34H49V32Z" fill="black"/>
<path d="M49.4997 37.0399C48.6271 36.8954 47.735 37.1415 47.0607 37.7138C47.0407 37.7299 47.0216 37.747 47.0016 37.765C45.8639 36.7435 44.1393 36.7435 43.0016 37.765C42.174 37.056 41.0368 36.8305 40.0016 37.1698V32.1068C40.0207 30.6141 38.9674 29.3226 37.5016 29.0399C36.6305 28.892 35.738 29.1356 35.0631 29.7064C34.3879 30.2767 33.9992 31.1161 33.9997 31.9999V44.2338L31.3459 42.642C30.5353 42.1522 29.5304 42.1146 28.6857 42.5419L28.5275 42.62C27.6603 43.0541 27.0841 43.911 27.0085 44.8778C26.9328 45.8446 27.3688 46.7806 28.1579 47.3451L34.4186 51.8158C34.5885 51.9364 34.7917 52.0004 34.9997 51.9999H50.9997C51.5519 51.9999 51.9997 51.5521 51.9997 50.9999V40.1068C52.0182 38.6141 50.9655 37.3226 49.4997 37.0399ZM49.9997 49.9999H35.3195L29.3195 45.7147C29.1007 45.5595 28.9792 45.3002 28.9997 45.0321C29.0202 44.764 29.1794 44.5263 29.4196 44.4057L29.5768 44.328C29.8102 44.2094 30.088 44.2201 30.3117 44.3558L34.4806 46.8558C34.7897 47.0433 35.1759 47.0497 35.4904 46.8724C35.8053 46.6947 36.0002 46.3612 35.9997 45.9999V31.9999C35.9997 31.7059 36.1286 31.4271 36.3527 31.2367C36.5793 31.0429 36.881 30.9613 37.1745 31.015C37.674 31.1371 38.0187 31.5931 37.9997 32.1068V39.9999C37.9997 40.5521 38.4474 40.9999 38.9997 40.9999C39.5519 40.9999 39.9997 40.5521 39.9997 39.9999C39.9997 39.4476 40.4474 38.9999 40.9997 38.9999C41.5519 38.9999 41.9997 39.4476 41.9997 39.9999C41.9997 40.5521 42.4474 40.9999 42.9997 40.9999C43.5519 40.9999 43.9997 40.5521 43.9997 39.9999C43.9997 39.4476 44.4474 38.9999 44.9997 38.9999C45.5519 38.9999 45.9997 39.4476 45.9997 39.9999C45.9997 40.5521 46.4474 40.9999 46.9997 40.9999C47.5519 40.9999 47.9997 40.5521 47.9997 39.9999C47.9997 39.704 48.1305 39.4232 48.3571 39.2333C48.5841 39.0429 48.8835 38.9633 49.1745 39.015C49.674 39.1371 50.0187 39.5931 49.9997 40.1068V49.9999Z" fill="#ED1C24"/>
<path d="M15 8H17V36H15V8Z" fill="black"/>
</svg>
