<svg width="60" height="60" viewBox="0 0 60 60" fill="none" xmlns="http://www.w3.org/2000/svg">
<path d="M50.625 54.375V5.625C50.6239 4.63079 50.2284 3.67762 49.5254 2.97461C48.8224 2.27159 47.8692 1.87614 46.875 1.875H13.125C12.1308 1.87614 11.1776 2.27159 10.4746 2.97461C9.77159 3.67762 9.37614 4.63079 9.375 5.625V54.375C9.37614 55.3692 9.77159 56.3224 10.4746 57.0254C11.1776 57.7284 12.1308 58.1239 13.125 58.125H46.875C47.8692 58.1239 48.8224 57.7284 49.5254 57.0254C50.2284 56.3224 50.6239 55.3692 50.625 54.375ZM35.625 3.75L34.2188 5.625H25.7812L24.375 3.75H35.625ZM48.75 54.375C48.7494 54.8721 48.5517 55.3487 48.2002 55.7002C47.8487 56.0517 47.3721 56.2494 46.875 56.25H13.125C12.6279 56.2494 12.1513 56.0517 11.7998 55.7002C11.4483 55.3487 11.2506 54.8721 11.25 54.375V5.625C11.2506 5.12789 11.4483 4.65131 11.7998 4.2998C12.1513 3.9483 12.6279 3.75057 13.125 3.75H22.0312L24.5625 7.12498C24.6498 7.24142 24.763 7.33594 24.8932 7.40103C25.0234 7.46612 25.1669 7.50001 25.3125 7.5H34.6875C34.8331 7.50001 34.9766 7.46612 35.1068 7.40103C35.237 7.33594 35.3502 7.24142 35.4375 7.12498L37.9688 3.75H46.875C47.3721 3.75057 47.8487 3.9483 48.2002 4.2998C48.5517 4.65131 48.7494 5.12789 48.75 5.625V54.375Z" fill="#1F1F1F"/>
<path d="M14.0625 5.625H18.75V7.5H14.0625V5.625Z" fill="black"/>
<path d="M41.25 5.625H43.125V7.5H41.25V5.625Z" fill="black"/>
<path d="M45 5.625H46.875V7.5H45V5.625Z" fill="black"/>
<path d="M15 16.875H20.625C20.8736 16.875 21.1121 16.7762 21.2879 16.6004C21.4637 16.4246 21.5625 16.1861 21.5625 15.9375V10.3125C21.5625 10.0639 21.4637 9.82541 21.2879 9.6496C21.1121 9.47379 20.8736 9.37501 20.625 9.375H15C14.7514 9.37501 14.5129 9.47379 14.3371 9.6496C14.1613 9.82541 14.0625 10.0639 14.0625 10.3125V15.9375C14.0625 16.1861 14.1613 16.4246 14.3371 16.6004C14.5129 16.7762 14.7514 16.875 15 16.875ZM15.9375 11.25H19.6875V15H15.9375V11.25Z" fill="black"/>
<path d="M23.4375 10.3125H26.25V12.1875H23.4375V10.3125Z" fill="black"/>
<path d="M28.125 10.3125H33.75V12.1875H28.125V10.3125Z" fill="black"/>
<path d="M23.4375 14.0625H30V15.9375H23.4375V14.0625Z" fill="black"/>
<path d="M31.875 14.0625H36.5625V15.9375H31.875V14.0625Z" fill="black"/>
<path d="M16.875 34.6875H18.75V32.8125H19.6875C19.9361 32.8125 20.1746 32.7137 20.3504 32.5379C20.5262 32.3621 20.625 32.1236 20.625 31.875V21.5625C20.625 21.3139 20.5262 21.0754 20.3504 20.8996C20.1746 20.7238 19.9361 20.625 19.6875 20.625H18.75V18.75H16.875V20.625H15.9375C15.6889 20.625 15.4504 20.7238 15.2746 20.8996C15.0988 21.0754 15 21.3139 15 21.5625V31.875C15 32.1236 15.0988 32.3621 15.2746 32.5379C15.4504 32.7137 15.6889 32.8125 15.9375 32.8125H16.875V34.6875ZM16.875 22.5H18.75V30.9375H16.875V22.5Z" fill="black"/>
<path d="M21.5625 35.625C21.5625 35.8736 21.6613 36.1121 21.8371 36.2879C22.0129 36.4637 22.2514 36.5625 22.5 36.5625H23.4375V38.4375H25.3125V36.5625H26.25C26.4986 36.5625 26.7371 36.4637 26.9129 36.2879C27.0887 36.1121 27.1875 35.8736 27.1875 35.625V28.125C27.1875 27.8764 27.0887 27.6379 26.9129 27.4621C26.7371 27.2863 26.4986 27.1875 26.25 27.1875H25.3125V22.5H23.4375V27.1875H22.5C22.2514 27.1875 22.0129 27.2863 21.8371 27.4621C21.6613 27.6379 21.5625 27.8764 21.5625 28.125V35.625ZM23.4375 29.0625H25.3125V34.6875H23.4375V29.0625Z" fill="black"/>
<path d="M36.5625 19.6875V21.5625H35.625C35.3764 21.5625 35.1379 21.6613 34.9621 21.8371C34.7863 22.0129 34.6875 22.2514 34.6875 22.5V30C34.6875 30.2486 34.7863 30.4871 34.9621 30.6629C35.1379 30.8387 35.3764 30.9375 35.625 30.9375H36.5625V36.5625H38.4375V30.9375H39.375C39.6236 30.9375 39.8621 30.8387 40.0379 30.6629C40.2137 30.4871 40.3125 30.2486 40.3125 30V22.5C40.3125 22.2514 40.2137 22.0129 40.0379 21.8371C39.8621 21.6613 39.6236 21.5625 39.375 21.5625H38.4375V19.6875H36.5625ZM38.4375 29.0625H36.5625V23.4375H38.4375V29.0625Z" fill="black"/>
<path d="M31.875 33.75H32.8125C33.0611 33.75 33.2996 33.6512 33.4754 33.4754C33.6512 33.2996 33.75 33.0611 33.75 32.8125V21.5625C33.75 21.3139 33.6512 21.0754 33.4754 20.8996C33.2996 20.7238 33.0611 20.625 32.8125 20.625H31.875V18.75H30V20.625H29.0625C28.8139 20.625 28.5754 20.7238 28.3996 20.8996C28.2238 21.0754 28.125 21.3139 28.125 21.5625V32.8125C28.125 33.0611 28.2238 33.2996 28.3996 33.4754C28.5754 33.6512 28.8139 33.75 29.0625 33.75H30V35.625H31.875V33.75ZM30 22.5H31.875V31.875H30V22.5Z" fill="black"/>
<path d="M45 16.875H43.125V18.75H45V21.5625H43.125V23.4375H45V26.25H43.125V28.125H45V30.9375H43.125V32.8125H45V35.625H43.125V37.5H45V40.3125H40.3125V42.1875H45.9375C46.1861 42.1875 46.4246 42.0887 46.6004 41.9129C46.7762 41.7371 46.875 41.4986 46.875 41.25V13.125H45V16.875Z" fill="#ED1C24"/>
<path d="M14.0625 40.3125H15.9375V42.1875H14.0625V40.3125Z" fill="#ED1C24"/>
<path d="M17.8125 40.3125H19.6875V42.1875H17.8125V40.3125Z" fill="#ED1C24"/>
<path d="M21.5625 40.3125H23.4375V42.1875H21.5625V40.3125Z" fill="#ED1C24"/>
<path d="M25.3125 40.3125H27.1875V42.1875H25.3125V40.3125Z" fill="#ED1C24"/>
<path d="M29.0625 40.3125H30.9375V42.1875H29.0625V40.3125Z" fill="#ED1C24"/>
<path d="M32.8125 40.3125H34.6875V42.1875H32.8125V40.3125Z" fill="#ED1C24"/>
<path d="M36.5625 40.3125H38.4375V42.1875H36.5625V40.3125Z" fill="#ED1C24"/>
<path d="M40.3125 45H17.8125C17.5639 45 17.3254 45.0988 17.1496 45.2746C16.9738 45.4504 16.875 45.6889 16.875 45.9375V52.5C16.875 52.7486 16.9738 52.9871 17.1496 53.1629C17.3254 53.3387 17.5639 53.4375 17.8125 53.4375H40.3125C40.5611 53.4375 40.7996 53.3387 40.9754 53.1629C41.1512 52.9871 41.25 52.7486 41.25 52.5V45.9375C41.25 45.6889 41.1512 45.4504 40.9754 45.2746C40.7996 45.0988 40.5611 45 40.3125 45ZM18.75 46.875H28.125V51.5625H18.75V46.875ZM39.375 51.5625H30V46.875H39.375V51.5625Z" fill="black"/>
</svg>
