<svg width="494" height="480" viewBox="0 0 494 480" fill="none" xmlns="http://www.w3.org/2000/svg">
<path fill-rule="evenodd" clip-rule="evenodd" d="M66.0156 186.701C66.7346 184.109 67.4018 181.374 67.9362 179.773C91.0677 178.451 89.3317 172.592 88.7455 169.938C85.2508 157.27 83.1845 149.288 86.8249 145.912C88.4443 146.858 91.8677 149.049 92.7746 154.561C94.2936 153.825 96.2174 152.853 96.6158 151.236C97.6036 146.375 98.3647 136.167 104.046 135.82C104.752 140.412 105.286 145.257 105.688 150.371C108.661 153.239 108.049 163.583 104.995 175.463C106.249 182.281 101.98 185.893 92.1884 186.3L92.36 188.409C83.6088 186.491 73.5005 185.979 66.0156 186.701Z" fill="#FAB688"/>
<path fill-rule="evenodd" clip-rule="evenodd" d="M88.7469 169.938C89.3331 172.592 91.0691 178.451 67.9377 179.773C57.8812 177.291 49.6093 168.068 48.5049 164.131C37.2209 140.627 50.5615 131.076 57.6836 127.667C61.2852 104.698 94.2594 125.772 111.253 115.029C117.711 124.375 109.226 135.73 104.037 135.824C98.3564 136.171 97.5953 146.382 96.6075 151.24C96.2091 152.86 94.2853 153.832 92.7663 154.565C91.8594 149.055 88.4457 146.862 86.8166 145.915C83.1859 149.289 85.2523 157.27 88.7469 169.938Z" fill="#733E19"/>
<path fill-rule="evenodd" clip-rule="evenodd" d="M281.568 276.792H165.321C159.332 276.792 156.197 272.922 156.197 266.422H287.456C288.713 266.422 290.458 267.132 289.26 271.001C288.198 274.176 284.742 276.792 281.568 276.792Z" fill="#3C3392"/>
<path fill-rule="evenodd" clip-rule="evenodd" d="M53.9065 276.792H392.966C401.85 276.792 392.779 294.557 388.471 294.557H370.528L380.921 470.164C381.76 484.445 372.662 482.057 371.529 470.164L354.509 294.557H92.3737L75.8072 470.164C74.6996 481.963 65.5888 484.526 66.4147 470.164L76.3384 294.557H58.3857C54.6255 294.557 44.6209 276.792 53.9065 276.792Z" fill="#733E19"/>
<path fill-rule="evenodd" clip-rule="evenodd" d="M312.784 197.992H238.444C236.229 197.992 233.667 199.807 232.721 202.011L207.189 262.406C206.253 264.62 207.309 266.421 209.508 266.421H283.862C286.077 266.421 288.639 264.62 289.572 262.406L315.103 202.011C316.039 199.807 314.996 197.992 312.784 197.992Z" fill="#7162AA"/>
<path fill-rule="evenodd" clip-rule="evenodd" d="M307.565 204.117H238.721C238.586 204.189 238.464 204.284 238.362 204.399L214.719 260.297H283.55C283.691 260.228 283.818 260.133 283.922 260.015L307.565 204.117Z" fill="#D7CCE5"/>
<path fill-rule="evenodd" clip-rule="evenodd" d="M111.77 200.75C88.6386 196.09 69.5233 195.205 54.424 198.093C43.2307 199.121 36.9831 205.092 35.6811 216.004C28.1056 259.542 31.4707 304.535 47.6193 357.082C49.0735 361.168 62.1194 364.302 81.5554 361.819C125.137 358.102 140.45 351.096 140.382 326.072C139.021 308.478 130.725 282.143 115.492 247.069C104.152 237.311 93.309 208.298 111.77 200.75Z" fill="#F59B1D"/>
<path fill-rule="evenodd" clip-rule="evenodd" d="M54.4238 198.099C67.5086 195.735 83.5557 196.149 102.565 199.34C100.391 195.743 98.4876 192.482 96.8553 189.557C81.3544 184.913 58.3136 185.62 55.4505 190.049C54.9388 192.708 54.5959 195.397 54.4238 198.099Z" fill="#EA7924"/>
<path fill-rule="evenodd" clip-rule="evenodd" d="M215.684 344.33C196.316 340.727 170.837 338.097 139.248 336.442C135.038 353.177 118.413 358.689 81.5553 361.826C71.3661 363.123 62.9355 362.883 57.0117 361.774C70.7377 387.051 117.23 391.314 196.487 374.562C202.92 398.238 207.36 400.306 224.665 463.012C233.086 466.308 245.341 459.246 243.502 451.932C235.256 423.852 239.126 397.904 233.044 368.324C230.436 355.569 226.249 346.479 215.684 344.33Z" fill="#1B2452"/>
<path fill-rule="evenodd" clip-rule="evenodd" d="M126.604 384.371C125.351 409.648 131.9 419.525 132.434 461.022C138.423 464.437 148.628 465.267 152.709 458.073C153.681 424.717 154.762 399.787 155.948 381.675C145.355 383.101 135.574 383.999 126.604 384.371Z" fill="#071023"/>
<path fill-rule="evenodd" clip-rule="evenodd" d="M168.73 257.28C139.899 221.911 120.912 203.068 111.77 200.75C93.3084 208.291 104.152 237.304 115.478 247.062C125.935 259.212 141.145 270.177 161.109 279.958C170.523 283.788 193.929 283.227 231.327 278.276C233.85 272.536 233.114 268.158 229.166 265.115C195.96 260.844 175.815 258.232 168.73 257.28Z" fill="#F59B1D"/>
<path fill-rule="evenodd" clip-rule="evenodd" d="M184.203 254.104C178.645 255.024 173.028 255.541 167.396 255.65C167.85 256.184 168.274 256.732 168.731 257.27C172.078 257.724 178.339 258.547 187.516 259.739C186.894 256.892 185.79 255.014 184.203 254.104Z" fill="#EA7924"/>
<path fill-rule="evenodd" clip-rule="evenodd" d="M128.498 279.529C139.316 278.488 147.293 277.131 152.43 275.459C136.689 266.85 124.372 257.387 115.479 247.069C120.598 258.882 124.938 269.702 128.498 279.529Z" fill="#EA7924"/>
<path fill-rule="evenodd" clip-rule="evenodd" d="M231.798 277.099C234.02 277.787 236.351 278.051 238.671 277.877C245.527 275.45 247.859 269.801 251.542 268.508C254.246 268.689 256.932 269.086 259.574 269.694C264.4 269.133 260.878 266.54 249.009 261.917C241.883 262.066 235.587 263.401 230.12 265.923C232.974 268.687 233.547 272.404 231.798 277.08V277.099ZM196.819 253.048C192.987 253.448 189.191 254.145 185.467 255.132C186.402 256.173 187.092 257.712 187.536 259.749C190.911 260.177 194.684 260.67 198.846 261.204C199.569 260.384 200.349 259.616 201.181 258.907C208.106 260.43 211.345 260.99 211.027 259.908C208.151 257.508 203.412 255.221 196.809 253.048H196.819Z" fill="#FAB688"/>
<path fill-rule="evenodd" clip-rule="evenodd" d="M236.52 479.147C261.439 480.35 273.88 479.607 273.844 476.917C273.766 470.271 259.146 472.62 247.486 461.45C247.221 468.579 238.761 470.712 232.811 468.378C229.984 466.243 227.73 465.786 226.01 466.975C224.689 469.218 224.235 472.209 224.689 475.932C226.066 478.265 230.006 479.337 236.507 479.147H236.52ZM141.652 476.852C166.568 478.038 169.759 473.728 169.716 471.045C169.344 466.402 161.943 469.749 151.683 461.181C151.417 468.31 146.387 469.83 140.425 467.481C137.61 465.345 135.767 463.825 131.541 467.202C130.206 469.444 129.779 471.366 130.206 475.102C131.593 477.413 135.155 477.011 141.652 476.852Z" fill="#1B2452"/>
<path fill-rule="evenodd" clip-rule="evenodd" d="M226.703 463.598C226.865 464.571 226.972 465.543 227.027 466.482C228.588 466 230.508 466.641 232.801 468.378C238.22 470.514 245.689 468.936 247.211 463.278C245.449 461.657 244.034 459.366 242.968 456.404C240.633 461.223 233.044 464.83 226.693 463.598H226.703ZM134.329 461.946C134.223 463.227 134.022 464.499 133.727 465.75C136.502 464.415 138.141 465.75 140.424 467.458C145.866 469.593 150.549 468.514 151.521 462.869C151.095 462.222 150.738 461.532 150.455 460.811C146.186 464.48 139.356 464.091 134.329 461.946Z" fill="#FAB688"/>
<path fill-rule="evenodd" clip-rule="evenodd" d="M34.5742 370.637H41.7384L35.4454 317.18H23.8894C14.6199 317.18 6.14724 309.587 5.04281 300.329L0.119831 258.486C-0.987838 249.208 5.70999 241.634 14.9794 241.634H52.8734C62.146 241.634 70.6284 249.214 71.7232 258.486L76.6591 300.329C77.7506 309.603 71.056 317.18 61.7833 317.18H50.2499L56.5591 370.65H166.328C168.7 370.657 170.973 371.603 172.65 373.28C174.327 374.958 175.273 377.231 175.28 379.604C175.274 381.978 174.328 384.252 172.651 385.93C170.974 387.609 168.701 388.555 166.328 388.561H102.994V413.919H106.634V452.826L145.176 455.471C146.831 455.578 148.178 456.832 148.178 458.472V461.489H49.1552V457.992C49.173 457.331 49.4425 456.702 49.9085 456.233C50.3744 455.765 51.0017 455.492 51.662 455.471L90.6928 452.826V413.906H94.3235V388.548H34.5742C32.2026 388.541 29.9304 387.594 28.2538 385.916C26.5771 384.238 25.6322 381.964 25.6254 379.591C25.6322 377.219 26.5772 374.945 28.254 373.267C29.9307 371.59 32.2029 370.644 34.5742 370.637ZM147.76 478.492C149.034 478.493 150.279 478.117 151.338 477.41C152.398 476.703 153.223 475.697 153.711 474.52C154.199 473.343 154.327 472.048 154.079 470.798C153.831 469.549 153.218 468.401 152.317 467.5C151.417 466.599 150.27 465.986 149.021 465.737C147.772 465.489 146.477 465.617 145.301 466.105C144.125 466.593 143.12 467.42 142.413 468.48C141.707 469.54 141.33 470.785 141.331 472.059C141.331 473.766 142.009 475.402 143.214 476.608C144.42 477.814 146.055 478.492 147.76 478.492ZM81.3845 465.614C82.6574 465.612 83.9024 465.988 84.9618 466.694C86.0213 467.4 86.8476 468.405 87.3364 469.581C87.8252 470.757 87.9544 472.051 87.7077 473.301C87.461 474.55 86.8495 475.699 85.9505 476.6C85.0515 477.502 83.9054 478.117 82.6572 478.367C81.409 478.617 80.1148 478.491 78.9382 478.005C77.7616 477.519 76.7555 476.694 76.0471 475.636C75.3388 474.578 74.96 473.333 74.9587 472.059C74.9579 470.351 75.6349 468.713 76.8411 467.504C78.0473 466.296 79.6839 465.616 81.391 465.614H81.3845ZM117.759 465.614C119.032 465.613 120.277 465.989 121.336 466.695C122.395 467.402 123.221 468.407 123.709 469.583C124.197 470.759 124.326 472.054 124.079 473.303C123.832 474.552 123.22 475.7 122.321 476.602C121.422 477.503 120.276 478.117 119.028 478.367C117.78 478.617 116.486 478.491 115.309 478.004C114.133 477.518 113.127 476.694 112.419 475.636C111.71 474.578 111.332 473.333 111.33 472.059C111.328 471.214 111.493 470.375 111.815 469.593C112.137 468.811 112.611 468.1 113.208 467.502C113.805 466.903 114.515 466.428 115.296 466.104C116.077 465.78 116.914 465.613 117.759 465.614ZM51.3965 465.614C52.6693 465.613 53.9139 465.989 54.9729 466.695C56.0319 467.402 56.8578 468.407 57.3461 469.583C57.8343 470.759 57.9631 472.054 57.716 473.303C57.469 474.552 56.8572 475.7 55.9581 476.602C55.059 477.503 53.9129 478.117 52.6648 478.367C51.4167 478.617 50.1226 478.491 48.9462 478.004C47.7698 477.518 46.7638 476.694 46.0556 475.636C45.3474 474.578 44.9687 473.333 44.9674 472.059C44.9666 470.352 45.6432 468.714 46.8487 467.505C48.0542 466.297 49.6899 465.616 51.3965 465.614Z" fill="#733E19"/>
<path fill-rule="evenodd" clip-rule="evenodd" d="M71.72 258.469L76.6559 300.312C77.7474 309.587 71.0528 317.163 61.7801 317.163H50.25L55.4774 361.453C55.96 361.573 56.4782 361.68 57.0126 361.777C57.6927 361.897 58.3988 362.017 59.1469 362.124L54.2887 320.88H62.8521C73.7377 320.88 81.6372 311.846 80.3416 301.061L75.4057 259.214C74.1523 248.656 64.4942 241.067 53.8515 241.067H32.5596L32.5078 241.602H52.8766C62.1493 241.611 70.6317 249.191 71.72 258.469Z" fill="#EA7924"/>
<path fill-rule="evenodd" clip-rule="evenodd" d="M178.681 378.058C178.09 375.502 176.652 373.221 174.601 371.585C172.55 369.95 170.007 369.056 167.384 369.05H62.4277C62.9751 369.594 63.5354 370.116 64.1087 370.638H166.328C168.543 370.645 170.678 371.47 172.322 372.955C173.967 374.44 175.005 376.48 175.238 378.684C176.375 378.483 177.535 378.272 178.681 378.058Z" fill="#071023"/>
<path fill-rule="evenodd" clip-rule="evenodd" d="M243.484 209.418H297.323C297.518 209.409 297.714 209.447 297.892 209.528C298.07 209.609 298.227 209.732 298.348 209.886C298.47 210.04 298.552 210.221 298.59 210.414C298.627 210.606 298.618 210.805 298.563 210.993C298.46 211.43 298.216 211.821 297.869 212.106C297.522 212.391 297.091 212.553 296.642 212.568H242.791C242.595 212.578 242.399 212.541 242.22 212.46C242.042 212.379 241.885 212.256 241.763 212.102C241.642 211.948 241.559 211.766 241.522 211.574C241.485 211.381 241.495 211.182 241.55 210.993C241.657 210.556 241.903 210.165 242.253 209.881C242.602 209.596 243.034 209.434 243.484 209.418Z" fill="white"/>
<path fill-rule="evenodd" clip-rule="evenodd" d="M240.523 216.823H294.388C294.583 216.818 294.777 216.858 294.954 216.942C295.131 217.025 295.286 217.15 295.406 217.305C295.525 217.459 295.607 217.64 295.643 217.833C295.68 218.025 295.67 218.223 295.615 218.411C295.507 218.845 295.261 219.233 294.915 219.516C294.569 219.8 294.141 219.965 293.695 219.986H239.83C239.636 219.993 239.442 219.953 239.266 219.87C239.09 219.788 238.935 219.665 238.816 219.511C238.696 219.358 238.614 219.178 238.577 218.987C238.54 218.796 238.549 218.598 238.603 218.411C238.709 217.975 238.954 217.585 239.3 217.299C239.646 217.013 240.075 216.846 240.523 216.823Z" fill="white"/>
<path fill-rule="evenodd" clip-rule="evenodd" d="M237.962 226.474L225.531 255.85H232.187L244.605 226.474H237.962Z" fill="#EC1C24"/>
<path fill-rule="evenodd" clip-rule="evenodd" d="M248.726 235.402L240.082 255.85H246.725L255.369 235.402H248.726Z" fill="#528CC9"/>
<path fill-rule="evenodd" clip-rule="evenodd" d="M265.067 231.135L254.625 255.85H261.281L271.713 231.135H265.067Z" fill="#F59B1D"/>
<path fill-rule="evenodd" clip-rule="evenodd" d="M274.34 243.627L269.164 255.851H275.82L280.982 243.627H274.34Z" fill="#54A175"/>
<path fill-rule="evenodd" clip-rule="evenodd" d="M214.081 220.467C217.044 221.022 218.066 216.596 215.074 215.819C213.488 215.522 211.947 215.233 210.373 214.868C209.769 214.76 209.146 214.891 208.636 215.232C208.126 215.574 207.768 216.099 207.636 216.699C207.505 217.299 207.611 217.927 207.933 218.45C208.254 218.974 208.765 219.352 209.359 219.507C210.936 219.855 212.495 220.17 214.081 220.467ZM226.576 90.5294C225.986 90.7283 225.497 91.1506 225.215 91.7059C224.932 92.2612 224.878 92.9053 225.065 93.4998C225.251 94.0944 225.663 94.5921 226.212 94.8863C226.761 95.1805 227.404 95.2476 228.002 95.0734C229.394 94.589 231.021 94.1662 232.491 93.7668C232.575 93.7296 232.647 93.7196 232.723 93.687C233.019 93.5795 233.289 93.4126 233.517 93.1968C233.746 92.9809 233.928 92.7206 234.052 92.4317C234.177 92.1429 234.241 91.8317 234.24 91.5173C234.24 91.2028 234.175 90.8917 234.051 90.6031C233.983 90.3088 233.851 90.0331 233.665 89.7954C233.479 89.5578 233.242 89.364 232.973 89.2279C232.704 89.0918 232.407 89.0166 232.106 89.0078C231.804 88.9989 231.504 89.0566 231.227 89.1767C229.655 89.5864 228.133 90.0464 226.576 90.5294ZM182.127 102.987C183.444 102.218 184.819 101.514 186.198 100.851C188.791 99.5236 187.259 95.7105 184.569 96.392C184.407 96.4312 184.25 96.4905 184.102 96.5685C182.62 97.2825 181.169 98.0493 179.756 98.8936C179.214 99.2082 178.818 99.7256 178.657 100.332C178.496 100.938 178.582 101.584 178.896 102.127C179.211 102.669 179.728 103.065 180.334 103.226C180.94 103.388 181.585 103.302 182.127 102.987ZM363.036 78.9916C363.619 79.0353 364.198 78.8623 364.661 78.5058C365.125 78.1492 365.44 77.6342 365.548 77.0593C365.655 76.4844 365.547 75.89 365.244 75.3899C364.941 74.8899 364.464 74.5193 363.905 74.3491C363.749 74.2905 363.584 74.2596 363.418 74.2578C361.824 74.1238 360.244 74.0449 358.621 73.9463C355.723 73.7616 355.112 78.0944 358.126 78.6588C359.716 78.8099 361.464 78.873 363.059 78.9958L363.036 78.9916ZM344.2 78.2217C347.269 78.2097 347.446 73.6549 344.317 73.4562C342.7 73.4468 341.112 73.4133 339.496 73.3983C336.478 73.4198 336.2 77.9792 339.457 78.1549C341.022 78.1547 342.634 78.1925 344.2 78.2217ZM325.279 78.2752C325.875 78.2628 326.443 78.027 326.873 77.6148C327.303 77.2025 327.562 76.6437 327.6 76.0491C327.637 75.4546 327.45 74.8676 327.075 74.4046C326.701 73.9416 326.166 73.6363 325.577 73.5493L325.172 73.5203L320.394 73.6406C319.809 73.7192 319.274 74.013 318.893 74.4649C318.513 74.9167 318.314 75.4942 318.337 76.0846C318.359 76.6749 318.6 77.2359 319.013 77.658C319.426 78.08 319.982 78.333 320.571 78.3674L325.282 78.2582L325.279 78.2752ZM306.368 79.0637C309.336 78.8686 309.38 74.3064 306.083 74.3168C304.496 74.4303 302.885 74.5159 301.289 74.651C300.693 74.6958 300.136 74.9636 299.729 75.401C299.322 75.8385 299.094 76.4134 299.092 77.0111C299.09 77.6089 299.313 78.1856 299.716 78.6261C300.12 79.0667 300.675 79.3388 301.27 79.3881C302.91 79.4018 304.697 79.1557 306.352 79.0843L306.368 79.0637ZM287.569 80.6652C288.148 80.5876 288.678 80.3007 289.06 79.8586C289.442 79.4165 289.65 78.8497 289.643 78.2652C289.636 77.6808 289.416 77.119 289.023 76.6859C288.631 76.2528 288.094 75.9784 287.513 75.9143C287.349 75.9129 287.203 75.9091 287.031 75.9237C285.425 76.1042 283.847 76.2957 282.236 76.4751C281.758 76.5367 281.309 76.7427 280.951 77.0657C280.592 77.3887 280.34 77.8132 280.229 78.283C280.118 78.7527 280.152 79.2452 280.327 79.695C280.503 80.1447 280.811 80.5304 281.21 80.8006C281.696 81.1182 282.275 81.2617 282.852 81.2078C284.385 81.0078 285.962 80.822 287.54 80.6599L287.569 80.6652ZM268.901 83.2831C269.308 83.2105 269.688 83.034 270.006 82.7706C270.324 82.5073 270.569 82.1661 270.716 81.7802C270.863 81.3943 270.908 80.9769 270.846 80.5686C270.784 80.1602 270.618 79.7748 270.363 79.4499C270.097 79.1074 269.741 78.8453 269.335 78.6926C268.928 78.54 268.488 78.5027 268.062 78.5849C266.495 78.8429 264.91 79.168 263.359 79.4643C260.4 80.0484 261.046 84.5873 264.197 84.1388L268.906 83.2604L268.901 83.2831ZM250.557 87.3108C253.54 86.473 252.358 81.9453 249.288 82.7491C247.738 83.163 246.193 83.6187 244.659 84.106C244.076 84.3024 243.591 84.7187 243.309 85.2665C243.026 85.8143 242.969 86.4506 243.147 87.0405C243.326 87.6303 243.727 88.1273 244.266 88.426C244.805 88.7246 245.439 88.8016 246.034 88.6404C247.482 88.1372 249.137 87.7254 250.557 87.3108ZM218.048 103.553C219.981 101.621 217.474 98.2532 214.93 99.9711C214.827 100.052 214.731 100.139 214.641 100.234C213.451 101.453 212.351 102.757 211.348 104.135C209.71 106.439 212.85 109.274 214.986 107.163L215.231 106.892C216.079 105.705 217.021 104.589 218.048 103.553ZM211.01 118.862C211.035 118.542 210.995 118.219 210.893 117.915C210.79 117.61 210.627 117.329 210.413 117.089C210.199 116.849 209.939 116.655 209.648 116.518C209.357 116.382 209.042 116.306 208.721 116.294C208.4 116.283 208.08 116.337 207.78 116.452C207.48 116.568 207.207 116.743 206.977 116.967C206.746 117.192 206.564 117.46 206.44 117.757C206.316 118.054 206.254 118.372 206.256 118.694C206.19 120.422 206.278 122.153 206.52 123.865C206.934 126.7 211.301 126.52 211.241 123.423C211.053 121.911 210.975 120.386 211.01 118.862ZM215.556 135.684C213.879 133.023 209.914 135.378 211.456 138.107C212.336 139.566 213.308 140.966 214.365 142.301C216.314 144.673 219.975 141.873 218.06 139.321C217.131 138.176 216.294 136.96 215.556 135.684ZM228.25 147.729C225.823 146.377 223.265 149.864 225.779 151.784C227.308 152.648 228.89 153.412 230.517 154.074C231.026 154.279 231.589 154.303 232.114 154.142C232.638 153.981 233.092 153.644 233.397 153.188C233.703 152.733 233.843 152.186 233.794 151.639C233.745 151.092 233.509 150.579 233.126 150.186C232.893 149.955 232.616 149.771 232.312 149.646C230.924 149.075 229.606 148.441 228.253 147.712L228.25 147.729ZM245.424 152.876C244.804 152.834 244.193 153.037 243.722 153.441C243.25 153.844 242.955 154.417 242.9 155.035C242.845 155.654 243.034 156.269 243.427 156.75C243.82 157.231 244.385 157.539 245.002 157.608C246.646 157.774 248.298 157.856 249.951 157.854C252.969 157.867 253.152 153.284 250.068 153.094C248.485 153.062 246.995 153 245.418 152.874L245.424 152.876ZM263.234 151.136C262.888 151.255 262.574 151.453 262.316 151.713C262.058 151.973 261.864 152.289 261.748 152.637C261.632 152.984 261.597 153.354 261.647 153.717C261.697 154.08 261.829 154.427 262.034 154.731C262.333 155.154 262.759 155.469 263.25 155.631C263.742 155.793 264.272 155.792 264.763 155.629C266.381 155.092 267.957 154.434 269.476 153.66C272.06 152.384 270.372 148.242 267.481 149.344C266.104 150.03 264.686 150.628 263.234 151.136ZM275.291 140.662C274.549 143.592 278.921 144.891 279.885 141.933C280.357 140.088 280.501 138.175 280.309 136.28C279.966 133.224 275.404 133.602 275.588 136.752C275.727 138.062 275.626 139.387 275.291 140.662ZM270.257 125.193C272.247 127.595 275.888 124.775 273.974 122.216C272.935 120.936 271.865 119.697 270.713 118.49C270.292 118.063 269.726 117.811 269.127 117.785C268.529 117.759 267.943 117.961 267.487 118.351C267.031 118.74 266.74 119.287 266.672 119.883C266.603 120.478 266.763 121.078 267.119 121.56C268.165 122.8 269.24 123.917 270.257 125.193ZM256.707 112.992C257.145 113.291 257.671 113.435 258.201 113.4C258.731 113.366 259.234 113.155 259.63 112.802C260.026 112.449 260.293 111.973 260.388 111.45C260.483 110.928 260.401 110.389 260.155 109.918C259.976 109.566 259.709 109.265 259.38 109.046C257.998 108.159 256.689 107.286 255.28 106.418C254.74 106.107 254.099 106.021 253.496 106.177C252.892 106.334 252.375 106.721 252.053 107.256C251.732 107.79 251.633 108.43 251.778 109.036C251.923 109.643 252.3 110.168 252.828 110.5C254.172 111.309 255.414 112.158 256.708 112.987L256.707 112.992ZM240.424 104.241C243.213 105.35 245.058 101.412 242.44 99.9243C240.932 99.2078 239.266 98.6788 237.714 98.0714C235.216 97.0991 233.214 100.684 235.622 102.297C235.771 102.403 235.931 102.49 236.101 102.557C237.553 103.069 238.991 103.626 240.43 104.212L240.424 104.241ZM222.716 98.8476C221.175 98.5591 219.663 98.2758 218.109 98.0553C215.072 97.4867 215.775 92.9774 218.841 93.3579C220.444 93.5643 222.131 93.8567 223.713 94.1764C226.75 94.9622 225.724 99.4109 222.716 98.8476ZM204.403 97.3485C207.455 97.175 207.385 92.6267 204.226 92.6217C202.564 92.6978 200.927 92.8255 199.271 93.0258C198.641 93.0711 198.054 93.3652 197.64 93.8434C197.226 94.3215 197.019 94.9446 197.065 95.5755C197.11 96.2064 197.404 96.7934 197.882 97.2075C198.36 97.6215 198.982 97.8287 199.613 97.7834C201.228 97.6458 202.761 97.4752 204.377 97.3907L204.403 97.3485ZM170.137 108.908C172.467 107.174 170.321 103.663 167.792 104.797C167.642 104.875 167.497 104.961 167.357 105.055C166.005 106.011 164.719 107.026 163.457 108.068C161.193 110.109 163.961 113.648 166.5 111.707C167.646 110.718 168.907 109.81 170.137 108.908ZM157.289 121.704C157.596 121.226 157.723 120.653 157.646 120.09C157.568 119.527 157.292 119.009 156.867 118.632C156.441 118.255 155.895 118.042 155.327 118.033C154.759 118.023 154.206 118.218 153.768 118.581C153.648 118.705 153.535 118.837 153.431 118.975C152.476 120.345 151.59 121.699 150.769 123.141C150.468 123.667 150.381 124.289 150.526 124.877C150.671 125.465 151.037 125.975 151.548 126.301C152.059 126.627 152.675 126.743 153.269 126.627C153.864 126.51 154.39 126.169 154.74 125.674C155.622 124.314 156.403 123.052 157.317 121.709L157.289 121.704ZM149.543 138.036C149.68 137.526 149.642 136.984 149.434 136.498C149.226 136.012 148.86 135.61 148.396 135.358C148.08 135.18 147.728 135.077 147.367 135.057C147.005 135.037 146.644 135.099 146.311 135.24C145.977 135.381 145.68 135.596 145.442 135.869C145.205 136.142 145.033 136.466 144.939 136.816C144.496 138.4 144.141 140.046 143.84 141.656C143.329 144.389 147.514 145.777 148.486 142.65C148.828 141.071 149.104 139.597 149.543 138.036ZM147.86 156.062C147.816 155.472 147.547 154.922 147.109 154.525C146.76 154.199 146.319 153.987 145.847 153.917C145.374 153.847 144.891 153.922 144.462 154.132C144.033 154.342 143.678 154.677 143.443 155.094C143.208 155.51 143.105 155.988 143.146 156.464C143.265 158.115 143.474 159.758 143.774 161.386C143.87 161.967 144.179 162.492 144.64 162.857C145.102 163.222 145.684 163.401 146.271 163.36C146.858 163.319 147.408 163.06 147.815 162.634C148.221 162.208 148.454 161.645 148.468 161.057C148.473 160.892 148.456 160.727 148.419 160.566C148.183 159.097 147.969 157.549 147.86 156.062ZM152.4 173.609C151.222 171.001 147.105 172.354 147.975 175.321C148.636 176.93 149.401 178.494 150.266 180.004C150.547 180.52 151.01 180.913 151.565 181.105C152.12 181.298 152.727 181.277 153.268 181.047C153.808 180.816 154.243 180.392 154.488 179.857C154.733 179.323 154.77 178.716 154.593 178.156C154.562 177.991 154.502 177.833 154.416 177.689C153.671 176.376 153.016 174.986 152.4 173.609ZM162.298 188.875C161.989 188.539 161.591 188.297 161.15 188.179C160.657 188.048 160.134 188.08 159.66 188.269C159.186 188.458 158.786 188.794 158.517 189.228C158.249 189.662 158.127 190.171 158.169 190.68C158.212 191.189 158.417 191.671 158.754 192.054C159.875 193.302 160.99 194.456 162.144 195.622C164.112 197.639 167.552 194.922 165.67 192.446L165.469 192.238C164.39 191.138 163.339 190.049 162.301 188.887L162.298 188.875ZM176.187 200.863C175.662 200.548 175.037 200.447 174.441 200.582C173.845 200.717 173.323 201.077 172.985 201.587C172.648 202.096 172.519 202.717 172.627 203.319C172.735 203.921 173.071 204.458 173.564 204.819C174.942 205.728 176.323 206.591 177.714 207.432C178.244 207.701 178.855 207.761 179.428 207.601C180 207.441 180.492 207.073 180.807 206.569C181.122 206.064 181.237 205.46 181.129 204.876C181.021 204.291 180.699 203.768 180.225 203.408C178.881 202.57 177.535 201.772 176.158 200.857L176.187 200.863ZM192.586 209.396C192.027 209.213 191.42 209.244 190.882 209.482C190.344 209.721 189.912 210.149 189.671 210.686C189.429 211.223 189.395 211.83 189.573 212.391C189.752 212.952 190.131 213.427 190.639 213.725C192.155 214.396 193.84 214.952 195.377 215.51C198.338 216.451 199.912 212.176 196.967 211.02C195.524 210.586 193.994 209.988 192.584 209.407L192.586 209.396Z" fill="#1F1F1F"/>
<path fill-rule="evenodd" clip-rule="evenodd" d="M488.129 86.696L402.255 77.458L408.221 112.567L488.129 86.696Z" fill="#ED1C24"/>
<path fill-rule="evenodd" clip-rule="evenodd" d="M398.637 60.4525L485.919 85.705L384.912 40.1655L398.637 60.4525Z" fill="#ED1C24"/>
<path fill-rule="evenodd" clip-rule="evenodd" d="M398.637 60.453L382.962 93.8185L402.255 77.4582L488.129 86.6962L485.92 85.7054L398.637 60.453Z" fill="#B4171D"/>
<path fill-rule="evenodd" clip-rule="evenodd" d="M382.962 93.818L404.908 93.0196L402.254 77.4582L382.962 93.818Z" fill="#B4171D"/>
</svg>
