<svg width="502" height="361" viewBox="0 0 502 361" fill="none" xmlns="http://www.w3.org/2000/svg">
<g opacity="0.3">
<path opacity="0.3" d="M197.443 23.4136C196.965 23.0553 196.846 22.3982 197.144 21.8607C197.861 20.7258 198.578 19.6507 199.355 18.5756C199.713 18.0381 200.49 17.9783 200.968 18.3367C201.446 18.6951 201.565 19.4118 201.207 19.9494C200.43 20.9648 199.773 21.9801 199.056 23.0553C198.698 23.5928 197.981 23.772 197.443 23.4136C197.503 23.4136 197.562 23.4734 197.443 23.4136ZM203.716 15.4697C203.656 15.4697 203.656 15.41 203.596 15.3503C203.118 14.8724 203.118 14.1557 203.596 13.7376C204.492 12.7819 205.508 11.886 206.464 11.0498C206.942 10.6317 207.659 10.6914 208.077 11.1693C208.495 11.6471 208.435 12.3638 207.957 12.7819C207.001 13.6181 206.105 14.4543 205.209 15.3503C204.851 15.7684 204.194 15.8281 203.716 15.4697ZM211.602 9.13848C211.482 9.07876 211.422 8.9593 211.363 8.83984C211.004 8.30228 211.183 7.58554 211.721 7.22717C212.856 6.51042 213.991 5.85341 215.126 5.25612C215.724 4.95748 216.381 5.19639 216.679 5.73395C216.978 6.33124 216.739 6.98825 216.202 7.2869C215.066 7.88418 213.991 8.48147 212.976 9.13848C212.498 9.43713 211.96 9.3774 211.602 9.13848ZM220.682 4.65883C220.503 4.53938 220.383 4.36019 220.324 4.12128C220.085 3.52399 220.443 2.86698 221.041 2.62806C222.295 2.20996 223.55 1.79186 224.804 1.43349C225.402 1.2543 226.059 1.61267 226.238 2.26969C226.417 2.86698 226.059 3.52399 225.402 3.70318C224.207 4.00182 223.012 4.41992 221.817 4.83802C221.399 4.95748 220.981 4.89775 220.682 4.65883ZM230.539 2.38915C230.3 2.20996 230.121 1.91132 230.121 1.61267C230.061 0.955658 230.48 0.418101 231.137 0.298643C232.451 0.119457 233.765 0.0597287 235.08 0C235.737 0 236.274 0.477829 236.274 1.13484C236.274 1.79186 235.796 2.32942 235.139 2.32942C233.885 2.38915 232.63 2.44887 231.376 2.62806C231.077 2.62806 230.778 2.56833 230.539 2.38915ZM240.635 2.32942C240.337 2.0905 240.158 1.73213 240.217 1.31403C240.277 0.657015 240.874 0.238915 241.472 0.298643C242.786 0.418101 244.1 0.657015 245.415 0.89593C246.072 1.01539 246.43 1.61267 246.311 2.26969C246.191 2.9267 245.594 3.28508 244.937 3.16562C243.682 2.9267 242.487 2.74752 241.233 2.62806C240.994 2.5086 240.815 2.44887 240.635 2.32942ZM275.882 26.2209C275.763 26.1014 275.643 25.982 275.584 25.8625C274.986 24.7874 274.389 23.6525 273.672 22.6372C273.314 22.0996 273.493 21.3829 274.03 21.0245C274.568 20.6661 275.285 20.8453 275.643 21.3829C276.36 22.5177 277.017 23.6525 277.615 24.7874C277.914 25.3847 277.675 26.0417 277.137 26.3403C276.719 26.5792 276.241 26.5195 275.882 26.2209ZM250.493 4.47965C250.134 4.18101 249.955 3.64345 250.134 3.16562C250.313 2.56833 251.03 2.20996 251.628 2.44887C252.882 2.86698 254.137 3.3448 255.332 3.88236C255.929 4.12128 256.168 4.83802 255.929 5.43531C255.69 6.03259 254.973 6.27151 254.376 6.03259C253.241 5.55476 252.046 5.07694 250.851 4.65883C250.732 4.59911 250.612 4.53938 250.493 4.47965ZM270.207 17.8589C270.147 17.7991 270.088 17.7394 270.028 17.6797C269.191 16.724 268.355 15.8281 267.459 14.9322C266.981 14.4543 266.981 13.7376 267.459 13.3195C267.937 12.8417 268.654 12.8417 269.072 13.3195C270.028 14.2154 270.924 15.2308 271.76 16.1865C272.178 16.6643 272.119 17.381 271.641 17.7991C271.282 18.2172 270.625 18.2172 270.207 17.8589ZM259.633 8.78011C259.155 8.42174 259.036 7.76473 259.334 7.22717C259.693 6.68961 260.41 6.51042 260.947 6.86879C262.082 7.58554 263.158 8.30228 264.233 9.07876C264.711 9.43713 264.83 10.1539 264.472 10.6914C264.114 11.229 263.337 11.2887 262.859 10.9303C261.843 10.2136 260.828 9.49686 259.752 8.83984C259.693 8.83984 259.693 8.83984 259.633 8.78011Z" fill="#BDD0FB"/>
<path opacity="0.3" d="M278.989 33.7466C278.81 33.6271 278.69 33.3882 278.571 33.1493C278.391 32.552 278.212 32.0145 277.973 31.4172C277.734 30.8199 278.093 30.1629 278.69 29.924C279.288 29.685 279.945 30.0434 280.184 30.6407C280.423 31.238 280.602 31.8353 280.781 32.4326C280.96 33.0299 280.602 33.6869 280.004 33.8661C279.706 34.0452 279.288 33.9855 278.989 33.7466Z" fill="#BDD0FB"/>
</g>
<g opacity="0.3">
<path opacity="0.3" d="M275.524 68.9268C275.106 68.5684 274.927 67.9711 275.225 67.4336C275.524 66.896 275.823 66.3585 276.062 65.8209C276.361 65.2236 277.018 64.9847 277.615 65.2834C278.212 65.582 278.451 66.239 278.153 66.8363C277.854 67.3739 277.555 67.9711 277.257 68.5087C276.958 69.0463 276.241 69.2852 275.703 68.9865C275.584 69.0463 275.524 68.9865 275.524 68.9268Z" fill="#BDD0FB"/>
<path opacity="0.3" d="M208.137 82.9031C207.718 82.6044 207.3 82.2461 206.882 81.8877C206.404 81.4696 206.344 80.7528 206.763 80.275C207.181 79.7972 207.898 79.7375 208.376 80.1556C209.331 80.932 210.287 81.7085 211.303 82.4252C211.841 82.7836 211.96 83.5004 211.602 84.0379C211.243 84.5755 210.526 84.6949 209.989 84.3366C209.391 83.8587 208.734 83.3809 208.137 82.9031ZM202.461 77.647C202.402 77.5872 202.342 77.5872 202.342 77.5275C201.446 76.5718 200.609 75.5565 199.833 74.5411C199.415 74.0632 199.534 73.2868 200.072 72.9284C200.609 72.5103 201.326 72.6298 201.685 73.1673C202.461 74.123 203.238 75.0786 204.074 75.9746C204.493 76.4524 204.493 77.1691 204.015 77.5872C203.537 78.0053 202.939 78.0053 202.461 77.647ZM215.246 87.4424C214.828 87.0841 214.648 86.4868 214.947 86.009C215.246 85.4117 215.963 85.2325 216.5 85.5311C217.576 86.0687 218.711 86.6062 219.846 87.0841C220.443 87.323 220.742 87.98 220.503 88.5773C220.264 89.1746 219.607 89.4732 219.009 89.2343C217.815 88.7565 216.62 88.2189 215.485 87.6216C215.365 87.5022 215.306 87.5022 215.246 87.4424ZM196.607 69.6433C196.487 69.5239 196.368 69.4641 196.308 69.285C195.651 68.1501 195.053 67.0153 194.516 65.8207C194.217 65.2234 194.516 64.5664 195.053 64.2677C195.651 63.9691 196.308 64.2678 196.607 64.8053C197.144 65.9402 197.682 67.0153 198.279 68.0904C198.578 68.6279 198.399 69.3447 197.861 69.6433C197.503 69.942 196.965 69.942 196.607 69.6433ZM224.506 90.9664C224.147 90.6678 223.968 90.2497 224.087 89.7719C224.267 89.1746 224.864 88.7565 225.521 88.9357C226.716 89.2343 227.911 89.5329 229.165 89.7121C229.823 89.8316 230.241 90.4289 230.121 91.0262C230.002 91.6832 229.404 92.1013 228.807 91.9818C227.552 91.7429 226.238 91.504 224.984 91.1456C224.804 91.1456 224.625 91.0859 224.506 90.9664ZM234.363 92.3999C234.064 92.161 233.885 91.8026 233.945 91.4443C233.945 90.7872 234.482 90.3094 235.139 90.3094C236.394 90.3691 237.589 90.3094 238.843 90.2497C239.5 90.19 240.038 90.7275 240.038 91.3248C240.098 91.9818 239.56 92.5194 238.963 92.5194C237.649 92.5791 236.334 92.5791 235.08 92.5791C234.781 92.6388 234.542 92.5194 234.363 92.3999ZM244.28 91.6234C244.041 91.4443 243.921 91.2053 243.862 90.9067C243.742 90.2497 244.16 89.6524 244.758 89.5329C245.952 89.294 247.207 88.9954 248.342 88.6967C248.94 88.5176 249.597 88.8759 249.776 89.5329C249.955 90.1302 249.597 90.7872 248.94 90.9664C247.685 91.3248 246.43 91.6234 245.176 91.8624C244.877 91.9221 244.519 91.8026 244.28 91.6234ZM253.779 88.6967C253.659 88.5773 253.48 88.3981 253.42 88.2189C253.181 87.6216 253.42 86.9646 254.017 86.666C255.153 86.1881 256.288 85.6506 257.363 85.0533C257.901 84.7547 258.618 84.9936 258.916 85.5311C259.215 86.0687 259.036 86.7854 258.438 87.0841C257.303 87.6814 256.108 88.2786 254.914 88.7565C254.555 89.0551 254.137 88.9954 253.779 88.6967ZM262.441 83.799C262.381 83.7393 262.262 83.6795 262.202 83.5601C261.843 83.0225 261.963 82.3058 262.441 81.9474C263.456 81.2307 264.412 80.4542 265.308 79.618C265.786 79.1999 266.503 79.2596 266.921 79.7375C267.34 80.2153 267.28 80.932 266.802 81.3501C265.846 82.1863 264.771 83.0225 263.755 83.799C263.397 84.0976 262.859 84.0976 262.441 83.799ZM269.789 77.1094C269.789 77.0497 269.729 77.0497 269.789 77.1094C269.251 76.6316 269.192 75.9148 269.61 75.437C270.207 74.78 270.805 74.0632 271.342 73.3465C271.521 73.1076 271.76 72.8089 271.94 72.57C272.298 72.0325 273.075 71.9727 273.553 72.3311C274.09 72.6895 274.15 73.466 273.792 73.9438C273.612 74.2424 273.373 74.4813 273.194 74.78C272.597 75.5565 271.999 76.2732 271.342 76.9899C270.984 77.408 270.267 77.4678 269.789 77.1094Z" fill="#BDD0FB"/>
<path opacity="0.3" d="M192.664 60.505C192.485 60.3855 192.365 60.1466 192.246 59.9077C192.067 59.3104 191.887 58.7131 191.708 58.0561C191.529 57.4588 191.887 56.8018 192.544 56.6226C193.142 56.4434 193.799 56.8018 193.978 57.4588C194.157 58.0561 194.277 58.6534 194.456 59.191C194.635 59.7882 194.277 60.4453 193.68 60.6244C193.321 60.8036 192.963 60.6842 192.664 60.505Z" fill="#BDD0FB"/>
</g>
<path d="M202.163 50.8293C202.163 51.0682 202.342 51.2474 202.521 51.3071L208.794 53.3379C209.57 56.3243 210.825 59.1913 212.557 61.8791L209.809 67.8519C209.69 68.0909 209.75 68.3298 209.929 68.4492L215.664 73.9443C215.843 74.1235 216.082 74.1235 216.261 74.0637L222.116 71.0176C224.864 72.6302 227.791 73.7651 230.778 74.3624L233.048 80.5741C233.108 80.8131 233.347 80.9325 233.586 80.9325L241.532 80.7533C241.771 80.7533 241.95 80.5742 242.01 80.395L244.041 74.1235C247.028 73.347 249.895 72.0927 252.584 70.3605L258.558 73.1081C258.797 73.2275 259.036 73.1678 259.155 72.9886L264.651 67.2547C264.83 67.0755 264.83 66.8366 264.711 66.6574L261.664 60.804C263.277 58.0564 264.412 55.1297 265.01 52.1433L271.223 49.8736C271.462 49.8139 271.581 49.575 271.581 49.3361L271.402 41.3921C271.402 41.1532 271.223 40.974 271.043 40.9143L264.771 38.8835C263.994 35.8971 262.739 33.0301 261.007 30.3423L263.755 24.3695C263.875 24.1306 263.815 23.8917 263.636 23.7722L257.9 18.2772C257.721 18.098 257.482 18.098 257.303 18.2174L251.449 21.2636C248.7 19.6509 245.773 18.5161 242.786 17.9188L240.516 11.707C240.456 11.4681 240.217 11.3486 239.978 11.3486L232.033 11.5278C231.794 11.5278 231.615 11.707 231.555 11.8862L229.524 18.1577C226.537 18.9342 223.669 20.1885 220.981 21.9206L215.007 19.1731C214.768 19.0536 214.529 19.1134 214.409 19.2925L208.913 25.0265C208.734 25.2057 208.734 25.4446 208.794 25.6238L211.841 31.4772C210.228 34.2247 209.093 37.1514 208.495 40.1378L202.342 42.4075C202.103 42.4673 201.983 42.7062 201.983 42.9451L202.163 50.8293Z" fill="#BDD0FB"/>
<path d="M231.913 52.3226C228.866 49.9334 227.91 45.5732 229.882 42.109C232.032 38.2863 236.931 36.9126 240.755 39.1225C242.607 40.1976 243.921 41.87 244.518 43.9008C245.116 45.9316 244.817 48.0818 243.801 49.9334C241.651 53.756 236.752 55.1298 232.929 52.9198C232.57 52.8004 232.212 52.5615 231.913 52.3226ZM240.575 41.2728C240.336 41.0936 240.097 40.9144 239.799 40.7949C236.871 39.1225 233.168 40.1976 231.495 43.1243C229.822 46.0511 230.897 49.7542 233.825 51.4266C236.752 53.099 240.456 52.0239 242.129 49.0972C242.905 47.6637 243.144 46.0511 242.726 44.4384C242.368 43.1243 241.591 42.0492 240.575 41.2728Z" fill="url(#paint0_linear_1448_32414)"/>
<path d="M224.983 61.5206C224.445 61.1025 223.967 60.6844 223.489 60.2065C223.31 60.0871 223.191 59.9079 223.012 59.7884C222.295 59.012 221.578 58.2355 220.98 57.3993C220.98 57.3993 220.98 57.3993 220.98 57.3396C220.98 57.2798 220.921 57.2798 220.921 57.2201C220.861 57.1604 220.861 57.1006 220.801 57.0409C220.682 56.8617 220.682 56.6228 220.801 56.5034C220.801 56.4436 220.861 56.4436 220.921 56.3839C221.16 56.2644 221.399 56.3242 221.578 56.5034C222.295 57.5785 223.191 58.5939 224.147 59.5495C228.926 64.0889 235.497 65.6418 241.471 64.1486C244.817 63.3124 247.923 61.5803 250.492 58.9522C250.91 58.4744 251.329 57.9966 251.747 57.5187C254.375 54.1142 255.749 49.9929 255.63 45.6925C255.51 40.735 253.479 36.0762 249.835 32.6716C242.367 25.5639 230.599 25.8626 223.489 33.2689C223.071 33.7467 222.653 34.2246 222.235 34.7024C220.562 36.8526 219.367 39.3612 218.77 41.9893C218.77 42.049 218.71 42.1088 218.71 42.1685C218.591 42.2879 218.412 42.3477 218.232 42.3477C217.993 42.2879 217.814 42.049 217.874 41.8101C218.531 39.0029 219.726 36.3748 221.518 34.1051C221.936 33.5676 222.354 33.0897 222.832 32.6119C230.3 24.7874 242.726 24.5485 250.492 31.9549C254.256 35.5386 256.406 40.4364 256.526 45.6327C256.645 50.1721 255.212 54.5323 252.404 58.0563C251.986 58.5939 251.567 59.0717 251.09 59.6092C247.505 63.3722 242.606 65.5224 237.409 65.6418C232.869 65.7016 228.567 64.2681 224.983 61.5206Z" fill="url(#paint1_linear_1448_32414)"/>
<g opacity="0.3">
<path opacity="0.3" d="M147.44 23.2346C147.201 23.0554 147.082 22.6971 147.201 22.3984C147.44 21.8609 147.679 21.2636 147.918 20.726C148.097 20.3677 148.515 20.1885 148.874 20.3677C149.232 20.5468 149.412 20.9649 149.232 21.3233C148.993 21.8609 148.754 22.3984 148.515 22.936C148.396 23.2944 147.978 23.4735 147.56 23.3541C147.56 23.2944 147.5 23.2346 147.44 23.2346Z" fill="#BDD0FB"/>
<path opacity="0.3" d="M149.949 18.2772C149.65 18.0383 149.591 17.6202 149.77 17.3215C150.307 16.4256 150.905 15.5894 151.562 14.7532C151.681 14.574 151.861 14.3948 151.98 14.2156C152.219 13.917 152.697 13.8573 152.996 14.0962C153.294 14.3351 153.354 14.8129 153.115 15.1116C152.996 15.2907 152.876 15.4699 152.697 15.5894C152.1 16.3659 151.502 17.2021 150.965 18.0383C150.726 18.3966 150.307 18.4564 149.949 18.2772C149.949 18.3369 149.949 18.3369 149.949 18.2772ZM154.609 12.5432L154.549 12.4835C154.25 12.1849 154.31 11.7668 154.549 11.4681C155.445 10.5722 156.461 9.73598 157.476 9.01923C157.775 8.78032 158.253 8.84005 158.492 9.13869C158.731 9.43733 158.671 9.91516 158.372 10.1541C157.417 10.8708 156.461 11.6473 155.624 12.4835C155.266 12.7224 154.907 12.7224 154.609 12.5432ZM160.583 8.06357C160.523 8.00385 160.463 7.94412 160.404 7.82466C160.224 7.46629 160.344 7.04819 160.643 6.869C161.718 6.21199 162.913 5.67443 164.048 5.1966C164.406 5.01741 164.824 5.1966 165.004 5.55497C165.183 5.91334 165.004 6.33144 164.645 6.51063C163.51 6.98846 162.435 7.52602 161.359 8.1233C161.12 8.24276 160.762 8.24276 160.583 8.06357ZM167.453 5.1966C167.334 5.07714 167.274 4.95768 167.214 4.83823C167.095 4.47986 167.334 4.06175 167.692 3.9423C168.887 3.58393 170.201 3.34501 171.396 3.16583C171.814 3.1061 172.172 3.40474 172.232 3.76311C172.292 4.18121 171.993 4.53958 171.635 4.59931C170.44 4.7785 169.245 5.01741 168.05 5.37579C167.871 5.37579 167.632 5.31606 167.453 5.1966ZM174.801 4.12148C174.622 4.00203 174.502 3.82284 174.502 3.58393C174.502 3.16583 174.801 2.86718 175.219 2.86718C176.474 2.80745 177.788 2.86718 179.043 2.98664C179.461 3.04637 179.7 3.40474 179.7 3.76311C179.64 4.18121 179.282 4.42013 178.923 4.42013C177.728 4.30067 176.474 4.24094 175.279 4.30067C175.1 4.24094 174.921 4.18121 174.801 4.12148ZM182.209 4.83823C181.97 4.65904 181.91 4.42013 181.97 4.12148C182.03 3.76311 182.448 3.46447 182.806 3.58393C184.061 3.88257 185.256 4.24094 186.451 4.65904C186.809 4.7785 186.988 5.1966 186.869 5.55497C186.749 5.91334 186.331 6.09253 185.973 5.97307C184.838 5.55497 183.643 5.1966 182.508 4.95768C182.388 4.89796 182.269 4.89796 182.209 4.83823ZM189.199 7.34683C188.96 7.16764 188.84 6.74954 189.019 6.4509C189.199 6.09253 189.617 5.97307 189.975 6.15226C191.11 6.74954 192.186 7.34683 193.261 8.06357C193.56 8.30249 193.679 8.72059 193.44 9.07896C193.201 9.37761 192.783 9.49706 192.425 9.25815C191.409 8.60113 190.334 7.94412 189.258 7.40656C189.258 7.34683 189.258 7.34683 189.199 7.34683ZM198.04 14.0962C197.98 14.0962 197.98 14.0364 197.921 14.0364C197.204 13.26 196.487 12.4835 195.651 11.8265C195.531 11.707 195.412 11.5876 195.292 11.5278C194.993 11.2889 194.934 10.8111 195.232 10.5125C195.471 10.2138 195.949 10.1541 196.248 10.4527C196.367 10.5722 196.487 10.6916 196.606 10.8111C197.443 11.5278 198.219 12.364 198.936 13.1405C199.175 13.4392 199.175 13.917 198.877 14.1559C198.697 14.2754 198.339 14.2754 198.04 14.0962Z" fill="#BDD0FB"/>
</g>
<g opacity="0.3">
<path opacity="0.3" d="M157.357 58.4149C157.058 58.176 156.998 57.7579 157.237 57.3995C157.476 57.1009 157.954 57.0411 158.253 57.2801C159.209 57.9968 160.224 58.6538 161.24 59.2511C161.598 59.4303 161.718 59.9081 161.479 60.2068C161.3 60.5651 160.822 60.6846 160.523 60.4457C159.388 59.9081 158.372 59.1914 157.357 58.4149ZM154.549 56.0258C154.549 56.0258 154.489 56.0258 154.549 56.0258C153.593 55.1298 152.757 54.1742 151.98 53.2185C151.741 52.9199 151.801 52.442 152.1 52.2031C152.398 51.9642 152.876 52.0239 153.115 52.3226C153.892 53.2185 154.668 54.1144 155.565 54.9506C155.863 55.2493 155.863 55.6674 155.565 55.966C155.266 56.2647 154.848 56.2647 154.549 56.0258ZM163.689 62.1181C163.45 61.9389 163.331 61.5805 163.45 61.2819C163.63 60.9235 164.048 60.7443 164.406 60.9235C165.482 61.4013 166.617 61.8194 167.752 62.1181C168.11 62.2375 168.349 62.6556 168.23 63.014C168.11 63.3724 167.692 63.6113 167.334 63.4918C166.139 63.1335 164.944 62.7154 163.809 62.2375C163.749 62.1778 163.689 62.1778 163.689 62.1181ZM149.949 50.3515C149.889 50.2918 149.829 50.2321 149.77 50.1724C149.113 49.0972 148.515 48.0221 147.978 46.8873C147.798 46.5289 147.978 46.1108 148.336 45.9316C148.694 45.7524 149.113 45.9316 149.292 46.29C149.77 47.3651 150.367 48.4402 151.024 49.4556C151.263 49.814 151.144 50.2321 150.785 50.471C150.487 50.5905 150.188 50.5307 149.949 50.3515ZM170.679 64.1488C170.5 63.9697 170.38 63.7307 170.44 63.4918C170.5 63.0737 170.858 62.8348 171.276 62.8945C172.471 63.0737 173.666 63.1932 174.861 63.2529C175.279 63.2529 175.578 63.6113 175.578 63.9697C175.578 64.3878 175.219 64.6864 174.861 64.6864C173.606 64.6267 172.352 64.5072 171.157 64.328C170.918 64.2683 170.798 64.2086 170.679 64.1488ZM178.027 64.4475C177.848 64.328 177.788 64.1488 177.728 63.9099C177.669 63.4918 177.967 63.1932 178.386 63.1335C179.58 63.014 180.775 62.8945 181.91 62.6556C182.328 62.5959 182.687 62.8348 182.747 63.1932C182.806 63.5516 182.567 63.9697 182.209 64.0294C181.014 64.2683 179.76 64.4475 178.505 64.5669C178.326 64.6267 178.147 64.5669 178.027 64.4475ZM185.196 63.014C185.076 62.9543 185.017 62.8348 184.957 62.6556C184.838 62.2973 185.017 61.8792 185.435 61.7597C186.57 61.4013 187.705 60.9235 188.78 60.4457C189.139 60.2665 189.557 60.4457 189.736 60.804C189.915 61.1624 189.736 61.5805 189.378 61.7597C188.243 62.2973 187.108 62.7751 185.913 63.1335C185.614 63.1932 185.375 63.1335 185.196 63.014Z" fill="#BDD0FB"/>
<path opacity="0.3" d="M146.843 43.7218C146.723 43.662 146.663 43.5426 146.604 43.3634C146.424 42.7661 146.245 42.1688 146.066 41.6313C145.946 41.2729 146.185 40.8548 146.604 40.7353C146.962 40.6159 147.38 40.8548 147.5 41.2729C147.619 41.8105 147.798 42.4077 147.978 42.9453C148.097 43.3037 147.918 43.7218 147.5 43.8412C147.261 43.901 147.022 43.8412 146.843 43.7218Z" fill="#BDD0FB"/>
</g>
<path d="M152.995 36.7332C152.995 36.9124 153.115 37.0319 153.234 37.0916L157.416 38.4056C157.954 40.3767 158.79 42.3477 159.925 44.0799L158.073 48.0817C158.014 48.2011 158.014 48.3803 158.133 48.4998L161.957 52.1432C162.076 52.2627 162.255 52.2627 162.375 52.2029L166.318 50.1722C168.17 51.2473 170.141 52.0238 172.112 52.4419L173.666 56.5631C173.725 56.6826 173.845 56.802 174.024 56.802L179.341 56.6826C179.52 56.6826 179.64 56.5631 179.699 56.4437L181.014 52.2627C182.985 51.7251 184.957 50.8889 186.689 49.7541L190.692 51.6057C190.811 51.6654 190.99 51.6654 191.11 51.5459L194.754 47.7233C194.874 47.6038 194.874 47.4247 194.814 47.3052L192.783 43.3631C193.858 41.5115 194.635 39.5405 195.053 37.5694L199.175 36.0165C199.294 35.9568 199.414 35.8373 199.414 35.6581L199.294 30.3423C199.294 30.1631 199.175 30.0436 199.055 29.9839L194.874 28.6699C194.336 26.6988 193.5 24.7278 192.364 22.9956L194.216 18.9938C194.276 18.8744 194.276 18.6952 194.157 18.5757L190.333 14.9323C190.214 14.8128 190.035 14.8128 189.915 14.8725L185.972 16.9033C184.12 15.8282 182.149 15.0517 180.177 14.6336L178.624 10.5124C178.564 10.3929 178.445 10.2734 178.266 10.2734L172.949 10.3929C172.77 10.3929 172.65 10.5124 172.59 10.6318L171.276 14.8128C169.305 15.3504 167.333 16.1866 165.601 17.3214L161.598 15.4698C161.479 15.4101 161.299 15.4101 161.18 15.5296L157.536 19.3522C157.416 19.4716 157.416 19.6508 157.476 19.7703L159.507 23.7124C158.432 25.564 157.655 27.535 157.237 29.5061L153.115 31.059C152.995 31.1187 152.876 31.2382 152.876 31.4174L152.995 36.7332Z" fill="#BDD0FB"/>
<path d="M172.83 37.8682C171.933 37.1515 171.276 36.1958 170.918 35.061C170.559 33.6872 170.739 32.194 171.396 30.9397C172.889 28.3116 176.175 27.4157 178.804 28.9089C181.432 30.4021 182.328 33.6872 180.835 36.3153C180.118 37.5696 178.983 38.4655 177.549 38.8836C176.175 39.242 174.681 39.0628 173.427 38.4058C173.248 38.1668 173.068 37.9877 172.83 37.8682ZM178.624 30.4021C178.445 30.2827 178.326 30.1632 178.146 30.1035C176.235 29.0284 173.785 29.6854 172.71 31.5967C172.172 32.5524 172.053 33.6275 172.352 34.6429C172.65 35.6582 173.307 36.4944 174.204 37.032C175.159 37.5696 176.235 37.689 177.25 37.3904C178.266 37.0917 179.102 36.4347 179.64 35.5388C180.656 33.8067 180.178 31.5967 178.624 30.4021Z" fill="url(#paint2_linear_1448_32414)"/>
<path d="M167.99 44.1992C167.631 43.9006 167.273 43.6019 166.974 43.3033C166.317 42.6463 165.719 41.9893 165.182 41.2128C165.182 41.1531 165.122 41.1531 165.122 41.0933C164.943 40.8544 164.943 40.496 165.122 40.2571C165.182 40.1974 165.242 40.1377 165.301 40.0779C165.6 39.839 166.078 39.9585 166.317 40.2571C166.795 40.9739 167.332 41.6309 167.99 42.2282C168.049 42.2879 168.049 42.2879 168.109 42.3476C169.603 43.7214 171.395 44.6771 173.307 45.2146C174.322 45.5133 175.457 45.6327 176.532 45.573H176.592C179.818 45.5133 182.805 44.1992 185.016 41.8698C185.314 41.5712 185.553 41.2725 185.852 40.9142C187.525 38.7042 188.421 36.0761 188.361 33.2689C188.301 30.0435 186.987 27.0571 184.657 24.8471C182.327 22.6372 179.281 21.4426 176.055 21.5023C172.829 21.5621 169.842 22.8761 167.631 25.2055C167.332 25.5042 167.093 25.8028 166.855 26.1612C165.779 27.5349 165.003 29.1476 164.584 30.8797C164.584 30.9992 164.525 31.0589 164.465 31.1784C164.286 31.4173 164.047 31.477 163.748 31.4173C163.39 31.3576 163.091 30.9395 163.21 30.5811C163.629 28.6698 164.525 26.8182 165.719 25.2652C166.018 24.9069 166.317 24.5485 166.616 24.2499C169.125 21.6218 172.47 20.1883 176.055 20.0688C179.639 20.0091 183.104 21.3231 185.673 23.772C188.301 26.2806 189.735 29.6254 189.855 33.2092C189.914 36.3748 188.959 39.3612 187.047 41.8101C186.748 42.1685 186.449 42.5268 186.151 42.8852C181.252 47.9024 173.426 48.44 167.99 44.1992Z" fill="url(#paint3_linear_1448_32414)"/>
<path d="M26.8829 254.563C26.8829 257.908 29.6309 260.656 32.9764 260.656H363.999C367.344 260.656 370.092 257.908 370.092 254.563L372.84 64.3874C372.84 61.0426 368.898 54.4724 361.609 54.9502L38.1141 46.5882C33.8725 46.4688 29.8102 48.0814 26.8231 51.0679C23.8361 54.0543 22.2231 58.1159 22.2829 62.3566L26.8829 254.563Z" fill="#1F1F1F"/>
<path d="M32.9168 248.65C32.9168 251.816 35.5454 254.444 38.7116 254.444H356.054C359.22 254.444 361.848 251.816 361.848 248.65L364.477 75.9746C364.178 65.5818 355.038 61.8786 349.542 62.0578L39.4285 53.8152C36.4415 53.7555 33.5739 54.8903 31.483 56.9809C29.3921 59.0714 28.1973 61.9383 28.3168 64.9248L32.9168 248.65Z" fill="#E0E0E0"/>
<path d="M358.383 166.583C357.965 166.583 357.606 166.225 357.606 165.807L357.786 151.83C357.786 151.412 358.144 151.054 358.562 151.054C358.98 151.054 359.338 151.412 359.338 151.83L359.159 165.807C359.159 166.225 358.801 166.583 358.383 166.583Z" fill="#F2F2F2"/>
<path d="M358.921 132.299C358.862 132.299 358.862 132.299 358.921 132.299C358.503 132.299 358.145 131.94 358.145 131.522L358.921 77.8859C358.921 74.6606 357.906 72.152 356.054 70.3004C352.529 66.8959 346.854 67.0751 346.615 67.0751L247.505 64.447C247.087 64.447 246.729 64.0886 246.729 63.6705C246.729 63.2524 247.087 62.894 247.505 62.894L346.555 65.5221C347.152 65.5221 353.126 65.4026 357.069 69.1656C359.28 71.3158 360.415 74.2425 360.475 77.8859L359.698 131.522C359.698 131.94 359.34 132.299 358.921 132.299Z" fill="#F2F2F2"/>
<path d="M1.55325 276.424H388.672C389.508 276.424 390.225 275.707 390.225 274.871V261.313C390.225 260.477 389.508 259.76 388.672 259.76H1.55325C0.716887 259.76 0 260.477 0 261.313V274.871C0 275.767 0.716887 276.424 1.55325 276.424Z" fill="#1F1F1F"/>
<path d="M315.37 233.419H69.2984C61.0542 233.419 54.3633 226.73 54.3633 218.487V99.0299C54.3633 90.7276 61.1737 83.9783 69.5374 84.0978L315.609 88.0996C323.733 88.219 330.305 94.8489 330.305 103.032V218.547C330.305 226.73 323.614 233.419 315.37 233.419Z" fill="#56CCF2"/>
<path d="M191.23 207.736C162.256 207.736 138.658 184.143 138.658 155.175C138.658 126.207 162.256 102.614 191.23 102.614C220.204 102.614 243.802 126.207 243.802 155.175C243.802 184.143 220.264 207.736 191.23 207.736ZM191.23 111.334C167.095 111.334 147.44 130.985 147.44 155.115C147.44 179.246 167.095 198.896 191.23 198.896C215.365 198.896 235.02 179.246 235.02 155.115C235.02 130.985 215.365 111.334 191.23 111.334Z" fill="#BDD0FB"/>
<path fill-rule="evenodd" clip-rule="evenodd" d="M174.802 175.363V137.555C174.802 133.494 179.223 130.985 182.688 133.075L214.529 151.95C217.934 153.98 217.934 158.878 214.529 160.909L182.688 179.783C179.163 181.934 174.802 179.425 174.802 175.363Z" fill="white"/>
<path opacity="0.58" d="M317.282 234.614H80.0525C77.6031 234.614 75.6914 232.763 75.6914 230.493C75.6914 228.223 77.6628 226.372 79.8732 226.372H317.103C319.732 226.372 321.703 228.223 321.703 230.493C321.703 232.763 319.732 234.614 317.282 234.614Z" fill="white"/>
<path d="M177.669 234.614H79.8135C77.5434 234.614 75.6914 232.763 75.6914 230.493C75.6914 228.223 77.5434 226.372 79.8135 226.372H177.728C179.998 226.372 181.85 228.223 181.85 230.493C181.85 232.763 179.998 234.614 177.669 234.614Z" fill="url(#paint4_linear_1448_32414)"/>
<path d="M177.968 238.018C182.488 238.018 186.152 234.355 186.152 229.836C186.152 225.316 182.488 221.653 177.968 221.653C173.447 221.653 169.783 225.316 169.783 229.836C169.783 234.355 173.447 238.018 177.968 238.018Z" fill="url(#paint5_linear_1448_32414)"/>
<path d="M470.337 131.224C470.337 131.224 499.012 147.112 501.402 173.99C503.792 200.868 501.581 312.5 444.051 339.976C386.521 367.451 310.352 361.119 281.198 358.133C252.045 355.147 235.855 335.317 232.271 321.699C228.686 308.08 222.832 257.251 253.478 240.886C284.125 224.52 316.326 199.374 348.526 174.945C380.786 150.516 435.926 110.618 470.337 131.224Z" fill="#ED1C24"/>
<path d="M262.559 250.144C262.559 250.144 270.325 250.562 271.281 266.509C271.281 266.509 253.299 282.576 229.044 286.459C227.252 286.757 231.613 274.035 232.27 272.303C235.377 264.06 245.234 258.804 262.559 250.144Z" fill="#1F1F1F"/>
<path d="M349.78 231.449H333.411C333.411 231.449 283.229 176.08 250.372 170.466C250.372 170.466 227.491 199.673 251.567 254.325C253.479 258.745 258.915 260.656 262.977 258.088C264.172 257.311 265.068 256.296 265.606 254.982L263.694 208.334C263.694 208.334 306.468 245.724 313.936 252.951C321.344 260.178 359.16 255.758 349.78 231.449Z" fill="#1F1F1F"/>
<path d="M191.826 347.741C198.697 341.768 209.569 335.018 225.341 333.107L230.658 336.392C230.658 336.392 227.253 341.409 221.04 346.665C215.364 349.95 206.523 354.49 199.234 355.446C192.125 356.341 191.05 352.041 191.826 347.741Z" fill="#1F1F1F"/>
<path d="M232.271 272.303C236.513 273.677 238.364 279.65 249.058 275.707C259.393 271.885 267.1 266.927 271.102 264.12C271.162 264.897 271.282 265.673 271.341 266.569C271.341 266.569 252.404 284.547 228.149 288.43C226.357 288.728 224.863 286.877 225.52 285.204C226.655 281.979 228.746 277.32 232.271 272.303Z" fill="url(#paint6_linear_1448_32414)"/>
<path d="M186.629 352.817C188.003 351.264 189.676 349.532 191.767 347.681C191.05 351.981 192.065 356.282 199.174 355.326C206.463 354.37 215.304 349.891 220.98 346.546C213.811 352.638 202.938 359.089 189.257 358.731C186.211 358.731 184.598 355.147 186.629 352.817Z" fill="url(#paint7_linear_1448_32414)"/>
<path d="M349.183 243.275L272.655 244.111C272.655 244.111 228.925 280.247 221.039 335.376C221.039 335.376 219.725 339.438 227.611 340.095C227.611 340.095 254.016 322.833 271.281 292.312C292.429 254.922 334.248 271.765 334.248 271.765C347.988 261.851 367.404 259.82 382.04 256.535L349.183 243.275Z" fill="#1F1F1F"/>
<path d="M347.39 181.635C347.39 181.635 339.146 222.907 298.762 239.213L284.424 237.541L281.019 242.916L314.712 243.991C314.712 243.991 343.507 232.583 358.741 201.524C359.279 200.509 367.642 183.188 347.39 181.635Z" fill="url(#paint8_linear_1448_32414)"/>
<path d="M342.97 242.559C342.97 242.559 352.349 217.114 354.38 192.386C354.38 192.386 347.51 186.473 343.268 183.965C341.894 183.128 341.357 181.396 342.074 179.963C345.24 173.452 364.297 147.829 365.671 147.47C373.437 145.559 405.219 130.388 427.622 161.029C437.24 174.169 425.71 214.665 382.1 256.535L373.079 258.267L342.97 242.559Z" fill="url(#paint9_linear_1448_32414)"/>
<path d="M379.053 197.941C379.053 197.941 353.006 228.761 319.731 233.241C319.731 233.241 311.128 225.416 304.736 228.223C298.343 231.031 289.562 243.394 289.562 243.394H332.276C332.276 243.394 372.661 241.961 392.853 217.472C391.3 208.931 386.401 203.794 379.053 197.941Z" fill="url(#paint10_linear_1448_32414)"/>
<path d="M394.228 125.849L399.903 144.842C400.142 145.738 399.843 146.634 399.067 147.172C396.319 149.023 389.15 152.786 379.352 149.143C378.217 148.725 377.441 147.65 377.381 146.455L376.007 129.91L394.228 125.849Z" fill="url(#paint11_linear_1448_32414)"/>
<path d="M360.892 110.438C360.892 110.438 363.699 130.149 371.227 136.181C378.814 142.214 393.51 137.674 398.528 122.862L388.611 97.4771L360.892 110.438Z" fill="url(#paint12_linear_1448_32414)"/>
<path d="M389.746 113.903C389.149 114.082 388.551 113.724 388.492 113.126C388.193 111.334 387.536 107.691 386.162 105.242C386.162 105.242 386.879 102.674 379.65 106.556C372.422 110.438 361.489 116.172 355.097 112.768C348.824 109.423 342.491 92.699 359.04 95.8049C359.697 95.9244 360.234 95.4465 360.175 94.7895C359.996 92.042 360.234 85.7108 366.686 83.68C372.66 81.7687 369.494 84.8746 370.809 86.4873C371.227 86.9651 370.331 84.8746 378.814 86.0692C381.741 86.4873 385.505 78.7225 392.674 81.8881C398.588 84.5162 399.544 88.1596 399.424 90.4293C399.365 91.1461 400.141 91.6836 400.798 91.385C402.591 90.5488 405.518 90.1307 408.326 93.595C412.209 98.433 406.653 102.614 405.04 103.749C404.741 103.928 404.622 104.227 404.622 104.525C404.622 107.034 404.204 118.024 398.707 124.236C398.229 124.773 397.333 124.594 397.094 123.937L392.853 113.843C392.674 113.365 392.136 113.126 391.658 113.305L389.746 113.903Z" fill="#1F1F1F"/>
<path d="M389.627 115.933C389.627 115.933 392.196 105.421 396.139 108.826C400.081 112.23 395.123 119.756 390.643 121.189L389.627 115.933Z" fill="url(#paint13_linear_1448_32414)"/>
<path d="M291.772 245.783L272.596 181.814C271.819 179.186 269.489 177.334 266.801 177.155L240.873 175.363C238.245 175.184 236.273 177.752 237.17 180.261L258.616 241.363C259.333 243.335 261.066 244.708 263.157 244.947L288.666 247.754L291.772 245.783Z" fill="url(#paint14_linear_1448_32414)"/>
<path d="M256.346 203.496C257.78 206.363 260.229 208.095 261.842 207.259C263.455 206.482 263.635 203.436 262.201 200.569C260.767 197.702 258.318 195.97 256.705 196.806C255.092 197.642 254.912 200.629 256.346 203.496Z" fill="#91B3FA"/>
<path d="M288.606 247.755C288.666 247.755 288.666 247.755 288.726 247.755L343.089 245.007C344.404 244.947 345.479 243.812 345.419 242.439C345.36 241.125 344.225 240.05 342.851 240.109L288.487 242.857C287.172 242.917 286.097 244.051 286.157 245.425C286.276 246.739 287.351 247.755 288.606 247.755Z" fill="url(#paint15_linear_1448_32414)"/>
<path d="M354.32 192.804C354.559 192.804 354.739 192.625 354.739 192.386C354.679 181.037 359.1 165.986 359.1 165.807C359.159 165.568 359.04 165.329 358.801 165.269C358.562 165.209 358.323 165.329 358.263 165.568C358.203 165.747 353.783 180.918 353.842 192.386C353.902 192.625 354.141 192.804 354.32 192.804Z" fill="url(#paint16_linear_1448_32414)"/>
<path d="M379.053 198.419C379.172 198.419 379.292 198.359 379.411 198.239C379.531 198.06 391.419 183.009 395.482 172.616C395.541 172.377 395.481 172.138 395.243 172.078C395.004 172.018 394.765 172.078 394.705 172.317C390.643 182.531 378.874 197.582 378.754 197.702C378.635 197.881 378.635 198.18 378.814 198.299C378.874 198.359 378.993 198.419 379.053 198.419Z" fill="url(#paint17_linear_1448_32414)"/>
<path d="M395.781 221.474L396.079 221.355C413.285 214.008 423.918 193.461 423.978 193.282C424.098 193.043 423.978 192.804 423.799 192.685C423.62 192.565 423.321 192.685 423.201 192.864C423.082 193.043 412.747 213.052 396.02 220.399L394.227 217.89C394.108 217.711 393.809 217.651 393.63 217.771C393.451 217.89 393.391 218.189 393.51 218.368L395.781 221.474Z" fill="url(#paint18_linear_1448_32414)"/>
<path d="M380.128 131.343C391.778 129.253 395.422 115.754 395.482 115.575L394.586 115.336C394.526 115.455 391.061 128.476 379.949 130.447L380.128 131.343Z" fill="#ED1C24"/>
<path d="M376.843 131.164C376.902 131.881 377.5 132.359 378.217 132.299L380.547 132.12C381.263 132.06 381.741 131.463 381.682 130.746L381.622 130.328C381.562 129.611 380.965 129.133 380.248 129.193L377.918 129.372C377.201 129.432 376.723 130.029 376.783 130.746L376.843 131.164Z" fill="#ED1C24"/>
<path d="M381.503 130.985L381.562 132.538H381.622L381.503 130.985Z" fill="#ED1C24"/>
<path d="M381.263 129.133L381.562 133.016L381.682 130.985L381.562 129.074L381.263 129.133Z" fill="#ED1C24"/>
<path d="M381.263 129.133L381.502 133.016L381.562 133.016L381.263 129.133Z" fill="#ED1C24"/>
<path d="M381.204 129.133L381.502 133.016L381.263 129.133L381.204 129.133Z" fill="#ED1C24"/>
<path d="M381.204 129.133L381.443 133.016H381.502L381.204 129.133Z" fill="#ED1C24"/>
<path d="M381.144 129.133L381.443 133.016L381.204 129.133H381.144Z" fill="#ED1C24"/>
<path d="M381.144 129.133L381.383 133.016H381.443L381.144 129.133Z" fill="#ED1C24"/>
<path d="M381.084 129.133L381.383 133.016L381.144 129.133H381.084Z" fill="#ED1C24"/>
<path d="M381.025 129.133L381.323 133.016H381.383L381.084 129.133H381.025Z" fill="#ED1C24"/>
<path d="M381.025 129.133L381.263 133.016H381.323L381.025 129.133Z" fill="#ED1C24"/>
<path d="M380.965 129.133L381.263 133.016L381.025 129.133H380.965Z" fill="#ED1C24"/>
<path d="M380.965 129.133L381.204 133.016H381.263L380.965 129.133Z" fill="#ED1C24"/>
<path d="M380.905 129.133L381.204 133.016L380.965 129.133H380.905Z" fill="#ED1C24"/>
<path d="M380.905 129.133L381.144 133.016H381.204L380.905 129.133Z" fill="#ED1C24"/>
<path d="M380.845 129.133L381.144 133.016L380.905 129.133H380.845Z" fill="#ED1C24"/>
<path d="M380.845 129.133L381.084 133.076L381.144 133.016L380.845 129.133Z" fill="#ED1C24"/>
<path d="M380.786 129.133L381.025 133.076H381.084L380.845 129.133H380.786Z" fill="#ED1C24"/>
<path d="M380.726 129.193L381.025 133.076L380.786 129.133L380.726 129.193Z" fill="#ED1C24"/>
<path d="M380.726 129.193L380.965 133.076H381.025L380.726 129.193Z" fill="#ED1C24"/>
<path d="M380.666 129.193L380.965 133.076L380.726 129.193L380.666 129.193Z" fill="#ED1C24"/>
<path d="M380.666 129.193L380.905 133.076H380.965L380.666 129.193Z" fill="#ED1C24"/>
<path d="M380.606 129.193L380.905 133.076L380.666 129.193H380.606Z" fill="#ED1C24"/>
<path d="M380.606 129.193L380.845 133.076H380.905L380.606 129.193Z" fill="#ED1C24"/>
<path d="M380.547 129.193L380.786 133.076H380.845L380.606 129.193H380.547Z" fill="#ED1C24"/>
<path d="M380.487 129.193L380.786 133.076L380.547 129.193H380.487Z" fill="#ED1C24"/>
<path d="M380.487 129.193L380.726 133.076H380.786L380.487 129.193Z" fill="#ED1C24"/>
<path d="M380.427 129.193L380.726 133.076L380.487 129.193H380.427Z" fill="#ED1C24"/>
<path d="M380.427 129.193L380.666 133.076H380.726L380.427 129.193Z" fill="#ED1C24"/>
<path d="M380.367 129.193L380.666 133.076L380.427 129.193H380.367Z" fill="#ED1C24"/>
<path d="M380.367 129.193L380.606 133.076H380.666L380.367 129.193Z" fill="#ED1C24"/>
<path d="M380.308 129.193L380.606 133.076L380.367 129.193H380.308Z" fill="#ED1C24"/>
<path d="M380.248 129.193L380.546 133.076H380.606L380.308 129.193L380.248 129.193Z" fill="#ED1C24"/>
<path d="M380.248 129.193L380.487 133.076H380.546L380.248 129.193Z" fill="#ED1C24"/>
<path d="M380.188 129.193L380.487 133.076L380.248 129.193L380.188 129.193Z" fill="#ED1C24"/>
<path d="M380.188 129.193L380.427 133.076H380.487L380.188 129.193Z" fill="#ED1C24"/>
<path d="M380.128 129.193L380.427 133.076L380.188 129.193H380.128Z" fill="#ED1C24"/>
<path d="M380.128 129.193L380.367 133.076H380.427L380.128 129.193Z" fill="#ED1C24"/>
<path d="M380.069 129.193L380.367 133.135L380.367 133.076L380.128 129.193H380.069Z" fill="#ED1C24"/>
<path d="M380.069 129.193L380.308 133.135H380.367L380.069 129.193Z" fill="#ED1C24"/>
<path d="M380.009 129.253L380.248 133.135H380.308L380.069 129.193L380.009 129.253Z" fill="#ED1C24"/>
<path d="M379.949 129.253L380.248 133.135L380.009 129.253L379.949 129.253Z" fill="#ED1C24"/>
<path d="M379.949 129.253L380.188 133.135L380.248 133.135L379.949 129.253Z" fill="#ED1C24"/>
<path d="M379.89 129.253L380.188 133.135L379.949 129.253H379.89Z" fill="#ED1C24"/>
<path d="M379.89 129.253L380.128 133.135H380.188L379.89 129.253Z" fill="#ED1C24"/>
<path d="M379.83 129.253L380.128 133.135L379.89 129.253H379.83Z" fill="#ED1C24"/>
<path d="M379.83 129.253L380.069 133.135H380.128L379.83 129.253Z" fill="#ED1C24"/>
<path d="M379.77 129.253L380.069 133.135L379.83 129.253H379.77Z" fill="#ED1C24"/>
<path d="M379.71 129.253L380.009 133.135H380.069L379.77 129.253H379.71Z" fill="#ED1C24"/>
<path d="M379.71 129.253L379.949 133.135H380.009L379.71 129.253Z" fill="#ED1C24"/>
<path d="M379.65 129.253L379.949 133.135L379.71 129.253H379.65Z" fill="#ED1C24"/>
<path d="M379.65 129.253L379.889 133.135H379.949L379.65 129.253Z" fill="#ED1C24"/>
<path d="M379.591 129.253L379.889 133.135L379.65 129.253H379.591Z" fill="#ED1C24"/>
<path d="M379.591 129.253L379.83 133.135H379.889L379.591 129.253Z" fill="#ED1C24"/>
<path d="M379.531 129.253L379.83 133.135L379.591 129.253H379.531Z" fill="#ED1C24"/>
<path d="M379.531 129.253L379.77 133.135H379.83L379.531 129.253Z" fill="#ED1C24"/>
<path d="M379.471 129.253L379.71 133.135H379.77L379.531 129.253H379.471Z" fill="#ED1C24"/>
<path d="M379.412 129.253L379.71 133.135L379.471 129.253H379.412Z" fill="#ED1C24"/>
<path d="M379.412 129.253L379.651 133.135H379.71L379.412 129.253Z" fill="#ED1C24"/>
<path d="M379.352 129.253L379.651 133.135L379.412 129.253H379.352Z" fill="#ED1C24"/>
<path d="M379.352 129.253L379.591 133.195L379.651 133.135L379.352 129.253Z" fill="#ED1C24"/>
<path d="M379.292 129.253L379.591 133.195L379.352 129.253H379.292Z" fill="#ED1C24"/>
<path d="M379.292 129.313L379.531 133.195H379.591L379.292 129.253V129.313Z" fill="#ED1C24"/>
<path d="M379.232 129.313L379.531 133.195L379.292 129.313L379.232 129.313Z" fill="#ED1C24"/>
<path d="M379.172 129.313L379.471 133.195H379.531L379.232 129.313H379.172Z" fill="#ED1C24"/>
<path d="M379.172 129.313L379.411 133.195H379.471L379.172 129.313Z" fill="#ED1C24"/>
<path d="M379.113 129.313L379.411 133.195L379.172 129.313H379.113Z" fill="#ED1C24"/>
<path d="M379.113 129.313L379.352 133.195H379.411L379.113 129.313Z" fill="#ED1C24"/>
<path d="M379.053 129.313L379.352 133.195L379.113 129.313H379.053Z" fill="#ED1C24"/>
<path d="M379.053 129.313L379.292 133.195H379.352L379.053 129.313Z" fill="#ED1C24"/>
<path d="M378.993 129.313L379.292 133.195L379.053 129.313H378.993Z" fill="#ED1C24"/>
<path d="M378.993 129.313L379.232 133.195H379.292L378.993 129.313Z" fill="#ED1C24"/>
<path d="M378.934 129.313L379.173 133.195H379.232L378.993 129.313H378.934Z" fill="#ED1C24"/>
<path d="M378.874 129.313L379.173 133.195L378.934 129.313H378.874Z" fill="#ED1C24"/>
<path d="M378.874 129.313L379.113 133.195H379.173L378.874 129.313Z" fill="#ED1C24"/>
<path d="M378.814 129.313L379.113 133.195L378.874 129.313H378.814Z" fill="#ED1C24"/>
<path d="M378.814 129.313L379.053 133.195H379.113L378.814 129.313Z" fill="#ED1C24"/>
<path d="M378.754 129.313L379.053 133.195L378.814 129.313H378.754Z" fill="#ED1C24"/>
<path d="M378.754 129.313L378.993 133.195H379.053L378.754 129.313Z" fill="#ED1C24"/>
<path d="M378.695 129.313L378.993 133.195L378.754 129.313H378.695Z" fill="#ED1C24"/>
<path d="M378.635 129.313L378.934 133.195H378.993L378.695 129.313H378.635Z" fill="#ED1C24"/>
<path d="M378.635 129.313L378.874 133.195H378.934L378.635 129.313Z" fill="#ED1C24"/>
<path d="M378.575 129.313L378.874 133.255L378.874 133.195L378.635 129.313H378.575Z" fill="#ED1C24"/>
<path d="M378.575 129.313L378.814 133.255H378.874L378.575 129.313Z" fill="#ED1C24"/>
<path d="M378.516 129.372L378.814 133.255L378.575 129.313L378.516 129.372Z" fill="#ED1C24"/>
<path d="M378.516 129.372L378.755 133.255H378.814L378.516 129.372Z" fill="#ED1C24"/>
<path d="M378.455 129.372L378.755 133.255L378.516 129.372L378.455 129.372Z" fill="#ED1C24"/>
<path d="M378.455 129.372L378.695 133.255H378.755L378.455 129.372Z" fill="#ED1C24"/>
<path d="M378.396 129.372L378.635 133.255H378.695L378.455 129.372H378.396Z" fill="#ED1C24"/>
<path d="M378.336 129.372L378.635 133.255L378.396 129.372H378.336Z" fill="#ED1C24"/>
<path d="M378.336 129.372L378.575 133.255H378.635L378.336 129.372Z" fill="#ED1C24"/>
<path d="M378.277 129.372L378.575 133.255L378.336 129.372H378.277Z" fill="#ED1C24"/>
<path d="M378.277 129.372L378.515 133.255H378.575L378.277 129.372Z" fill="#ED1C24"/>
<path d="M378.217 129.372L378.515 133.255L378.277 129.372H378.217Z" fill="#ED1C24"/>
<path d="M378.217 129.372L378.456 133.255H378.515L378.217 129.372Z" fill="#ED1C24"/>
<path d="M378.157 129.372L378.456 133.255L378.217 129.372H378.157Z" fill="#ED1C24"/>
<path d="M378.097 129.372L378.396 133.255H378.456L378.157 129.372H378.097Z" fill="#ED1C24"/>
<path d="M378.097 129.372L378.336 133.255H378.396L378.097 129.372Z" fill="#ED1C24"/>
<path d="M378.038 129.372L378.336 133.255L378.097 129.372H378.038Z" fill="#ED1C24"/>
<path d="M378.038 129.372L378.277 133.255H378.336L378.038 129.372Z" fill="#ED1C24"/>
<path d="M377.978 129.372L378.277 133.255L378.038 129.372H377.978Z" fill="#ED1C24"/>
<path d="M377.978 129.372L378.217 133.255H378.277L377.978 129.372Z" fill="#ED1C24"/>
<path d="M377.918 129.372L378.217 133.255L377.978 129.372L377.918 129.372Z" fill="#ED1C24"/>
<path d="M377.918 129.372L378.157 133.255H378.217L377.918 129.372Z" fill="#ED1C24"/>
<path d="M377.858 129.372L378.097 133.314L378.157 133.255L377.918 129.372L377.858 129.372Z" fill="#ED1C24"/>
<path d="M377.799 129.372L378.097 133.314L377.858 129.372H377.799Z" fill="#ED1C24"/>
<path d="M377.799 129.432L378.038 133.314H378.097L377.799 129.372V129.432Z" fill="#ED1C24"/>
<path d="M377.739 129.432L378.038 133.314L377.799 129.432L377.739 129.432Z" fill="#ED1C24"/>
<path d="M377.739 129.432L377.978 133.314H378.038L377.739 129.432Z" fill="#ED1C24"/>
<path d="M377.679 129.432L377.978 133.314L377.739 129.432H377.679Z" fill="#ED1C24"/>
<path d="M377.679 129.432L377.918 133.314H377.978L377.679 129.432Z" fill="#ED1C24"/>
<path d="M377.619 129.432L377.918 133.314L377.679 129.432H377.619Z" fill="#ED1C24"/>
<path d="M377.559 129.432L377.858 133.314H377.918L377.619 129.432H377.559Z" fill="#ED1C24"/>
<path d="M377.559 129.432L377.798 133.314H377.858L377.559 129.432Z" fill="#ED1C24"/>
<path d="M377.5 129.432L377.798 133.314L377.559 129.432H377.5Z" fill="#ED1C24"/>
<path d="M377.5 129.432L377.739 133.314H377.798L377.5 129.432Z" fill="#ED1C24"/>
<path d="M377.44 129.432L377.739 133.314L377.5 129.432H377.44Z" fill="#ED1C24"/>
<path d="M377.44 129.432L377.679 133.314H377.739L377.44 129.432Z" fill="#ED1C24"/>
<path d="M377.38 129.432L377.679 133.314L377.44 129.432H377.38Z" fill="#ED1C24"/>
<path d="M377.38 129.432L377.619 133.314H377.679L377.38 129.432Z" fill="#ED1C24"/>
<path d="M377.321 129.432L377.56 133.314H377.619L377.38 129.432H377.321Z" fill="#ED1C24"/>
<path d="M377.261 129.432L377.56 133.314L377.321 129.432H377.261Z" fill="#ED1C24"/>
<path d="M377.261 129.432L377.5 133.314H377.56L377.261 129.432Z" fill="#ED1C24"/>
<path d="M377.201 129.432L377.5 133.314L377.261 129.432H377.201Z" fill="#ED1C24"/>
<path d="M377.201 129.432L377.44 133.314H377.5L377.201 129.432Z" fill="#ED1C24"/>
<path d="M377.141 129.432L377.44 133.314L377.201 129.432H377.141Z" fill="#ED1C24"/>
<path d="M377.141 129.432L377.38 133.374L377.44 133.314L377.141 129.432Z" fill="#ED1C24"/>
<path d="M377.082 129.432L377.38 133.374L377.141 129.432H377.082Z" fill="#ED1C24"/>
<path d="M377.022 129.492L377.321 133.374H377.38L377.082 129.432L377.022 129.492Z" fill="#ED1C24"/>
<path d="M377.022 129.492L377.261 133.374L377.321 133.374L377.022 129.492Z" fill="#ED1C24"/>
<path d="M376.962 129.492L377.261 133.374L377.022 129.492L376.962 129.492Z" fill="#ED1C24"/>
<path d="M376.962 129.492L377.201 133.374H377.261L376.962 129.492Z" fill="#ED1C24"/>
<path d="M376.902 129.492L377.201 133.374L376.962 129.492H376.902Z" fill="#ED1C24"/>
<path d="M376.902 129.492L377.141 133.374H377.201L376.902 129.492Z" fill="#ED1C24"/>
<path d="M376.843 129.492L377.141 133.374L376.902 129.492H376.843Z" fill="#ED1C24"/>
<path d="M376.843 129.492L377.082 133.374H377.141L376.843 129.492Z" fill="#ED1C24"/>
<path d="M376.783 129.492L377.022 133.374H377.082L376.843 129.492H376.783Z" fill="#ED1C24"/>
<path d="M376.723 129.492L377.022 133.374L376.783 129.492H376.723Z" fill="#ED1C24"/>
<path d="M376.723 129.492L376.962 133.374H377.022L376.723 129.492Z" fill="#ED1C24"/>
<path d="M376.663 129.492L376.962 133.374L376.723 129.492H376.663Z" fill="#ED1C24"/>
<path d="M376.663 129.492L376.902 133.374H376.962L376.663 129.492Z" fill="#ED1C24"/>
<path d="M376.604 129.492L376.902 133.374L376.663 129.492H376.604Z" fill="#ED1C24"/>
<path d="M376.604 129.492L376.843 133.374H376.902L376.604 129.492Z" fill="#ED1C24"/>
<path d="M376.544 129.492L376.843 133.374L376.604 129.492H376.544Z" fill="#ED1C24"/>
<path d="M376.484 129.492L376.783 133.374H376.843L376.544 129.492H376.484Z" fill="#ED1C24"/>
<path d="M376.484 129.492L376.723 133.374H376.783L376.484 129.492Z" fill="#ED1C24"/>
<path d="M376.424 129.492L376.723 133.374L376.484 129.492H376.424Z" fill="#ED1C24"/>
<path d="M376.424 129.492L376.663 133.374H376.723L376.424 129.492Z" fill="#ED1C24"/>
<path d="M376.365 129.492L376.663 133.434L376.663 133.374L376.424 129.492H376.365Z" fill="#ED1C24"/>
<path d="M376.365 129.492L376.604 133.434H376.663L376.365 129.492Z" fill="#ED1C24"/>
<path d="M376.305 129.552L376.604 133.434L376.365 129.492L376.305 129.552Z" fill="#ED1C24"/>
<path d="M376.305 129.552L376.544 133.434L376.604 133.434L376.305 129.552Z" fill="#ED1C24"/>
<path d="M376.245 129.552L376.484 133.434H376.544L376.305 129.552L376.245 129.552Z" fill="#ED1C24"/>
<path d="M376.186 129.552L376.843 131.224L377.022 133.374L376.484 133.434L376.245 129.552L376.186 129.552Z" fill="#ED1C24"/>
<path d="M376.424 131.224L376.245 129.91H376.365L376.424 131.224Z" fill="#ED1C24"/>
<path d="M391.479 102.674C391.479 102.674 382.637 85.412 370.749 86.4871C370.749 86.4871 373.557 84.2174 377.38 84.9939C381.204 85.7703 392.136 92.5794 394.406 102.435C392.375 103.808 391.479 102.674 391.479 102.674Z" fill="#ED1C24"/>
<path d="M393.152 101.121C399.783 100.762 401.037 108.945 401.037 108.945C402.949 114.619 401.993 117.905 400.201 119.816C398.946 121.13 397.154 121.667 395.362 121.309C393.629 120.951 392.196 119.637 391.598 117.905C391.061 116.352 390.583 114.918 390.284 114.381C389.687 113.186 386.52 101.419 393.152 101.121Z" fill="#ED1C24"/>
<path d="M393.092 103.271C394.347 102.733 395.781 103.092 396.617 104.167C402.591 111.932 399.425 118.8 397.214 119.457C394.884 120.174 391.957 108.706 391.718 105.6C391.599 104.286 392.256 103.629 393.092 103.271Z" fill="#ED1C24"/>
<defs>
<linearGradient id="paint0_linear_1448_32414" x1="228.868" y1="46.0516" x2="244.788" y2="46.0516" gradientUnits="userSpaceOnUse">
<stop stop-color="#DAE3FE"/>
<stop offset="1" stop-color="#E9EFFD"/>
</linearGradient>
<linearGradient id="paint1_linear_1448_32414" x1="217.893" y1="46.0385" x2="256.562" y2="46.0385" gradientUnits="userSpaceOnUse">
<stop stop-color="#DAE3FE"/>
<stop offset="1" stop-color="#E9EFFD"/>
</linearGradient>
<linearGradient id="paint2_linear_1448_32414" x1="170.753" y1="33.575" x2="181.597" y2="33.575" gradientUnits="userSpaceOnUse">
<stop stop-color="#DAE3FE"/>
<stop offset="1" stop-color="#E9EFFD"/>
</linearGradient>
<linearGradient id="paint3_linear_1448_32414" x1="163.101" y1="33.5577" x2="189.789" y2="33.5577" gradientUnits="userSpaceOnUse">
<stop stop-color="#DAE3FE"/>
<stop offset="1" stop-color="#E9EFFD"/>
</linearGradient>
<linearGradient id="paint4_linear_1448_32414" x1="75.6578" y1="230.5" x2="181.829" y2="230.5" gradientUnits="userSpaceOnUse">
<stop stop-color="#FF928E"/>
<stop offset="1" stop-color="#FE7062"/>
</linearGradient>
<linearGradient id="paint5_linear_1448_32414" x1="191.572" y1="213.354" x2="159.606" y2="251.973" gradientUnits="userSpaceOnUse">
<stop stop-color="#E1473D"/>
<stop offset="1" stop-color="#E9605A"/>
</linearGradient>
<linearGradient id="paint6_linear_1448_32414" x1="-772.598" y1="-2531.36" x2="-735.89" y2="-2430.39" gradientUnits="userSpaceOnUse">
<stop stop-color="#FF928E"/>
<stop offset="1" stop-color="#FE7062"/>
</linearGradient>
<linearGradient id="paint7_linear_1448_32414" x1="-836.566" y1="-2508.1" x2="-799.859" y2="-2407.14" gradientUnits="userSpaceOnUse">
<stop stop-color="#FF928E"/>
<stop offset="1" stop-color="#FE7062"/>
</linearGradient>
<linearGradient id="paint8_linear_1448_32414" x1="303.302" y1="194.878" x2="339.344" y2="237.748" gradientUnits="userSpaceOnUse">
<stop stop-color="#FEBBBA"/>
<stop offset="1" stop-color="#FF928E"/>
</linearGradient>
<linearGradient id="paint9_linear_1448_32414" x1="-627.683" y1="-2584.05" x2="-590.975" y2="-2483.08" gradientUnits="userSpaceOnUse">
<stop stop-color="#FF928E"/>
<stop offset="1" stop-color="#FE7062"/>
</linearGradient>
<linearGradient id="paint10_linear_1448_32414" x1="345.338" y1="233.878" x2="273.297" y2="135.302" gradientUnits="userSpaceOnUse">
<stop stop-color="#FEBBBA"/>
<stop offset="1" stop-color="#FF928E"/>
</linearGradient>
<linearGradient id="paint11_linear_1448_32414" x1="389.42" y1="152.2" x2="386.767" y2="128.316" gradientUnits="userSpaceOnUse">
<stop stop-color="#FEBBBA"/>
<stop offset="1" stop-color="#FF928E"/>
</linearGradient>
<linearGradient id="paint12_linear_1448_32414" x1="375.262" y1="131.366" x2="386.957" y2="92.7855" gradientUnits="userSpaceOnUse">
<stop stop-color="#FEBBBA"/>
<stop offset="1" stop-color="#FF928E"/>
</linearGradient>
<linearGradient id="paint13_linear_1448_32414" x1="387.38" y1="135.039" x2="399.075" y2="96.4589" gradientUnits="userSpaceOnUse">
<stop stop-color="#FEBBBA"/>
<stop offset="1" stop-color="#FF928E"/>
</linearGradient>
<linearGradient id="paint14_linear_1448_32414" x1="244.238" y1="-218.496" x2="249.482" y2="-106.019" gradientUnits="userSpaceOnUse">
<stop stop-color="#4F52FF"/>
<stop offset="1" stop-color="#4042E2"/>
</linearGradient>
<linearGradient id="paint15_linear_1448_32414" x1="294.117" y1="-220.821" x2="299.361" y2="-108.345" gradientUnits="userSpaceOnUse">
<stop stop-color="#4F52FF"/>
<stop offset="1" stop-color="#4042E2"/>
</linearGradient>
<linearGradient id="paint16_linear_1448_32414" x1="564.462" y1="-150.241" x2="416.309" y2="84.4891" gradientUnits="userSpaceOnUse">
<stop stop-color="#E1473D"/>
<stop offset="1" stop-color="#E9605A"/>
</linearGradient>
<linearGradient id="paint17_linear_1448_32414" x1="589.449" y1="-134.47" x2="441.297" y2="100.26" gradientUnits="userSpaceOnUse">
<stop stop-color="#E1473D"/>
<stop offset="1" stop-color="#E9605A"/>
</linearGradient>
<linearGradient id="paint18_linear_1448_32414" x1="613.897" y1="-119.039" x2="465.745" y2="115.691" gradientUnits="userSpaceOnUse">
<stop stop-color="#E1473D"/>
<stop offset="1" stop-color="#E9605A"/>
</linearGradient>
</defs>
</svg>
