<svg width="28" height="28" viewBox="0 0 28 28" fill="none" xmlns="http://www.w3.org/2000/svg">
<path d="M24.6541 11.4494C24.2285 11.0098 24.0325 10.4106 24.1193 9.80303L24.1977 9.24863C24.4329 7.58823 23.3241 6.05943 21.6721 5.77103L21.1205 5.67303C20.5185 5.56663 20.0061 5.19703 19.7205 4.65663L19.4573 4.16383C18.6705 2.68263 16.8757 2.09743 15.3693 2.83663L14.8653 3.08023C14.3165 3.34903 13.6837 3.34903 13.1349 3.08023L12.6337 2.83383C11.1273 2.09743 9.33248 2.67983 8.54568 4.16103L8.28248 4.65383C7.99408 5.19423 7.48448 5.56663 6.88248 5.67023L6.33088 5.76823C4.67888 6.05663 3.57008 7.58543 3.80528 9.24583L3.88368 9.80023C3.97048 10.4078 3.77448 11.007 3.34888 11.4466L2.95968 11.847C1.79208 13.051 1.79208 14.941 2.95968 16.145L3.34888 16.5482C3.77448 16.9878 3.97048 17.587 3.88368 18.1946L3.80528 18.749C3.57008 20.4094 4.67888 21.9382 6.33088 22.2266L6.88248 22.3246C7.48448 22.431 7.99688 22.8006 8.28248 23.341L8.54568 23.8338C9.10288 24.881 10.1613 25.4802 11.2701 25.4802C11.7265 25.4802 12.1941 25.3766 12.6337 25.161L13.1349 24.9202C13.6837 24.6514 14.3165 24.6514 14.8653 24.9202L15.3665 25.1666C16.8729 25.903 18.6677 25.3206 19.4545 23.8394L19.7177 23.3466C20.0061 22.8062 20.5157 22.4338 21.1177 22.3302L21.6693 22.2322C23.3213 21.9438 24.4301 20.415 24.1949 18.7546L24.1165 18.2002C24.0297 17.5926 24.2257 16.9934 24.6513 16.5538L25.0405 16.1534C26.2081 14.9494 26.2081 13.0594 25.0405 11.8554L24.6541 11.4494ZM24.2369 15.3722L23.8477 15.7726C23.1813 16.4614 22.8733 17.405 23.0077 18.3542L23.0861 18.9086C23.2373 19.967 22.5289 20.9414 21.4761 21.1262L20.9245 21.2242C19.9781 21.3894 19.1773 21.9718 18.7293 22.8202L18.4661 23.313C17.9649 24.2566 16.8197 24.6318 15.8593 24.1614L15.3581 23.915C14.4957 23.4922 13.5045 23.4922 12.6421 23.915L12.1409 24.1614C11.1805 24.6318 10.0353 24.2594 9.53408 23.313L9.27088 22.8202C8.82008 21.9718 8.01928 21.3894 7.07568 21.2242L6.52408 21.1262C5.47128 20.9414 4.76288 19.967 4.91408 18.9086L4.99248 18.3542C5.12688 17.4022 4.82168 16.4614 4.15248 15.7726L3.76328 15.3694C3.01848 14.5994 3.01848 13.3982 3.76328 12.6282L4.15248 12.2278C4.81888 11.539 5.12688 10.5954 4.99248 9.64623L4.91408 9.09183C4.76288 8.03343 5.47128 7.05903 6.52408 6.87423L7.07568 6.77623C8.02208 6.61103 8.82289 6.02863 9.27088 5.18023L9.53408 4.68743C9.88968 4.01823 10.5645 3.63743 11.2701 3.63743C11.5613 3.63743 11.8581 3.70183 12.1409 3.83903L12.6421 4.08543C13.5045 4.50823 14.4957 4.50823 15.3581 4.08543L15.8593 3.83903C16.8197 3.36863 17.9649 3.74103 18.4661 4.68743L18.7293 5.18023C19.1801 6.02863 19.9809 6.61103 20.9245 6.77623L21.4761 6.87423C22.5289 7.05903 23.2373 8.03343 23.0861 9.09183L23.0077 9.64623C22.8733 10.5982 23.1785 11.539 23.8477 12.2278L24.2369 12.631C24.9817 13.3982 24.9817 14.6022 24.2369 15.3722Z" fill="#ED1C24"/>
<path d="M18.4543 9.54564C18.2359 9.32724 17.8803 9.32724 17.6619 9.54564L9.54466 17.6628C9.32626 17.8812 9.32626 18.2368 9.54466 18.4552C9.65386 18.5644 9.79666 18.6204 9.93946 18.6204C10.0823 18.6204 10.2251 18.5644 10.3343 18.4552L18.4515 10.338C18.6727 10.1196 18.6727 9.76404 18.4543 9.54564Z" fill="#ED1C24"/>
<path d="M11.7237 12.5191C12.3341 12.5191 12.9417 12.2867 13.4065 11.8219C14.3333 10.8951 14.3333 9.38313 13.4065 8.45633C12.4797 7.52953 10.9677 7.52953 10.041 8.45633C9.59015 8.90433 9.34375 9.50353 9.34375 10.1391C9.34375 10.7747 9.59015 11.3739 10.041 11.8219C10.5057 12.2867 11.1133 12.5191 11.7237 12.5191ZM10.8333 9.24873C11.0797 9.00233 11.4017 8.87913 11.7237 8.87913C12.0457 8.87913 12.3677 9.00233 12.6141 9.24873C13.1041 9.73873 13.1041 10.5395 12.6141 11.0295C12.1213 11.5195 11.3233 11.5195 10.8333 11.0295C10.5953 10.7915 10.4637 10.4751 10.4637 10.1391C10.4637 9.80313 10.5953 9.48673 10.8333 9.24873Z" fill="#ED1C24"/>
<path d="M14.5935 16.1786C13.6667 17.1054 13.6667 18.6174 14.5935 19.5443C15.0583 20.0091 15.6659 20.2415 16.2763 20.2415C16.8867 20.2415 17.4943 20.0091 17.9591 19.5443C18.4099 19.0934 18.6563 18.497 18.6563 17.8614C18.6563 17.2258 18.4099 16.6266 17.9591 16.1786C17.0323 15.249 15.5231 15.249 14.5935 16.1786ZM17.1667 18.7518C16.6767 19.2418 15.8759 19.2418 15.3859 18.7518C14.8959 18.2618 14.8959 17.461 15.3859 16.971C15.6323 16.7246 15.9543 16.6014 16.2763 16.6014C16.5983 16.6014 16.9203 16.7246 17.1667 16.971C17.4047 17.209 17.5363 17.5254 17.5363 17.8614C17.5363 18.1974 17.4047 18.5138 17.1667 18.7518Z" fill="#ED1C24"/>
</svg>
